G04 #@! TF.GenerationSoftware,KiCad,Pcbnew,5.0.2+dfsg1-1~bpo9+1*
G04 #@! TF.CreationDate,2020-08-26T14:23:20+01:00*
G04 #@! TF.ProjectId,ncp1402,6e637031-3430-4322-9e6b-696361645f70,rev?*
G04 #@! TF.SameCoordinates,Original*
G04 #@! TF.FileFunction,Soldermask,Bot*
G04 #@! TF.FilePolarity,Negative*
%FSLAX46Y46*%
G04 Gerber Fmt 4.6, Leading zero omitted, Abs format (unit mm)*
G04 Created by KiCad (PCBNEW 5.0.2+dfsg1-1~bpo9+1) date Wed 26 Aug 2020 14:23:20 IST*
%MOMM*%
%LPD*%
G01*
G04 APERTURE LIST*
%ADD10C,0.100000*%
G04 APERTURE END LIST*
D10*
G36*
X134995228Y-81818703D02*
X135150100Y-81882853D01*
X135289481Y-81975985D01*
X135408015Y-82094519D01*
X135501147Y-82233900D01*
X135565297Y-82388772D01*
X135598000Y-82553184D01*
X135598000Y-82720816D01*
X135565297Y-82885228D01*
X135501147Y-83040100D01*
X135408015Y-83179481D01*
X135289481Y-83298015D01*
X135150100Y-83391147D01*
X134995228Y-83455297D01*
X134830816Y-83488000D01*
X134663184Y-83488000D01*
X134498772Y-83455297D01*
X134343900Y-83391147D01*
X134204519Y-83298015D01*
X134085985Y-83179481D01*
X133992853Y-83040100D01*
X133928703Y-82885228D01*
X133896000Y-82720816D01*
X133896000Y-82553184D01*
X133928703Y-82388772D01*
X133992853Y-82233900D01*
X134085985Y-82094519D01*
X134204519Y-81975985D01*
X134343900Y-81882853D01*
X134498772Y-81818703D01*
X134663184Y-81786000D01*
X134830816Y-81786000D01*
X134995228Y-81818703D01*
X134995228Y-81818703D01*
G37*
G36*
X142361228Y-81818703D02*
X142516100Y-81882853D01*
X142655481Y-81975985D01*
X142774015Y-82094519D01*
X142867147Y-82233900D01*
X142931297Y-82388772D01*
X142964000Y-82553184D01*
X142964000Y-82720816D01*
X142931297Y-82885228D01*
X142867147Y-83040100D01*
X142774015Y-83179481D01*
X142655481Y-83298015D01*
X142516100Y-83391147D01*
X142361228Y-83455297D01*
X142196816Y-83488000D01*
X142029184Y-83488000D01*
X141864772Y-83455297D01*
X141709900Y-83391147D01*
X141570519Y-83298015D01*
X141451985Y-83179481D01*
X141358853Y-83040100D01*
X141294703Y-82885228D01*
X141262000Y-82720816D01*
X141262000Y-82553184D01*
X141294703Y-82388772D01*
X141358853Y-82233900D01*
X141451985Y-82094519D01*
X141570519Y-81975985D01*
X141709900Y-81882853D01*
X141864772Y-81818703D01*
X142029184Y-81786000D01*
X142196816Y-81786000D01*
X142361228Y-81818703D01*
X142361228Y-81818703D01*
G37*
G36*
X142964000Y-80988000D02*
X141262000Y-80988000D01*
X141262000Y-79286000D01*
X142964000Y-79286000D01*
X142964000Y-80988000D01*
X142964000Y-80988000D01*
G37*
G36*
X135598000Y-80988000D02*
X133896000Y-80988000D01*
X133896000Y-79286000D01*
X135598000Y-79286000D01*
X135598000Y-80988000D01*
X135598000Y-80988000D01*
G37*
G36*
X146922443Y-77972519D02*
X146988627Y-77979037D01*
X147101853Y-78013384D01*
X147158467Y-78030557D01*
X147297087Y-78104652D01*
X147314991Y-78114222D01*
X147350729Y-78143552D01*
X147452186Y-78226814D01*
X147535448Y-78328271D01*
X147564778Y-78364009D01*
X147564779Y-78364011D01*
X147648443Y-78520533D01*
X147648443Y-78520534D01*
X147699963Y-78690373D01*
X147717359Y-78867000D01*
X147699963Y-79043627D01*
X147665616Y-79156853D01*
X147648443Y-79213467D01*
X147574348Y-79352087D01*
X147564778Y-79369991D01*
X147535448Y-79405729D01*
X147452186Y-79507186D01*
X147350729Y-79590448D01*
X147314991Y-79619778D01*
X147314989Y-79619779D01*
X147158467Y-79703443D01*
X147101853Y-79720616D01*
X146988627Y-79754963D01*
X146922442Y-79761482D01*
X146856260Y-79768000D01*
X146767740Y-79768000D01*
X146701558Y-79761482D01*
X146635373Y-79754963D01*
X146522147Y-79720616D01*
X146465533Y-79703443D01*
X146309011Y-79619779D01*
X146309009Y-79619778D01*
X146273271Y-79590448D01*
X146171814Y-79507186D01*
X146088552Y-79405729D01*
X146059222Y-79369991D01*
X146049652Y-79352087D01*
X145975557Y-79213467D01*
X145958384Y-79156853D01*
X145924037Y-79043627D01*
X145906641Y-78867000D01*
X145924037Y-78690373D01*
X145975557Y-78520534D01*
X145975557Y-78520533D01*
X146059221Y-78364011D01*
X146059222Y-78364009D01*
X146088552Y-78328271D01*
X146171814Y-78226814D01*
X146273271Y-78143552D01*
X146309009Y-78114222D01*
X146326913Y-78104652D01*
X146465533Y-78030557D01*
X146522147Y-78013384D01*
X146635373Y-77979037D01*
X146701557Y-77972519D01*
X146767740Y-77966000D01*
X146856260Y-77966000D01*
X146922443Y-77972519D01*
X146922443Y-77972519D01*
G37*
G36*
X146922443Y-75432519D02*
X146988627Y-75439037D01*
X147101853Y-75473384D01*
X147158467Y-75490557D01*
X147297087Y-75564652D01*
X147314991Y-75574222D01*
X147350729Y-75603552D01*
X147452186Y-75686814D01*
X147535448Y-75788271D01*
X147564778Y-75824009D01*
X147564779Y-75824011D01*
X147648443Y-75980533D01*
X147648443Y-75980534D01*
X147699963Y-76150373D01*
X147717359Y-76327000D01*
X147699963Y-76503627D01*
X147665616Y-76616853D01*
X147648443Y-76673467D01*
X147574348Y-76812087D01*
X147564778Y-76829991D01*
X147535448Y-76865729D01*
X147452186Y-76967186D01*
X147350729Y-77050448D01*
X147314991Y-77079778D01*
X147314989Y-77079779D01*
X147158467Y-77163443D01*
X147101853Y-77180616D01*
X146988627Y-77214963D01*
X146922443Y-77221481D01*
X146856260Y-77228000D01*
X146767740Y-77228000D01*
X146701557Y-77221481D01*
X146635373Y-77214963D01*
X146522147Y-77180616D01*
X146465533Y-77163443D01*
X146309011Y-77079779D01*
X146309009Y-77079778D01*
X146273271Y-77050448D01*
X146171814Y-76967186D01*
X146088552Y-76865729D01*
X146059222Y-76829991D01*
X146049652Y-76812087D01*
X145975557Y-76673467D01*
X145958384Y-76616853D01*
X145924037Y-76503627D01*
X145906641Y-76327000D01*
X145924037Y-76150373D01*
X145975557Y-75980534D01*
X145975557Y-75980533D01*
X146059221Y-75824011D01*
X146059222Y-75824009D01*
X146088552Y-75788271D01*
X146171814Y-75686814D01*
X146273271Y-75603552D01*
X146309009Y-75574222D01*
X146326913Y-75564652D01*
X146465533Y-75490557D01*
X146522147Y-75473384D01*
X146635373Y-75439037D01*
X146701557Y-75432519D01*
X146767740Y-75426000D01*
X146856260Y-75426000D01*
X146922443Y-75432519D01*
X146922443Y-75432519D01*
G37*
G36*
X138265567Y-72715959D02*
X138396072Y-72741918D01*
X138641939Y-72843759D01*
X138862464Y-72991110D01*
X138863215Y-72991612D01*
X139051388Y-73179785D01*
X139051390Y-73179788D01*
X139199241Y-73401061D01*
X139301082Y-73646928D01*
X139353000Y-73907938D01*
X139353000Y-74174062D01*
X139301082Y-74435072D01*
X139199241Y-74680939D01*
X139051890Y-74901464D01*
X139051388Y-74902215D01*
X138863215Y-75090388D01*
X138863212Y-75090390D01*
X138641939Y-75238241D01*
X138396072Y-75340082D01*
X138265567Y-75366041D01*
X138135063Y-75392000D01*
X137868937Y-75392000D01*
X137738433Y-75366041D01*
X137607928Y-75340082D01*
X137362061Y-75238241D01*
X137140788Y-75090390D01*
X137140785Y-75090388D01*
X136952612Y-74902215D01*
X136952110Y-74901464D01*
X136804759Y-74680939D01*
X136702918Y-74435072D01*
X136651000Y-74174062D01*
X136651000Y-73907938D01*
X136702918Y-73646928D01*
X136804759Y-73401061D01*
X136952610Y-73179788D01*
X136952612Y-73179785D01*
X137140785Y-72991612D01*
X137141536Y-72991110D01*
X137362061Y-72843759D01*
X137607928Y-72741918D01*
X137738433Y-72715959D01*
X137868937Y-72690000D01*
X138135063Y-72690000D01*
X138265567Y-72715959D01*
X138265567Y-72715959D01*
G37*
G36*
X143265567Y-72715959D02*
X143396072Y-72741918D01*
X143641939Y-72843759D01*
X143862464Y-72991110D01*
X143863215Y-72991612D01*
X144051388Y-73179785D01*
X144051390Y-73179788D01*
X144199241Y-73401061D01*
X144301082Y-73646928D01*
X144353000Y-73907938D01*
X144353000Y-74174062D01*
X144301082Y-74435072D01*
X144199241Y-74680939D01*
X144051890Y-74901464D01*
X144051388Y-74902215D01*
X143863215Y-75090388D01*
X143863212Y-75090390D01*
X143641939Y-75238241D01*
X143396072Y-75340082D01*
X143265567Y-75366041D01*
X143135063Y-75392000D01*
X142868937Y-75392000D01*
X142738433Y-75366041D01*
X142607928Y-75340082D01*
X142362061Y-75238241D01*
X142140788Y-75090390D01*
X142140785Y-75090388D01*
X141952612Y-74902215D01*
X141952110Y-74901464D01*
X141804759Y-74680939D01*
X141702918Y-74435072D01*
X141651000Y-74174062D01*
X141651000Y-73907938D01*
X141702918Y-73646928D01*
X141804759Y-73401061D01*
X141952610Y-73179788D01*
X141952612Y-73179785D01*
X142140785Y-72991612D01*
X142141536Y-72991110D01*
X142362061Y-72843759D01*
X142607928Y-72741918D01*
X142738433Y-72715959D01*
X142868937Y-72690000D01*
X143135063Y-72690000D01*
X143265567Y-72715959D01*
X143265567Y-72715959D01*
G37*
G36*
X147713000Y-74688000D02*
X145911000Y-74688000D01*
X145911000Y-72886000D01*
X147713000Y-72886000D01*
X147713000Y-74688000D01*
X147713000Y-74688000D01*
G37*
G36*
X135158025Y-69314590D02*
X135309012Y-69360392D01*
X135448165Y-69434770D01*
X135570133Y-69534867D01*
X135670230Y-69656835D01*
X135744608Y-69795988D01*
X135790410Y-69946975D01*
X135805875Y-70104000D01*
X135790410Y-70261025D01*
X135744608Y-70412012D01*
X135670230Y-70551165D01*
X135570133Y-70673133D01*
X135448165Y-70773230D01*
X135309012Y-70847608D01*
X135158025Y-70893410D01*
X135040346Y-70905000D01*
X134961654Y-70905000D01*
X134843975Y-70893410D01*
X134692988Y-70847608D01*
X134553835Y-70773230D01*
X134431867Y-70673133D01*
X134331770Y-70551165D01*
X134257392Y-70412012D01*
X134211590Y-70261025D01*
X134196125Y-70104000D01*
X134211590Y-69946975D01*
X134257392Y-69795988D01*
X134331770Y-69656835D01*
X134431867Y-69534867D01*
X134553835Y-69434770D01*
X134692988Y-69360392D01*
X134843975Y-69314590D01*
X134961654Y-69303000D01*
X135040346Y-69303000D01*
X135158025Y-69314590D01*
X135158025Y-69314590D01*
G37*
G36*
X133262000Y-70905000D02*
X131660000Y-70905000D01*
X131660000Y-69303000D01*
X133262000Y-69303000D01*
X133262000Y-70905000D01*
X133262000Y-70905000D01*
G37*
M02*
