G04 #@! TF.GenerationSoftware,KiCad,Pcbnew,5.0.2+dfsg1-1~bpo9+1*
G04 #@! TF.CreationDate,2020-08-26T14:23:20+01:00*
G04 #@! TF.ProjectId,ncp1402,6e637031-3430-4322-9e6b-696361645f70,rev?*
G04 #@! TF.SameCoordinates,Original*
G04 #@! TF.FileFunction,Legend,Top*
G04 #@! TF.FilePolarity,Positive*
%FSLAX46Y46*%
G04 Gerber Fmt 4.6, Leading zero omitted, Abs format (unit mm)*
G04 Created by KiCad (PCBNEW 5.0.2+dfsg1-1~bpo9+1) date Wed 26 Aug 2020 14:23:20 IST*
%MOMM*%
%LPD*%
G01*
G04 APERTURE LIST*
%ADD10C,0.120000*%
%ADD11C,0.150000*%
G04 APERTURE END LIST*
D10*
G04 #@! TO.C,D1*
X136256660Y-70104000D02*
G75*
G03X136256660Y-70104000I-1255660J0D01*
G01*
X133745340Y-70104000D02*
X133511000Y-70104000D01*
G04 #@! TO.C,C2*
X143838000Y-78832225D02*
X143338000Y-78832225D01*
X143588000Y-78582225D02*
X143588000Y-79082225D01*
X142397000Y-83988000D02*
X141829000Y-83988000D01*
X142631000Y-83948000D02*
X141595000Y-83948000D01*
X142790000Y-83908000D02*
X141436000Y-83908000D01*
X142918000Y-83868000D02*
X141308000Y-83868000D01*
X143028000Y-83828000D02*
X141198000Y-83828000D01*
X143124000Y-83788000D02*
X141102000Y-83788000D01*
X143211000Y-83748000D02*
X141015000Y-83748000D01*
X143291000Y-83708000D02*
X140935000Y-83708000D01*
X141073000Y-83668000D02*
X140862000Y-83668000D01*
X143364000Y-83668000D02*
X143153000Y-83668000D01*
X141073000Y-83628000D02*
X140794000Y-83628000D01*
X143432000Y-83628000D02*
X143153000Y-83628000D01*
X141073000Y-83588000D02*
X140730000Y-83588000D01*
X143496000Y-83588000D02*
X143153000Y-83588000D01*
X141073000Y-83548000D02*
X140670000Y-83548000D01*
X143556000Y-83548000D02*
X143153000Y-83548000D01*
X141073000Y-83508000D02*
X140613000Y-83508000D01*
X143613000Y-83508000D02*
X143153000Y-83508000D01*
X141073000Y-83468000D02*
X140559000Y-83468000D01*
X143667000Y-83468000D02*
X143153000Y-83468000D01*
X141073000Y-83428000D02*
X140508000Y-83428000D01*
X143718000Y-83428000D02*
X143153000Y-83428000D01*
X141073000Y-83388000D02*
X140460000Y-83388000D01*
X143766000Y-83388000D02*
X143153000Y-83388000D01*
X141073000Y-83348000D02*
X140414000Y-83348000D01*
X143812000Y-83348000D02*
X143153000Y-83348000D01*
X141073000Y-83308000D02*
X140370000Y-83308000D01*
X143856000Y-83308000D02*
X143153000Y-83308000D01*
X141073000Y-83268000D02*
X140328000Y-83268000D01*
X143898000Y-83268000D02*
X143153000Y-83268000D01*
X141073000Y-83228000D02*
X140287000Y-83228000D01*
X143939000Y-83228000D02*
X143153000Y-83228000D01*
X141073000Y-83188000D02*
X140249000Y-83188000D01*
X143977000Y-83188000D02*
X143153000Y-83188000D01*
X141073000Y-83148000D02*
X140212000Y-83148000D01*
X144014000Y-83148000D02*
X143153000Y-83148000D01*
X141073000Y-83108000D02*
X140176000Y-83108000D01*
X144050000Y-83108000D02*
X143153000Y-83108000D01*
X141073000Y-83068000D02*
X140142000Y-83068000D01*
X144084000Y-83068000D02*
X143153000Y-83068000D01*
X141073000Y-83028000D02*
X140109000Y-83028000D01*
X144117000Y-83028000D02*
X143153000Y-83028000D01*
X141073000Y-82988000D02*
X140078000Y-82988000D01*
X144148000Y-82988000D02*
X143153000Y-82988000D01*
X141073000Y-82948000D02*
X140048000Y-82948000D01*
X144178000Y-82948000D02*
X143153000Y-82948000D01*
X141073000Y-82908000D02*
X140018000Y-82908000D01*
X144208000Y-82908000D02*
X143153000Y-82908000D01*
X141073000Y-82868000D02*
X139991000Y-82868000D01*
X144235000Y-82868000D02*
X143153000Y-82868000D01*
X141073000Y-82828000D02*
X139964000Y-82828000D01*
X144262000Y-82828000D02*
X143153000Y-82828000D01*
X141073000Y-82788000D02*
X139938000Y-82788000D01*
X144288000Y-82788000D02*
X143153000Y-82788000D01*
X141073000Y-82748000D02*
X139913000Y-82748000D01*
X144313000Y-82748000D02*
X143153000Y-82748000D01*
X141073000Y-82708000D02*
X139889000Y-82708000D01*
X144337000Y-82708000D02*
X143153000Y-82708000D01*
X141073000Y-82668000D02*
X139866000Y-82668000D01*
X144360000Y-82668000D02*
X143153000Y-82668000D01*
X141073000Y-82628000D02*
X139845000Y-82628000D01*
X144381000Y-82628000D02*
X143153000Y-82628000D01*
X141073000Y-82588000D02*
X139823000Y-82588000D01*
X144403000Y-82588000D02*
X143153000Y-82588000D01*
X141073000Y-82548000D02*
X139803000Y-82548000D01*
X144423000Y-82548000D02*
X143153000Y-82548000D01*
X141073000Y-82508000D02*
X139784000Y-82508000D01*
X144442000Y-82508000D02*
X143153000Y-82508000D01*
X141073000Y-82468000D02*
X139765000Y-82468000D01*
X144461000Y-82468000D02*
X143153000Y-82468000D01*
X141073000Y-82428000D02*
X139748000Y-82428000D01*
X144478000Y-82428000D02*
X143153000Y-82428000D01*
X141073000Y-82388000D02*
X139731000Y-82388000D01*
X144495000Y-82388000D02*
X143153000Y-82388000D01*
X141073000Y-82348000D02*
X139715000Y-82348000D01*
X144511000Y-82348000D02*
X143153000Y-82348000D01*
X141073000Y-82308000D02*
X139699000Y-82308000D01*
X144527000Y-82308000D02*
X143153000Y-82308000D01*
X141073000Y-82268000D02*
X139685000Y-82268000D01*
X144541000Y-82268000D02*
X143153000Y-82268000D01*
X141073000Y-82228000D02*
X139671000Y-82228000D01*
X144555000Y-82228000D02*
X143153000Y-82228000D01*
X141073000Y-82188000D02*
X139658000Y-82188000D01*
X144568000Y-82188000D02*
X143153000Y-82188000D01*
X141073000Y-82148000D02*
X139645000Y-82148000D01*
X144581000Y-82148000D02*
X143153000Y-82148000D01*
X141073000Y-82108000D02*
X139633000Y-82108000D01*
X144593000Y-82108000D02*
X143153000Y-82108000D01*
X141073000Y-82067000D02*
X139622000Y-82067000D01*
X144604000Y-82067000D02*
X143153000Y-82067000D01*
X141073000Y-82027000D02*
X139612000Y-82027000D01*
X144614000Y-82027000D02*
X143153000Y-82027000D01*
X141073000Y-81987000D02*
X139602000Y-81987000D01*
X144624000Y-81987000D02*
X143153000Y-81987000D01*
X141073000Y-81947000D02*
X139593000Y-81947000D01*
X144633000Y-81947000D02*
X143153000Y-81947000D01*
X141073000Y-81907000D02*
X139585000Y-81907000D01*
X144641000Y-81907000D02*
X143153000Y-81907000D01*
X141073000Y-81867000D02*
X139577000Y-81867000D01*
X144649000Y-81867000D02*
X143153000Y-81867000D01*
X141073000Y-81827000D02*
X139570000Y-81827000D01*
X144656000Y-81827000D02*
X143153000Y-81827000D01*
X141073000Y-81787000D02*
X139563000Y-81787000D01*
X144663000Y-81787000D02*
X143153000Y-81787000D01*
X141073000Y-81747000D02*
X139557000Y-81747000D01*
X144669000Y-81747000D02*
X143153000Y-81747000D01*
X141073000Y-81707000D02*
X139552000Y-81707000D01*
X144674000Y-81707000D02*
X143153000Y-81707000D01*
X141073000Y-81667000D02*
X139548000Y-81667000D01*
X144678000Y-81667000D02*
X143153000Y-81667000D01*
X141073000Y-81627000D02*
X139544000Y-81627000D01*
X144682000Y-81627000D02*
X143153000Y-81627000D01*
X144686000Y-81587000D02*
X139540000Y-81587000D01*
X144689000Y-81547000D02*
X139537000Y-81547000D01*
X144691000Y-81507000D02*
X139535000Y-81507000D01*
X144692000Y-81467000D02*
X139534000Y-81467000D01*
X144693000Y-81427000D02*
X139533000Y-81427000D01*
X144693000Y-81387000D02*
X139533000Y-81387000D01*
X144733000Y-81387000D02*
G75*
G03X144733000Y-81387000I-2620000J0D01*
G01*
G04 #@! TO.C,C1*
X137367000Y-81387000D02*
G75*
G03X137367000Y-81387000I-2620000J0D01*
G01*
X137327000Y-81387000D02*
X132167000Y-81387000D01*
X137327000Y-81427000D02*
X132167000Y-81427000D01*
X137326000Y-81467000D02*
X132168000Y-81467000D01*
X137325000Y-81507000D02*
X132169000Y-81507000D01*
X137323000Y-81547000D02*
X132171000Y-81547000D01*
X137320000Y-81587000D02*
X132174000Y-81587000D01*
X137316000Y-81627000D02*
X135787000Y-81627000D01*
X133707000Y-81627000D02*
X132178000Y-81627000D01*
X137312000Y-81667000D02*
X135787000Y-81667000D01*
X133707000Y-81667000D02*
X132182000Y-81667000D01*
X137308000Y-81707000D02*
X135787000Y-81707000D01*
X133707000Y-81707000D02*
X132186000Y-81707000D01*
X137303000Y-81747000D02*
X135787000Y-81747000D01*
X133707000Y-81747000D02*
X132191000Y-81747000D01*
X137297000Y-81787000D02*
X135787000Y-81787000D01*
X133707000Y-81787000D02*
X132197000Y-81787000D01*
X137290000Y-81827000D02*
X135787000Y-81827000D01*
X133707000Y-81827000D02*
X132204000Y-81827000D01*
X137283000Y-81867000D02*
X135787000Y-81867000D01*
X133707000Y-81867000D02*
X132211000Y-81867000D01*
X137275000Y-81907000D02*
X135787000Y-81907000D01*
X133707000Y-81907000D02*
X132219000Y-81907000D01*
X137267000Y-81947000D02*
X135787000Y-81947000D01*
X133707000Y-81947000D02*
X132227000Y-81947000D01*
X137258000Y-81987000D02*
X135787000Y-81987000D01*
X133707000Y-81987000D02*
X132236000Y-81987000D01*
X137248000Y-82027000D02*
X135787000Y-82027000D01*
X133707000Y-82027000D02*
X132246000Y-82027000D01*
X137238000Y-82067000D02*
X135787000Y-82067000D01*
X133707000Y-82067000D02*
X132256000Y-82067000D01*
X137227000Y-82108000D02*
X135787000Y-82108000D01*
X133707000Y-82108000D02*
X132267000Y-82108000D01*
X137215000Y-82148000D02*
X135787000Y-82148000D01*
X133707000Y-82148000D02*
X132279000Y-82148000D01*
X137202000Y-82188000D02*
X135787000Y-82188000D01*
X133707000Y-82188000D02*
X132292000Y-82188000D01*
X137189000Y-82228000D02*
X135787000Y-82228000D01*
X133707000Y-82228000D02*
X132305000Y-82228000D01*
X137175000Y-82268000D02*
X135787000Y-82268000D01*
X133707000Y-82268000D02*
X132319000Y-82268000D01*
X137161000Y-82308000D02*
X135787000Y-82308000D01*
X133707000Y-82308000D02*
X132333000Y-82308000D01*
X137145000Y-82348000D02*
X135787000Y-82348000D01*
X133707000Y-82348000D02*
X132349000Y-82348000D01*
X137129000Y-82388000D02*
X135787000Y-82388000D01*
X133707000Y-82388000D02*
X132365000Y-82388000D01*
X137112000Y-82428000D02*
X135787000Y-82428000D01*
X133707000Y-82428000D02*
X132382000Y-82428000D01*
X137095000Y-82468000D02*
X135787000Y-82468000D01*
X133707000Y-82468000D02*
X132399000Y-82468000D01*
X137076000Y-82508000D02*
X135787000Y-82508000D01*
X133707000Y-82508000D02*
X132418000Y-82508000D01*
X137057000Y-82548000D02*
X135787000Y-82548000D01*
X133707000Y-82548000D02*
X132437000Y-82548000D01*
X137037000Y-82588000D02*
X135787000Y-82588000D01*
X133707000Y-82588000D02*
X132457000Y-82588000D01*
X137015000Y-82628000D02*
X135787000Y-82628000D01*
X133707000Y-82628000D02*
X132479000Y-82628000D01*
X136994000Y-82668000D02*
X135787000Y-82668000D01*
X133707000Y-82668000D02*
X132500000Y-82668000D01*
X136971000Y-82708000D02*
X135787000Y-82708000D01*
X133707000Y-82708000D02*
X132523000Y-82708000D01*
X136947000Y-82748000D02*
X135787000Y-82748000D01*
X133707000Y-82748000D02*
X132547000Y-82748000D01*
X136922000Y-82788000D02*
X135787000Y-82788000D01*
X133707000Y-82788000D02*
X132572000Y-82788000D01*
X136896000Y-82828000D02*
X135787000Y-82828000D01*
X133707000Y-82828000D02*
X132598000Y-82828000D01*
X136869000Y-82868000D02*
X135787000Y-82868000D01*
X133707000Y-82868000D02*
X132625000Y-82868000D01*
X136842000Y-82908000D02*
X135787000Y-82908000D01*
X133707000Y-82908000D02*
X132652000Y-82908000D01*
X136812000Y-82948000D02*
X135787000Y-82948000D01*
X133707000Y-82948000D02*
X132682000Y-82948000D01*
X136782000Y-82988000D02*
X135787000Y-82988000D01*
X133707000Y-82988000D02*
X132712000Y-82988000D01*
X136751000Y-83028000D02*
X135787000Y-83028000D01*
X133707000Y-83028000D02*
X132743000Y-83028000D01*
X136718000Y-83068000D02*
X135787000Y-83068000D01*
X133707000Y-83068000D02*
X132776000Y-83068000D01*
X136684000Y-83108000D02*
X135787000Y-83108000D01*
X133707000Y-83108000D02*
X132810000Y-83108000D01*
X136648000Y-83148000D02*
X135787000Y-83148000D01*
X133707000Y-83148000D02*
X132846000Y-83148000D01*
X136611000Y-83188000D02*
X135787000Y-83188000D01*
X133707000Y-83188000D02*
X132883000Y-83188000D01*
X136573000Y-83228000D02*
X135787000Y-83228000D01*
X133707000Y-83228000D02*
X132921000Y-83228000D01*
X136532000Y-83268000D02*
X135787000Y-83268000D01*
X133707000Y-83268000D02*
X132962000Y-83268000D01*
X136490000Y-83308000D02*
X135787000Y-83308000D01*
X133707000Y-83308000D02*
X133004000Y-83308000D01*
X136446000Y-83348000D02*
X135787000Y-83348000D01*
X133707000Y-83348000D02*
X133048000Y-83348000D01*
X136400000Y-83388000D02*
X135787000Y-83388000D01*
X133707000Y-83388000D02*
X133094000Y-83388000D01*
X136352000Y-83428000D02*
X135787000Y-83428000D01*
X133707000Y-83428000D02*
X133142000Y-83428000D01*
X136301000Y-83468000D02*
X135787000Y-83468000D01*
X133707000Y-83468000D02*
X133193000Y-83468000D01*
X136247000Y-83508000D02*
X135787000Y-83508000D01*
X133707000Y-83508000D02*
X133247000Y-83508000D01*
X136190000Y-83548000D02*
X135787000Y-83548000D01*
X133707000Y-83548000D02*
X133304000Y-83548000D01*
X136130000Y-83588000D02*
X135787000Y-83588000D01*
X133707000Y-83588000D02*
X133364000Y-83588000D01*
X136066000Y-83628000D02*
X135787000Y-83628000D01*
X133707000Y-83628000D02*
X133428000Y-83628000D01*
X135998000Y-83668000D02*
X135787000Y-83668000D01*
X133707000Y-83668000D02*
X133496000Y-83668000D01*
X135925000Y-83708000D02*
X133569000Y-83708000D01*
X135845000Y-83748000D02*
X133649000Y-83748000D01*
X135758000Y-83788000D02*
X133736000Y-83788000D01*
X135662000Y-83828000D02*
X133832000Y-83828000D01*
X135552000Y-83868000D02*
X133942000Y-83868000D01*
X135424000Y-83908000D02*
X134070000Y-83908000D01*
X135265000Y-83948000D02*
X134229000Y-83948000D01*
X135031000Y-83988000D02*
X134463000Y-83988000D01*
X136222000Y-78582225D02*
X136222000Y-79082225D01*
X136472000Y-78832225D02*
X135972000Y-78832225D01*
G04 #@! TO.C,J1*
X145482000Y-80197000D02*
X148142000Y-80197000D01*
X145482000Y-75057000D02*
X145482000Y-80197000D01*
X148142000Y-75057000D02*
X148142000Y-80197000D01*
X145482000Y-75057000D02*
X148142000Y-75057000D01*
X145482000Y-73787000D02*
X145482000Y-72457000D01*
X145482000Y-72457000D02*
X146812000Y-72457000D01*
G04 #@! TO.C,L1*
X144972000Y-74041000D02*
G75*
G03X144972000Y-74041000I-4470000J0D01*
G01*
G04 #@! TO.C,U1*
X132196000Y-76794000D02*
X133996000Y-76794000D01*
X133996000Y-73574000D02*
X131546000Y-73574000D01*
G04 #@! TO.C,D1*
D11*
X132992904Y-68300720D02*
X132992904Y-67300720D01*
X133231000Y-67300720D01*
X133373857Y-67348340D01*
X133469095Y-67443578D01*
X133516714Y-67538816D01*
X133564333Y-67729292D01*
X133564333Y-67872149D01*
X133516714Y-68062625D01*
X133469095Y-68157863D01*
X133373857Y-68253101D01*
X133231000Y-68300720D01*
X132992904Y-68300720D01*
X134516714Y-68300720D02*
X133945285Y-68300720D01*
X134231000Y-68300720D02*
X134231000Y-67300720D01*
X134135761Y-67443578D01*
X134040523Y-67538816D01*
X133945285Y-67586435D01*
X130449095Y-70556380D02*
X130449095Y-69556380D01*
X131020523Y-70556380D02*
X130591952Y-69984952D01*
X131020523Y-69556380D02*
X130449095Y-70127809D01*
G04 #@! TO.C,C2*
X146220142Y-81553666D02*
X146267761Y-81601285D01*
X146315380Y-81744142D01*
X146315380Y-81839380D01*
X146267761Y-81982238D01*
X146172523Y-82077476D01*
X146077285Y-82125095D01*
X145886809Y-82172714D01*
X145743952Y-82172714D01*
X145553476Y-82125095D01*
X145458238Y-82077476D01*
X145363000Y-81982238D01*
X145315380Y-81839380D01*
X145315380Y-81744142D01*
X145363000Y-81601285D01*
X145410619Y-81553666D01*
X145410619Y-81172714D02*
X145363000Y-81125095D01*
X145315380Y-81029857D01*
X145315380Y-80791761D01*
X145363000Y-80696523D01*
X145410619Y-80648904D01*
X145505857Y-80601285D01*
X145601095Y-80601285D01*
X145743952Y-80648904D01*
X146315380Y-81220333D01*
X146315380Y-80601285D01*
G04 #@! TO.C,C1*
X138854142Y-81553666D02*
X138901761Y-81601285D01*
X138949380Y-81744142D01*
X138949380Y-81839380D01*
X138901761Y-81982238D01*
X138806523Y-82077476D01*
X138711285Y-82125095D01*
X138520809Y-82172714D01*
X138377952Y-82172714D01*
X138187476Y-82125095D01*
X138092238Y-82077476D01*
X137997000Y-81982238D01*
X137949380Y-81839380D01*
X137949380Y-81744142D01*
X137997000Y-81601285D01*
X138044619Y-81553666D01*
X138949380Y-80601285D02*
X138949380Y-81172714D01*
X138949380Y-80887000D02*
X137949380Y-80887000D01*
X138092238Y-80982238D01*
X138187476Y-81077476D01*
X138235095Y-81172714D01*
G04 #@! TO.C,J1*
X146478666Y-70909380D02*
X146478666Y-71623666D01*
X146431047Y-71766523D01*
X146335809Y-71861761D01*
X146192952Y-71909380D01*
X146097714Y-71909380D01*
X147478666Y-71909380D02*
X146907238Y-71909380D01*
X147192952Y-71909380D02*
X147192952Y-70909380D01*
X147097714Y-71052238D01*
X147002476Y-71147476D01*
X146907238Y-71195095D01*
G04 #@! TO.C,L1*
X140335333Y-80093380D02*
X139859142Y-80093380D01*
X139859142Y-79093380D01*
X141192476Y-80093380D02*
X140621047Y-80093380D01*
X140906761Y-80093380D02*
X140906761Y-79093380D01*
X140811523Y-79236238D01*
X140716285Y-79331476D01*
X140621047Y-79379095D01*
G04 #@! TO.C,U1*
X132334095Y-71736380D02*
X132334095Y-72545904D01*
X132381714Y-72641142D01*
X132429333Y-72688761D01*
X132524571Y-72736380D01*
X132715047Y-72736380D01*
X132810285Y-72688761D01*
X132857904Y-72641142D01*
X132905523Y-72545904D01*
X132905523Y-71736380D01*
X133905523Y-72736380D02*
X133334095Y-72736380D01*
X133619809Y-72736380D02*
X133619809Y-71736380D01*
X133524571Y-71879238D01*
X133429333Y-71974476D01*
X133334095Y-72022095D01*
G04 #@! TD*
M02*
