G04 #@! TF.GenerationSoftware,KiCad,Pcbnew,5.0.2+dfsg1-1~bpo9+1*
G04 #@! TF.CreationDate,2020-08-26T14:23:20+01:00*
G04 #@! TF.ProjectId,ncp1402,6e637031-3430-4322-9e6b-696361645f70,rev?*
G04 #@! TF.SameCoordinates,Original*
G04 #@! TF.FileFunction,Copper,L2,Bot*
G04 #@! TF.FilePolarity,Positive*
%FSLAX46Y46*%
G04 Gerber Fmt 4.6, Leading zero omitted, Abs format (unit mm)*
G04 Created by KiCad (PCBNEW 5.0.2+dfsg1-1~bpo9+1) date Wed 26 Aug 2020 14:23:20 IST*
%MOMM*%
%LPD*%
G01*
G04 APERTURE LIST*
G04 #@! TA.AperFunction,ComponentPad*
%ADD10R,1.500000X1.500000*%
G04 #@! TD*
G04 #@! TA.AperFunction,ComponentPad*
%ADD11O,1.500000X1.500000*%
G04 #@! TD*
G04 #@! TA.AperFunction,ComponentPad*
%ADD12C,1.600000*%
G04 #@! TD*
G04 #@! TA.AperFunction,ComponentPad*
%ADD13R,1.600000X1.600000*%
G04 #@! TD*
G04 #@! TA.AperFunction,ComponentPad*
%ADD14R,1.700000X1.700000*%
G04 #@! TD*
G04 #@! TA.AperFunction,ComponentPad*
%ADD15O,1.700000X1.700000*%
G04 #@! TD*
G04 #@! TA.AperFunction,ComponentPad*
%ADD16C,2.600000*%
G04 #@! TD*
G04 #@! TA.AperFunction,Conductor*
%ADD17C,0.250000*%
G04 #@! TD*
G04 #@! TA.AperFunction,Conductor*
%ADD18C,0.254000*%
G04 #@! TD*
G04 APERTURE END LIST*
D10*
G04 #@! TO.P,D1,1*
G04 #@! TO.N,/Vout*
X132461000Y-70104000D03*
D11*
G04 #@! TO.P,D1,2*
G04 #@! TO.N,Net-(D1-Pad2)*
X135001000Y-70104000D03*
G04 #@! TD*
D12*
G04 #@! TO.P,C2,2*
G04 #@! TO.N,GND*
X142113000Y-82637000D03*
D13*
G04 #@! TO.P,C2,1*
G04 #@! TO.N,/Vout*
X142113000Y-80137000D03*
G04 #@! TD*
G04 #@! TO.P,C1,1*
G04 #@! TO.N,/Vin*
X134747000Y-80137000D03*
D12*
G04 #@! TO.P,C1,2*
G04 #@! TO.N,GND*
X134747000Y-82637000D03*
G04 #@! TD*
D14*
G04 #@! TO.P,J1,1*
G04 #@! TO.N,/Vin*
X146812000Y-73787000D03*
D15*
G04 #@! TO.P,J1,2*
G04 #@! TO.N,/Vout*
X146812000Y-76327000D03*
G04 #@! TO.P,J1,3*
G04 #@! TO.N,GND*
X146812000Y-78867000D03*
G04 #@! TD*
D16*
G04 #@! TO.P,L1,1*
G04 #@! TO.N,/Vin*
X143002000Y-74041000D03*
G04 #@! TO.P,L1,2*
G04 #@! TO.N,Net-(D1-Pad2)*
X138002000Y-74041000D03*
G04 #@! TD*
D17*
G04 #@! TO.N,/Vout*
X142113000Y-80137000D02*
X142113000Y-79011700D01*
X146812000Y-76327000D02*
X145636700Y-76327000D01*
X145636700Y-76327000D02*
X142952000Y-79011700D01*
X142952000Y-79011700D02*
X142113000Y-79011700D01*
G04 #@! TO.N,/Vin*
X134747000Y-80137000D02*
X135872300Y-80137000D01*
X143002000Y-74041000D02*
X141968300Y-74041000D01*
X141968300Y-74041000D02*
X135872300Y-80137000D01*
G04 #@! TD*
D18*
G04 #@! TO.N,GND*
G36*
X131063560Y-70854000D02*
X131112843Y-71101765D01*
X131253191Y-71311809D01*
X131463235Y-71452157D01*
X131711000Y-71501440D01*
X133211000Y-71501440D01*
X133458765Y-71452157D01*
X133668809Y-71311809D01*
X133809157Y-71101765D01*
X133853386Y-70879408D01*
X134002471Y-71102529D01*
X134460600Y-71408641D01*
X134864593Y-71489000D01*
X135137407Y-71489000D01*
X135541400Y-71408641D01*
X135999529Y-71102529D01*
X136305641Y-70644400D01*
X136413133Y-70104000D01*
X136305641Y-69563600D01*
X136207686Y-69417000D01*
X148007000Y-69417000D01*
X148007000Y-72403814D01*
X147909765Y-72338843D01*
X147662000Y-72289560D01*
X145962000Y-72289560D01*
X145714235Y-72338843D01*
X145504191Y-72479191D01*
X145363843Y-72689235D01*
X145314560Y-72937000D01*
X145314560Y-74637000D01*
X145363843Y-74884765D01*
X145504191Y-75094809D01*
X145714235Y-75235157D01*
X145759619Y-75244184D01*
X145741375Y-75256375D01*
X145529526Y-75573429D01*
X145340163Y-75611096D01*
X145088771Y-75779071D01*
X145046371Y-75842527D01*
X142637199Y-78251700D01*
X142187852Y-78251700D01*
X142113000Y-78236811D01*
X142038148Y-78251700D01*
X141816463Y-78295796D01*
X141565071Y-78463771D01*
X141414203Y-78689560D01*
X141313000Y-78689560D01*
X141065235Y-78738843D01*
X140855191Y-78879191D01*
X140714843Y-79089235D01*
X140665560Y-79337000D01*
X140665560Y-80937000D01*
X140714843Y-81184765D01*
X140855191Y-81394809D01*
X141065235Y-81535157D01*
X141299187Y-81581693D01*
X141284861Y-81629255D01*
X142113000Y-82457395D01*
X142941139Y-81629255D01*
X142926813Y-81581693D01*
X143160765Y-81535157D01*
X143370809Y-81394809D01*
X143511157Y-81184765D01*
X143560440Y-80937000D01*
X143560440Y-79478061D01*
X143814611Y-79223890D01*
X145370524Y-79223890D01*
X145540355Y-79633924D01*
X145930642Y-80062183D01*
X146455108Y-80308486D01*
X146685000Y-80187819D01*
X146685000Y-78994000D01*
X145491845Y-78994000D01*
X145370524Y-79223890D01*
X143814611Y-79223890D01*
X145701121Y-77337381D01*
X145741375Y-77397625D01*
X146060478Y-77610843D01*
X145930642Y-77671817D01*
X145540355Y-78100076D01*
X145370524Y-78510110D01*
X145491845Y-78740000D01*
X146685000Y-78740000D01*
X146685000Y-78720000D01*
X146939000Y-78720000D01*
X146939000Y-78740000D01*
X146959000Y-78740000D01*
X146959000Y-78994000D01*
X146939000Y-78994000D01*
X146939000Y-80187819D01*
X147168892Y-80308486D01*
X147693358Y-80062183D01*
X148007001Y-79718025D01*
X148007001Y-83618000D01*
X143197636Y-83618000D01*
X143235622Y-83580014D01*
X143120747Y-83465139D01*
X143366864Y-83391005D01*
X143559965Y-82853777D01*
X143532778Y-82283546D01*
X143366864Y-81882995D01*
X143120745Y-81808861D01*
X142292605Y-82637000D01*
X142306748Y-82651142D01*
X142127142Y-82830748D01*
X142113000Y-82816605D01*
X142098858Y-82830748D01*
X141919252Y-82651142D01*
X141933395Y-82637000D01*
X141105255Y-81808861D01*
X140859136Y-81882995D01*
X140666035Y-82420223D01*
X140693222Y-82990454D01*
X140859136Y-83391005D01*
X141105253Y-83465139D01*
X140990378Y-83580014D01*
X141028364Y-83618000D01*
X135831636Y-83618000D01*
X135869622Y-83580014D01*
X135754747Y-83465139D01*
X136000864Y-83391005D01*
X136193965Y-82853777D01*
X136166778Y-82283546D01*
X136000864Y-81882995D01*
X135754745Y-81808861D01*
X134926605Y-82637000D01*
X134940748Y-82651142D01*
X134761142Y-82830748D01*
X134747000Y-82816605D01*
X134732858Y-82830748D01*
X134553252Y-82651142D01*
X134567395Y-82637000D01*
X133739255Y-81808861D01*
X133493136Y-81882995D01*
X133300035Y-82420223D01*
X133327222Y-82990454D01*
X133493136Y-83391005D01*
X133739253Y-83465139D01*
X133624378Y-83580014D01*
X133662364Y-83618000D01*
X131012000Y-83618000D01*
X131012000Y-79337000D01*
X133299560Y-79337000D01*
X133299560Y-80937000D01*
X133348843Y-81184765D01*
X133489191Y-81394809D01*
X133699235Y-81535157D01*
X133933187Y-81581693D01*
X133918861Y-81629255D01*
X134747000Y-82457395D01*
X135575139Y-81629255D01*
X135560813Y-81581693D01*
X135794765Y-81535157D01*
X136004809Y-81394809D01*
X136145157Y-81184765D01*
X136194440Y-80937000D01*
X136194440Y-80835797D01*
X136420229Y-80684929D01*
X136462631Y-80621470D01*
X141654299Y-75429803D01*
X141905910Y-75681414D01*
X142617105Y-75976000D01*
X143386895Y-75976000D01*
X144098090Y-75681414D01*
X144642414Y-75137090D01*
X144937000Y-74425895D01*
X144937000Y-73656105D01*
X144642414Y-72944910D01*
X144098090Y-72400586D01*
X143386895Y-72106000D01*
X142617105Y-72106000D01*
X141905910Y-72400586D01*
X141361586Y-72944910D01*
X141067000Y-73656105D01*
X141067000Y-73867498D01*
X136025036Y-78909463D01*
X136004809Y-78879191D01*
X135794765Y-78738843D01*
X135547000Y-78689560D01*
X133947000Y-78689560D01*
X133699235Y-78738843D01*
X133489191Y-78879191D01*
X133348843Y-79089235D01*
X133299560Y-79337000D01*
X131012000Y-79337000D01*
X131012000Y-73656105D01*
X136067000Y-73656105D01*
X136067000Y-74425895D01*
X136361586Y-75137090D01*
X136905910Y-75681414D01*
X137617105Y-75976000D01*
X138386895Y-75976000D01*
X139098090Y-75681414D01*
X139642414Y-75137090D01*
X139937000Y-74425895D01*
X139937000Y-73656105D01*
X139642414Y-72944910D01*
X139098090Y-72400586D01*
X138386895Y-72106000D01*
X137617105Y-72106000D01*
X136905910Y-72400586D01*
X136361586Y-72944910D01*
X136067000Y-73656105D01*
X131012000Y-73656105D01*
X131012000Y-69417000D01*
X131063560Y-69417000D01*
X131063560Y-70854000D01*
X131063560Y-70854000D01*
G37*
X131063560Y-70854000D02*
X131112843Y-71101765D01*
X131253191Y-71311809D01*
X131463235Y-71452157D01*
X131711000Y-71501440D01*
X133211000Y-71501440D01*
X133458765Y-71452157D01*
X133668809Y-71311809D01*
X133809157Y-71101765D01*
X133853386Y-70879408D01*
X134002471Y-71102529D01*
X134460600Y-71408641D01*
X134864593Y-71489000D01*
X135137407Y-71489000D01*
X135541400Y-71408641D01*
X135999529Y-71102529D01*
X136305641Y-70644400D01*
X136413133Y-70104000D01*
X136305641Y-69563600D01*
X136207686Y-69417000D01*
X148007000Y-69417000D01*
X148007000Y-72403814D01*
X147909765Y-72338843D01*
X147662000Y-72289560D01*
X145962000Y-72289560D01*
X145714235Y-72338843D01*
X145504191Y-72479191D01*
X145363843Y-72689235D01*
X145314560Y-72937000D01*
X145314560Y-74637000D01*
X145363843Y-74884765D01*
X145504191Y-75094809D01*
X145714235Y-75235157D01*
X145759619Y-75244184D01*
X145741375Y-75256375D01*
X145529526Y-75573429D01*
X145340163Y-75611096D01*
X145088771Y-75779071D01*
X145046371Y-75842527D01*
X142637199Y-78251700D01*
X142187852Y-78251700D01*
X142113000Y-78236811D01*
X142038148Y-78251700D01*
X141816463Y-78295796D01*
X141565071Y-78463771D01*
X141414203Y-78689560D01*
X141313000Y-78689560D01*
X141065235Y-78738843D01*
X140855191Y-78879191D01*
X140714843Y-79089235D01*
X140665560Y-79337000D01*
X140665560Y-80937000D01*
X140714843Y-81184765D01*
X140855191Y-81394809D01*
X141065235Y-81535157D01*
X141299187Y-81581693D01*
X141284861Y-81629255D01*
X142113000Y-82457395D01*
X142941139Y-81629255D01*
X142926813Y-81581693D01*
X143160765Y-81535157D01*
X143370809Y-81394809D01*
X143511157Y-81184765D01*
X143560440Y-80937000D01*
X143560440Y-79478061D01*
X143814611Y-79223890D01*
X145370524Y-79223890D01*
X145540355Y-79633924D01*
X145930642Y-80062183D01*
X146455108Y-80308486D01*
X146685000Y-80187819D01*
X146685000Y-78994000D01*
X145491845Y-78994000D01*
X145370524Y-79223890D01*
X143814611Y-79223890D01*
X145701121Y-77337381D01*
X145741375Y-77397625D01*
X146060478Y-77610843D01*
X145930642Y-77671817D01*
X145540355Y-78100076D01*
X145370524Y-78510110D01*
X145491845Y-78740000D01*
X146685000Y-78740000D01*
X146685000Y-78720000D01*
X146939000Y-78720000D01*
X146939000Y-78740000D01*
X146959000Y-78740000D01*
X146959000Y-78994000D01*
X146939000Y-78994000D01*
X146939000Y-80187819D01*
X147168892Y-80308486D01*
X147693358Y-80062183D01*
X148007001Y-79718025D01*
X148007001Y-83618000D01*
X143197636Y-83618000D01*
X143235622Y-83580014D01*
X143120747Y-83465139D01*
X143366864Y-83391005D01*
X143559965Y-82853777D01*
X143532778Y-82283546D01*
X143366864Y-81882995D01*
X143120745Y-81808861D01*
X142292605Y-82637000D01*
X142306748Y-82651142D01*
X142127142Y-82830748D01*
X142113000Y-82816605D01*
X142098858Y-82830748D01*
X141919252Y-82651142D01*
X141933395Y-82637000D01*
X141105255Y-81808861D01*
X140859136Y-81882995D01*
X140666035Y-82420223D01*
X140693222Y-82990454D01*
X140859136Y-83391005D01*
X141105253Y-83465139D01*
X140990378Y-83580014D01*
X141028364Y-83618000D01*
X135831636Y-83618000D01*
X135869622Y-83580014D01*
X135754747Y-83465139D01*
X136000864Y-83391005D01*
X136193965Y-82853777D01*
X136166778Y-82283546D01*
X136000864Y-81882995D01*
X135754745Y-81808861D01*
X134926605Y-82637000D01*
X134940748Y-82651142D01*
X134761142Y-82830748D01*
X134747000Y-82816605D01*
X134732858Y-82830748D01*
X134553252Y-82651142D01*
X134567395Y-82637000D01*
X133739255Y-81808861D01*
X133493136Y-81882995D01*
X133300035Y-82420223D01*
X133327222Y-82990454D01*
X133493136Y-83391005D01*
X133739253Y-83465139D01*
X133624378Y-83580014D01*
X133662364Y-83618000D01*
X131012000Y-83618000D01*
X131012000Y-79337000D01*
X133299560Y-79337000D01*
X133299560Y-80937000D01*
X133348843Y-81184765D01*
X133489191Y-81394809D01*
X133699235Y-81535157D01*
X133933187Y-81581693D01*
X133918861Y-81629255D01*
X134747000Y-82457395D01*
X135575139Y-81629255D01*
X135560813Y-81581693D01*
X135794765Y-81535157D01*
X136004809Y-81394809D01*
X136145157Y-81184765D01*
X136194440Y-80937000D01*
X136194440Y-80835797D01*
X136420229Y-80684929D01*
X136462631Y-80621470D01*
X141654299Y-75429803D01*
X141905910Y-75681414D01*
X142617105Y-75976000D01*
X143386895Y-75976000D01*
X144098090Y-75681414D01*
X144642414Y-75137090D01*
X144937000Y-74425895D01*
X144937000Y-73656105D01*
X144642414Y-72944910D01*
X144098090Y-72400586D01*
X143386895Y-72106000D01*
X142617105Y-72106000D01*
X141905910Y-72400586D01*
X141361586Y-72944910D01*
X141067000Y-73656105D01*
X141067000Y-73867498D01*
X136025036Y-78909463D01*
X136004809Y-78879191D01*
X135794765Y-78738843D01*
X135547000Y-78689560D01*
X133947000Y-78689560D01*
X133699235Y-78738843D01*
X133489191Y-78879191D01*
X133348843Y-79089235D01*
X133299560Y-79337000D01*
X131012000Y-79337000D01*
X131012000Y-73656105D01*
X136067000Y-73656105D01*
X136067000Y-74425895D01*
X136361586Y-75137090D01*
X136905910Y-75681414D01*
X137617105Y-75976000D01*
X138386895Y-75976000D01*
X139098090Y-75681414D01*
X139642414Y-75137090D01*
X139937000Y-74425895D01*
X139937000Y-73656105D01*
X139642414Y-72944910D01*
X139098090Y-72400586D01*
X138386895Y-72106000D01*
X137617105Y-72106000D01*
X136905910Y-72400586D01*
X136361586Y-72944910D01*
X136067000Y-73656105D01*
X131012000Y-73656105D01*
X131012000Y-69417000D01*
X131063560Y-69417000D01*
X131063560Y-70854000D01*
G04 #@! TD*
M02*
