G04 #@! TF.GenerationSoftware,KiCad,Pcbnew,5.0.2+dfsg1-1~bpo9+1*
G04 #@! TF.CreationDate,2020-08-17T13:34:05+01:00*
G04 #@! TF.ProjectId,nrf24l01-rpi,6e726632-346c-4303-912d-7270692e6b69,rev?*
G04 #@! TF.SameCoordinates,Original*
G04 #@! TF.FileFunction,Soldermask,Bot*
G04 #@! TF.FilePolarity,Negative*
%FSLAX46Y46*%
G04 Gerber Fmt 4.6, Leading zero omitted, Abs format (unit mm)*
G04 Created by KiCad (PCBNEW 5.0.2+dfsg1-1~bpo9+1) date Mon 17 Aug 2020 13:34:05 IST*
%MOMM*%
%LPD*%
G01*
G04 APERTURE LIST*
%ADD10C,0.100000*%
G04 APERTURE END LIST*
D10*
G36*
X87907396Y-110591546D02*
X88080466Y-110663234D01*
X88236230Y-110767312D01*
X88368688Y-110899770D01*
X88472766Y-111055534D01*
X88544454Y-111228604D01*
X88581000Y-111412333D01*
X88581000Y-111599667D01*
X88544454Y-111783396D01*
X88472766Y-111956466D01*
X88368688Y-112112230D01*
X88236230Y-112244688D01*
X88080466Y-112348766D01*
X87907396Y-112420454D01*
X87723667Y-112457000D01*
X87536333Y-112457000D01*
X87352604Y-112420454D01*
X87179534Y-112348766D01*
X87023770Y-112244688D01*
X86891312Y-112112230D01*
X86787234Y-111956466D01*
X86715546Y-111783396D01*
X86679000Y-111599667D01*
X86679000Y-111412333D01*
X86715546Y-111228604D01*
X86787234Y-111055534D01*
X86891312Y-110899770D01*
X87023770Y-110767312D01*
X87179534Y-110663234D01*
X87352604Y-110591546D01*
X87536333Y-110555000D01*
X87723667Y-110555000D01*
X87907396Y-110591546D01*
X87907396Y-110591546D01*
G37*
G36*
X96455000Y-112457000D02*
X94553000Y-112457000D01*
X94553000Y-110555000D01*
X96455000Y-110555000D01*
X96455000Y-112457000D01*
X96455000Y-112457000D01*
G37*
G36*
X98321396Y-110591546D02*
X98494466Y-110663234D01*
X98650230Y-110767312D01*
X98782688Y-110899770D01*
X98886766Y-111055534D01*
X98958454Y-111228604D01*
X98995000Y-111412333D01*
X98995000Y-111599667D01*
X98958454Y-111783396D01*
X98886766Y-111956466D01*
X98782688Y-112112230D01*
X98650230Y-112244688D01*
X98494466Y-112348766D01*
X98321396Y-112420454D01*
X98137667Y-112457000D01*
X97950333Y-112457000D01*
X97766604Y-112420454D01*
X97593534Y-112348766D01*
X97437770Y-112244688D01*
X97305312Y-112112230D01*
X97201234Y-111956466D01*
X97129546Y-111783396D01*
X97093000Y-111599667D01*
X97093000Y-111412333D01*
X97129546Y-111228604D01*
X97201234Y-111055534D01*
X97305312Y-110899770D01*
X97437770Y-110767312D01*
X97593534Y-110663234D01*
X97766604Y-110591546D01*
X97950333Y-110555000D01*
X98137667Y-110555000D01*
X98321396Y-110591546D01*
X98321396Y-110591546D01*
G37*
G36*
X86041000Y-112457000D02*
X84139000Y-112457000D01*
X84139000Y-110555000D01*
X86041000Y-110555000D01*
X86041000Y-112457000D01*
X86041000Y-112457000D01*
G37*
G36*
X80131228Y-107258703D02*
X80286100Y-107322853D01*
X80425481Y-107415985D01*
X80544015Y-107534519D01*
X80637147Y-107673900D01*
X80701297Y-107828772D01*
X80734000Y-107993184D01*
X80734000Y-108160816D01*
X80701297Y-108325228D01*
X80637147Y-108480100D01*
X80544015Y-108619481D01*
X80425481Y-108738015D01*
X80286100Y-108831147D01*
X80131228Y-108895297D01*
X79966816Y-108928000D01*
X79799184Y-108928000D01*
X79634772Y-108895297D01*
X79479900Y-108831147D01*
X79340519Y-108738015D01*
X79221985Y-108619481D01*
X79128853Y-108480100D01*
X79064703Y-108325228D01*
X79032000Y-108160816D01*
X79032000Y-107993184D01*
X79064703Y-107828772D01*
X79128853Y-107673900D01*
X79221985Y-107534519D01*
X79340519Y-107415985D01*
X79479900Y-107322853D01*
X79634772Y-107258703D01*
X79799184Y-107226000D01*
X79966816Y-107226000D01*
X80131228Y-107258703D01*
X80131228Y-107258703D01*
G37*
G36*
X102528821Y-107111313D02*
X102528824Y-107111314D01*
X102528825Y-107111314D01*
X102689239Y-107159975D01*
X102689241Y-107159976D01*
X102689244Y-107159977D01*
X102837078Y-107238995D01*
X102966659Y-107345341D01*
X103073005Y-107474922D01*
X103152023Y-107622756D01*
X103152024Y-107622759D01*
X103152025Y-107622761D01*
X103200686Y-107783175D01*
X103200687Y-107783179D01*
X103217117Y-107950000D01*
X103200687Y-108116821D01*
X103152023Y-108277244D01*
X103073005Y-108425078D01*
X102966659Y-108554659D01*
X102837078Y-108661005D01*
X102689244Y-108740023D01*
X102689241Y-108740024D01*
X102689239Y-108740025D01*
X102528825Y-108788686D01*
X102528824Y-108788686D01*
X102528821Y-108788687D01*
X102403804Y-108801000D01*
X102320196Y-108801000D01*
X102195179Y-108788687D01*
X102195176Y-108788686D01*
X102195175Y-108788686D01*
X102034761Y-108740025D01*
X102034759Y-108740024D01*
X102034756Y-108740023D01*
X101886922Y-108661005D01*
X101757341Y-108554659D01*
X101650995Y-108425078D01*
X101571977Y-108277244D01*
X101523313Y-108116821D01*
X101506883Y-107950000D01*
X101523313Y-107783179D01*
X101523314Y-107783175D01*
X101571975Y-107622761D01*
X101571976Y-107622759D01*
X101571977Y-107622756D01*
X101650995Y-107474922D01*
X101757341Y-107345341D01*
X101886922Y-107238995D01*
X102034756Y-107159977D01*
X102034759Y-107159976D01*
X102034761Y-107159975D01*
X102195175Y-107111314D01*
X102195176Y-107111314D01*
X102195179Y-107111313D01*
X102320196Y-107099000D01*
X102403804Y-107099000D01*
X102528821Y-107111313D01*
X102528821Y-107111313D01*
G37*
G36*
X92613890Y-103514017D02*
X92732361Y-103563089D01*
X92838992Y-103634338D01*
X92929662Y-103725008D01*
X93000911Y-103831639D01*
X93049983Y-103950110D01*
X93075000Y-104075881D01*
X93075000Y-104204119D01*
X93049983Y-104329890D01*
X93000911Y-104448361D01*
X92929662Y-104554992D01*
X92838992Y-104645662D01*
X92732361Y-104716911D01*
X92613890Y-104765983D01*
X92488119Y-104791000D01*
X92359881Y-104791000D01*
X92234110Y-104765983D01*
X92115639Y-104716911D01*
X92009008Y-104645662D01*
X91918338Y-104554992D01*
X91847089Y-104448361D01*
X91798017Y-104329890D01*
X91773000Y-104204119D01*
X91773000Y-104075881D01*
X91798017Y-103950110D01*
X91847089Y-103831639D01*
X91918338Y-103725008D01*
X92009008Y-103634338D01*
X92115639Y-103563089D01*
X92234110Y-103514017D01*
X92359881Y-103489000D01*
X92488119Y-103489000D01*
X92613890Y-103514017D01*
X92613890Y-103514017D01*
G37*
G36*
X91075000Y-104791000D02*
X89773000Y-104791000D01*
X89773000Y-103489000D01*
X91075000Y-103489000D01*
X91075000Y-104791000D01*
X91075000Y-104791000D01*
G37*
G36*
X80049821Y-99618313D02*
X80049824Y-99618314D01*
X80049825Y-99618314D01*
X80210239Y-99666975D01*
X80210241Y-99666976D01*
X80210244Y-99666977D01*
X80358078Y-99745995D01*
X80487659Y-99852341D01*
X80594005Y-99981922D01*
X80673023Y-100129756D01*
X80721687Y-100290179D01*
X80738117Y-100457000D01*
X80721687Y-100623821D01*
X80721686Y-100623824D01*
X80721686Y-100623825D01*
X80688538Y-100733100D01*
X80673023Y-100784244D01*
X80594005Y-100932078D01*
X80487659Y-101061659D01*
X80358078Y-101168005D01*
X80210244Y-101247023D01*
X80210241Y-101247024D01*
X80210239Y-101247025D01*
X80049825Y-101295686D01*
X80049824Y-101295686D01*
X80049821Y-101295687D01*
X79924804Y-101308000D01*
X79841196Y-101308000D01*
X79716179Y-101295687D01*
X79716176Y-101295686D01*
X79716175Y-101295686D01*
X79555761Y-101247025D01*
X79555759Y-101247024D01*
X79555756Y-101247023D01*
X79407922Y-101168005D01*
X79278341Y-101061659D01*
X79171995Y-100932078D01*
X79092977Y-100784244D01*
X79077463Y-100733100D01*
X79044314Y-100623825D01*
X79044314Y-100623824D01*
X79044313Y-100623821D01*
X79027883Y-100457000D01*
X79044313Y-100290179D01*
X79092977Y-100129756D01*
X79171995Y-99981922D01*
X79278341Y-99852341D01*
X79407922Y-99745995D01*
X79555756Y-99666977D01*
X79555759Y-99666976D01*
X79555761Y-99666975D01*
X79716175Y-99618314D01*
X79716176Y-99618314D01*
X79716179Y-99618313D01*
X79841196Y-99606000D01*
X79924804Y-99606000D01*
X80049821Y-99618313D01*
X80049821Y-99618313D01*
G37*
G36*
X102610228Y-99511703D02*
X102765100Y-99575853D01*
X102904481Y-99668985D01*
X103023015Y-99787519D01*
X103116147Y-99926900D01*
X103180297Y-100081772D01*
X103213000Y-100246184D01*
X103213000Y-100413816D01*
X103180297Y-100578228D01*
X103116147Y-100733100D01*
X103023015Y-100872481D01*
X102904481Y-100991015D01*
X102765100Y-101084147D01*
X102610228Y-101148297D01*
X102445816Y-101181000D01*
X102278184Y-101181000D01*
X102113772Y-101148297D01*
X101958900Y-101084147D01*
X101819519Y-100991015D01*
X101700985Y-100872481D01*
X101607853Y-100733100D01*
X101543703Y-100578228D01*
X101511000Y-100413816D01*
X101511000Y-100246184D01*
X101543703Y-100081772D01*
X101607853Y-99926900D01*
X101700985Y-99787519D01*
X101819519Y-99668985D01*
X101958900Y-99575853D01*
X102113772Y-99511703D01*
X102278184Y-99479000D01*
X102445816Y-99479000D01*
X102610228Y-99511703D01*
X102610228Y-99511703D01*
G37*
G36*
X98818000Y-97929000D02*
X97016000Y-97929000D01*
X97016000Y-96127000D01*
X98818000Y-96127000D01*
X98818000Y-97929000D01*
X98818000Y-97929000D01*
G37*
G36*
X95487443Y-96133519D02*
X95553627Y-96140037D01*
X95665499Y-96173973D01*
X95723467Y-96191557D01*
X95862087Y-96265652D01*
X95879991Y-96275222D01*
X95915729Y-96304552D01*
X96017186Y-96387814D01*
X96100448Y-96489271D01*
X96129778Y-96525009D01*
X96129779Y-96525011D01*
X96213443Y-96681533D01*
X96213443Y-96681534D01*
X96264963Y-96851373D01*
X96282359Y-97028000D01*
X96264963Y-97204627D01*
X96230616Y-97317853D01*
X96213443Y-97374467D01*
X96139348Y-97513087D01*
X96129778Y-97530991D01*
X96100448Y-97566729D01*
X96017186Y-97668186D01*
X95915729Y-97751448D01*
X95879991Y-97780778D01*
X95879989Y-97780779D01*
X95723467Y-97864443D01*
X95666853Y-97881616D01*
X95553627Y-97915963D01*
X95487442Y-97922482D01*
X95421260Y-97929000D01*
X95332740Y-97929000D01*
X95266558Y-97922482D01*
X95200373Y-97915963D01*
X95087147Y-97881616D01*
X95030533Y-97864443D01*
X94874011Y-97780779D01*
X94874009Y-97780778D01*
X94838271Y-97751448D01*
X94736814Y-97668186D01*
X94653552Y-97566729D01*
X94624222Y-97530991D01*
X94614652Y-97513087D01*
X94540557Y-97374467D01*
X94523384Y-97317853D01*
X94489037Y-97204627D01*
X94471641Y-97028000D01*
X94489037Y-96851373D01*
X94540557Y-96681534D01*
X94540557Y-96681533D01*
X94624221Y-96525011D01*
X94624222Y-96525009D01*
X94653552Y-96489271D01*
X94736814Y-96387814D01*
X94838271Y-96304552D01*
X94874009Y-96275222D01*
X94891913Y-96265652D01*
X95030533Y-96191557D01*
X95088501Y-96173973D01*
X95200373Y-96140037D01*
X95266557Y-96133519D01*
X95332740Y-96127000D01*
X95421260Y-96127000D01*
X95487443Y-96133519D01*
X95487443Y-96133519D01*
G37*
G36*
X116312565Y-94493389D02*
X116503834Y-94572615D01*
X116675976Y-94687637D01*
X116822363Y-94834024D01*
X116937385Y-95006166D01*
X117016611Y-95197435D01*
X117057000Y-95400484D01*
X117057000Y-95607516D01*
X117016611Y-95810565D01*
X116937385Y-96001834D01*
X116822363Y-96173976D01*
X116675976Y-96320363D01*
X116503834Y-96435385D01*
X116312565Y-96514611D01*
X116109516Y-96555000D01*
X115902484Y-96555000D01*
X115699435Y-96514611D01*
X115508166Y-96435385D01*
X115336024Y-96320363D01*
X115189637Y-96173976D01*
X115074615Y-96001834D01*
X114995389Y-95810565D01*
X114955000Y-95607516D01*
X114955000Y-95400484D01*
X114995389Y-95197435D01*
X115074615Y-95006166D01*
X115189637Y-94834024D01*
X115336024Y-94687637D01*
X115508166Y-94572615D01*
X115699435Y-94493389D01*
X115902484Y-94453000D01*
X116109516Y-94453000D01*
X116312565Y-94493389D01*
X116312565Y-94493389D01*
G37*
G36*
X111812565Y-94493389D02*
X112003834Y-94572615D01*
X112175976Y-94687637D01*
X112322363Y-94834024D01*
X112437385Y-95006166D01*
X112516611Y-95197435D01*
X112557000Y-95400484D01*
X112557000Y-95607516D01*
X112516611Y-95810565D01*
X112437385Y-96001834D01*
X112322363Y-96173976D01*
X112175976Y-96320363D01*
X112003834Y-96435385D01*
X111812565Y-96514611D01*
X111609516Y-96555000D01*
X111402484Y-96555000D01*
X111199435Y-96514611D01*
X111008166Y-96435385D01*
X110836024Y-96320363D01*
X110689637Y-96173976D01*
X110574615Y-96001834D01*
X110495389Y-95810565D01*
X110455000Y-95607516D01*
X110455000Y-95400484D01*
X110495389Y-95197435D01*
X110574615Y-95006166D01*
X110689637Y-94834024D01*
X110836024Y-94687637D01*
X111008166Y-94572615D01*
X111199435Y-94493389D01*
X111402484Y-94453000D01*
X111609516Y-94453000D01*
X111812565Y-94493389D01*
X111812565Y-94493389D01*
G37*
G36*
X98027442Y-93593518D02*
X98093627Y-93600037D01*
X98206853Y-93634384D01*
X98263467Y-93651557D01*
X98402087Y-93725652D01*
X98419991Y-93735222D01*
X98455729Y-93764552D01*
X98557186Y-93847814D01*
X98640448Y-93949271D01*
X98669778Y-93985009D01*
X98669779Y-93985011D01*
X98753443Y-94141533D01*
X98753443Y-94141534D01*
X98804963Y-94311373D01*
X98822359Y-94488000D01*
X98804963Y-94664627D01*
X98797983Y-94687637D01*
X98753443Y-94834467D01*
X98679348Y-94973087D01*
X98669778Y-94990991D01*
X98657325Y-95006165D01*
X98557186Y-95128186D01*
X98455729Y-95211448D01*
X98419991Y-95240778D01*
X98419989Y-95240779D01*
X98263467Y-95324443D01*
X98206853Y-95341616D01*
X98093627Y-95375963D01*
X98027443Y-95382481D01*
X97961260Y-95389000D01*
X97872740Y-95389000D01*
X97806557Y-95382481D01*
X97740373Y-95375963D01*
X97627147Y-95341616D01*
X97570533Y-95324443D01*
X97414011Y-95240779D01*
X97414009Y-95240778D01*
X97378271Y-95211448D01*
X97276814Y-95128186D01*
X97176675Y-95006165D01*
X97164222Y-94990991D01*
X97154652Y-94973087D01*
X97080557Y-94834467D01*
X97036017Y-94687637D01*
X97029037Y-94664627D01*
X97011641Y-94488000D01*
X97029037Y-94311373D01*
X97080557Y-94141534D01*
X97080557Y-94141533D01*
X97164221Y-93985011D01*
X97164222Y-93985009D01*
X97193552Y-93949271D01*
X97276814Y-93847814D01*
X97378271Y-93764552D01*
X97414009Y-93735222D01*
X97431913Y-93725652D01*
X97570533Y-93651557D01*
X97627147Y-93634384D01*
X97740373Y-93600037D01*
X97806558Y-93593518D01*
X97872740Y-93587000D01*
X97961260Y-93587000D01*
X98027442Y-93593518D01*
X98027442Y-93593518D01*
G37*
G36*
X95487442Y-93593518D02*
X95553627Y-93600037D01*
X95666853Y-93634384D01*
X95723467Y-93651557D01*
X95862087Y-93725652D01*
X95879991Y-93735222D01*
X95915729Y-93764552D01*
X96017186Y-93847814D01*
X96100448Y-93949271D01*
X96129778Y-93985009D01*
X96129779Y-93985011D01*
X96213443Y-94141533D01*
X96213443Y-94141534D01*
X96264963Y-94311373D01*
X96282359Y-94488000D01*
X96264963Y-94664627D01*
X96257983Y-94687637D01*
X96213443Y-94834467D01*
X96139348Y-94973087D01*
X96129778Y-94990991D01*
X96117325Y-95006165D01*
X96017186Y-95128186D01*
X95915729Y-95211448D01*
X95879991Y-95240778D01*
X95879989Y-95240779D01*
X95723467Y-95324443D01*
X95666853Y-95341616D01*
X95553627Y-95375963D01*
X95487443Y-95382481D01*
X95421260Y-95389000D01*
X95332740Y-95389000D01*
X95266557Y-95382481D01*
X95200373Y-95375963D01*
X95087147Y-95341616D01*
X95030533Y-95324443D01*
X94874011Y-95240779D01*
X94874009Y-95240778D01*
X94838271Y-95211448D01*
X94736814Y-95128186D01*
X94636675Y-95006165D01*
X94624222Y-94990991D01*
X94614652Y-94973087D01*
X94540557Y-94834467D01*
X94496017Y-94687637D01*
X94489037Y-94664627D01*
X94471641Y-94488000D01*
X94489037Y-94311373D01*
X94540557Y-94141534D01*
X94540557Y-94141533D01*
X94624221Y-93985011D01*
X94624222Y-93985009D01*
X94653552Y-93949271D01*
X94736814Y-93847814D01*
X94838271Y-93764552D01*
X94874009Y-93735222D01*
X94891913Y-93725652D01*
X95030533Y-93651557D01*
X95087147Y-93634384D01*
X95200373Y-93600037D01*
X95266558Y-93593518D01*
X95332740Y-93587000D01*
X95421260Y-93587000D01*
X95487442Y-93593518D01*
X95487442Y-93593518D01*
G37*
G36*
X98027442Y-91053518D02*
X98093627Y-91060037D01*
X98206853Y-91094384D01*
X98263467Y-91111557D01*
X98402087Y-91185652D01*
X98419991Y-91195222D01*
X98455729Y-91224552D01*
X98557186Y-91307814D01*
X98640448Y-91409271D01*
X98669778Y-91445009D01*
X98669779Y-91445011D01*
X98753443Y-91601533D01*
X98753443Y-91601534D01*
X98804963Y-91771373D01*
X98822359Y-91948000D01*
X98804963Y-92124627D01*
X98770616Y-92237853D01*
X98753443Y-92294467D01*
X98679348Y-92433087D01*
X98669778Y-92450991D01*
X98640448Y-92486729D01*
X98557186Y-92588186D01*
X98455729Y-92671448D01*
X98419991Y-92700778D01*
X98419989Y-92700779D01*
X98263467Y-92784443D01*
X98206853Y-92801616D01*
X98093627Y-92835963D01*
X98027442Y-92842482D01*
X97961260Y-92849000D01*
X97872740Y-92849000D01*
X97806558Y-92842482D01*
X97740373Y-92835963D01*
X97627147Y-92801616D01*
X97570533Y-92784443D01*
X97414011Y-92700779D01*
X97414009Y-92700778D01*
X97378271Y-92671448D01*
X97276814Y-92588186D01*
X97193552Y-92486729D01*
X97164222Y-92450991D01*
X97154652Y-92433087D01*
X97080557Y-92294467D01*
X97063384Y-92237853D01*
X97029037Y-92124627D01*
X97011641Y-91948000D01*
X97029037Y-91771373D01*
X97080557Y-91601534D01*
X97080557Y-91601533D01*
X97164221Y-91445011D01*
X97164222Y-91445009D01*
X97193552Y-91409271D01*
X97276814Y-91307814D01*
X97378271Y-91224552D01*
X97414009Y-91195222D01*
X97431913Y-91185652D01*
X97570533Y-91111557D01*
X97627147Y-91094384D01*
X97740373Y-91060037D01*
X97806558Y-91053518D01*
X97872740Y-91047000D01*
X97961260Y-91047000D01*
X98027442Y-91053518D01*
X98027442Y-91053518D01*
G37*
G36*
X95487442Y-91053518D02*
X95553627Y-91060037D01*
X95666853Y-91094384D01*
X95723467Y-91111557D01*
X95862087Y-91185652D01*
X95879991Y-91195222D01*
X95915729Y-91224552D01*
X96017186Y-91307814D01*
X96100448Y-91409271D01*
X96129778Y-91445009D01*
X96129779Y-91445011D01*
X96213443Y-91601533D01*
X96213443Y-91601534D01*
X96264963Y-91771373D01*
X96282359Y-91948000D01*
X96264963Y-92124627D01*
X96230616Y-92237853D01*
X96213443Y-92294467D01*
X96139348Y-92433087D01*
X96129778Y-92450991D01*
X96100448Y-92486729D01*
X96017186Y-92588186D01*
X95915729Y-92671448D01*
X95879991Y-92700778D01*
X95879989Y-92700779D01*
X95723467Y-92784443D01*
X95666853Y-92801616D01*
X95553627Y-92835963D01*
X95487442Y-92842482D01*
X95421260Y-92849000D01*
X95332740Y-92849000D01*
X95266558Y-92842482D01*
X95200373Y-92835963D01*
X95087147Y-92801616D01*
X95030533Y-92784443D01*
X94874011Y-92700779D01*
X94874009Y-92700778D01*
X94838271Y-92671448D01*
X94736814Y-92588186D01*
X94653552Y-92486729D01*
X94624222Y-92450991D01*
X94614652Y-92433087D01*
X94540557Y-92294467D01*
X94523384Y-92237853D01*
X94489037Y-92124627D01*
X94471641Y-91948000D01*
X94489037Y-91771373D01*
X94540557Y-91601534D01*
X94540557Y-91601533D01*
X94624221Y-91445011D01*
X94624222Y-91445009D01*
X94653552Y-91409271D01*
X94736814Y-91307814D01*
X94838271Y-91224552D01*
X94874009Y-91195222D01*
X94891913Y-91185652D01*
X95030533Y-91111557D01*
X95087147Y-91094384D01*
X95200373Y-91060037D01*
X95266558Y-91053518D01*
X95332740Y-91047000D01*
X95421260Y-91047000D01*
X95487442Y-91053518D01*
X95487442Y-91053518D01*
G37*
G36*
X95487443Y-88513519D02*
X95553627Y-88520037D01*
X95666853Y-88554384D01*
X95723467Y-88571557D01*
X95862087Y-88645652D01*
X95879991Y-88655222D01*
X95915729Y-88684552D01*
X96017186Y-88767814D01*
X96100448Y-88869271D01*
X96129778Y-88905009D01*
X96129779Y-88905011D01*
X96213443Y-89061533D01*
X96230616Y-89118147D01*
X96264963Y-89231373D01*
X96282359Y-89408000D01*
X96264963Y-89584627D01*
X96237860Y-89673973D01*
X96213443Y-89754467D01*
X96178220Y-89820363D01*
X96129778Y-89910991D01*
X96109759Y-89935384D01*
X96017186Y-90048186D01*
X95915729Y-90131448D01*
X95879991Y-90160778D01*
X95879989Y-90160779D01*
X95723467Y-90244443D01*
X95666853Y-90261616D01*
X95553627Y-90295963D01*
X95487443Y-90302481D01*
X95421260Y-90309000D01*
X95332740Y-90309000D01*
X95266557Y-90302481D01*
X95200373Y-90295963D01*
X95087147Y-90261616D01*
X95030533Y-90244443D01*
X94874011Y-90160779D01*
X94874009Y-90160778D01*
X94838271Y-90131448D01*
X94736814Y-90048186D01*
X94644241Y-89935384D01*
X94624222Y-89910991D01*
X94575780Y-89820363D01*
X94540557Y-89754467D01*
X94516140Y-89673973D01*
X94489037Y-89584627D01*
X94471641Y-89408000D01*
X94489037Y-89231373D01*
X94523384Y-89118147D01*
X94540557Y-89061533D01*
X94624221Y-88905011D01*
X94624222Y-88905009D01*
X94653552Y-88869271D01*
X94736814Y-88767814D01*
X94838271Y-88684552D01*
X94874009Y-88655222D01*
X94891913Y-88645652D01*
X95030533Y-88571557D01*
X95087147Y-88554384D01*
X95200373Y-88520037D01*
X95266557Y-88513519D01*
X95332740Y-88507000D01*
X95421260Y-88507000D01*
X95487443Y-88513519D01*
X95487443Y-88513519D01*
G37*
G36*
X98027443Y-88513519D02*
X98093627Y-88520037D01*
X98206853Y-88554384D01*
X98263467Y-88571557D01*
X98402087Y-88645652D01*
X98419991Y-88655222D01*
X98455729Y-88684552D01*
X98557186Y-88767814D01*
X98640448Y-88869271D01*
X98669778Y-88905009D01*
X98669779Y-88905011D01*
X98753443Y-89061533D01*
X98770616Y-89118147D01*
X98804963Y-89231373D01*
X98822359Y-89408000D01*
X98804963Y-89584627D01*
X98777860Y-89673973D01*
X98753443Y-89754467D01*
X98718220Y-89820363D01*
X98669778Y-89910991D01*
X98649759Y-89935384D01*
X98557186Y-90048186D01*
X98455729Y-90131448D01*
X98419991Y-90160778D01*
X98419989Y-90160779D01*
X98263467Y-90244443D01*
X98206853Y-90261616D01*
X98093627Y-90295963D01*
X98027443Y-90302481D01*
X97961260Y-90309000D01*
X97872740Y-90309000D01*
X97806557Y-90302481D01*
X97740373Y-90295963D01*
X97627147Y-90261616D01*
X97570533Y-90244443D01*
X97414011Y-90160779D01*
X97414009Y-90160778D01*
X97378271Y-90131448D01*
X97276814Y-90048186D01*
X97184241Y-89935384D01*
X97164222Y-89910991D01*
X97115780Y-89820363D01*
X97080557Y-89754467D01*
X97056140Y-89673973D01*
X97029037Y-89584627D01*
X97011641Y-89408000D01*
X97029037Y-89231373D01*
X97063384Y-89118147D01*
X97080557Y-89061533D01*
X97164221Y-88905011D01*
X97164222Y-88905009D01*
X97193552Y-88869271D01*
X97276814Y-88767814D01*
X97378271Y-88684552D01*
X97414009Y-88655222D01*
X97431913Y-88645652D01*
X97570533Y-88571557D01*
X97627147Y-88554384D01*
X97740373Y-88520037D01*
X97806557Y-88513519D01*
X97872740Y-88507000D01*
X97961260Y-88507000D01*
X98027443Y-88513519D01*
X98027443Y-88513519D01*
G37*
G36*
X111812565Y-87993389D02*
X112003834Y-88072615D01*
X112175976Y-88187637D01*
X112322363Y-88334024D01*
X112437385Y-88506166D01*
X112516611Y-88697435D01*
X112557000Y-88900484D01*
X112557000Y-89107516D01*
X112516611Y-89310565D01*
X112437385Y-89501834D01*
X112322363Y-89673976D01*
X112175976Y-89820363D01*
X112003834Y-89935385D01*
X111812565Y-90014611D01*
X111609516Y-90055000D01*
X111402484Y-90055000D01*
X111199435Y-90014611D01*
X111008166Y-89935385D01*
X110836024Y-89820363D01*
X110689637Y-89673976D01*
X110574615Y-89501834D01*
X110495389Y-89310565D01*
X110455000Y-89107516D01*
X110455000Y-88900484D01*
X110495389Y-88697435D01*
X110574615Y-88506166D01*
X110689637Y-88334024D01*
X110836024Y-88187637D01*
X111008166Y-88072615D01*
X111199435Y-87993389D01*
X111402484Y-87953000D01*
X111609516Y-87953000D01*
X111812565Y-87993389D01*
X111812565Y-87993389D01*
G37*
G36*
X116312565Y-87993389D02*
X116503834Y-88072615D01*
X116675976Y-88187637D01*
X116822363Y-88334024D01*
X116937385Y-88506166D01*
X117016611Y-88697435D01*
X117057000Y-88900484D01*
X117057000Y-89107516D01*
X117016611Y-89310565D01*
X116937385Y-89501834D01*
X116822363Y-89673976D01*
X116675976Y-89820363D01*
X116503834Y-89935385D01*
X116312565Y-90014611D01*
X116109516Y-90055000D01*
X115902484Y-90055000D01*
X115699435Y-90014611D01*
X115508166Y-89935385D01*
X115336024Y-89820363D01*
X115189637Y-89673976D01*
X115074615Y-89501834D01*
X114995389Y-89310565D01*
X114955000Y-89107516D01*
X114955000Y-88900484D01*
X114995389Y-88697435D01*
X115074615Y-88506166D01*
X115189637Y-88334024D01*
X115336024Y-88187637D01*
X115508166Y-88072615D01*
X115699435Y-87993389D01*
X115902484Y-87953000D01*
X116109516Y-87953000D01*
X116312565Y-87993389D01*
X116312565Y-87993389D01*
G37*
G36*
X124386043Y-81772419D02*
X124452227Y-81778937D01*
X124565453Y-81813284D01*
X124622067Y-81830457D01*
X124760687Y-81904552D01*
X124778591Y-81914122D01*
X124814329Y-81943452D01*
X124915786Y-82026714D01*
X124999048Y-82128171D01*
X125028378Y-82163909D01*
X125028379Y-82163911D01*
X125112043Y-82320433D01*
X125112043Y-82320434D01*
X125163563Y-82490273D01*
X125180959Y-82666900D01*
X125163563Y-82843527D01*
X125129216Y-82956753D01*
X125112043Y-83013367D01*
X125037948Y-83151987D01*
X125028378Y-83169891D01*
X124999048Y-83205629D01*
X124915786Y-83307086D01*
X124814329Y-83390348D01*
X124778591Y-83419678D01*
X124778589Y-83419679D01*
X124622067Y-83503343D01*
X124565453Y-83520516D01*
X124452227Y-83554863D01*
X124386042Y-83561382D01*
X124319860Y-83567900D01*
X124231340Y-83567900D01*
X124165158Y-83561382D01*
X124098973Y-83554863D01*
X123985747Y-83520516D01*
X123929133Y-83503343D01*
X123772611Y-83419679D01*
X123772609Y-83419678D01*
X123736871Y-83390348D01*
X123635414Y-83307086D01*
X123552152Y-83205629D01*
X123522822Y-83169891D01*
X123513252Y-83151987D01*
X123439157Y-83013367D01*
X123421984Y-82956753D01*
X123387637Y-82843527D01*
X123370241Y-82666900D01*
X123387637Y-82490273D01*
X123439157Y-82320434D01*
X123439157Y-82320433D01*
X123522821Y-82163911D01*
X123522822Y-82163909D01*
X123552152Y-82128171D01*
X123635414Y-82026714D01*
X123736871Y-81943452D01*
X123772609Y-81914122D01*
X123790513Y-81904552D01*
X123929133Y-81830457D01*
X123985747Y-81813284D01*
X124098973Y-81778937D01*
X124165157Y-81772419D01*
X124231340Y-81765900D01*
X124319860Y-81765900D01*
X124386043Y-81772419D01*
X124386043Y-81772419D01*
G37*
G36*
X121846043Y-81772419D02*
X121912227Y-81778937D01*
X122025453Y-81813284D01*
X122082067Y-81830457D01*
X122220687Y-81904552D01*
X122238591Y-81914122D01*
X122274329Y-81943452D01*
X122375786Y-82026714D01*
X122459048Y-82128171D01*
X122488378Y-82163909D01*
X122488379Y-82163911D01*
X122572043Y-82320433D01*
X122572043Y-82320434D01*
X122623563Y-82490273D01*
X122640959Y-82666900D01*
X122623563Y-82843527D01*
X122589216Y-82956753D01*
X122572043Y-83013367D01*
X122497948Y-83151987D01*
X122488378Y-83169891D01*
X122459048Y-83205629D01*
X122375786Y-83307086D01*
X122274329Y-83390348D01*
X122238591Y-83419678D01*
X122238589Y-83419679D01*
X122082067Y-83503343D01*
X122025453Y-83520516D01*
X121912227Y-83554863D01*
X121846042Y-83561382D01*
X121779860Y-83567900D01*
X121691340Y-83567900D01*
X121625158Y-83561382D01*
X121558973Y-83554863D01*
X121445747Y-83520516D01*
X121389133Y-83503343D01*
X121232611Y-83419679D01*
X121232609Y-83419678D01*
X121196871Y-83390348D01*
X121095414Y-83307086D01*
X121012152Y-83205629D01*
X120982822Y-83169891D01*
X120973252Y-83151987D01*
X120899157Y-83013367D01*
X120881984Y-82956753D01*
X120847637Y-82843527D01*
X120830241Y-82666900D01*
X120847637Y-82490273D01*
X120899157Y-82320434D01*
X120899157Y-82320433D01*
X120982821Y-82163911D01*
X120982822Y-82163909D01*
X121012152Y-82128171D01*
X121095414Y-82026714D01*
X121196871Y-81943452D01*
X121232609Y-81914122D01*
X121250513Y-81904552D01*
X121389133Y-81830457D01*
X121445747Y-81813284D01*
X121558973Y-81778937D01*
X121625157Y-81772419D01*
X121691340Y-81765900D01*
X121779860Y-81765900D01*
X121846043Y-81772419D01*
X121846043Y-81772419D01*
G37*
G36*
X119306043Y-81772419D02*
X119372227Y-81778937D01*
X119485453Y-81813284D01*
X119542067Y-81830457D01*
X119680687Y-81904552D01*
X119698591Y-81914122D01*
X119734329Y-81943452D01*
X119835786Y-82026714D01*
X119919048Y-82128171D01*
X119948378Y-82163909D01*
X119948379Y-82163911D01*
X120032043Y-82320433D01*
X120032043Y-82320434D01*
X120083563Y-82490273D01*
X120100959Y-82666900D01*
X120083563Y-82843527D01*
X120049216Y-82956753D01*
X120032043Y-83013367D01*
X119957948Y-83151987D01*
X119948378Y-83169891D01*
X119919048Y-83205629D01*
X119835786Y-83307086D01*
X119734329Y-83390348D01*
X119698591Y-83419678D01*
X119698589Y-83419679D01*
X119542067Y-83503343D01*
X119485453Y-83520516D01*
X119372227Y-83554863D01*
X119306042Y-83561382D01*
X119239860Y-83567900D01*
X119151340Y-83567900D01*
X119085158Y-83561382D01*
X119018973Y-83554863D01*
X118905747Y-83520516D01*
X118849133Y-83503343D01*
X118692611Y-83419679D01*
X118692609Y-83419678D01*
X118656871Y-83390348D01*
X118555414Y-83307086D01*
X118472152Y-83205629D01*
X118442822Y-83169891D01*
X118433252Y-83151987D01*
X118359157Y-83013367D01*
X118341984Y-82956753D01*
X118307637Y-82843527D01*
X118290241Y-82666900D01*
X118307637Y-82490273D01*
X118359157Y-82320434D01*
X118359157Y-82320433D01*
X118442821Y-82163911D01*
X118442822Y-82163909D01*
X118472152Y-82128171D01*
X118555414Y-82026714D01*
X118656871Y-81943452D01*
X118692609Y-81914122D01*
X118710513Y-81904552D01*
X118849133Y-81830457D01*
X118905747Y-81813284D01*
X119018973Y-81778937D01*
X119085157Y-81772419D01*
X119151340Y-81765900D01*
X119239860Y-81765900D01*
X119306043Y-81772419D01*
X119306043Y-81772419D01*
G37*
G36*
X114226043Y-81772419D02*
X114292227Y-81778937D01*
X114405453Y-81813284D01*
X114462067Y-81830457D01*
X114600687Y-81904552D01*
X114618591Y-81914122D01*
X114654329Y-81943452D01*
X114755786Y-82026714D01*
X114839048Y-82128171D01*
X114868378Y-82163909D01*
X114868379Y-82163911D01*
X114952043Y-82320433D01*
X114952043Y-82320434D01*
X115003563Y-82490273D01*
X115020959Y-82666900D01*
X115003563Y-82843527D01*
X114969216Y-82956753D01*
X114952043Y-83013367D01*
X114877948Y-83151987D01*
X114868378Y-83169891D01*
X114839048Y-83205629D01*
X114755786Y-83307086D01*
X114654329Y-83390348D01*
X114618591Y-83419678D01*
X114618589Y-83419679D01*
X114462067Y-83503343D01*
X114405453Y-83520516D01*
X114292227Y-83554863D01*
X114226042Y-83561382D01*
X114159860Y-83567900D01*
X114071340Y-83567900D01*
X114005158Y-83561382D01*
X113938973Y-83554863D01*
X113825747Y-83520516D01*
X113769133Y-83503343D01*
X113612611Y-83419679D01*
X113612609Y-83419678D01*
X113576871Y-83390348D01*
X113475414Y-83307086D01*
X113392152Y-83205629D01*
X113362822Y-83169891D01*
X113353252Y-83151987D01*
X113279157Y-83013367D01*
X113261984Y-82956753D01*
X113227637Y-82843527D01*
X113210241Y-82666900D01*
X113227637Y-82490273D01*
X113279157Y-82320434D01*
X113279157Y-82320433D01*
X113362821Y-82163911D01*
X113362822Y-82163909D01*
X113392152Y-82128171D01*
X113475414Y-82026714D01*
X113576871Y-81943452D01*
X113612609Y-81914122D01*
X113630513Y-81904552D01*
X113769133Y-81830457D01*
X113825747Y-81813284D01*
X113938973Y-81778937D01*
X114005157Y-81772419D01*
X114071340Y-81765900D01*
X114159860Y-81765900D01*
X114226043Y-81772419D01*
X114226043Y-81772419D01*
G37*
G36*
X111686043Y-81772419D02*
X111752227Y-81778937D01*
X111865453Y-81813284D01*
X111922067Y-81830457D01*
X112060687Y-81904552D01*
X112078591Y-81914122D01*
X112114329Y-81943452D01*
X112215786Y-82026714D01*
X112299048Y-82128171D01*
X112328378Y-82163909D01*
X112328379Y-82163911D01*
X112412043Y-82320433D01*
X112412043Y-82320434D01*
X112463563Y-82490273D01*
X112480959Y-82666900D01*
X112463563Y-82843527D01*
X112429216Y-82956753D01*
X112412043Y-83013367D01*
X112337948Y-83151987D01*
X112328378Y-83169891D01*
X112299048Y-83205629D01*
X112215786Y-83307086D01*
X112114329Y-83390348D01*
X112078591Y-83419678D01*
X112078589Y-83419679D01*
X111922067Y-83503343D01*
X111865453Y-83520516D01*
X111752227Y-83554863D01*
X111686042Y-83561382D01*
X111619860Y-83567900D01*
X111531340Y-83567900D01*
X111465158Y-83561382D01*
X111398973Y-83554863D01*
X111285747Y-83520516D01*
X111229133Y-83503343D01*
X111072611Y-83419679D01*
X111072609Y-83419678D01*
X111036871Y-83390348D01*
X110935414Y-83307086D01*
X110852152Y-83205629D01*
X110822822Y-83169891D01*
X110813252Y-83151987D01*
X110739157Y-83013367D01*
X110721984Y-82956753D01*
X110687637Y-82843527D01*
X110670241Y-82666900D01*
X110687637Y-82490273D01*
X110739157Y-82320434D01*
X110739157Y-82320433D01*
X110822821Y-82163911D01*
X110822822Y-82163909D01*
X110852152Y-82128171D01*
X110935414Y-82026714D01*
X111036871Y-81943452D01*
X111072609Y-81914122D01*
X111090513Y-81904552D01*
X111229133Y-81830457D01*
X111285747Y-81813284D01*
X111398973Y-81778937D01*
X111465157Y-81772419D01*
X111531340Y-81765900D01*
X111619860Y-81765900D01*
X111686043Y-81772419D01*
X111686043Y-81772419D01*
G37*
G36*
X109146043Y-81772419D02*
X109212227Y-81778937D01*
X109325453Y-81813284D01*
X109382067Y-81830457D01*
X109520687Y-81904552D01*
X109538591Y-81914122D01*
X109574329Y-81943452D01*
X109675786Y-82026714D01*
X109759048Y-82128171D01*
X109788378Y-82163909D01*
X109788379Y-82163911D01*
X109872043Y-82320433D01*
X109872043Y-82320434D01*
X109923563Y-82490273D01*
X109940959Y-82666900D01*
X109923563Y-82843527D01*
X109889216Y-82956753D01*
X109872043Y-83013367D01*
X109797948Y-83151987D01*
X109788378Y-83169891D01*
X109759048Y-83205629D01*
X109675786Y-83307086D01*
X109574329Y-83390348D01*
X109538591Y-83419678D01*
X109538589Y-83419679D01*
X109382067Y-83503343D01*
X109325453Y-83520516D01*
X109212227Y-83554863D01*
X109146042Y-83561382D01*
X109079860Y-83567900D01*
X108991340Y-83567900D01*
X108925158Y-83561382D01*
X108858973Y-83554863D01*
X108745747Y-83520516D01*
X108689133Y-83503343D01*
X108532611Y-83419679D01*
X108532609Y-83419678D01*
X108496871Y-83390348D01*
X108395414Y-83307086D01*
X108312152Y-83205629D01*
X108282822Y-83169891D01*
X108273252Y-83151987D01*
X108199157Y-83013367D01*
X108181984Y-82956753D01*
X108147637Y-82843527D01*
X108130241Y-82666900D01*
X108147637Y-82490273D01*
X108199157Y-82320434D01*
X108199157Y-82320433D01*
X108282821Y-82163911D01*
X108282822Y-82163909D01*
X108312152Y-82128171D01*
X108395414Y-82026714D01*
X108496871Y-81943452D01*
X108532609Y-81914122D01*
X108550513Y-81904552D01*
X108689133Y-81830457D01*
X108745747Y-81813284D01*
X108858973Y-81778937D01*
X108925157Y-81772419D01*
X108991340Y-81765900D01*
X109079860Y-81765900D01*
X109146043Y-81772419D01*
X109146043Y-81772419D01*
G37*
G36*
X106606043Y-81772419D02*
X106672227Y-81778937D01*
X106785453Y-81813284D01*
X106842067Y-81830457D01*
X106980687Y-81904552D01*
X106998591Y-81914122D01*
X107034329Y-81943452D01*
X107135786Y-82026714D01*
X107219048Y-82128171D01*
X107248378Y-82163909D01*
X107248379Y-82163911D01*
X107332043Y-82320433D01*
X107332043Y-82320434D01*
X107383563Y-82490273D01*
X107400959Y-82666900D01*
X107383563Y-82843527D01*
X107349216Y-82956753D01*
X107332043Y-83013367D01*
X107257948Y-83151987D01*
X107248378Y-83169891D01*
X107219048Y-83205629D01*
X107135786Y-83307086D01*
X107034329Y-83390348D01*
X106998591Y-83419678D01*
X106998589Y-83419679D01*
X106842067Y-83503343D01*
X106785453Y-83520516D01*
X106672227Y-83554863D01*
X106606042Y-83561382D01*
X106539860Y-83567900D01*
X106451340Y-83567900D01*
X106385158Y-83561382D01*
X106318973Y-83554863D01*
X106205747Y-83520516D01*
X106149133Y-83503343D01*
X105992611Y-83419679D01*
X105992609Y-83419678D01*
X105956871Y-83390348D01*
X105855414Y-83307086D01*
X105772152Y-83205629D01*
X105742822Y-83169891D01*
X105733252Y-83151987D01*
X105659157Y-83013367D01*
X105641984Y-82956753D01*
X105607637Y-82843527D01*
X105590241Y-82666900D01*
X105607637Y-82490273D01*
X105659157Y-82320434D01*
X105659157Y-82320433D01*
X105742821Y-82163911D01*
X105742822Y-82163909D01*
X105772152Y-82128171D01*
X105855414Y-82026714D01*
X105956871Y-81943452D01*
X105992609Y-81914122D01*
X106010513Y-81904552D01*
X106149133Y-81830457D01*
X106205747Y-81813284D01*
X106318973Y-81778937D01*
X106385157Y-81772419D01*
X106451340Y-81765900D01*
X106539860Y-81765900D01*
X106606043Y-81772419D01*
X106606043Y-81772419D01*
G37*
G36*
X104066043Y-81772419D02*
X104132227Y-81778937D01*
X104245453Y-81813284D01*
X104302067Y-81830457D01*
X104440687Y-81904552D01*
X104458591Y-81914122D01*
X104494329Y-81943452D01*
X104595786Y-82026714D01*
X104679048Y-82128171D01*
X104708378Y-82163909D01*
X104708379Y-82163911D01*
X104792043Y-82320433D01*
X104792043Y-82320434D01*
X104843563Y-82490273D01*
X104860959Y-82666900D01*
X104843563Y-82843527D01*
X104809216Y-82956753D01*
X104792043Y-83013367D01*
X104717948Y-83151987D01*
X104708378Y-83169891D01*
X104679048Y-83205629D01*
X104595786Y-83307086D01*
X104494329Y-83390348D01*
X104458591Y-83419678D01*
X104458589Y-83419679D01*
X104302067Y-83503343D01*
X104245453Y-83520516D01*
X104132227Y-83554863D01*
X104066042Y-83561382D01*
X103999860Y-83567900D01*
X103911340Y-83567900D01*
X103845158Y-83561382D01*
X103778973Y-83554863D01*
X103665747Y-83520516D01*
X103609133Y-83503343D01*
X103452611Y-83419679D01*
X103452609Y-83419678D01*
X103416871Y-83390348D01*
X103315414Y-83307086D01*
X103232152Y-83205629D01*
X103202822Y-83169891D01*
X103193252Y-83151987D01*
X103119157Y-83013367D01*
X103101984Y-82956753D01*
X103067637Y-82843527D01*
X103050241Y-82666900D01*
X103067637Y-82490273D01*
X103119157Y-82320434D01*
X103119157Y-82320433D01*
X103202821Y-82163911D01*
X103202822Y-82163909D01*
X103232152Y-82128171D01*
X103315414Y-82026714D01*
X103416871Y-81943452D01*
X103452609Y-81914122D01*
X103470513Y-81904552D01*
X103609133Y-81830457D01*
X103665747Y-81813284D01*
X103778973Y-81778937D01*
X103845157Y-81772419D01*
X103911340Y-81765900D01*
X103999860Y-81765900D01*
X104066043Y-81772419D01*
X104066043Y-81772419D01*
G37*
G36*
X101526043Y-81772419D02*
X101592227Y-81778937D01*
X101705453Y-81813284D01*
X101762067Y-81830457D01*
X101900687Y-81904552D01*
X101918591Y-81914122D01*
X101954329Y-81943452D01*
X102055786Y-82026714D01*
X102139048Y-82128171D01*
X102168378Y-82163909D01*
X102168379Y-82163911D01*
X102252043Y-82320433D01*
X102252043Y-82320434D01*
X102303563Y-82490273D01*
X102320959Y-82666900D01*
X102303563Y-82843527D01*
X102269216Y-82956753D01*
X102252043Y-83013367D01*
X102177948Y-83151987D01*
X102168378Y-83169891D01*
X102139048Y-83205629D01*
X102055786Y-83307086D01*
X101954329Y-83390348D01*
X101918591Y-83419678D01*
X101918589Y-83419679D01*
X101762067Y-83503343D01*
X101705453Y-83520516D01*
X101592227Y-83554863D01*
X101526042Y-83561382D01*
X101459860Y-83567900D01*
X101371340Y-83567900D01*
X101305158Y-83561382D01*
X101238973Y-83554863D01*
X101125747Y-83520516D01*
X101069133Y-83503343D01*
X100912611Y-83419679D01*
X100912609Y-83419678D01*
X100876871Y-83390348D01*
X100775414Y-83307086D01*
X100692152Y-83205629D01*
X100662822Y-83169891D01*
X100653252Y-83151987D01*
X100579157Y-83013367D01*
X100561984Y-82956753D01*
X100527637Y-82843527D01*
X100510241Y-82666900D01*
X100527637Y-82490273D01*
X100579157Y-82320434D01*
X100579157Y-82320433D01*
X100662821Y-82163911D01*
X100662822Y-82163909D01*
X100692152Y-82128171D01*
X100775414Y-82026714D01*
X100876871Y-81943452D01*
X100912609Y-81914122D01*
X100930513Y-81904552D01*
X101069133Y-81830457D01*
X101125747Y-81813284D01*
X101238973Y-81778937D01*
X101305157Y-81772419D01*
X101371340Y-81765900D01*
X101459860Y-81765900D01*
X101526043Y-81772419D01*
X101526043Y-81772419D01*
G37*
G36*
X93906043Y-81772419D02*
X93972227Y-81778937D01*
X94085453Y-81813284D01*
X94142067Y-81830457D01*
X94280687Y-81904552D01*
X94298591Y-81914122D01*
X94334329Y-81943452D01*
X94435786Y-82026714D01*
X94519048Y-82128171D01*
X94548378Y-82163909D01*
X94548379Y-82163911D01*
X94632043Y-82320433D01*
X94632043Y-82320434D01*
X94683563Y-82490273D01*
X94700959Y-82666900D01*
X94683563Y-82843527D01*
X94649216Y-82956753D01*
X94632043Y-83013367D01*
X94557948Y-83151987D01*
X94548378Y-83169891D01*
X94519048Y-83205629D01*
X94435786Y-83307086D01*
X94334329Y-83390348D01*
X94298591Y-83419678D01*
X94298589Y-83419679D01*
X94142067Y-83503343D01*
X94085453Y-83520516D01*
X93972227Y-83554863D01*
X93906042Y-83561382D01*
X93839860Y-83567900D01*
X93751340Y-83567900D01*
X93685158Y-83561382D01*
X93618973Y-83554863D01*
X93505747Y-83520516D01*
X93449133Y-83503343D01*
X93292611Y-83419679D01*
X93292609Y-83419678D01*
X93256871Y-83390348D01*
X93155414Y-83307086D01*
X93072152Y-83205629D01*
X93042822Y-83169891D01*
X93033252Y-83151987D01*
X92959157Y-83013367D01*
X92941984Y-82956753D01*
X92907637Y-82843527D01*
X92890241Y-82666900D01*
X92907637Y-82490273D01*
X92959157Y-82320434D01*
X92959157Y-82320433D01*
X93042821Y-82163911D01*
X93042822Y-82163909D01*
X93072152Y-82128171D01*
X93155414Y-82026714D01*
X93256871Y-81943452D01*
X93292609Y-81914122D01*
X93310513Y-81904552D01*
X93449133Y-81830457D01*
X93505747Y-81813284D01*
X93618973Y-81778937D01*
X93685157Y-81772419D01*
X93751340Y-81765900D01*
X93839860Y-81765900D01*
X93906043Y-81772419D01*
X93906043Y-81772419D01*
G37*
G36*
X91366043Y-81772419D02*
X91432227Y-81778937D01*
X91545453Y-81813284D01*
X91602067Y-81830457D01*
X91740687Y-81904552D01*
X91758591Y-81914122D01*
X91794329Y-81943452D01*
X91895786Y-82026714D01*
X91979048Y-82128171D01*
X92008378Y-82163909D01*
X92008379Y-82163911D01*
X92092043Y-82320433D01*
X92092043Y-82320434D01*
X92143563Y-82490273D01*
X92160959Y-82666900D01*
X92143563Y-82843527D01*
X92109216Y-82956753D01*
X92092043Y-83013367D01*
X92017948Y-83151987D01*
X92008378Y-83169891D01*
X91979048Y-83205629D01*
X91895786Y-83307086D01*
X91794329Y-83390348D01*
X91758591Y-83419678D01*
X91758589Y-83419679D01*
X91602067Y-83503343D01*
X91545453Y-83520516D01*
X91432227Y-83554863D01*
X91366042Y-83561382D01*
X91299860Y-83567900D01*
X91211340Y-83567900D01*
X91145158Y-83561382D01*
X91078973Y-83554863D01*
X90965747Y-83520516D01*
X90909133Y-83503343D01*
X90752611Y-83419679D01*
X90752609Y-83419678D01*
X90716871Y-83390348D01*
X90615414Y-83307086D01*
X90532152Y-83205629D01*
X90502822Y-83169891D01*
X90493252Y-83151987D01*
X90419157Y-83013367D01*
X90401984Y-82956753D01*
X90367637Y-82843527D01*
X90350241Y-82666900D01*
X90367637Y-82490273D01*
X90419157Y-82320434D01*
X90419157Y-82320433D01*
X90502821Y-82163911D01*
X90502822Y-82163909D01*
X90532152Y-82128171D01*
X90615414Y-82026714D01*
X90716871Y-81943452D01*
X90752609Y-81914122D01*
X90770513Y-81904552D01*
X90909133Y-81830457D01*
X90965747Y-81813284D01*
X91078973Y-81778937D01*
X91145157Y-81772419D01*
X91211340Y-81765900D01*
X91299860Y-81765900D01*
X91366043Y-81772419D01*
X91366043Y-81772419D01*
G37*
G36*
X96446043Y-81772419D02*
X96512227Y-81778937D01*
X96625453Y-81813284D01*
X96682067Y-81830457D01*
X96820687Y-81904552D01*
X96838591Y-81914122D01*
X96874329Y-81943452D01*
X96975786Y-82026714D01*
X97059048Y-82128171D01*
X97088378Y-82163909D01*
X97088379Y-82163911D01*
X97172043Y-82320433D01*
X97172043Y-82320434D01*
X97223563Y-82490273D01*
X97240959Y-82666900D01*
X97223563Y-82843527D01*
X97189216Y-82956753D01*
X97172043Y-83013367D01*
X97097948Y-83151987D01*
X97088378Y-83169891D01*
X97059048Y-83205629D01*
X96975786Y-83307086D01*
X96874329Y-83390348D01*
X96838591Y-83419678D01*
X96838589Y-83419679D01*
X96682067Y-83503343D01*
X96625453Y-83520516D01*
X96512227Y-83554863D01*
X96446042Y-83561382D01*
X96379860Y-83567900D01*
X96291340Y-83567900D01*
X96225158Y-83561382D01*
X96158973Y-83554863D01*
X96045747Y-83520516D01*
X95989133Y-83503343D01*
X95832611Y-83419679D01*
X95832609Y-83419678D01*
X95796871Y-83390348D01*
X95695414Y-83307086D01*
X95612152Y-83205629D01*
X95582822Y-83169891D01*
X95573252Y-83151987D01*
X95499157Y-83013367D01*
X95481984Y-82956753D01*
X95447637Y-82843527D01*
X95430241Y-82666900D01*
X95447637Y-82490273D01*
X95499157Y-82320434D01*
X95499157Y-82320433D01*
X95582821Y-82163911D01*
X95582822Y-82163909D01*
X95612152Y-82128171D01*
X95695414Y-82026714D01*
X95796871Y-81943452D01*
X95832609Y-81914122D01*
X95850513Y-81904552D01*
X95989133Y-81830457D01*
X96045747Y-81813284D01*
X96158973Y-81778937D01*
X96225157Y-81772419D01*
X96291340Y-81765900D01*
X96379860Y-81765900D01*
X96446043Y-81772419D01*
X96446043Y-81772419D01*
G37*
G36*
X116766043Y-81772419D02*
X116832227Y-81778937D01*
X116945453Y-81813284D01*
X117002067Y-81830457D01*
X117140687Y-81904552D01*
X117158591Y-81914122D01*
X117194329Y-81943452D01*
X117295786Y-82026714D01*
X117379048Y-82128171D01*
X117408378Y-82163909D01*
X117408379Y-82163911D01*
X117492043Y-82320433D01*
X117492043Y-82320434D01*
X117543563Y-82490273D01*
X117560959Y-82666900D01*
X117543563Y-82843527D01*
X117509216Y-82956753D01*
X117492043Y-83013367D01*
X117417948Y-83151987D01*
X117408378Y-83169891D01*
X117379048Y-83205629D01*
X117295786Y-83307086D01*
X117194329Y-83390348D01*
X117158591Y-83419678D01*
X117158589Y-83419679D01*
X117002067Y-83503343D01*
X116945453Y-83520516D01*
X116832227Y-83554863D01*
X116766042Y-83561382D01*
X116699860Y-83567900D01*
X116611340Y-83567900D01*
X116545158Y-83561382D01*
X116478973Y-83554863D01*
X116365747Y-83520516D01*
X116309133Y-83503343D01*
X116152611Y-83419679D01*
X116152609Y-83419678D01*
X116116871Y-83390348D01*
X116015414Y-83307086D01*
X115932152Y-83205629D01*
X115902822Y-83169891D01*
X115893252Y-83151987D01*
X115819157Y-83013367D01*
X115801984Y-82956753D01*
X115767637Y-82843527D01*
X115750241Y-82666900D01*
X115767637Y-82490273D01*
X115819157Y-82320434D01*
X115819157Y-82320433D01*
X115902821Y-82163911D01*
X115902822Y-82163909D01*
X115932152Y-82128171D01*
X116015414Y-82026714D01*
X116116871Y-81943452D01*
X116152609Y-81914122D01*
X116170513Y-81904552D01*
X116309133Y-81830457D01*
X116365747Y-81813284D01*
X116478973Y-81778937D01*
X116545157Y-81772419D01*
X116611340Y-81765900D01*
X116699860Y-81765900D01*
X116766043Y-81772419D01*
X116766043Y-81772419D01*
G37*
G36*
X78666043Y-81772419D02*
X78732227Y-81778937D01*
X78845453Y-81813284D01*
X78902067Y-81830457D01*
X79040687Y-81904552D01*
X79058591Y-81914122D01*
X79094329Y-81943452D01*
X79195786Y-82026714D01*
X79279048Y-82128171D01*
X79308378Y-82163909D01*
X79308379Y-82163911D01*
X79392043Y-82320433D01*
X79392043Y-82320434D01*
X79443563Y-82490273D01*
X79460959Y-82666900D01*
X79443563Y-82843527D01*
X79409216Y-82956753D01*
X79392043Y-83013367D01*
X79317948Y-83151987D01*
X79308378Y-83169891D01*
X79279048Y-83205629D01*
X79195786Y-83307086D01*
X79094329Y-83390348D01*
X79058591Y-83419678D01*
X79058589Y-83419679D01*
X78902067Y-83503343D01*
X78845453Y-83520516D01*
X78732227Y-83554863D01*
X78666042Y-83561382D01*
X78599860Y-83567900D01*
X78511340Y-83567900D01*
X78445158Y-83561382D01*
X78378973Y-83554863D01*
X78265747Y-83520516D01*
X78209133Y-83503343D01*
X78052611Y-83419679D01*
X78052609Y-83419678D01*
X78016871Y-83390348D01*
X77915414Y-83307086D01*
X77832152Y-83205629D01*
X77802822Y-83169891D01*
X77793252Y-83151987D01*
X77719157Y-83013367D01*
X77701984Y-82956753D01*
X77667637Y-82843527D01*
X77650241Y-82666900D01*
X77667637Y-82490273D01*
X77719157Y-82320434D01*
X77719157Y-82320433D01*
X77802821Y-82163911D01*
X77802822Y-82163909D01*
X77832152Y-82128171D01*
X77915414Y-82026714D01*
X78016871Y-81943452D01*
X78052609Y-81914122D01*
X78070513Y-81904552D01*
X78209133Y-81830457D01*
X78265747Y-81813284D01*
X78378973Y-81778937D01*
X78445157Y-81772419D01*
X78511340Y-81765900D01*
X78599860Y-81765900D01*
X78666043Y-81772419D01*
X78666043Y-81772419D01*
G37*
G36*
X76916600Y-83567900D02*
X75114600Y-83567900D01*
X75114600Y-81765900D01*
X76916600Y-81765900D01*
X76916600Y-83567900D01*
X76916600Y-83567900D01*
G37*
G36*
X98986043Y-81772419D02*
X99052227Y-81778937D01*
X99165453Y-81813284D01*
X99222067Y-81830457D01*
X99360687Y-81904552D01*
X99378591Y-81914122D01*
X99414329Y-81943452D01*
X99515786Y-82026714D01*
X99599048Y-82128171D01*
X99628378Y-82163909D01*
X99628379Y-82163911D01*
X99712043Y-82320433D01*
X99712043Y-82320434D01*
X99763563Y-82490273D01*
X99780959Y-82666900D01*
X99763563Y-82843527D01*
X99729216Y-82956753D01*
X99712043Y-83013367D01*
X99637948Y-83151987D01*
X99628378Y-83169891D01*
X99599048Y-83205629D01*
X99515786Y-83307086D01*
X99414329Y-83390348D01*
X99378591Y-83419678D01*
X99378589Y-83419679D01*
X99222067Y-83503343D01*
X99165453Y-83520516D01*
X99052227Y-83554863D01*
X98986042Y-83561382D01*
X98919860Y-83567900D01*
X98831340Y-83567900D01*
X98765158Y-83561382D01*
X98698973Y-83554863D01*
X98585747Y-83520516D01*
X98529133Y-83503343D01*
X98372611Y-83419679D01*
X98372609Y-83419678D01*
X98336871Y-83390348D01*
X98235414Y-83307086D01*
X98152152Y-83205629D01*
X98122822Y-83169891D01*
X98113252Y-83151987D01*
X98039157Y-83013367D01*
X98021984Y-82956753D01*
X97987637Y-82843527D01*
X97970241Y-82666900D01*
X97987637Y-82490273D01*
X98039157Y-82320434D01*
X98039157Y-82320433D01*
X98122821Y-82163911D01*
X98122822Y-82163909D01*
X98152152Y-82128171D01*
X98235414Y-82026714D01*
X98336871Y-81943452D01*
X98372609Y-81914122D01*
X98390513Y-81904552D01*
X98529133Y-81830457D01*
X98585747Y-81813284D01*
X98698973Y-81778937D01*
X98765157Y-81772419D01*
X98831340Y-81765900D01*
X98919860Y-81765900D01*
X98986043Y-81772419D01*
X98986043Y-81772419D01*
G37*
G36*
X81206043Y-81772419D02*
X81272227Y-81778937D01*
X81385453Y-81813284D01*
X81442067Y-81830457D01*
X81580687Y-81904552D01*
X81598591Y-81914122D01*
X81634329Y-81943452D01*
X81735786Y-82026714D01*
X81819048Y-82128171D01*
X81848378Y-82163909D01*
X81848379Y-82163911D01*
X81932043Y-82320433D01*
X81932043Y-82320434D01*
X81983563Y-82490273D01*
X82000959Y-82666900D01*
X81983563Y-82843527D01*
X81949216Y-82956753D01*
X81932043Y-83013367D01*
X81857948Y-83151987D01*
X81848378Y-83169891D01*
X81819048Y-83205629D01*
X81735786Y-83307086D01*
X81634329Y-83390348D01*
X81598591Y-83419678D01*
X81598589Y-83419679D01*
X81442067Y-83503343D01*
X81385453Y-83520516D01*
X81272227Y-83554863D01*
X81206042Y-83561382D01*
X81139860Y-83567900D01*
X81051340Y-83567900D01*
X80985158Y-83561382D01*
X80918973Y-83554863D01*
X80805747Y-83520516D01*
X80749133Y-83503343D01*
X80592611Y-83419679D01*
X80592609Y-83419678D01*
X80556871Y-83390348D01*
X80455414Y-83307086D01*
X80372152Y-83205629D01*
X80342822Y-83169891D01*
X80333252Y-83151987D01*
X80259157Y-83013367D01*
X80241984Y-82956753D01*
X80207637Y-82843527D01*
X80190241Y-82666900D01*
X80207637Y-82490273D01*
X80259157Y-82320434D01*
X80259157Y-82320433D01*
X80342821Y-82163911D01*
X80342822Y-82163909D01*
X80372152Y-82128171D01*
X80455414Y-82026714D01*
X80556871Y-81943452D01*
X80592609Y-81914122D01*
X80610513Y-81904552D01*
X80749133Y-81830457D01*
X80805747Y-81813284D01*
X80918973Y-81778937D01*
X80985157Y-81772419D01*
X81051340Y-81765900D01*
X81139860Y-81765900D01*
X81206043Y-81772419D01*
X81206043Y-81772419D01*
G37*
G36*
X83746043Y-81772419D02*
X83812227Y-81778937D01*
X83925453Y-81813284D01*
X83982067Y-81830457D01*
X84120687Y-81904552D01*
X84138591Y-81914122D01*
X84174329Y-81943452D01*
X84275786Y-82026714D01*
X84359048Y-82128171D01*
X84388378Y-82163909D01*
X84388379Y-82163911D01*
X84472043Y-82320433D01*
X84472043Y-82320434D01*
X84523563Y-82490273D01*
X84540959Y-82666900D01*
X84523563Y-82843527D01*
X84489216Y-82956753D01*
X84472043Y-83013367D01*
X84397948Y-83151987D01*
X84388378Y-83169891D01*
X84359048Y-83205629D01*
X84275786Y-83307086D01*
X84174329Y-83390348D01*
X84138591Y-83419678D01*
X84138589Y-83419679D01*
X83982067Y-83503343D01*
X83925453Y-83520516D01*
X83812227Y-83554863D01*
X83746042Y-83561382D01*
X83679860Y-83567900D01*
X83591340Y-83567900D01*
X83525158Y-83561382D01*
X83458973Y-83554863D01*
X83345747Y-83520516D01*
X83289133Y-83503343D01*
X83132611Y-83419679D01*
X83132609Y-83419678D01*
X83096871Y-83390348D01*
X82995414Y-83307086D01*
X82912152Y-83205629D01*
X82882822Y-83169891D01*
X82873252Y-83151987D01*
X82799157Y-83013367D01*
X82781984Y-82956753D01*
X82747637Y-82843527D01*
X82730241Y-82666900D01*
X82747637Y-82490273D01*
X82799157Y-82320434D01*
X82799157Y-82320433D01*
X82882821Y-82163911D01*
X82882822Y-82163909D01*
X82912152Y-82128171D01*
X82995414Y-82026714D01*
X83096871Y-81943452D01*
X83132609Y-81914122D01*
X83150513Y-81904552D01*
X83289133Y-81830457D01*
X83345747Y-81813284D01*
X83458973Y-81778937D01*
X83525157Y-81772419D01*
X83591340Y-81765900D01*
X83679860Y-81765900D01*
X83746043Y-81772419D01*
X83746043Y-81772419D01*
G37*
G36*
X86286043Y-81772419D02*
X86352227Y-81778937D01*
X86465453Y-81813284D01*
X86522067Y-81830457D01*
X86660687Y-81904552D01*
X86678591Y-81914122D01*
X86714329Y-81943452D01*
X86815786Y-82026714D01*
X86899048Y-82128171D01*
X86928378Y-82163909D01*
X86928379Y-82163911D01*
X87012043Y-82320433D01*
X87012043Y-82320434D01*
X87063563Y-82490273D01*
X87080959Y-82666900D01*
X87063563Y-82843527D01*
X87029216Y-82956753D01*
X87012043Y-83013367D01*
X86937948Y-83151987D01*
X86928378Y-83169891D01*
X86899048Y-83205629D01*
X86815786Y-83307086D01*
X86714329Y-83390348D01*
X86678591Y-83419678D01*
X86678589Y-83419679D01*
X86522067Y-83503343D01*
X86465453Y-83520516D01*
X86352227Y-83554863D01*
X86286042Y-83561382D01*
X86219860Y-83567900D01*
X86131340Y-83567900D01*
X86065158Y-83561382D01*
X85998973Y-83554863D01*
X85885747Y-83520516D01*
X85829133Y-83503343D01*
X85672611Y-83419679D01*
X85672609Y-83419678D01*
X85636871Y-83390348D01*
X85535414Y-83307086D01*
X85452152Y-83205629D01*
X85422822Y-83169891D01*
X85413252Y-83151987D01*
X85339157Y-83013367D01*
X85321984Y-82956753D01*
X85287637Y-82843527D01*
X85270241Y-82666900D01*
X85287637Y-82490273D01*
X85339157Y-82320434D01*
X85339157Y-82320433D01*
X85422821Y-82163911D01*
X85422822Y-82163909D01*
X85452152Y-82128171D01*
X85535414Y-82026714D01*
X85636871Y-81943452D01*
X85672609Y-81914122D01*
X85690513Y-81904552D01*
X85829133Y-81830457D01*
X85885747Y-81813284D01*
X85998973Y-81778937D01*
X86065157Y-81772419D01*
X86131340Y-81765900D01*
X86219860Y-81765900D01*
X86286043Y-81772419D01*
X86286043Y-81772419D01*
G37*
G36*
X88826043Y-81772419D02*
X88892227Y-81778937D01*
X89005453Y-81813284D01*
X89062067Y-81830457D01*
X89200687Y-81904552D01*
X89218591Y-81914122D01*
X89254329Y-81943452D01*
X89355786Y-82026714D01*
X89439048Y-82128171D01*
X89468378Y-82163909D01*
X89468379Y-82163911D01*
X89552043Y-82320433D01*
X89552043Y-82320434D01*
X89603563Y-82490273D01*
X89620959Y-82666900D01*
X89603563Y-82843527D01*
X89569216Y-82956753D01*
X89552043Y-83013367D01*
X89477948Y-83151987D01*
X89468378Y-83169891D01*
X89439048Y-83205629D01*
X89355786Y-83307086D01*
X89254329Y-83390348D01*
X89218591Y-83419678D01*
X89218589Y-83419679D01*
X89062067Y-83503343D01*
X89005453Y-83520516D01*
X88892227Y-83554863D01*
X88826042Y-83561382D01*
X88759860Y-83567900D01*
X88671340Y-83567900D01*
X88605158Y-83561382D01*
X88538973Y-83554863D01*
X88425747Y-83520516D01*
X88369133Y-83503343D01*
X88212611Y-83419679D01*
X88212609Y-83419678D01*
X88176871Y-83390348D01*
X88075414Y-83307086D01*
X87992152Y-83205629D01*
X87962822Y-83169891D01*
X87953252Y-83151987D01*
X87879157Y-83013367D01*
X87861984Y-82956753D01*
X87827637Y-82843527D01*
X87810241Y-82666900D01*
X87827637Y-82490273D01*
X87879157Y-82320434D01*
X87879157Y-82320433D01*
X87962821Y-82163911D01*
X87962822Y-82163909D01*
X87992152Y-82128171D01*
X88075414Y-82026714D01*
X88176871Y-81943452D01*
X88212609Y-81914122D01*
X88230513Y-81904552D01*
X88369133Y-81830457D01*
X88425747Y-81813284D01*
X88538973Y-81778937D01*
X88605157Y-81772419D01*
X88671340Y-81765900D01*
X88759860Y-81765900D01*
X88826043Y-81772419D01*
X88826043Y-81772419D01*
G37*
G36*
X104066043Y-79232419D02*
X104132227Y-79238937D01*
X104245453Y-79273284D01*
X104302067Y-79290457D01*
X104440687Y-79364552D01*
X104458591Y-79374122D01*
X104494329Y-79403452D01*
X104595786Y-79486714D01*
X104679048Y-79588171D01*
X104708378Y-79623909D01*
X104708379Y-79623911D01*
X104792043Y-79780433D01*
X104792043Y-79780434D01*
X104843563Y-79950273D01*
X104860959Y-80126900D01*
X104843563Y-80303527D01*
X104809216Y-80416753D01*
X104792043Y-80473367D01*
X104717948Y-80611987D01*
X104708378Y-80629891D01*
X104679048Y-80665629D01*
X104595786Y-80767086D01*
X104494329Y-80850348D01*
X104458591Y-80879678D01*
X104458589Y-80879679D01*
X104302067Y-80963343D01*
X104245453Y-80980516D01*
X104132227Y-81014863D01*
X104066043Y-81021381D01*
X103999860Y-81027900D01*
X103911340Y-81027900D01*
X103845157Y-81021381D01*
X103778973Y-81014863D01*
X103665747Y-80980516D01*
X103609133Y-80963343D01*
X103452611Y-80879679D01*
X103452609Y-80879678D01*
X103416871Y-80850348D01*
X103315414Y-80767086D01*
X103232152Y-80665629D01*
X103202822Y-80629891D01*
X103193252Y-80611987D01*
X103119157Y-80473367D01*
X103101984Y-80416753D01*
X103067637Y-80303527D01*
X103050241Y-80126900D01*
X103067637Y-79950273D01*
X103119157Y-79780434D01*
X103119157Y-79780433D01*
X103202821Y-79623911D01*
X103202822Y-79623909D01*
X103232152Y-79588171D01*
X103315414Y-79486714D01*
X103416871Y-79403452D01*
X103452609Y-79374122D01*
X103470513Y-79364552D01*
X103609133Y-79290457D01*
X103665747Y-79273284D01*
X103778973Y-79238937D01*
X103845157Y-79232419D01*
X103911340Y-79225900D01*
X103999860Y-79225900D01*
X104066043Y-79232419D01*
X104066043Y-79232419D01*
G37*
G36*
X101526043Y-79232419D02*
X101592227Y-79238937D01*
X101705453Y-79273284D01*
X101762067Y-79290457D01*
X101900687Y-79364552D01*
X101918591Y-79374122D01*
X101954329Y-79403452D01*
X102055786Y-79486714D01*
X102139048Y-79588171D01*
X102168378Y-79623909D01*
X102168379Y-79623911D01*
X102252043Y-79780433D01*
X102252043Y-79780434D01*
X102303563Y-79950273D01*
X102320959Y-80126900D01*
X102303563Y-80303527D01*
X102269216Y-80416753D01*
X102252043Y-80473367D01*
X102177948Y-80611987D01*
X102168378Y-80629891D01*
X102139048Y-80665629D01*
X102055786Y-80767086D01*
X101954329Y-80850348D01*
X101918591Y-80879678D01*
X101918589Y-80879679D01*
X101762067Y-80963343D01*
X101705453Y-80980516D01*
X101592227Y-81014863D01*
X101526043Y-81021381D01*
X101459860Y-81027900D01*
X101371340Y-81027900D01*
X101305157Y-81021381D01*
X101238973Y-81014863D01*
X101125747Y-80980516D01*
X101069133Y-80963343D01*
X100912611Y-80879679D01*
X100912609Y-80879678D01*
X100876871Y-80850348D01*
X100775414Y-80767086D01*
X100692152Y-80665629D01*
X100662822Y-80629891D01*
X100653252Y-80611987D01*
X100579157Y-80473367D01*
X100561984Y-80416753D01*
X100527637Y-80303527D01*
X100510241Y-80126900D01*
X100527637Y-79950273D01*
X100579157Y-79780434D01*
X100579157Y-79780433D01*
X100662821Y-79623911D01*
X100662822Y-79623909D01*
X100692152Y-79588171D01*
X100775414Y-79486714D01*
X100876871Y-79403452D01*
X100912609Y-79374122D01*
X100930513Y-79364552D01*
X101069133Y-79290457D01*
X101125747Y-79273284D01*
X101238973Y-79238937D01*
X101305157Y-79232419D01*
X101371340Y-79225900D01*
X101459860Y-79225900D01*
X101526043Y-79232419D01*
X101526043Y-79232419D01*
G37*
G36*
X98986043Y-79232419D02*
X99052227Y-79238937D01*
X99165453Y-79273284D01*
X99222067Y-79290457D01*
X99360687Y-79364552D01*
X99378591Y-79374122D01*
X99414329Y-79403452D01*
X99515786Y-79486714D01*
X99599048Y-79588171D01*
X99628378Y-79623909D01*
X99628379Y-79623911D01*
X99712043Y-79780433D01*
X99712043Y-79780434D01*
X99763563Y-79950273D01*
X99780959Y-80126900D01*
X99763563Y-80303527D01*
X99729216Y-80416753D01*
X99712043Y-80473367D01*
X99637948Y-80611987D01*
X99628378Y-80629891D01*
X99599048Y-80665629D01*
X99515786Y-80767086D01*
X99414329Y-80850348D01*
X99378591Y-80879678D01*
X99378589Y-80879679D01*
X99222067Y-80963343D01*
X99165453Y-80980516D01*
X99052227Y-81014863D01*
X98986043Y-81021381D01*
X98919860Y-81027900D01*
X98831340Y-81027900D01*
X98765157Y-81021381D01*
X98698973Y-81014863D01*
X98585747Y-80980516D01*
X98529133Y-80963343D01*
X98372611Y-80879679D01*
X98372609Y-80879678D01*
X98336871Y-80850348D01*
X98235414Y-80767086D01*
X98152152Y-80665629D01*
X98122822Y-80629891D01*
X98113252Y-80611987D01*
X98039157Y-80473367D01*
X98021984Y-80416753D01*
X97987637Y-80303527D01*
X97970241Y-80126900D01*
X97987637Y-79950273D01*
X98039157Y-79780434D01*
X98039157Y-79780433D01*
X98122821Y-79623911D01*
X98122822Y-79623909D01*
X98152152Y-79588171D01*
X98235414Y-79486714D01*
X98336871Y-79403452D01*
X98372609Y-79374122D01*
X98390513Y-79364552D01*
X98529133Y-79290457D01*
X98585747Y-79273284D01*
X98698973Y-79238937D01*
X98765157Y-79232419D01*
X98831340Y-79225900D01*
X98919860Y-79225900D01*
X98986043Y-79232419D01*
X98986043Y-79232419D01*
G37*
G36*
X93906043Y-79232419D02*
X93972227Y-79238937D01*
X94085453Y-79273284D01*
X94142067Y-79290457D01*
X94280687Y-79364552D01*
X94298591Y-79374122D01*
X94334329Y-79403452D01*
X94435786Y-79486714D01*
X94519048Y-79588171D01*
X94548378Y-79623909D01*
X94548379Y-79623911D01*
X94632043Y-79780433D01*
X94632043Y-79780434D01*
X94683563Y-79950273D01*
X94700959Y-80126900D01*
X94683563Y-80303527D01*
X94649216Y-80416753D01*
X94632043Y-80473367D01*
X94557948Y-80611987D01*
X94548378Y-80629891D01*
X94519048Y-80665629D01*
X94435786Y-80767086D01*
X94334329Y-80850348D01*
X94298591Y-80879678D01*
X94298589Y-80879679D01*
X94142067Y-80963343D01*
X94085453Y-80980516D01*
X93972227Y-81014863D01*
X93906043Y-81021381D01*
X93839860Y-81027900D01*
X93751340Y-81027900D01*
X93685157Y-81021381D01*
X93618973Y-81014863D01*
X93505747Y-80980516D01*
X93449133Y-80963343D01*
X93292611Y-80879679D01*
X93292609Y-80879678D01*
X93256871Y-80850348D01*
X93155414Y-80767086D01*
X93072152Y-80665629D01*
X93042822Y-80629891D01*
X93033252Y-80611987D01*
X92959157Y-80473367D01*
X92941984Y-80416753D01*
X92907637Y-80303527D01*
X92890241Y-80126900D01*
X92907637Y-79950273D01*
X92959157Y-79780434D01*
X92959157Y-79780433D01*
X93042821Y-79623911D01*
X93042822Y-79623909D01*
X93072152Y-79588171D01*
X93155414Y-79486714D01*
X93256871Y-79403452D01*
X93292609Y-79374122D01*
X93310513Y-79364552D01*
X93449133Y-79290457D01*
X93505747Y-79273284D01*
X93618973Y-79238937D01*
X93685157Y-79232419D01*
X93751340Y-79225900D01*
X93839860Y-79225900D01*
X93906043Y-79232419D01*
X93906043Y-79232419D01*
G37*
G36*
X91366043Y-79232419D02*
X91432227Y-79238937D01*
X91545453Y-79273284D01*
X91602067Y-79290457D01*
X91740687Y-79364552D01*
X91758591Y-79374122D01*
X91794329Y-79403452D01*
X91895786Y-79486714D01*
X91979048Y-79588171D01*
X92008378Y-79623909D01*
X92008379Y-79623911D01*
X92092043Y-79780433D01*
X92092043Y-79780434D01*
X92143563Y-79950273D01*
X92160959Y-80126900D01*
X92143563Y-80303527D01*
X92109216Y-80416753D01*
X92092043Y-80473367D01*
X92017948Y-80611987D01*
X92008378Y-80629891D01*
X91979048Y-80665629D01*
X91895786Y-80767086D01*
X91794329Y-80850348D01*
X91758591Y-80879678D01*
X91758589Y-80879679D01*
X91602067Y-80963343D01*
X91545453Y-80980516D01*
X91432227Y-81014863D01*
X91366043Y-81021381D01*
X91299860Y-81027900D01*
X91211340Y-81027900D01*
X91145157Y-81021381D01*
X91078973Y-81014863D01*
X90965747Y-80980516D01*
X90909133Y-80963343D01*
X90752611Y-80879679D01*
X90752609Y-80879678D01*
X90716871Y-80850348D01*
X90615414Y-80767086D01*
X90532152Y-80665629D01*
X90502822Y-80629891D01*
X90493252Y-80611987D01*
X90419157Y-80473367D01*
X90401984Y-80416753D01*
X90367637Y-80303527D01*
X90350241Y-80126900D01*
X90367637Y-79950273D01*
X90419157Y-79780434D01*
X90419157Y-79780433D01*
X90502821Y-79623911D01*
X90502822Y-79623909D01*
X90532152Y-79588171D01*
X90615414Y-79486714D01*
X90716871Y-79403452D01*
X90752609Y-79374122D01*
X90770513Y-79364552D01*
X90909133Y-79290457D01*
X90965747Y-79273284D01*
X91078973Y-79238937D01*
X91145157Y-79232419D01*
X91211340Y-79225900D01*
X91299860Y-79225900D01*
X91366043Y-79232419D01*
X91366043Y-79232419D01*
G37*
G36*
X88826043Y-79232419D02*
X88892227Y-79238937D01*
X89005453Y-79273284D01*
X89062067Y-79290457D01*
X89200687Y-79364552D01*
X89218591Y-79374122D01*
X89254329Y-79403452D01*
X89355786Y-79486714D01*
X89439048Y-79588171D01*
X89468378Y-79623909D01*
X89468379Y-79623911D01*
X89552043Y-79780433D01*
X89552043Y-79780434D01*
X89603563Y-79950273D01*
X89620959Y-80126900D01*
X89603563Y-80303527D01*
X89569216Y-80416753D01*
X89552043Y-80473367D01*
X89477948Y-80611987D01*
X89468378Y-80629891D01*
X89439048Y-80665629D01*
X89355786Y-80767086D01*
X89254329Y-80850348D01*
X89218591Y-80879678D01*
X89218589Y-80879679D01*
X89062067Y-80963343D01*
X89005453Y-80980516D01*
X88892227Y-81014863D01*
X88826043Y-81021381D01*
X88759860Y-81027900D01*
X88671340Y-81027900D01*
X88605157Y-81021381D01*
X88538973Y-81014863D01*
X88425747Y-80980516D01*
X88369133Y-80963343D01*
X88212611Y-80879679D01*
X88212609Y-80879678D01*
X88176871Y-80850348D01*
X88075414Y-80767086D01*
X87992152Y-80665629D01*
X87962822Y-80629891D01*
X87953252Y-80611987D01*
X87879157Y-80473367D01*
X87861984Y-80416753D01*
X87827637Y-80303527D01*
X87810241Y-80126900D01*
X87827637Y-79950273D01*
X87879157Y-79780434D01*
X87879157Y-79780433D01*
X87962821Y-79623911D01*
X87962822Y-79623909D01*
X87992152Y-79588171D01*
X88075414Y-79486714D01*
X88176871Y-79403452D01*
X88212609Y-79374122D01*
X88230513Y-79364552D01*
X88369133Y-79290457D01*
X88425747Y-79273284D01*
X88538973Y-79238937D01*
X88605157Y-79232419D01*
X88671340Y-79225900D01*
X88759860Y-79225900D01*
X88826043Y-79232419D01*
X88826043Y-79232419D01*
G37*
G36*
X86286043Y-79232419D02*
X86352227Y-79238937D01*
X86465453Y-79273284D01*
X86522067Y-79290457D01*
X86660687Y-79364552D01*
X86678591Y-79374122D01*
X86714329Y-79403452D01*
X86815786Y-79486714D01*
X86899048Y-79588171D01*
X86928378Y-79623909D01*
X86928379Y-79623911D01*
X87012043Y-79780433D01*
X87012043Y-79780434D01*
X87063563Y-79950273D01*
X87080959Y-80126900D01*
X87063563Y-80303527D01*
X87029216Y-80416753D01*
X87012043Y-80473367D01*
X86937948Y-80611987D01*
X86928378Y-80629891D01*
X86899048Y-80665629D01*
X86815786Y-80767086D01*
X86714329Y-80850348D01*
X86678591Y-80879678D01*
X86678589Y-80879679D01*
X86522067Y-80963343D01*
X86465453Y-80980516D01*
X86352227Y-81014863D01*
X86286043Y-81021381D01*
X86219860Y-81027900D01*
X86131340Y-81027900D01*
X86065157Y-81021381D01*
X85998973Y-81014863D01*
X85885747Y-80980516D01*
X85829133Y-80963343D01*
X85672611Y-80879679D01*
X85672609Y-80879678D01*
X85636871Y-80850348D01*
X85535414Y-80767086D01*
X85452152Y-80665629D01*
X85422822Y-80629891D01*
X85413252Y-80611987D01*
X85339157Y-80473367D01*
X85321984Y-80416753D01*
X85287637Y-80303527D01*
X85270241Y-80126900D01*
X85287637Y-79950273D01*
X85339157Y-79780434D01*
X85339157Y-79780433D01*
X85422821Y-79623911D01*
X85422822Y-79623909D01*
X85452152Y-79588171D01*
X85535414Y-79486714D01*
X85636871Y-79403452D01*
X85672609Y-79374122D01*
X85690513Y-79364552D01*
X85829133Y-79290457D01*
X85885747Y-79273284D01*
X85998973Y-79238937D01*
X86065157Y-79232419D01*
X86131340Y-79225900D01*
X86219860Y-79225900D01*
X86286043Y-79232419D01*
X86286043Y-79232419D01*
G37*
G36*
X83746043Y-79232419D02*
X83812227Y-79238937D01*
X83925453Y-79273284D01*
X83982067Y-79290457D01*
X84120687Y-79364552D01*
X84138591Y-79374122D01*
X84174329Y-79403452D01*
X84275786Y-79486714D01*
X84359048Y-79588171D01*
X84388378Y-79623909D01*
X84388379Y-79623911D01*
X84472043Y-79780433D01*
X84472043Y-79780434D01*
X84523563Y-79950273D01*
X84540959Y-80126900D01*
X84523563Y-80303527D01*
X84489216Y-80416753D01*
X84472043Y-80473367D01*
X84397948Y-80611987D01*
X84388378Y-80629891D01*
X84359048Y-80665629D01*
X84275786Y-80767086D01*
X84174329Y-80850348D01*
X84138591Y-80879678D01*
X84138589Y-80879679D01*
X83982067Y-80963343D01*
X83925453Y-80980516D01*
X83812227Y-81014863D01*
X83746043Y-81021381D01*
X83679860Y-81027900D01*
X83591340Y-81027900D01*
X83525157Y-81021381D01*
X83458973Y-81014863D01*
X83345747Y-80980516D01*
X83289133Y-80963343D01*
X83132611Y-80879679D01*
X83132609Y-80879678D01*
X83096871Y-80850348D01*
X82995414Y-80767086D01*
X82912152Y-80665629D01*
X82882822Y-80629891D01*
X82873252Y-80611987D01*
X82799157Y-80473367D01*
X82781984Y-80416753D01*
X82747637Y-80303527D01*
X82730241Y-80126900D01*
X82747637Y-79950273D01*
X82799157Y-79780434D01*
X82799157Y-79780433D01*
X82882821Y-79623911D01*
X82882822Y-79623909D01*
X82912152Y-79588171D01*
X82995414Y-79486714D01*
X83096871Y-79403452D01*
X83132609Y-79374122D01*
X83150513Y-79364552D01*
X83289133Y-79290457D01*
X83345747Y-79273284D01*
X83458973Y-79238937D01*
X83525157Y-79232419D01*
X83591340Y-79225900D01*
X83679860Y-79225900D01*
X83746043Y-79232419D01*
X83746043Y-79232419D01*
G37*
G36*
X96446043Y-79232419D02*
X96512227Y-79238937D01*
X96625453Y-79273284D01*
X96682067Y-79290457D01*
X96820687Y-79364552D01*
X96838591Y-79374122D01*
X96874329Y-79403452D01*
X96975786Y-79486714D01*
X97059048Y-79588171D01*
X97088378Y-79623909D01*
X97088379Y-79623911D01*
X97172043Y-79780433D01*
X97172043Y-79780434D01*
X97223563Y-79950273D01*
X97240959Y-80126900D01*
X97223563Y-80303527D01*
X97189216Y-80416753D01*
X97172043Y-80473367D01*
X97097948Y-80611987D01*
X97088378Y-80629891D01*
X97059048Y-80665629D01*
X96975786Y-80767086D01*
X96874329Y-80850348D01*
X96838591Y-80879678D01*
X96838589Y-80879679D01*
X96682067Y-80963343D01*
X96625453Y-80980516D01*
X96512227Y-81014863D01*
X96446043Y-81021381D01*
X96379860Y-81027900D01*
X96291340Y-81027900D01*
X96225157Y-81021381D01*
X96158973Y-81014863D01*
X96045747Y-80980516D01*
X95989133Y-80963343D01*
X95832611Y-80879679D01*
X95832609Y-80879678D01*
X95796871Y-80850348D01*
X95695414Y-80767086D01*
X95612152Y-80665629D01*
X95582822Y-80629891D01*
X95573252Y-80611987D01*
X95499157Y-80473367D01*
X95481984Y-80416753D01*
X95447637Y-80303527D01*
X95430241Y-80126900D01*
X95447637Y-79950273D01*
X95499157Y-79780434D01*
X95499157Y-79780433D01*
X95582821Y-79623911D01*
X95582822Y-79623909D01*
X95612152Y-79588171D01*
X95695414Y-79486714D01*
X95796871Y-79403452D01*
X95832609Y-79374122D01*
X95850513Y-79364552D01*
X95989133Y-79290457D01*
X96045747Y-79273284D01*
X96158973Y-79238937D01*
X96225157Y-79232419D01*
X96291340Y-79225900D01*
X96379860Y-79225900D01*
X96446043Y-79232419D01*
X96446043Y-79232419D01*
G37*
G36*
X78666043Y-79232419D02*
X78732227Y-79238937D01*
X78845453Y-79273284D01*
X78902067Y-79290457D01*
X79040687Y-79364552D01*
X79058591Y-79374122D01*
X79094329Y-79403452D01*
X79195786Y-79486714D01*
X79279048Y-79588171D01*
X79308378Y-79623909D01*
X79308379Y-79623911D01*
X79392043Y-79780433D01*
X79392043Y-79780434D01*
X79443563Y-79950273D01*
X79460959Y-80126900D01*
X79443563Y-80303527D01*
X79409216Y-80416753D01*
X79392043Y-80473367D01*
X79317948Y-80611987D01*
X79308378Y-80629891D01*
X79279048Y-80665629D01*
X79195786Y-80767086D01*
X79094329Y-80850348D01*
X79058591Y-80879678D01*
X79058589Y-80879679D01*
X78902067Y-80963343D01*
X78845453Y-80980516D01*
X78732227Y-81014863D01*
X78666043Y-81021381D01*
X78599860Y-81027900D01*
X78511340Y-81027900D01*
X78445157Y-81021381D01*
X78378973Y-81014863D01*
X78265747Y-80980516D01*
X78209133Y-80963343D01*
X78052611Y-80879679D01*
X78052609Y-80879678D01*
X78016871Y-80850348D01*
X77915414Y-80767086D01*
X77832152Y-80665629D01*
X77802822Y-80629891D01*
X77793252Y-80611987D01*
X77719157Y-80473367D01*
X77701984Y-80416753D01*
X77667637Y-80303527D01*
X77650241Y-80126900D01*
X77667637Y-79950273D01*
X77719157Y-79780434D01*
X77719157Y-79780433D01*
X77802821Y-79623911D01*
X77802822Y-79623909D01*
X77832152Y-79588171D01*
X77915414Y-79486714D01*
X78016871Y-79403452D01*
X78052609Y-79374122D01*
X78070513Y-79364552D01*
X78209133Y-79290457D01*
X78265747Y-79273284D01*
X78378973Y-79238937D01*
X78445157Y-79232419D01*
X78511340Y-79225900D01*
X78599860Y-79225900D01*
X78666043Y-79232419D01*
X78666043Y-79232419D01*
G37*
G36*
X76126043Y-79232419D02*
X76192227Y-79238937D01*
X76305453Y-79273284D01*
X76362067Y-79290457D01*
X76500687Y-79364552D01*
X76518591Y-79374122D01*
X76554329Y-79403452D01*
X76655786Y-79486714D01*
X76739048Y-79588171D01*
X76768378Y-79623909D01*
X76768379Y-79623911D01*
X76852043Y-79780433D01*
X76852043Y-79780434D01*
X76903563Y-79950273D01*
X76920959Y-80126900D01*
X76903563Y-80303527D01*
X76869216Y-80416753D01*
X76852043Y-80473367D01*
X76777948Y-80611987D01*
X76768378Y-80629891D01*
X76739048Y-80665629D01*
X76655786Y-80767086D01*
X76554329Y-80850348D01*
X76518591Y-80879678D01*
X76518589Y-80879679D01*
X76362067Y-80963343D01*
X76305453Y-80980516D01*
X76192227Y-81014863D01*
X76126043Y-81021381D01*
X76059860Y-81027900D01*
X75971340Y-81027900D01*
X75905157Y-81021381D01*
X75838973Y-81014863D01*
X75725747Y-80980516D01*
X75669133Y-80963343D01*
X75512611Y-80879679D01*
X75512609Y-80879678D01*
X75476871Y-80850348D01*
X75375414Y-80767086D01*
X75292152Y-80665629D01*
X75262822Y-80629891D01*
X75253252Y-80611987D01*
X75179157Y-80473367D01*
X75161984Y-80416753D01*
X75127637Y-80303527D01*
X75110241Y-80126900D01*
X75127637Y-79950273D01*
X75179157Y-79780434D01*
X75179157Y-79780433D01*
X75262821Y-79623911D01*
X75262822Y-79623909D01*
X75292152Y-79588171D01*
X75375414Y-79486714D01*
X75476871Y-79403452D01*
X75512609Y-79374122D01*
X75530513Y-79364552D01*
X75669133Y-79290457D01*
X75725747Y-79273284D01*
X75838973Y-79238937D01*
X75905157Y-79232419D01*
X75971340Y-79225900D01*
X76059860Y-79225900D01*
X76126043Y-79232419D01*
X76126043Y-79232419D01*
G37*
G36*
X81206043Y-79232419D02*
X81272227Y-79238937D01*
X81385453Y-79273284D01*
X81442067Y-79290457D01*
X81580687Y-79364552D01*
X81598591Y-79374122D01*
X81634329Y-79403452D01*
X81735786Y-79486714D01*
X81819048Y-79588171D01*
X81848378Y-79623909D01*
X81848379Y-79623911D01*
X81932043Y-79780433D01*
X81932043Y-79780434D01*
X81983563Y-79950273D01*
X82000959Y-80126900D01*
X81983563Y-80303527D01*
X81949216Y-80416753D01*
X81932043Y-80473367D01*
X81857948Y-80611987D01*
X81848378Y-80629891D01*
X81819048Y-80665629D01*
X81735786Y-80767086D01*
X81634329Y-80850348D01*
X81598591Y-80879678D01*
X81598589Y-80879679D01*
X81442067Y-80963343D01*
X81385453Y-80980516D01*
X81272227Y-81014863D01*
X81206043Y-81021381D01*
X81139860Y-81027900D01*
X81051340Y-81027900D01*
X80985157Y-81021381D01*
X80918973Y-81014863D01*
X80805747Y-80980516D01*
X80749133Y-80963343D01*
X80592611Y-80879679D01*
X80592609Y-80879678D01*
X80556871Y-80850348D01*
X80455414Y-80767086D01*
X80372152Y-80665629D01*
X80342822Y-80629891D01*
X80333252Y-80611987D01*
X80259157Y-80473367D01*
X80241984Y-80416753D01*
X80207637Y-80303527D01*
X80190241Y-80126900D01*
X80207637Y-79950273D01*
X80259157Y-79780434D01*
X80259157Y-79780433D01*
X80342821Y-79623911D01*
X80342822Y-79623909D01*
X80372152Y-79588171D01*
X80455414Y-79486714D01*
X80556871Y-79403452D01*
X80592609Y-79374122D01*
X80610513Y-79364552D01*
X80749133Y-79290457D01*
X80805747Y-79273284D01*
X80918973Y-79238937D01*
X80985157Y-79232419D01*
X81051340Y-79225900D01*
X81139860Y-79225900D01*
X81206043Y-79232419D01*
X81206043Y-79232419D01*
G37*
G36*
X124386043Y-79232419D02*
X124452227Y-79238937D01*
X124565453Y-79273284D01*
X124622067Y-79290457D01*
X124760687Y-79364552D01*
X124778591Y-79374122D01*
X124814329Y-79403452D01*
X124915786Y-79486714D01*
X124999048Y-79588171D01*
X125028378Y-79623909D01*
X125028379Y-79623911D01*
X125112043Y-79780433D01*
X125112043Y-79780434D01*
X125163563Y-79950273D01*
X125180959Y-80126900D01*
X125163563Y-80303527D01*
X125129216Y-80416753D01*
X125112043Y-80473367D01*
X125037948Y-80611987D01*
X125028378Y-80629891D01*
X124999048Y-80665629D01*
X124915786Y-80767086D01*
X124814329Y-80850348D01*
X124778591Y-80879678D01*
X124778589Y-80879679D01*
X124622067Y-80963343D01*
X124565453Y-80980516D01*
X124452227Y-81014863D01*
X124386043Y-81021381D01*
X124319860Y-81027900D01*
X124231340Y-81027900D01*
X124165157Y-81021381D01*
X124098973Y-81014863D01*
X123985747Y-80980516D01*
X123929133Y-80963343D01*
X123772611Y-80879679D01*
X123772609Y-80879678D01*
X123736871Y-80850348D01*
X123635414Y-80767086D01*
X123552152Y-80665629D01*
X123522822Y-80629891D01*
X123513252Y-80611987D01*
X123439157Y-80473367D01*
X123421984Y-80416753D01*
X123387637Y-80303527D01*
X123370241Y-80126900D01*
X123387637Y-79950273D01*
X123439157Y-79780434D01*
X123439157Y-79780433D01*
X123522821Y-79623911D01*
X123522822Y-79623909D01*
X123552152Y-79588171D01*
X123635414Y-79486714D01*
X123736871Y-79403452D01*
X123772609Y-79374122D01*
X123790513Y-79364552D01*
X123929133Y-79290457D01*
X123985747Y-79273284D01*
X124098973Y-79238937D01*
X124165157Y-79232419D01*
X124231340Y-79225900D01*
X124319860Y-79225900D01*
X124386043Y-79232419D01*
X124386043Y-79232419D01*
G37*
G36*
X121846043Y-79232419D02*
X121912227Y-79238937D01*
X122025453Y-79273284D01*
X122082067Y-79290457D01*
X122220687Y-79364552D01*
X122238591Y-79374122D01*
X122274329Y-79403452D01*
X122375786Y-79486714D01*
X122459048Y-79588171D01*
X122488378Y-79623909D01*
X122488379Y-79623911D01*
X122572043Y-79780433D01*
X122572043Y-79780434D01*
X122623563Y-79950273D01*
X122640959Y-80126900D01*
X122623563Y-80303527D01*
X122589216Y-80416753D01*
X122572043Y-80473367D01*
X122497948Y-80611987D01*
X122488378Y-80629891D01*
X122459048Y-80665629D01*
X122375786Y-80767086D01*
X122274329Y-80850348D01*
X122238591Y-80879678D01*
X122238589Y-80879679D01*
X122082067Y-80963343D01*
X122025453Y-80980516D01*
X121912227Y-81014863D01*
X121846043Y-81021381D01*
X121779860Y-81027900D01*
X121691340Y-81027900D01*
X121625157Y-81021381D01*
X121558973Y-81014863D01*
X121445747Y-80980516D01*
X121389133Y-80963343D01*
X121232611Y-80879679D01*
X121232609Y-80879678D01*
X121196871Y-80850348D01*
X121095414Y-80767086D01*
X121012152Y-80665629D01*
X120982822Y-80629891D01*
X120973252Y-80611987D01*
X120899157Y-80473367D01*
X120881984Y-80416753D01*
X120847637Y-80303527D01*
X120830241Y-80126900D01*
X120847637Y-79950273D01*
X120899157Y-79780434D01*
X120899157Y-79780433D01*
X120982821Y-79623911D01*
X120982822Y-79623909D01*
X121012152Y-79588171D01*
X121095414Y-79486714D01*
X121196871Y-79403452D01*
X121232609Y-79374122D01*
X121250513Y-79364552D01*
X121389133Y-79290457D01*
X121445747Y-79273284D01*
X121558973Y-79238937D01*
X121625157Y-79232419D01*
X121691340Y-79225900D01*
X121779860Y-79225900D01*
X121846043Y-79232419D01*
X121846043Y-79232419D01*
G37*
G36*
X119306043Y-79232419D02*
X119372227Y-79238937D01*
X119485453Y-79273284D01*
X119542067Y-79290457D01*
X119680687Y-79364552D01*
X119698591Y-79374122D01*
X119734329Y-79403452D01*
X119835786Y-79486714D01*
X119919048Y-79588171D01*
X119948378Y-79623909D01*
X119948379Y-79623911D01*
X120032043Y-79780433D01*
X120032043Y-79780434D01*
X120083563Y-79950273D01*
X120100959Y-80126900D01*
X120083563Y-80303527D01*
X120049216Y-80416753D01*
X120032043Y-80473367D01*
X119957948Y-80611987D01*
X119948378Y-80629891D01*
X119919048Y-80665629D01*
X119835786Y-80767086D01*
X119734329Y-80850348D01*
X119698591Y-80879678D01*
X119698589Y-80879679D01*
X119542067Y-80963343D01*
X119485453Y-80980516D01*
X119372227Y-81014863D01*
X119306043Y-81021381D01*
X119239860Y-81027900D01*
X119151340Y-81027900D01*
X119085157Y-81021381D01*
X119018973Y-81014863D01*
X118905747Y-80980516D01*
X118849133Y-80963343D01*
X118692611Y-80879679D01*
X118692609Y-80879678D01*
X118656871Y-80850348D01*
X118555414Y-80767086D01*
X118472152Y-80665629D01*
X118442822Y-80629891D01*
X118433252Y-80611987D01*
X118359157Y-80473367D01*
X118341984Y-80416753D01*
X118307637Y-80303527D01*
X118290241Y-80126900D01*
X118307637Y-79950273D01*
X118359157Y-79780434D01*
X118359157Y-79780433D01*
X118442821Y-79623911D01*
X118442822Y-79623909D01*
X118472152Y-79588171D01*
X118555414Y-79486714D01*
X118656871Y-79403452D01*
X118692609Y-79374122D01*
X118710513Y-79364552D01*
X118849133Y-79290457D01*
X118905747Y-79273284D01*
X119018973Y-79238937D01*
X119085157Y-79232419D01*
X119151340Y-79225900D01*
X119239860Y-79225900D01*
X119306043Y-79232419D01*
X119306043Y-79232419D01*
G37*
G36*
X116766043Y-79232419D02*
X116832227Y-79238937D01*
X116945453Y-79273284D01*
X117002067Y-79290457D01*
X117140687Y-79364552D01*
X117158591Y-79374122D01*
X117194329Y-79403452D01*
X117295786Y-79486714D01*
X117379048Y-79588171D01*
X117408378Y-79623909D01*
X117408379Y-79623911D01*
X117492043Y-79780433D01*
X117492043Y-79780434D01*
X117543563Y-79950273D01*
X117560959Y-80126900D01*
X117543563Y-80303527D01*
X117509216Y-80416753D01*
X117492043Y-80473367D01*
X117417948Y-80611987D01*
X117408378Y-80629891D01*
X117379048Y-80665629D01*
X117295786Y-80767086D01*
X117194329Y-80850348D01*
X117158591Y-80879678D01*
X117158589Y-80879679D01*
X117002067Y-80963343D01*
X116945453Y-80980516D01*
X116832227Y-81014863D01*
X116766043Y-81021381D01*
X116699860Y-81027900D01*
X116611340Y-81027900D01*
X116545157Y-81021381D01*
X116478973Y-81014863D01*
X116365747Y-80980516D01*
X116309133Y-80963343D01*
X116152611Y-80879679D01*
X116152609Y-80879678D01*
X116116871Y-80850348D01*
X116015414Y-80767086D01*
X115932152Y-80665629D01*
X115902822Y-80629891D01*
X115893252Y-80611987D01*
X115819157Y-80473367D01*
X115801984Y-80416753D01*
X115767637Y-80303527D01*
X115750241Y-80126900D01*
X115767637Y-79950273D01*
X115819157Y-79780434D01*
X115819157Y-79780433D01*
X115902821Y-79623911D01*
X115902822Y-79623909D01*
X115932152Y-79588171D01*
X116015414Y-79486714D01*
X116116871Y-79403452D01*
X116152609Y-79374122D01*
X116170513Y-79364552D01*
X116309133Y-79290457D01*
X116365747Y-79273284D01*
X116478973Y-79238937D01*
X116545157Y-79232419D01*
X116611340Y-79225900D01*
X116699860Y-79225900D01*
X116766043Y-79232419D01*
X116766043Y-79232419D01*
G37*
G36*
X114226043Y-79232419D02*
X114292227Y-79238937D01*
X114405453Y-79273284D01*
X114462067Y-79290457D01*
X114600687Y-79364552D01*
X114618591Y-79374122D01*
X114654329Y-79403452D01*
X114755786Y-79486714D01*
X114839048Y-79588171D01*
X114868378Y-79623909D01*
X114868379Y-79623911D01*
X114952043Y-79780433D01*
X114952043Y-79780434D01*
X115003563Y-79950273D01*
X115020959Y-80126900D01*
X115003563Y-80303527D01*
X114969216Y-80416753D01*
X114952043Y-80473367D01*
X114877948Y-80611987D01*
X114868378Y-80629891D01*
X114839048Y-80665629D01*
X114755786Y-80767086D01*
X114654329Y-80850348D01*
X114618591Y-80879678D01*
X114618589Y-80879679D01*
X114462067Y-80963343D01*
X114405453Y-80980516D01*
X114292227Y-81014863D01*
X114226043Y-81021381D01*
X114159860Y-81027900D01*
X114071340Y-81027900D01*
X114005157Y-81021381D01*
X113938973Y-81014863D01*
X113825747Y-80980516D01*
X113769133Y-80963343D01*
X113612611Y-80879679D01*
X113612609Y-80879678D01*
X113576871Y-80850348D01*
X113475414Y-80767086D01*
X113392152Y-80665629D01*
X113362822Y-80629891D01*
X113353252Y-80611987D01*
X113279157Y-80473367D01*
X113261984Y-80416753D01*
X113227637Y-80303527D01*
X113210241Y-80126900D01*
X113227637Y-79950273D01*
X113279157Y-79780434D01*
X113279157Y-79780433D01*
X113362821Y-79623911D01*
X113362822Y-79623909D01*
X113392152Y-79588171D01*
X113475414Y-79486714D01*
X113576871Y-79403452D01*
X113612609Y-79374122D01*
X113630513Y-79364552D01*
X113769133Y-79290457D01*
X113825747Y-79273284D01*
X113938973Y-79238937D01*
X114005157Y-79232419D01*
X114071340Y-79225900D01*
X114159860Y-79225900D01*
X114226043Y-79232419D01*
X114226043Y-79232419D01*
G37*
G36*
X109146043Y-79232419D02*
X109212227Y-79238937D01*
X109325453Y-79273284D01*
X109382067Y-79290457D01*
X109520687Y-79364552D01*
X109538591Y-79374122D01*
X109574329Y-79403452D01*
X109675786Y-79486714D01*
X109759048Y-79588171D01*
X109788378Y-79623909D01*
X109788379Y-79623911D01*
X109872043Y-79780433D01*
X109872043Y-79780434D01*
X109923563Y-79950273D01*
X109940959Y-80126900D01*
X109923563Y-80303527D01*
X109889216Y-80416753D01*
X109872043Y-80473367D01*
X109797948Y-80611987D01*
X109788378Y-80629891D01*
X109759048Y-80665629D01*
X109675786Y-80767086D01*
X109574329Y-80850348D01*
X109538591Y-80879678D01*
X109538589Y-80879679D01*
X109382067Y-80963343D01*
X109325453Y-80980516D01*
X109212227Y-81014863D01*
X109146043Y-81021381D01*
X109079860Y-81027900D01*
X108991340Y-81027900D01*
X108925157Y-81021381D01*
X108858973Y-81014863D01*
X108745747Y-80980516D01*
X108689133Y-80963343D01*
X108532611Y-80879679D01*
X108532609Y-80879678D01*
X108496871Y-80850348D01*
X108395414Y-80767086D01*
X108312152Y-80665629D01*
X108282822Y-80629891D01*
X108273252Y-80611987D01*
X108199157Y-80473367D01*
X108181984Y-80416753D01*
X108147637Y-80303527D01*
X108130241Y-80126900D01*
X108147637Y-79950273D01*
X108199157Y-79780434D01*
X108199157Y-79780433D01*
X108282821Y-79623911D01*
X108282822Y-79623909D01*
X108312152Y-79588171D01*
X108395414Y-79486714D01*
X108496871Y-79403452D01*
X108532609Y-79374122D01*
X108550513Y-79364552D01*
X108689133Y-79290457D01*
X108745747Y-79273284D01*
X108858973Y-79238937D01*
X108925157Y-79232419D01*
X108991340Y-79225900D01*
X109079860Y-79225900D01*
X109146043Y-79232419D01*
X109146043Y-79232419D01*
G37*
G36*
X106606043Y-79232419D02*
X106672227Y-79238937D01*
X106785453Y-79273284D01*
X106842067Y-79290457D01*
X106980687Y-79364552D01*
X106998591Y-79374122D01*
X107034329Y-79403452D01*
X107135786Y-79486714D01*
X107219048Y-79588171D01*
X107248378Y-79623909D01*
X107248379Y-79623911D01*
X107332043Y-79780433D01*
X107332043Y-79780434D01*
X107383563Y-79950273D01*
X107400959Y-80126900D01*
X107383563Y-80303527D01*
X107349216Y-80416753D01*
X107332043Y-80473367D01*
X107257948Y-80611987D01*
X107248378Y-80629891D01*
X107219048Y-80665629D01*
X107135786Y-80767086D01*
X107034329Y-80850348D01*
X106998591Y-80879678D01*
X106998589Y-80879679D01*
X106842067Y-80963343D01*
X106785453Y-80980516D01*
X106672227Y-81014863D01*
X106606043Y-81021381D01*
X106539860Y-81027900D01*
X106451340Y-81027900D01*
X106385157Y-81021381D01*
X106318973Y-81014863D01*
X106205747Y-80980516D01*
X106149133Y-80963343D01*
X105992611Y-80879679D01*
X105992609Y-80879678D01*
X105956871Y-80850348D01*
X105855414Y-80767086D01*
X105772152Y-80665629D01*
X105742822Y-80629891D01*
X105733252Y-80611987D01*
X105659157Y-80473367D01*
X105641984Y-80416753D01*
X105607637Y-80303527D01*
X105590241Y-80126900D01*
X105607637Y-79950273D01*
X105659157Y-79780434D01*
X105659157Y-79780433D01*
X105742821Y-79623911D01*
X105742822Y-79623909D01*
X105772152Y-79588171D01*
X105855414Y-79486714D01*
X105956871Y-79403452D01*
X105992609Y-79374122D01*
X106010513Y-79364552D01*
X106149133Y-79290457D01*
X106205747Y-79273284D01*
X106318973Y-79238937D01*
X106385157Y-79232419D01*
X106451340Y-79225900D01*
X106539860Y-79225900D01*
X106606043Y-79232419D01*
X106606043Y-79232419D01*
G37*
G36*
X111686043Y-79232419D02*
X111752227Y-79238937D01*
X111865453Y-79273284D01*
X111922067Y-79290457D01*
X112060687Y-79364552D01*
X112078591Y-79374122D01*
X112114329Y-79403452D01*
X112215786Y-79486714D01*
X112299048Y-79588171D01*
X112328378Y-79623909D01*
X112328379Y-79623911D01*
X112412043Y-79780433D01*
X112412043Y-79780434D01*
X112463563Y-79950273D01*
X112480959Y-80126900D01*
X112463563Y-80303527D01*
X112429216Y-80416753D01*
X112412043Y-80473367D01*
X112337948Y-80611987D01*
X112328378Y-80629891D01*
X112299048Y-80665629D01*
X112215786Y-80767086D01*
X112114329Y-80850348D01*
X112078591Y-80879678D01*
X112078589Y-80879679D01*
X111922067Y-80963343D01*
X111865453Y-80980516D01*
X111752227Y-81014863D01*
X111686043Y-81021381D01*
X111619860Y-81027900D01*
X111531340Y-81027900D01*
X111465157Y-81021381D01*
X111398973Y-81014863D01*
X111285747Y-80980516D01*
X111229133Y-80963343D01*
X111072611Y-80879679D01*
X111072609Y-80879678D01*
X111036871Y-80850348D01*
X110935414Y-80767086D01*
X110852152Y-80665629D01*
X110822822Y-80629891D01*
X110813252Y-80611987D01*
X110739157Y-80473367D01*
X110721984Y-80416753D01*
X110687637Y-80303527D01*
X110670241Y-80126900D01*
X110687637Y-79950273D01*
X110739157Y-79780434D01*
X110739157Y-79780433D01*
X110822821Y-79623911D01*
X110822822Y-79623909D01*
X110852152Y-79588171D01*
X110935414Y-79486714D01*
X111036871Y-79403452D01*
X111072609Y-79374122D01*
X111090513Y-79364552D01*
X111229133Y-79290457D01*
X111285747Y-79273284D01*
X111398973Y-79238937D01*
X111465157Y-79232419D01*
X111531340Y-79225900D01*
X111619860Y-79225900D01*
X111686043Y-79232419D01*
X111686043Y-79232419D01*
G37*
M02*
