G04 #@! TF.GenerationSoftware,KiCad,Pcbnew,5.0.2+dfsg1-1~bpo9+1*
G04 #@! TF.CreationDate,2020-08-17T13:34:05+01:00*
G04 #@! TF.ProjectId,nrf24l01-rpi,6e726632-346c-4303-912d-7270692e6b69,rev?*
G04 #@! TF.SameCoordinates,Original*
G04 #@! TF.FileFunction,Copper,L2,Bot*
G04 #@! TF.FilePolarity,Positive*
%FSLAX46Y46*%
G04 Gerber Fmt 4.6, Leading zero omitted, Abs format (unit mm)*
G04 Created by KiCad (PCBNEW 5.0.2+dfsg1-1~bpo9+1) date Mon 17 Aug 2020 13:34:05 IST*
%MOMM*%
%LPD*%
G01*
G04 APERTURE LIST*
G04 #@! TA.AperFunction,ComponentPad*
%ADD10C,2.000000*%
G04 #@! TD*
G04 #@! TA.AperFunction,ComponentPad*
%ADD11R,1.200000X1.200000*%
G04 #@! TD*
G04 #@! TA.AperFunction,ComponentPad*
%ADD12C,1.200000*%
G04 #@! TD*
G04 #@! TA.AperFunction,ComponentPad*
%ADD13R,1.700000X1.700000*%
G04 #@! TD*
G04 #@! TA.AperFunction,ComponentPad*
%ADD14O,1.700000X1.700000*%
G04 #@! TD*
G04 #@! TA.AperFunction,ComponentPad*
%ADD15C,1.800000*%
G04 #@! TD*
G04 #@! TA.AperFunction,ComponentPad*
%ADD16R,1.800000X1.800000*%
G04 #@! TD*
G04 #@! TA.AperFunction,ComponentPad*
%ADD17O,1.600000X1.600000*%
G04 #@! TD*
G04 #@! TA.AperFunction,ComponentPad*
%ADD18C,1.600000*%
G04 #@! TD*
G04 #@! TA.AperFunction,Conductor*
%ADD19C,0.250000*%
G04 #@! TD*
G04 APERTURE END LIST*
D10*
G04 #@! TO.P,SW1,2*
G04 #@! TO.N,GND*
X116006000Y-95504000D03*
G04 #@! TO.P,SW1,1*
G04 #@! TO.N,/GPIO3*
X111506000Y-95504000D03*
G04 #@! TO.P,SW1,2*
G04 #@! TO.N,GND*
X116006000Y-89004000D03*
G04 #@! TO.P,SW1,1*
G04 #@! TO.N,/GPIO3*
X111506000Y-89004000D03*
G04 #@! TD*
D11*
G04 #@! TO.P,C1,1*
G04 #@! TO.N,+3V3*
X90424000Y-104140000D03*
D12*
G04 #@! TO.P,C1,2*
G04 #@! TO.N,GND*
X92424000Y-104140000D03*
G04 #@! TD*
D13*
G04 #@! TO.P,J2,1*
G04 #@! TO.N,GND*
X97917000Y-97028000D03*
D14*
G04 #@! TO.P,J2,2*
G04 #@! TO.N,+3V3*
X95377000Y-97028000D03*
G04 #@! TO.P,J2,3*
G04 #@! TO.N,/SPI_1*
X97917000Y-94488000D03*
G04 #@! TO.P,J2,4*
G04 #@! TO.N,/SPI_0*
X95377000Y-94488000D03*
G04 #@! TO.P,J2,5*
G04 #@! TO.N,/SCLK*
X97917000Y-91948000D03*
G04 #@! TO.P,J2,6*
G04 #@! TO.N,/MOSI*
X95377000Y-91948000D03*
G04 #@! TO.P,J2,7*
G04 #@! TO.N,/MISO*
X97917000Y-89408000D03*
G04 #@! TO.P,J2,8*
G04 #@! TO.N,Net-(J2-Pad8)*
X95377000Y-89408000D03*
G04 #@! TD*
D13*
G04 #@! TO.P,J1,1*
G04 #@! TO.N,+3V3*
X76015600Y-82666900D03*
D14*
G04 #@! TO.P,J1,2*
G04 #@! TO.N,Net-(J1-Pad2)*
X76015600Y-80126900D03*
G04 #@! TO.P,J1,3*
G04 #@! TO.N,Net-(J1-Pad3)*
X78555600Y-82666900D03*
G04 #@! TO.P,J1,4*
G04 #@! TO.N,Net-(J1-Pad4)*
X78555600Y-80126900D03*
G04 #@! TO.P,J1,5*
G04 #@! TO.N,/GPIO3*
X81095600Y-82666900D03*
G04 #@! TO.P,J1,6*
G04 #@! TO.N,GND*
X81095600Y-80126900D03*
G04 #@! TO.P,J1,7*
G04 #@! TO.N,/GPIO4*
X83635600Y-82666900D03*
G04 #@! TO.P,J1,8*
G04 #@! TO.N,Net-(J1-Pad8)*
X83635600Y-80126900D03*
G04 #@! TO.P,J1,9*
G04 #@! TO.N,GND*
X86175600Y-82666900D03*
G04 #@! TO.P,J1,10*
G04 #@! TO.N,Net-(J1-Pad10)*
X86175600Y-80126900D03*
G04 #@! TO.P,J1,11*
G04 #@! TO.N,Net-(J1-Pad11)*
X88715600Y-82666900D03*
G04 #@! TO.P,J1,12*
G04 #@! TO.N,Net-(J1-Pad12)*
X88715600Y-80126900D03*
G04 #@! TO.P,J1,13*
G04 #@! TO.N,Net-(J1-Pad13)*
X91255600Y-82666900D03*
G04 #@! TO.P,J1,14*
G04 #@! TO.N,GND*
X91255600Y-80126900D03*
G04 #@! TO.P,J1,15*
G04 #@! TO.N,Net-(J1-Pad15)*
X93795600Y-82666900D03*
G04 #@! TO.P,J1,16*
G04 #@! TO.N,Net-(J1-Pad16)*
X93795600Y-80126900D03*
G04 #@! TO.P,J1,17*
G04 #@! TO.N,Net-(J1-Pad17)*
X96335600Y-82666900D03*
G04 #@! TO.P,J1,18*
G04 #@! TO.N,Net-(J1-Pad18)*
X96335600Y-80126900D03*
G04 #@! TO.P,J1,19*
G04 #@! TO.N,/MOSI*
X98875600Y-82666900D03*
G04 #@! TO.P,J1,20*
G04 #@! TO.N,GND*
X98875600Y-80126900D03*
G04 #@! TO.P,J1,21*
G04 #@! TO.N,/MISO*
X101415600Y-82666900D03*
G04 #@! TO.P,J1,22*
G04 #@! TO.N,Net-(J1-Pad22)*
X101415600Y-80126900D03*
G04 #@! TO.P,J1,23*
G04 #@! TO.N,/SCLK*
X103955600Y-82666900D03*
G04 #@! TO.P,J1,24*
G04 #@! TO.N,/SPI_0*
X103955600Y-80126900D03*
G04 #@! TO.P,J1,25*
G04 #@! TO.N,GND*
X106495600Y-82666900D03*
G04 #@! TO.P,J1,26*
G04 #@! TO.N,/SPI_1*
X106495600Y-80126900D03*
G04 #@! TO.P,J1,27*
G04 #@! TO.N,Net-(J1-Pad27)*
X109035600Y-82666900D03*
G04 #@! TO.P,J1,28*
G04 #@! TO.N,Net-(J1-Pad28)*
X109035600Y-80126900D03*
G04 #@! TO.P,J1,29*
G04 #@! TO.N,Net-(J1-Pad29)*
X111575600Y-82666900D03*
G04 #@! TO.P,J1,30*
G04 #@! TO.N,GND*
X111575600Y-80126900D03*
G04 #@! TO.P,J1,31*
G04 #@! TO.N,Net-(J1-Pad31)*
X114115600Y-82666900D03*
G04 #@! TO.P,J1,32*
G04 #@! TO.N,Net-(J1-Pad32)*
X114115600Y-80126900D03*
G04 #@! TO.P,J1,33*
G04 #@! TO.N,Net-(J1-Pad33)*
X116655600Y-82666900D03*
G04 #@! TO.P,J1,34*
G04 #@! TO.N,GND*
X116655600Y-80126900D03*
G04 #@! TO.P,J1,35*
G04 #@! TO.N,Net-(J1-Pad35)*
X119195600Y-82666900D03*
G04 #@! TO.P,J1,36*
G04 #@! TO.N,Net-(J1-Pad36)*
X119195600Y-80126900D03*
G04 #@! TO.P,J1,37*
G04 #@! TO.N,Net-(J1-Pad37)*
X121735600Y-82666900D03*
G04 #@! TO.P,J1,38*
G04 #@! TO.N,Net-(J1-Pad38)*
X121735600Y-80126900D03*
G04 #@! TO.P,J1,39*
G04 #@! TO.N,GND*
X124275600Y-82666900D03*
G04 #@! TO.P,J1,40*
G04 #@! TO.N,Net-(J1-Pad40)*
X124275600Y-80126900D03*
G04 #@! TD*
D15*
G04 #@! TO.P,D2,2*
G04 #@! TO.N,/GPIO4*
X87630000Y-111506000D03*
D16*
G04 #@! TO.P,D2,1*
G04 #@! TO.N,Net-(D2-Pad1)*
X85090000Y-111506000D03*
G04 #@! TD*
G04 #@! TO.P,D1,1*
G04 #@! TO.N,/GPIO4*
X95504000Y-111506000D03*
D15*
G04 #@! TO.P,D1,2*
G04 #@! TO.N,Net-(D1-Pad2)*
X98044000Y-111506000D03*
G04 #@! TD*
D17*
G04 #@! TO.P,R2,2*
G04 #@! TO.N,GND*
X79883000Y-100457000D03*
D18*
G04 #@! TO.P,R2,1*
G04 #@! TO.N,Net-(D2-Pad1)*
X79883000Y-108077000D03*
G04 #@! TD*
G04 #@! TO.P,R1,1*
G04 #@! TO.N,+3V3*
X102362000Y-100330000D03*
D17*
G04 #@! TO.P,R1,2*
G04 #@! TO.N,Net-(D1-Pad2)*
X102362000Y-107950000D03*
G04 #@! TD*
D19*
G04 #@! TO.N,+3V3*
X95377000Y-97028000D02*
X95377000Y-98203300D01*
X95377000Y-98203300D02*
X90424000Y-103156300D01*
X90424000Y-103156300D02*
X90424000Y-104140000D01*
G04 #@! TO.N,GND*
X92424000Y-104140000D02*
X97917000Y-98647000D01*
X97917000Y-98647000D02*
X97917000Y-97028000D01*
X124275600Y-82666900D02*
X123100300Y-82666900D01*
X116655600Y-81302200D02*
X122102900Y-81302200D01*
X122102900Y-81302200D02*
X123100300Y-82299600D01*
X123100300Y-82299600D02*
X123100300Y-82666900D01*
X115463100Y-82127400D02*
X116288300Y-81302200D01*
X116288300Y-81302200D02*
X116655600Y-81302200D01*
X97917000Y-97028000D02*
X97917000Y-95852700D01*
X97917000Y-95852700D02*
X98284300Y-95852700D01*
X98284300Y-95852700D02*
X106495600Y-87641400D01*
X106495600Y-87641400D02*
X106495600Y-82666900D01*
X115463100Y-82127400D02*
X115463100Y-88461100D01*
X115463100Y-88461100D02*
X116006000Y-89004000D01*
X115463100Y-82127400D02*
X114637900Y-81302200D01*
X114637900Y-81302200D02*
X113558800Y-81302200D01*
X113558800Y-81302200D02*
X112750900Y-80494300D01*
X112750900Y-80494300D02*
X112750900Y-80126900D01*
X111575600Y-80126900D02*
X112750900Y-80126900D01*
X116006000Y-89004000D02*
X116006000Y-95504000D01*
X116655600Y-80126900D02*
X116655600Y-81302200D01*
G04 #@! TO.N,Net-(D2-Pad1)*
X85090000Y-111506000D02*
X83864700Y-111506000D01*
X79883000Y-108077000D02*
X80435700Y-108077000D01*
X80435700Y-108077000D02*
X83864700Y-111506000D01*
G04 #@! TO.N,/GPIO4*
X83635600Y-82666900D02*
X83635600Y-83842200D01*
X87630000Y-111506000D02*
X87630000Y-87836600D01*
X87630000Y-87836600D02*
X83635600Y-83842200D01*
G04 #@! TO.N,/GPIO3*
X111506000Y-89004000D02*
X111506000Y-95504000D01*
G04 #@! TO.N,/MOSI*
X95377000Y-91948000D02*
X95377000Y-90772700D01*
X98875600Y-82666900D02*
X98875600Y-83842200D01*
X98875600Y-83842200D02*
X96552300Y-86165500D01*
X96552300Y-86165500D02*
X96552300Y-89964800D01*
X96552300Y-89964800D02*
X95744400Y-90772700D01*
X95744400Y-90772700D02*
X95377000Y-90772700D01*
G04 #@! TO.N,/MISO*
X97917000Y-89408000D02*
X97917000Y-87340800D01*
X97917000Y-87340800D02*
X101415600Y-83842200D01*
X101415600Y-82666900D02*
X101415600Y-83842200D01*
G04 #@! TO.N,/SCLK*
X103955600Y-82666900D02*
X103955600Y-85909400D01*
X103955600Y-85909400D02*
X97917000Y-91948000D01*
G04 #@! TO.N,/SPI_0*
X103955600Y-81302200D02*
X103588200Y-81302200D01*
X103588200Y-81302200D02*
X102780300Y-82110100D01*
X102780300Y-82110100D02*
X102780300Y-86220200D01*
X102780300Y-86220200D02*
X98227900Y-90772600D01*
X98227900Y-90772600D02*
X97391400Y-90772600D01*
X97391400Y-90772600D02*
X96552300Y-91611700D01*
X96552300Y-91611700D02*
X96552300Y-92504800D01*
X96552300Y-92504800D02*
X95744400Y-93312700D01*
X95744400Y-93312700D02*
X95377000Y-93312700D01*
X95377000Y-94488000D02*
X95377000Y-93312700D01*
X103955600Y-80126900D02*
X103955600Y-81302200D01*
G04 #@! TO.N,/SPI_1*
X97917000Y-94488000D02*
X97917000Y-93312700D01*
X106495600Y-80126900D02*
X106495600Y-81302200D01*
X106495600Y-81302200D02*
X106128200Y-81302200D01*
X106128200Y-81302200D02*
X105320300Y-82110100D01*
X105320300Y-82110100D02*
X105320300Y-86276700D01*
X105320300Y-86276700D02*
X98284300Y-93312700D01*
X98284300Y-93312700D02*
X97917000Y-93312700D01*
G04 #@! TO.N,Net-(D1-Pad2)*
X102362000Y-107950000D02*
X101236700Y-107950000D01*
X101236700Y-107950000D02*
X101236700Y-108313300D01*
X101236700Y-108313300D02*
X98044000Y-111506000D01*
G04 #@! TD*
M02*
