M48
;DRILL file {KiCad 5.0.2+dfsg1-1~bpo9+1} date Mon 17 Aug 2020 13:34:26 IST
;FORMAT={3:3/ absolute / metric / suppress leading zeros}
FMAT,2
METRIC,TZ
T1C0.600
T2C0.800
T3C0.900
T4C1.000
T5C1.100
%
G90
G05
T1
X90424Y-104140
X92424Y-104140
T2
X79883Y-100457
X79883Y-108077
X102362Y-100330
X102362Y-107950
T3
X85090Y-111506
X87630Y-111506
X95504Y-111506
X98044Y-111506
T4
X95377Y-89408
X95377Y-91948
X95377Y-94488
X95377Y-97028
X97917Y-89408
X97917Y-91948
X97917Y-94488
X97917Y-97028
X76016Y-80127
X76016Y-82667
X78556Y-80127
X78556Y-82667
X81096Y-80127
X81096Y-82667
X83636Y-80127
X83636Y-82667
X86176Y-80127
X86176Y-82667
X88716Y-80127
X88716Y-82667
X91256Y-80127
X91256Y-82667
X93796Y-80127
X93796Y-82667
X96336Y-80127
X96336Y-82667
X98876Y-80127
X98876Y-82667
X101416Y-80127
X101416Y-82667
X103956Y-80127
X103956Y-82667
X106496Y-80127
X106496Y-82667
X109036Y-80127
X109036Y-82667
X111576Y-80127
X111576Y-82667
X114116Y-80127
X114116Y-82667
X116656Y-80127
X116656Y-82667
X119196Y-80127
X119196Y-82667
X121736Y-80127
X121736Y-82667
X124276Y-80127
X124276Y-82667
T5
X111506Y-89004
X111506Y-95504
X116006Y-89004
X116006Y-95504
T0
M30
