G04 #@! TF.GenerationSoftware,KiCad,Pcbnew,5.0.2+dfsg1-1~bpo9+1*
G04 #@! TF.CreationDate,2020-08-17T13:34:05+01:00*
G04 #@! TF.ProjectId,nrf24l01-rpi,6e726632-346c-4303-912d-7270692e6b69,rev?*
G04 #@! TF.SameCoordinates,Original*
G04 #@! TF.FileFunction,Legend,Top*
G04 #@! TF.FilePolarity,Positive*
%FSLAX46Y46*%
G04 Gerber Fmt 4.6, Leading zero omitted, Abs format (unit mm)*
G04 Created by KiCad (PCBNEW 5.0.2+dfsg1-1~bpo9+1) date Mon 17 Aug 2020 13:34:05 IST*
%MOMM*%
%LPD*%
G01*
G04 APERTURE LIST*
%ADD10C,0.300000*%
%ADD11C,0.120000*%
%ADD12C,0.150000*%
G04 APERTURE END LIST*
D10*
X106022285Y-109028571D02*
X106879428Y-109028571D01*
X106450857Y-110528571D02*
X106450857Y-109028571D01*
X107379428Y-110528571D02*
X107379428Y-109528571D01*
X107379428Y-109028571D02*
X107308000Y-109100000D01*
X107379428Y-109171428D01*
X107450857Y-109100000D01*
X107379428Y-109028571D01*
X107379428Y-109171428D01*
X108093714Y-109528571D02*
X108093714Y-110528571D01*
X108093714Y-109671428D02*
X108165142Y-109600000D01*
X108308000Y-109528571D01*
X108522285Y-109528571D01*
X108665142Y-109600000D01*
X108736571Y-109742857D01*
X108736571Y-110528571D01*
X109308000Y-109528571D02*
X109665142Y-110528571D01*
X110022285Y-109528571D02*
X109665142Y-110528571D01*
X109522285Y-110885714D01*
X109450857Y-110957142D01*
X109308000Y-111028571D01*
X110522285Y-110457142D02*
X110736571Y-110528571D01*
X111093714Y-110528571D01*
X111236571Y-110457142D01*
X111308000Y-110385714D01*
X111379428Y-110242857D01*
X111379428Y-110100000D01*
X111308000Y-109957142D01*
X111236571Y-109885714D01*
X111093714Y-109814285D01*
X110808000Y-109742857D01*
X110665142Y-109671428D01*
X110593714Y-109600000D01*
X110522285Y-109457142D01*
X110522285Y-109314285D01*
X110593714Y-109171428D01*
X110665142Y-109100000D01*
X110808000Y-109028571D01*
X111165142Y-109028571D01*
X111379428Y-109100000D01*
X112593714Y-110457142D02*
X112450857Y-110528571D01*
X112165142Y-110528571D01*
X112022285Y-110457142D01*
X111950857Y-110314285D01*
X111950857Y-109742857D01*
X112022285Y-109600000D01*
X112165142Y-109528571D01*
X112450857Y-109528571D01*
X112593714Y-109600000D01*
X112665142Y-109742857D01*
X112665142Y-109885714D01*
X111950857Y-110028571D01*
X113308000Y-109528571D02*
X113308000Y-110528571D01*
X113308000Y-109671428D02*
X113379428Y-109600000D01*
X113522285Y-109528571D01*
X113736571Y-109528571D01*
X113879428Y-109600000D01*
X113950857Y-109742857D01*
X113950857Y-110528571D01*
X114593714Y-110457142D02*
X114736571Y-110528571D01*
X115022285Y-110528571D01*
X115165142Y-110457142D01*
X115236571Y-110314285D01*
X115236571Y-110242857D01*
X115165142Y-110100000D01*
X115022285Y-110028571D01*
X114808000Y-110028571D01*
X114665142Y-109957142D01*
X114593714Y-109814285D01*
X114593714Y-109742857D01*
X114665142Y-109600000D01*
X114808000Y-109528571D01*
X115022285Y-109528571D01*
X115165142Y-109600000D01*
X116093714Y-110528571D02*
X115950857Y-110457142D01*
X115879428Y-110385714D01*
X115808000Y-110242857D01*
X115808000Y-109814285D01*
X115879428Y-109671428D01*
X115950857Y-109600000D01*
X116093714Y-109528571D01*
X116308000Y-109528571D01*
X116450857Y-109600000D01*
X116522285Y-109671428D01*
X116593714Y-109814285D01*
X116593714Y-110242857D01*
X116522285Y-110385714D01*
X116450857Y-110457142D01*
X116308000Y-110528571D01*
X116093714Y-110528571D01*
X117236571Y-110528571D02*
X117236571Y-109528571D01*
X117236571Y-109814285D02*
X117308000Y-109671428D01*
X117379428Y-109600000D01*
X117522285Y-109528571D01*
X117665142Y-109528571D01*
X118093714Y-110457142D02*
X118236571Y-110528571D01*
X118522285Y-110528571D01*
X118665142Y-110457142D01*
X118736571Y-110314285D01*
X118736571Y-110242857D01*
X118665142Y-110100000D01*
X118522285Y-110028571D01*
X118308000Y-110028571D01*
X118165142Y-109957142D01*
X118093714Y-109814285D01*
X118093714Y-109742857D01*
X118165142Y-109600000D01*
X118308000Y-109528571D01*
X118522285Y-109528571D01*
X118665142Y-109600000D01*
X121308000Y-110528571D02*
X120450857Y-110528571D01*
X120879428Y-110528571D02*
X120879428Y-109028571D01*
X120736571Y-109242857D01*
X120593714Y-109385714D01*
X120450857Y-109457142D01*
X121950857Y-110385714D02*
X122022285Y-110457142D01*
X121950857Y-110528571D01*
X121879428Y-110457142D01*
X121950857Y-110385714D01*
X121950857Y-110528571D01*
X123450857Y-110528571D02*
X122593714Y-110528571D01*
X123022285Y-110528571D02*
X123022285Y-109028571D01*
X122879428Y-109242857D01*
X122736571Y-109385714D01*
X122593714Y-109457142D01*
X106950857Y-113650000D02*
X106879428Y-113578571D01*
X106736571Y-113364285D01*
X106665142Y-113221428D01*
X106593714Y-113007142D01*
X106522285Y-112650000D01*
X106522285Y-112364285D01*
X106593714Y-112007142D01*
X106665142Y-111792857D01*
X106736571Y-111650000D01*
X106879428Y-111435714D01*
X106950857Y-111364285D01*
X108165142Y-113007142D02*
X108022285Y-113078571D01*
X107736571Y-113078571D01*
X107593714Y-113007142D01*
X107522285Y-112935714D01*
X107450857Y-112792857D01*
X107450857Y-112364285D01*
X107522285Y-112221428D01*
X107593714Y-112150000D01*
X107736571Y-112078571D01*
X108022285Y-112078571D01*
X108165142Y-112150000D01*
X108665142Y-113650000D02*
X108736571Y-113578571D01*
X108879428Y-113364285D01*
X108950857Y-113221428D01*
X109022285Y-113007142D01*
X109093714Y-112650000D01*
X109093714Y-112364285D01*
X109022285Y-112007142D01*
X108950857Y-111792857D01*
X108879428Y-111650000D01*
X108736571Y-111435714D01*
X108665142Y-111364285D01*
X110879428Y-113007142D02*
X111093714Y-113078571D01*
X111450857Y-113078571D01*
X111593714Y-113007142D01*
X111665142Y-112935714D01*
X111736571Y-112792857D01*
X111736571Y-112650000D01*
X111665142Y-112507142D01*
X111593714Y-112435714D01*
X111450857Y-112364285D01*
X111165142Y-112292857D01*
X111022285Y-112221428D01*
X110950857Y-112150000D01*
X110879428Y-112007142D01*
X110879428Y-111864285D01*
X110950857Y-111721428D01*
X111022285Y-111650000D01*
X111165142Y-111578571D01*
X111522285Y-111578571D01*
X111736571Y-111650000D01*
X112165142Y-112078571D02*
X112736571Y-112078571D01*
X112379428Y-111578571D02*
X112379428Y-112864285D01*
X112450857Y-113007142D01*
X112593714Y-113078571D01*
X112736571Y-113078571D01*
X113808000Y-113007142D02*
X113665142Y-113078571D01*
X113379428Y-113078571D01*
X113236571Y-113007142D01*
X113165142Y-112864285D01*
X113165142Y-112292857D01*
X113236571Y-112150000D01*
X113379428Y-112078571D01*
X113665142Y-112078571D01*
X113808000Y-112150000D01*
X113879428Y-112292857D01*
X113879428Y-112435714D01*
X113165142Y-112578571D01*
X114379428Y-112078571D02*
X114736571Y-113078571D01*
X115093714Y-112078571D01*
X116236571Y-113007142D02*
X116093714Y-113078571D01*
X115808000Y-113078571D01*
X115665142Y-113007142D01*
X115593714Y-112864285D01*
X115593714Y-112292857D01*
X115665142Y-112150000D01*
X115808000Y-112078571D01*
X116093714Y-112078571D01*
X116236571Y-112150000D01*
X116308000Y-112292857D01*
X116308000Y-112435714D01*
X115593714Y-112578571D01*
X118022285Y-111721428D02*
X118093714Y-111650000D01*
X118236571Y-111578571D01*
X118593714Y-111578571D01*
X118736571Y-111650000D01*
X118808000Y-111721428D01*
X118879428Y-111864285D01*
X118879428Y-112007142D01*
X118808000Y-112221428D01*
X117950857Y-113078571D01*
X118879428Y-113078571D01*
X119808000Y-111578571D02*
X119950857Y-111578571D01*
X120093714Y-111650000D01*
X120165142Y-111721428D01*
X120236571Y-111864285D01*
X120308000Y-112150000D01*
X120308000Y-112507142D01*
X120236571Y-112792857D01*
X120165142Y-112935714D01*
X120093714Y-113007142D01*
X119950857Y-113078571D01*
X119808000Y-113078571D01*
X119665142Y-113007142D01*
X119593714Y-112935714D01*
X119522285Y-112792857D01*
X119450857Y-112507142D01*
X119450857Y-112150000D01*
X119522285Y-111864285D01*
X119593714Y-111721428D01*
X119665142Y-111650000D01*
X119808000Y-111578571D01*
X120879428Y-111721428D02*
X120950857Y-111650000D01*
X121093714Y-111578571D01*
X121450857Y-111578571D01*
X121593714Y-111650000D01*
X121665142Y-111721428D01*
X121736571Y-111864285D01*
X121736571Y-112007142D01*
X121665142Y-112221428D01*
X120808000Y-113078571D01*
X121736571Y-113078571D01*
X122665142Y-111578571D02*
X122808000Y-111578571D01*
X122950857Y-111650000D01*
X123022285Y-111721428D01*
X123093714Y-111864285D01*
X123165142Y-112150000D01*
X123165142Y-112507142D01*
X123093714Y-112792857D01*
X123022285Y-112935714D01*
X122950857Y-113007142D01*
X122808000Y-113078571D01*
X122665142Y-113078571D01*
X122522285Y-113007142D01*
X122450857Y-112935714D01*
X122379428Y-112792857D01*
X122308000Y-112507142D01*
X122308000Y-112150000D01*
X122379428Y-111864285D01*
X122450857Y-111721428D01*
X122522285Y-111650000D01*
X122665142Y-111578571D01*
D11*
G04 #@! TO.C,SW1*
X117006000Y-94504000D02*
X117006000Y-90004000D01*
X113006000Y-95754000D02*
X114506000Y-95754000D01*
X110506000Y-90004000D02*
X110506000Y-94504000D01*
X114506000Y-88754000D02*
X113006000Y-88754000D01*
G04 #@! TO.C,C1*
X93544000Y-104140000D02*
G75*
G03X93544000Y-104140000I-2120000J0D01*
G01*
X91424000Y-102060000D02*
X91424000Y-106220000D01*
X91464000Y-102060000D02*
X91464000Y-106220000D01*
X91504000Y-102061000D02*
X91504000Y-106219000D01*
X91544000Y-102063000D02*
X91544000Y-106217000D01*
X91584000Y-102066000D02*
X91584000Y-106214000D01*
X91624000Y-102069000D02*
X91624000Y-103300000D01*
X91624000Y-104980000D02*
X91624000Y-106211000D01*
X91664000Y-102073000D02*
X91664000Y-103300000D01*
X91664000Y-104980000D02*
X91664000Y-106207000D01*
X91704000Y-102078000D02*
X91704000Y-103300000D01*
X91704000Y-104980000D02*
X91704000Y-106202000D01*
X91744000Y-102084000D02*
X91744000Y-103300000D01*
X91744000Y-104980000D02*
X91744000Y-106196000D01*
X91784000Y-102090000D02*
X91784000Y-103300000D01*
X91784000Y-104980000D02*
X91784000Y-106190000D01*
X91824000Y-102098000D02*
X91824000Y-103300000D01*
X91824000Y-104980000D02*
X91824000Y-106182000D01*
X91864000Y-102106000D02*
X91864000Y-103300000D01*
X91864000Y-104980000D02*
X91864000Y-106174000D01*
X91904000Y-102115000D02*
X91904000Y-103300000D01*
X91904000Y-104980000D02*
X91904000Y-106165000D01*
X91944000Y-102124000D02*
X91944000Y-103300000D01*
X91944000Y-104980000D02*
X91944000Y-106156000D01*
X91984000Y-102135000D02*
X91984000Y-103300000D01*
X91984000Y-104980000D02*
X91984000Y-106145000D01*
X92024000Y-102146000D02*
X92024000Y-103300000D01*
X92024000Y-104980000D02*
X92024000Y-106134000D01*
X92064000Y-102158000D02*
X92064000Y-103300000D01*
X92064000Y-104980000D02*
X92064000Y-106122000D01*
X92104000Y-102172000D02*
X92104000Y-103300000D01*
X92104000Y-104980000D02*
X92104000Y-106108000D01*
X92145000Y-102186000D02*
X92145000Y-103300000D01*
X92145000Y-104980000D02*
X92145000Y-106094000D01*
X92185000Y-102200000D02*
X92185000Y-103300000D01*
X92185000Y-104980000D02*
X92185000Y-106080000D01*
X92225000Y-102216000D02*
X92225000Y-103300000D01*
X92225000Y-104980000D02*
X92225000Y-106064000D01*
X92265000Y-102233000D02*
X92265000Y-103300000D01*
X92265000Y-104980000D02*
X92265000Y-106047000D01*
X92305000Y-102251000D02*
X92305000Y-103300000D01*
X92305000Y-104980000D02*
X92305000Y-106029000D01*
X92345000Y-102270000D02*
X92345000Y-103300000D01*
X92345000Y-104980000D02*
X92345000Y-106010000D01*
X92385000Y-102289000D02*
X92385000Y-103300000D01*
X92385000Y-104980000D02*
X92385000Y-105991000D01*
X92425000Y-102310000D02*
X92425000Y-103300000D01*
X92425000Y-104980000D02*
X92425000Y-105970000D01*
X92465000Y-102332000D02*
X92465000Y-103300000D01*
X92465000Y-104980000D02*
X92465000Y-105948000D01*
X92505000Y-102355000D02*
X92505000Y-103300000D01*
X92505000Y-104980000D02*
X92505000Y-105925000D01*
X92545000Y-102380000D02*
X92545000Y-103300000D01*
X92545000Y-104980000D02*
X92545000Y-105900000D01*
X92585000Y-102405000D02*
X92585000Y-103300000D01*
X92585000Y-104980000D02*
X92585000Y-105875000D01*
X92625000Y-102432000D02*
X92625000Y-103300000D01*
X92625000Y-104980000D02*
X92625000Y-105848000D01*
X92665000Y-102460000D02*
X92665000Y-103300000D01*
X92665000Y-104980000D02*
X92665000Y-105820000D01*
X92705000Y-102490000D02*
X92705000Y-103300000D01*
X92705000Y-104980000D02*
X92705000Y-105790000D01*
X92745000Y-102521000D02*
X92745000Y-103300000D01*
X92745000Y-104980000D02*
X92745000Y-105759000D01*
X92785000Y-102553000D02*
X92785000Y-103300000D01*
X92785000Y-104980000D02*
X92785000Y-105727000D01*
X92825000Y-102588000D02*
X92825000Y-103300000D01*
X92825000Y-104980000D02*
X92825000Y-105692000D01*
X92865000Y-102624000D02*
X92865000Y-103300000D01*
X92865000Y-104980000D02*
X92865000Y-105656000D01*
X92905000Y-102662000D02*
X92905000Y-103300000D01*
X92905000Y-104980000D02*
X92905000Y-105618000D01*
X92945000Y-102702000D02*
X92945000Y-103300000D01*
X92945000Y-104980000D02*
X92945000Y-105578000D01*
X92985000Y-102744000D02*
X92985000Y-103300000D01*
X92985000Y-104980000D02*
X92985000Y-105536000D01*
X93025000Y-102789000D02*
X93025000Y-103300000D01*
X93025000Y-104980000D02*
X93025000Y-105491000D01*
X93065000Y-102836000D02*
X93065000Y-103300000D01*
X93065000Y-104980000D02*
X93065000Y-105444000D01*
X93105000Y-102886000D02*
X93105000Y-103300000D01*
X93105000Y-104980000D02*
X93105000Y-105394000D01*
X93145000Y-102940000D02*
X93145000Y-103300000D01*
X93145000Y-104980000D02*
X93145000Y-105340000D01*
X93185000Y-102998000D02*
X93185000Y-103300000D01*
X93185000Y-104980000D02*
X93185000Y-105282000D01*
X93225000Y-103060000D02*
X93225000Y-103300000D01*
X93225000Y-104980000D02*
X93225000Y-105220000D01*
X93265000Y-103127000D02*
X93265000Y-105153000D01*
X93305000Y-103200000D02*
X93305000Y-105080000D01*
X93345000Y-103281000D02*
X93345000Y-104999000D01*
X93385000Y-103372000D02*
X93385000Y-104908000D01*
X93425000Y-103476000D02*
X93425000Y-104804000D01*
X93465000Y-103603000D02*
X93465000Y-104677000D01*
X93505000Y-103770000D02*
X93505000Y-104510000D01*
X89154199Y-102945000D02*
X89554199Y-102945000D01*
X89354199Y-102745000D02*
X89354199Y-103145000D01*
G04 #@! TO.C,J2*
X99247000Y-88078000D02*
X94047000Y-88078000D01*
X99247000Y-95758000D02*
X99247000Y-88078000D01*
X94047000Y-98358000D02*
X94047000Y-88078000D01*
X99247000Y-95758000D02*
X96647000Y-95758000D01*
X96647000Y-95758000D02*
X96647000Y-98358000D01*
X96647000Y-98358000D02*
X94047000Y-98358000D01*
X99247000Y-97028000D02*
X99247000Y-98358000D01*
X99247000Y-98358000D02*
X97917000Y-98358000D01*
G04 #@! TO.C,J1*
X125605600Y-83996900D02*
X125605600Y-78796900D01*
X77285600Y-83996900D02*
X125605600Y-83996900D01*
X74685600Y-78796900D02*
X125605600Y-78796900D01*
X77285600Y-83996900D02*
X77285600Y-81396900D01*
X77285600Y-81396900D02*
X74685600Y-81396900D01*
X74685600Y-81396900D02*
X74685600Y-78796900D01*
X76015600Y-83996900D02*
X74685600Y-83996900D01*
X74685600Y-83996900D02*
X74685600Y-82666900D01*
G04 #@! TO.C,D2*
X84800000Y-112586000D02*
X84800000Y-112742000D01*
X84800000Y-110270000D02*
X84800000Y-110426000D01*
X87401130Y-112585837D02*
G75*
G02X85319039Y-112586000I-1041130J1079837D01*
G01*
X87401130Y-110426163D02*
G75*
G03X85319039Y-110426000I-1041130J-1079837D01*
G01*
X88032335Y-112584608D02*
G75*
G02X84800000Y-112741516I-1672335J1078608D01*
G01*
X88032335Y-110427392D02*
G75*
G03X84800000Y-110270484I-1672335J-1078608D01*
G01*
G04 #@! TO.C,D1*
X98446335Y-110427392D02*
G75*
G03X95214000Y-110270484I-1672335J-1078608D01*
G01*
X98446335Y-112584608D02*
G75*
G02X95214000Y-112741516I-1672335J1078608D01*
G01*
X97815130Y-110426163D02*
G75*
G03X95733039Y-110426000I-1041130J-1079837D01*
G01*
X97815130Y-112585837D02*
G75*
G02X95733039Y-112586000I-1041130J1079837D01*
G01*
X95214000Y-110270000D02*
X95214000Y-110426000D01*
X95214000Y-112586000D02*
X95214000Y-112742000D01*
G04 #@! TO.C,R2*
X81253000Y-100997000D02*
X80923000Y-100997000D01*
X81253000Y-107537000D02*
X81253000Y-100997000D01*
X80923000Y-107537000D02*
X81253000Y-107537000D01*
X78513000Y-100997000D02*
X78843000Y-100997000D01*
X78513000Y-107537000D02*
X78513000Y-100997000D01*
X78843000Y-107537000D02*
X78513000Y-107537000D01*
G04 #@! TO.C,R1*
X103402000Y-100870000D02*
X103732000Y-100870000D01*
X103732000Y-100870000D02*
X103732000Y-107410000D01*
X103732000Y-107410000D02*
X103402000Y-107410000D01*
X101322000Y-100870000D02*
X100992000Y-100870000D01*
X100992000Y-100870000D02*
X100992000Y-107410000D01*
X100992000Y-107410000D02*
X101322000Y-107410000D01*
G04 #@! TO.C,SW1*
D12*
X109910761Y-93587333D02*
X109958380Y-93444476D01*
X109958380Y-93206380D01*
X109910761Y-93111142D01*
X109863142Y-93063523D01*
X109767904Y-93015904D01*
X109672666Y-93015904D01*
X109577428Y-93063523D01*
X109529809Y-93111142D01*
X109482190Y-93206380D01*
X109434571Y-93396857D01*
X109386952Y-93492095D01*
X109339333Y-93539714D01*
X109244095Y-93587333D01*
X109148857Y-93587333D01*
X109053619Y-93539714D01*
X109006000Y-93492095D01*
X108958380Y-93396857D01*
X108958380Y-93158761D01*
X109006000Y-93015904D01*
X108958380Y-92682571D02*
X109958380Y-92444476D01*
X109244095Y-92254000D01*
X109958380Y-92063523D01*
X108958380Y-91825428D01*
X109958380Y-90920666D02*
X109958380Y-91492095D01*
X109958380Y-91206380D02*
X108958380Y-91206380D01*
X109101238Y-91301619D01*
X109196476Y-91396857D01*
X109244095Y-91492095D01*
X118610761Y-95111142D02*
X118658380Y-94968285D01*
X118658380Y-94730190D01*
X118610761Y-94634952D01*
X118563142Y-94587333D01*
X118467904Y-94539714D01*
X118372666Y-94539714D01*
X118277428Y-94587333D01*
X118229809Y-94634952D01*
X118182190Y-94730190D01*
X118134571Y-94920666D01*
X118086952Y-95015904D01*
X118039333Y-95063523D01*
X117944095Y-95111142D01*
X117848857Y-95111142D01*
X117753619Y-95063523D01*
X117706000Y-95015904D01*
X117658380Y-94920666D01*
X117658380Y-94682571D01*
X117706000Y-94539714D01*
X118658380Y-94111142D02*
X117658380Y-94111142D01*
X118658380Y-93682571D02*
X118134571Y-93682571D01*
X118039333Y-93730190D01*
X117991714Y-93825428D01*
X117991714Y-93968285D01*
X118039333Y-94063523D01*
X118086952Y-94111142D01*
X117991714Y-92777809D02*
X118658380Y-92777809D01*
X117991714Y-93206380D02*
X118515523Y-93206380D01*
X118610761Y-93158761D01*
X118658380Y-93063523D01*
X118658380Y-92920666D01*
X118610761Y-92825428D01*
X118563142Y-92777809D01*
X117991714Y-92444476D02*
X117991714Y-92063523D01*
X117658380Y-92301619D02*
X118515523Y-92301619D01*
X118610761Y-92254000D01*
X118658380Y-92158761D01*
X118658380Y-92063523D01*
X118658380Y-91301619D02*
X117658380Y-91301619D01*
X118610761Y-91301619D02*
X118658380Y-91396857D01*
X118658380Y-91587333D01*
X118610761Y-91682571D01*
X118563142Y-91730190D01*
X118467904Y-91777809D01*
X118182190Y-91777809D01*
X118086952Y-91730190D01*
X118039333Y-91682571D01*
X117991714Y-91587333D01*
X117991714Y-91396857D01*
X118039333Y-91301619D01*
X118658380Y-90682571D02*
X118610761Y-90777809D01*
X118563142Y-90825428D01*
X118467904Y-90873047D01*
X118182190Y-90873047D01*
X118086952Y-90825428D01*
X118039333Y-90777809D01*
X117991714Y-90682571D01*
X117991714Y-90539714D01*
X118039333Y-90444476D01*
X118086952Y-90396857D01*
X118182190Y-90349238D01*
X118467904Y-90349238D01*
X118563142Y-90396857D01*
X118610761Y-90444476D01*
X118658380Y-90539714D01*
X118658380Y-90682571D01*
X117991714Y-90015904D02*
X118658380Y-89825428D01*
X118182190Y-89634952D01*
X118658380Y-89444476D01*
X117991714Y-89254000D01*
X117991714Y-88873047D02*
X118658380Y-88873047D01*
X118086952Y-88873047D02*
X118039333Y-88825428D01*
X117991714Y-88730190D01*
X117991714Y-88587333D01*
X118039333Y-88492095D01*
X118134571Y-88444476D01*
X118658380Y-88444476D01*
G04 #@! TO.C,C1*
X91257333Y-101247142D02*
X91209714Y-101294761D01*
X91066857Y-101342380D01*
X90971619Y-101342380D01*
X90828761Y-101294761D01*
X90733523Y-101199523D01*
X90685904Y-101104285D01*
X90638285Y-100913809D01*
X90638285Y-100770952D01*
X90685904Y-100580476D01*
X90733523Y-100485238D01*
X90828761Y-100390000D01*
X90971619Y-100342380D01*
X91066857Y-100342380D01*
X91209714Y-100390000D01*
X91257333Y-100437619D01*
X92209714Y-101342380D02*
X91638285Y-101342380D01*
X91924000Y-101342380D02*
X91924000Y-100342380D01*
X91828761Y-100485238D01*
X91733523Y-100580476D01*
X91638285Y-100628095D01*
X90209714Y-106937619D02*
X90257333Y-106890000D01*
X90352571Y-106842380D01*
X90590666Y-106842380D01*
X90685904Y-106890000D01*
X90733523Y-106937619D01*
X90781142Y-107032857D01*
X90781142Y-107128095D01*
X90733523Y-107270952D01*
X90162095Y-107842380D01*
X90781142Y-107842380D01*
X91162095Y-106937619D02*
X91209714Y-106890000D01*
X91304952Y-106842380D01*
X91543047Y-106842380D01*
X91638285Y-106890000D01*
X91685904Y-106937619D01*
X91733523Y-107032857D01*
X91733523Y-107128095D01*
X91685904Y-107270952D01*
X91114476Y-107842380D01*
X91733523Y-107842380D01*
X92590666Y-107175714D02*
X92590666Y-107842380D01*
X92162095Y-107175714D02*
X92162095Y-107699523D01*
X92209714Y-107794761D01*
X92304952Y-107842380D01*
X92447809Y-107842380D01*
X92543047Y-107794761D01*
X92590666Y-107747142D01*
G04 #@! TO.C,J2*
X96313666Y-98810380D02*
X96313666Y-99524666D01*
X96266047Y-99667523D01*
X96170809Y-99762761D01*
X96027952Y-99810380D01*
X95932714Y-99810380D01*
X96742238Y-98905619D02*
X96789857Y-98858000D01*
X96885095Y-98810380D01*
X97123190Y-98810380D01*
X97218428Y-98858000D01*
X97266047Y-98905619D01*
X97313666Y-99000857D01*
X97313666Y-99096095D01*
X97266047Y-99238952D01*
X96694619Y-99810380D01*
X97313666Y-99810380D01*
X93051761Y-86863714D02*
X93051761Y-87530380D01*
X93051761Y-86958952D02*
X93099380Y-86911333D01*
X93194619Y-86863714D01*
X93337476Y-86863714D01*
X93432714Y-86911333D01*
X93480333Y-87006571D01*
X93480333Y-87530380D01*
X93956523Y-87530380D02*
X93956523Y-86863714D01*
X93956523Y-87054190D02*
X94004142Y-86958952D01*
X94051761Y-86911333D01*
X94147000Y-86863714D01*
X94242238Y-86863714D01*
X94432714Y-86863714D02*
X94813666Y-86863714D01*
X94575571Y-87530380D02*
X94575571Y-86673238D01*
X94623190Y-86578000D01*
X94718428Y-86530380D01*
X94813666Y-86530380D01*
X95099380Y-86625619D02*
X95147000Y-86578000D01*
X95242238Y-86530380D01*
X95480333Y-86530380D01*
X95575571Y-86578000D01*
X95623190Y-86625619D01*
X95670809Y-86720857D01*
X95670809Y-86816095D01*
X95623190Y-86958952D01*
X95051761Y-87530380D01*
X95670809Y-87530380D01*
X96527952Y-86863714D02*
X96527952Y-87530380D01*
X96289857Y-86482761D02*
X96051761Y-87197047D01*
X96670809Y-87197047D01*
X97194619Y-87530380D02*
X97099380Y-87482761D01*
X97051761Y-87387523D01*
X97051761Y-86530380D01*
X97766047Y-86530380D02*
X97861285Y-86530380D01*
X97956523Y-86578000D01*
X98004142Y-86625619D01*
X98051761Y-86720857D01*
X98099380Y-86911333D01*
X98099380Y-87149428D01*
X98051761Y-87339904D01*
X98004142Y-87435142D01*
X97956523Y-87482761D01*
X97861285Y-87530380D01*
X97766047Y-87530380D01*
X97670809Y-87482761D01*
X97623190Y-87435142D01*
X97575571Y-87339904D01*
X97527952Y-87149428D01*
X97527952Y-86911333D01*
X97575571Y-86720857D01*
X97623190Y-86625619D01*
X97670809Y-86578000D01*
X97766047Y-86530380D01*
X99051761Y-87530380D02*
X98480333Y-87530380D01*
X98766047Y-87530380D02*
X98766047Y-86530380D01*
X98670809Y-86673238D01*
X98575571Y-86768476D01*
X98480333Y-86816095D01*
X99480333Y-87149428D02*
X100242238Y-87149428D01*
X99861285Y-87530380D02*
X99861285Y-86768476D01*
G04 #@! TO.C,D2*
X85621904Y-108998380D02*
X85621904Y-107998380D01*
X85860000Y-107998380D01*
X86002857Y-108046000D01*
X86098095Y-108141238D01*
X86145714Y-108236476D01*
X86193333Y-108426952D01*
X86193333Y-108569809D01*
X86145714Y-108760285D01*
X86098095Y-108855523D01*
X86002857Y-108950761D01*
X85860000Y-108998380D01*
X85621904Y-108998380D01*
X86574285Y-108093619D02*
X86621904Y-108046000D01*
X86717142Y-107998380D01*
X86955238Y-107998380D01*
X87050476Y-108046000D01*
X87098095Y-108093619D01*
X87145714Y-108188857D01*
X87145714Y-108284095D01*
X87098095Y-108426952D01*
X86526666Y-108998380D01*
X87145714Y-108998380D01*
X83264761Y-113966000D02*
X83169523Y-113918380D01*
X83026666Y-113918380D01*
X82883809Y-113966000D01*
X82788571Y-114061238D01*
X82740952Y-114156476D01*
X82693333Y-114346952D01*
X82693333Y-114489809D01*
X82740952Y-114680285D01*
X82788571Y-114775523D01*
X82883809Y-114870761D01*
X83026666Y-114918380D01*
X83121904Y-114918380D01*
X83264761Y-114870761D01*
X83312380Y-114823142D01*
X83312380Y-114489809D01*
X83121904Y-114489809D01*
X83740952Y-114918380D02*
X83740952Y-114251714D01*
X83740952Y-114442190D02*
X83788571Y-114346952D01*
X83836190Y-114299333D01*
X83931428Y-114251714D01*
X84026666Y-114251714D01*
X84740952Y-114870761D02*
X84645714Y-114918380D01*
X84455238Y-114918380D01*
X84360000Y-114870761D01*
X84312380Y-114775523D01*
X84312380Y-114394571D01*
X84360000Y-114299333D01*
X84455238Y-114251714D01*
X84645714Y-114251714D01*
X84740952Y-114299333D01*
X84788571Y-114394571D01*
X84788571Y-114489809D01*
X84312380Y-114585047D01*
X85598095Y-114870761D02*
X85502857Y-114918380D01*
X85312380Y-114918380D01*
X85217142Y-114870761D01*
X85169523Y-114775523D01*
X85169523Y-114394571D01*
X85217142Y-114299333D01*
X85312380Y-114251714D01*
X85502857Y-114251714D01*
X85598095Y-114299333D01*
X85645714Y-114394571D01*
X85645714Y-114489809D01*
X85169523Y-114585047D01*
X86074285Y-114251714D02*
X86074285Y-114918380D01*
X86074285Y-114346952D02*
X86121904Y-114299333D01*
X86217142Y-114251714D01*
X86360000Y-114251714D01*
X86455238Y-114299333D01*
X86502857Y-114394571D01*
X86502857Y-114918380D01*
X88217142Y-114918380D02*
X87740952Y-114918380D01*
X87740952Y-113918380D01*
X88550476Y-114394571D02*
X88883809Y-114394571D01*
X89026666Y-114918380D02*
X88550476Y-114918380D01*
X88550476Y-113918380D01*
X89026666Y-113918380D01*
X89455238Y-114918380D02*
X89455238Y-113918380D01*
X89693333Y-113918380D01*
X89836190Y-113966000D01*
X89931428Y-114061238D01*
X89979047Y-114156476D01*
X90026666Y-114346952D01*
X90026666Y-114489809D01*
X89979047Y-114680285D01*
X89931428Y-114775523D01*
X89836190Y-114870761D01*
X89693333Y-114918380D01*
X89455238Y-114918380D01*
G04 #@! TO.C,D1*
X96035904Y-108998380D02*
X96035904Y-107998380D01*
X96274000Y-107998380D01*
X96416857Y-108046000D01*
X96512095Y-108141238D01*
X96559714Y-108236476D01*
X96607333Y-108426952D01*
X96607333Y-108569809D01*
X96559714Y-108760285D01*
X96512095Y-108855523D01*
X96416857Y-108950761D01*
X96274000Y-108998380D01*
X96035904Y-108998380D01*
X97559714Y-108998380D02*
X96988285Y-108998380D01*
X97274000Y-108998380D02*
X97274000Y-107998380D01*
X97178761Y-108141238D01*
X97083523Y-108236476D01*
X96988285Y-108284095D01*
X94464476Y-114918380D02*
X94131142Y-114442190D01*
X93893047Y-114918380D02*
X93893047Y-113918380D01*
X94274000Y-113918380D01*
X94369238Y-113966000D01*
X94416857Y-114013619D01*
X94464476Y-114108857D01*
X94464476Y-114251714D01*
X94416857Y-114346952D01*
X94369238Y-114394571D01*
X94274000Y-114442190D01*
X93893047Y-114442190D01*
X95274000Y-114870761D02*
X95178761Y-114918380D01*
X94988285Y-114918380D01*
X94893047Y-114870761D01*
X94845428Y-114775523D01*
X94845428Y-114394571D01*
X94893047Y-114299333D01*
X94988285Y-114251714D01*
X95178761Y-114251714D01*
X95274000Y-114299333D01*
X95321619Y-114394571D01*
X95321619Y-114489809D01*
X94845428Y-114585047D01*
X96178761Y-114918380D02*
X96178761Y-113918380D01*
X96178761Y-114870761D02*
X96083523Y-114918380D01*
X95893047Y-114918380D01*
X95797809Y-114870761D01*
X95750190Y-114823142D01*
X95702571Y-114727904D01*
X95702571Y-114442190D01*
X95750190Y-114346952D01*
X95797809Y-114299333D01*
X95893047Y-114251714D01*
X96083523Y-114251714D01*
X96178761Y-114299333D01*
X97893047Y-114918380D02*
X97416857Y-114918380D01*
X97416857Y-113918380D01*
X98226380Y-114394571D02*
X98559714Y-114394571D01*
X98702571Y-114918380D02*
X98226380Y-114918380D01*
X98226380Y-113918380D01*
X98702571Y-113918380D01*
X99131142Y-114918380D02*
X99131142Y-113918380D01*
X99369238Y-113918380D01*
X99512095Y-113966000D01*
X99607333Y-114061238D01*
X99654952Y-114156476D01*
X99702571Y-114346952D01*
X99702571Y-114489809D01*
X99654952Y-114680285D01*
X99607333Y-114775523D01*
X99512095Y-114870761D01*
X99369238Y-114918380D01*
X99131142Y-114918380D01*
G04 #@! TO.C,R2*
X77965380Y-104433666D02*
X77489190Y-104767000D01*
X77965380Y-105005095D02*
X76965380Y-105005095D01*
X76965380Y-104624142D01*
X77013000Y-104528904D01*
X77060619Y-104481285D01*
X77155857Y-104433666D01*
X77298714Y-104433666D01*
X77393952Y-104481285D01*
X77441571Y-104528904D01*
X77489190Y-104624142D01*
X77489190Y-105005095D01*
X77060619Y-104052714D02*
X77013000Y-104005095D01*
X76965380Y-103909857D01*
X76965380Y-103671761D01*
X77013000Y-103576523D01*
X77060619Y-103528904D01*
X77155857Y-103481285D01*
X77251095Y-103481285D01*
X77393952Y-103528904D01*
X77965380Y-104100333D01*
X77965380Y-103481285D01*
X81705380Y-105028904D02*
X81705380Y-105219380D01*
X81753000Y-105314619D01*
X81800619Y-105362238D01*
X81943476Y-105457476D01*
X82133952Y-105505095D01*
X82514904Y-105505095D01*
X82610142Y-105457476D01*
X82657761Y-105409857D01*
X82705380Y-105314619D01*
X82705380Y-105124142D01*
X82657761Y-105028904D01*
X82610142Y-104981285D01*
X82514904Y-104933666D01*
X82276809Y-104933666D01*
X82181571Y-104981285D01*
X82133952Y-105028904D01*
X82086333Y-105124142D01*
X82086333Y-105314619D01*
X82133952Y-105409857D01*
X82181571Y-105457476D01*
X82276809Y-105505095D01*
X82133952Y-104362238D02*
X82086333Y-104457476D01*
X82038714Y-104505095D01*
X81943476Y-104552714D01*
X81895857Y-104552714D01*
X81800619Y-104505095D01*
X81753000Y-104457476D01*
X81705380Y-104362238D01*
X81705380Y-104171761D01*
X81753000Y-104076523D01*
X81800619Y-104028904D01*
X81895857Y-103981285D01*
X81943476Y-103981285D01*
X82038714Y-104028904D01*
X82086333Y-104076523D01*
X82133952Y-104171761D01*
X82133952Y-104362238D01*
X82181571Y-104457476D01*
X82229190Y-104505095D01*
X82324428Y-104552714D01*
X82514904Y-104552714D01*
X82610142Y-104505095D01*
X82657761Y-104457476D01*
X82705380Y-104362238D01*
X82705380Y-104171761D01*
X82657761Y-104076523D01*
X82610142Y-104028904D01*
X82514904Y-103981285D01*
X82324428Y-103981285D01*
X82229190Y-104028904D01*
X82181571Y-104076523D01*
X82133952Y-104171761D01*
X81705380Y-103362238D02*
X81705380Y-103267000D01*
X81753000Y-103171761D01*
X81800619Y-103124142D01*
X81895857Y-103076523D01*
X82086333Y-103028904D01*
X82324428Y-103028904D01*
X82514904Y-103076523D01*
X82610142Y-103124142D01*
X82657761Y-103171761D01*
X82705380Y-103267000D01*
X82705380Y-103362238D01*
X82657761Y-103457476D01*
X82610142Y-103505095D01*
X82514904Y-103552714D01*
X82324428Y-103600333D01*
X82086333Y-103600333D01*
X81895857Y-103552714D01*
X81800619Y-103505095D01*
X81753000Y-103457476D01*
X81705380Y-103362238D01*
G04 #@! TO.C,R1*
X105184380Y-104306666D02*
X104708190Y-104640000D01*
X105184380Y-104878095D02*
X104184380Y-104878095D01*
X104184380Y-104497142D01*
X104232000Y-104401904D01*
X104279619Y-104354285D01*
X104374857Y-104306666D01*
X104517714Y-104306666D01*
X104612952Y-104354285D01*
X104660571Y-104401904D01*
X104708190Y-104497142D01*
X104708190Y-104878095D01*
X105184380Y-103354285D02*
X105184380Y-103925714D01*
X105184380Y-103640000D02*
X104184380Y-103640000D01*
X104327238Y-103735238D01*
X104422476Y-103830476D01*
X104470095Y-103925714D01*
X99777714Y-104901904D02*
X100444380Y-104901904D01*
X99396761Y-105140000D02*
X100111047Y-105378095D01*
X100111047Y-104759047D01*
X99444380Y-104473333D02*
X99444380Y-103806666D01*
X100444380Y-104235238D01*
X99444380Y-103235238D02*
X99444380Y-103140000D01*
X99492000Y-103044761D01*
X99539619Y-102997142D01*
X99634857Y-102949523D01*
X99825333Y-102901904D01*
X100063428Y-102901904D01*
X100253904Y-102949523D01*
X100349142Y-102997142D01*
X100396761Y-103044761D01*
X100444380Y-103140000D01*
X100444380Y-103235238D01*
X100396761Y-103330476D01*
X100349142Y-103378095D01*
X100253904Y-103425714D01*
X100063428Y-103473333D01*
X99825333Y-103473333D01*
X99634857Y-103425714D01*
X99539619Y-103378095D01*
X99492000Y-103330476D01*
X99444380Y-103235238D01*
G04 #@! TD*
M02*
