G04 #@! TF.GenerationSoftware,KiCad,Pcbnew,5.0.2+dfsg1-1~bpo9+1*
G04 #@! TF.CreationDate,2019-06-18T09:33:43+01:00*
G04 #@! TF.ProjectId,nrf24l01,6e726632-346c-4303-912e-6b696361645f,rev?*
G04 #@! TF.SameCoordinates,Original*
G04 #@! TF.FileFunction,Soldermask,Bot*
G04 #@! TF.FilePolarity,Negative*
%FSLAX46Y46*%
G04 Gerber Fmt 4.6, Leading zero omitted, Abs format (unit mm)*
G04 Created by KiCad (PCBNEW 5.0.2+dfsg1-1~bpo9+1) date Tue 18 Jun 2019 09:33:43 IST*
%MOMM*%
%LPD*%
G01*
G04 APERTURE LIST*
%ADD10C,0.100000*%
G04 APERTURE END LIST*
D10*
G36*
X129171000Y-77101000D02*
X127369000Y-77101000D01*
X127369000Y-75299000D01*
X129171000Y-75299000D01*
X129171000Y-77101000D01*
X129171000Y-77101000D01*
G37*
G36*
X138540442Y-74035518D02*
X138606627Y-74042037D01*
X138719853Y-74076384D01*
X138776467Y-74093557D01*
X138906363Y-74162989D01*
X138932991Y-74177222D01*
X138968729Y-74206552D01*
X139070186Y-74289814D01*
X139153448Y-74391271D01*
X139182778Y-74427009D01*
X139182779Y-74427011D01*
X139266443Y-74583533D01*
X139266443Y-74583534D01*
X139317963Y-74753373D01*
X139335359Y-74930000D01*
X139317963Y-75106627D01*
X139283616Y-75219853D01*
X139266443Y-75276467D01*
X139192348Y-75415087D01*
X139182778Y-75432991D01*
X139153448Y-75468729D01*
X139070186Y-75570186D01*
X138968729Y-75653448D01*
X138932991Y-75682778D01*
X138932989Y-75682779D01*
X138776467Y-75766443D01*
X138719853Y-75783616D01*
X138606627Y-75817963D01*
X138540442Y-75824482D01*
X138474260Y-75831000D01*
X138385740Y-75831000D01*
X138319558Y-75824482D01*
X138253373Y-75817963D01*
X138140147Y-75783616D01*
X138083533Y-75766443D01*
X137927011Y-75682779D01*
X137927009Y-75682778D01*
X137891271Y-75653448D01*
X137789814Y-75570186D01*
X137706552Y-75468729D01*
X137677222Y-75432991D01*
X137667652Y-75415087D01*
X137593557Y-75276467D01*
X137576384Y-75219853D01*
X137542037Y-75106627D01*
X137524641Y-74930000D01*
X137542037Y-74753373D01*
X137593557Y-74583534D01*
X137593557Y-74583533D01*
X137677221Y-74427011D01*
X137677222Y-74427009D01*
X137706552Y-74391271D01*
X137789814Y-74289814D01*
X137891271Y-74206552D01*
X137927009Y-74177222D01*
X137953637Y-74162989D01*
X138083533Y-74093557D01*
X138140147Y-74076384D01*
X138253373Y-74042037D01*
X138319558Y-74035518D01*
X138385740Y-74029000D01*
X138474260Y-74029000D01*
X138540442Y-74035518D01*
X138540442Y-74035518D01*
G37*
G36*
X136000442Y-74035518D02*
X136066627Y-74042037D01*
X136179853Y-74076384D01*
X136236467Y-74093557D01*
X136366363Y-74162989D01*
X136392991Y-74177222D01*
X136428729Y-74206552D01*
X136530186Y-74289814D01*
X136613448Y-74391271D01*
X136642778Y-74427009D01*
X136642779Y-74427011D01*
X136726443Y-74583533D01*
X136726443Y-74583534D01*
X136777963Y-74753373D01*
X136795359Y-74930000D01*
X136777963Y-75106627D01*
X136743616Y-75219853D01*
X136726443Y-75276467D01*
X136652348Y-75415087D01*
X136642778Y-75432991D01*
X136613448Y-75468729D01*
X136530186Y-75570186D01*
X136428729Y-75653448D01*
X136392991Y-75682778D01*
X136392989Y-75682779D01*
X136236467Y-75766443D01*
X136179853Y-75783616D01*
X136066627Y-75817963D01*
X136000442Y-75824482D01*
X135934260Y-75831000D01*
X135845740Y-75831000D01*
X135779558Y-75824482D01*
X135713373Y-75817963D01*
X135600147Y-75783616D01*
X135543533Y-75766443D01*
X135387011Y-75682779D01*
X135387009Y-75682778D01*
X135351271Y-75653448D01*
X135249814Y-75570186D01*
X135166552Y-75468729D01*
X135137222Y-75432991D01*
X135127652Y-75415087D01*
X135053557Y-75276467D01*
X135036384Y-75219853D01*
X135002037Y-75106627D01*
X134984641Y-74930000D01*
X135002037Y-74753373D01*
X135053557Y-74583534D01*
X135053557Y-74583533D01*
X135137221Y-74427011D01*
X135137222Y-74427009D01*
X135166552Y-74391271D01*
X135249814Y-74289814D01*
X135351271Y-74206552D01*
X135387009Y-74177222D01*
X135413637Y-74162989D01*
X135543533Y-74093557D01*
X135600147Y-74076384D01*
X135713373Y-74042037D01*
X135779558Y-74035518D01*
X135845740Y-74029000D01*
X135934260Y-74029000D01*
X136000442Y-74035518D01*
X136000442Y-74035518D01*
G37*
G36*
X128380442Y-72765518D02*
X128446627Y-72772037D01*
X128559853Y-72806384D01*
X128616467Y-72823557D01*
X128746363Y-72892989D01*
X128772991Y-72907222D01*
X128808729Y-72936552D01*
X128910186Y-73019814D01*
X128993448Y-73121271D01*
X129022778Y-73157009D01*
X129022779Y-73157011D01*
X129106443Y-73313533D01*
X129106443Y-73313534D01*
X129157963Y-73483373D01*
X129175359Y-73660000D01*
X129157963Y-73836627D01*
X129123616Y-73949853D01*
X129106443Y-74006467D01*
X129087430Y-74042037D01*
X129022778Y-74162991D01*
X128993448Y-74198729D01*
X128910186Y-74300186D01*
X128808729Y-74383448D01*
X128772991Y-74412778D01*
X128772989Y-74412779D01*
X128616467Y-74496443D01*
X128559853Y-74513616D01*
X128446627Y-74547963D01*
X128380442Y-74554482D01*
X128314260Y-74561000D01*
X128225740Y-74561000D01*
X128159558Y-74554482D01*
X128093373Y-74547963D01*
X127980147Y-74513616D01*
X127923533Y-74496443D01*
X127767011Y-74412779D01*
X127767009Y-74412778D01*
X127731271Y-74383448D01*
X127629814Y-74300186D01*
X127546552Y-74198729D01*
X127517222Y-74162991D01*
X127452570Y-74042037D01*
X127433557Y-74006467D01*
X127416384Y-73949853D01*
X127382037Y-73836627D01*
X127364641Y-73660000D01*
X127382037Y-73483373D01*
X127433557Y-73313534D01*
X127433557Y-73313533D01*
X127517221Y-73157011D01*
X127517222Y-73157009D01*
X127546552Y-73121271D01*
X127629814Y-73019814D01*
X127731271Y-72936552D01*
X127767009Y-72907222D01*
X127793637Y-72892989D01*
X127923533Y-72823557D01*
X127980147Y-72806384D01*
X128093373Y-72772037D01*
X128159558Y-72765518D01*
X128225740Y-72759000D01*
X128314260Y-72759000D01*
X128380442Y-72765518D01*
X128380442Y-72765518D01*
G37*
G36*
X138540443Y-71495519D02*
X138606627Y-71502037D01*
X138719853Y-71536384D01*
X138776467Y-71553557D01*
X138906363Y-71622989D01*
X138932991Y-71637222D01*
X138968729Y-71666552D01*
X139070186Y-71749814D01*
X139153448Y-71851271D01*
X139182778Y-71887009D01*
X139182779Y-71887011D01*
X139266443Y-72043533D01*
X139266443Y-72043534D01*
X139317963Y-72213373D01*
X139335359Y-72390000D01*
X139317963Y-72566627D01*
X139283616Y-72679853D01*
X139266443Y-72736467D01*
X139247430Y-72772037D01*
X139182778Y-72892991D01*
X139153448Y-72928729D01*
X139070186Y-73030186D01*
X138968729Y-73113448D01*
X138932991Y-73142778D01*
X138932989Y-73142779D01*
X138776467Y-73226443D01*
X138719853Y-73243616D01*
X138606627Y-73277963D01*
X138540443Y-73284481D01*
X138474260Y-73291000D01*
X138385740Y-73291000D01*
X138319557Y-73284481D01*
X138253373Y-73277963D01*
X138140147Y-73243616D01*
X138083533Y-73226443D01*
X137927011Y-73142779D01*
X137927009Y-73142778D01*
X137891271Y-73113448D01*
X137789814Y-73030186D01*
X137706552Y-72928729D01*
X137677222Y-72892991D01*
X137612570Y-72772037D01*
X137593557Y-72736467D01*
X137576384Y-72679853D01*
X137542037Y-72566627D01*
X137524641Y-72390000D01*
X137542037Y-72213373D01*
X137593557Y-72043534D01*
X137593557Y-72043533D01*
X137677221Y-71887011D01*
X137677222Y-71887009D01*
X137706552Y-71851271D01*
X137789814Y-71749814D01*
X137891271Y-71666552D01*
X137927009Y-71637222D01*
X137953637Y-71622989D01*
X138083533Y-71553557D01*
X138140147Y-71536384D01*
X138253373Y-71502037D01*
X138319557Y-71495519D01*
X138385740Y-71489000D01*
X138474260Y-71489000D01*
X138540443Y-71495519D01*
X138540443Y-71495519D01*
G37*
G36*
X136000443Y-71495519D02*
X136066627Y-71502037D01*
X136179853Y-71536384D01*
X136236467Y-71553557D01*
X136366363Y-71622989D01*
X136392991Y-71637222D01*
X136428729Y-71666552D01*
X136530186Y-71749814D01*
X136613448Y-71851271D01*
X136642778Y-71887009D01*
X136642779Y-71887011D01*
X136726443Y-72043533D01*
X136726443Y-72043534D01*
X136777963Y-72213373D01*
X136795359Y-72390000D01*
X136777963Y-72566627D01*
X136743616Y-72679853D01*
X136726443Y-72736467D01*
X136707430Y-72772037D01*
X136642778Y-72892991D01*
X136613448Y-72928729D01*
X136530186Y-73030186D01*
X136428729Y-73113448D01*
X136392991Y-73142778D01*
X136392989Y-73142779D01*
X136236467Y-73226443D01*
X136179853Y-73243616D01*
X136066627Y-73277963D01*
X136000443Y-73284481D01*
X135934260Y-73291000D01*
X135845740Y-73291000D01*
X135779557Y-73284481D01*
X135713373Y-73277963D01*
X135600147Y-73243616D01*
X135543533Y-73226443D01*
X135387011Y-73142779D01*
X135387009Y-73142778D01*
X135351271Y-73113448D01*
X135249814Y-73030186D01*
X135166552Y-72928729D01*
X135137222Y-72892991D01*
X135072570Y-72772037D01*
X135053557Y-72736467D01*
X135036384Y-72679853D01*
X135002037Y-72566627D01*
X134984641Y-72390000D01*
X135002037Y-72213373D01*
X135053557Y-72043534D01*
X135053557Y-72043533D01*
X135137221Y-71887011D01*
X135137222Y-71887009D01*
X135166552Y-71851271D01*
X135249814Y-71749814D01*
X135351271Y-71666552D01*
X135387009Y-71637222D01*
X135413637Y-71622989D01*
X135543533Y-71553557D01*
X135600147Y-71536384D01*
X135713373Y-71502037D01*
X135779557Y-71495519D01*
X135845740Y-71489000D01*
X135934260Y-71489000D01*
X136000443Y-71495519D01*
X136000443Y-71495519D01*
G37*
G36*
X128380442Y-70225518D02*
X128446627Y-70232037D01*
X128559853Y-70266384D01*
X128616467Y-70283557D01*
X128746363Y-70352989D01*
X128772991Y-70367222D01*
X128808729Y-70396552D01*
X128910186Y-70479814D01*
X128993448Y-70581271D01*
X129022778Y-70617009D01*
X129022779Y-70617011D01*
X129106443Y-70773533D01*
X129106443Y-70773534D01*
X129157963Y-70943373D01*
X129175359Y-71120000D01*
X129157963Y-71296627D01*
X129123616Y-71409853D01*
X129106443Y-71466467D01*
X129087430Y-71502037D01*
X129022778Y-71622991D01*
X128993448Y-71658729D01*
X128910186Y-71760186D01*
X128808729Y-71843448D01*
X128772991Y-71872778D01*
X128772989Y-71872779D01*
X128616467Y-71956443D01*
X128559853Y-71973616D01*
X128446627Y-72007963D01*
X128380443Y-72014481D01*
X128314260Y-72021000D01*
X128225740Y-72021000D01*
X128159557Y-72014481D01*
X128093373Y-72007963D01*
X127980147Y-71973616D01*
X127923533Y-71956443D01*
X127767011Y-71872779D01*
X127767009Y-71872778D01*
X127731271Y-71843448D01*
X127629814Y-71760186D01*
X127546552Y-71658729D01*
X127517222Y-71622991D01*
X127452570Y-71502037D01*
X127433557Y-71466467D01*
X127416384Y-71409853D01*
X127382037Y-71296627D01*
X127364641Y-71120000D01*
X127382037Y-70943373D01*
X127433557Y-70773534D01*
X127433557Y-70773533D01*
X127517221Y-70617011D01*
X127517222Y-70617009D01*
X127546552Y-70581271D01*
X127629814Y-70479814D01*
X127731271Y-70396552D01*
X127767009Y-70367222D01*
X127793637Y-70352989D01*
X127923533Y-70283557D01*
X127980147Y-70266384D01*
X128093373Y-70232037D01*
X128159558Y-70225518D01*
X128225740Y-70219000D01*
X128314260Y-70219000D01*
X128380442Y-70225518D01*
X128380442Y-70225518D01*
G37*
G36*
X138540443Y-68955519D02*
X138606627Y-68962037D01*
X138719853Y-68996384D01*
X138776467Y-69013557D01*
X138906363Y-69082989D01*
X138932991Y-69097222D01*
X138968729Y-69126552D01*
X139070186Y-69209814D01*
X139153448Y-69311271D01*
X139182778Y-69347009D01*
X139182779Y-69347011D01*
X139266443Y-69503533D01*
X139266443Y-69503534D01*
X139317963Y-69673373D01*
X139335359Y-69850000D01*
X139317963Y-70026627D01*
X139283616Y-70139853D01*
X139266443Y-70196467D01*
X139247430Y-70232037D01*
X139182778Y-70352991D01*
X139153448Y-70388729D01*
X139070186Y-70490186D01*
X138968729Y-70573448D01*
X138932991Y-70602778D01*
X138932989Y-70602779D01*
X138776467Y-70686443D01*
X138719853Y-70703616D01*
X138606627Y-70737963D01*
X138540443Y-70744481D01*
X138474260Y-70751000D01*
X138385740Y-70751000D01*
X138319557Y-70744481D01*
X138253373Y-70737963D01*
X138140147Y-70703616D01*
X138083533Y-70686443D01*
X137927011Y-70602779D01*
X137927009Y-70602778D01*
X137891271Y-70573448D01*
X137789814Y-70490186D01*
X137706552Y-70388729D01*
X137677222Y-70352991D01*
X137612570Y-70232037D01*
X137593557Y-70196467D01*
X137576384Y-70139853D01*
X137542037Y-70026627D01*
X137524641Y-69850000D01*
X137542037Y-69673373D01*
X137593557Y-69503534D01*
X137593557Y-69503533D01*
X137677221Y-69347011D01*
X137677222Y-69347009D01*
X137706552Y-69311271D01*
X137789814Y-69209814D01*
X137891271Y-69126552D01*
X137927009Y-69097222D01*
X137953637Y-69082989D01*
X138083533Y-69013557D01*
X138140147Y-68996384D01*
X138253373Y-68962037D01*
X138319557Y-68955519D01*
X138385740Y-68949000D01*
X138474260Y-68949000D01*
X138540443Y-68955519D01*
X138540443Y-68955519D01*
G37*
G36*
X136000443Y-68955519D02*
X136066627Y-68962037D01*
X136179853Y-68996384D01*
X136236467Y-69013557D01*
X136366363Y-69082989D01*
X136392991Y-69097222D01*
X136428729Y-69126552D01*
X136530186Y-69209814D01*
X136613448Y-69311271D01*
X136642778Y-69347009D01*
X136642779Y-69347011D01*
X136726443Y-69503533D01*
X136726443Y-69503534D01*
X136777963Y-69673373D01*
X136795359Y-69850000D01*
X136777963Y-70026627D01*
X136743616Y-70139853D01*
X136726443Y-70196467D01*
X136707430Y-70232037D01*
X136642778Y-70352991D01*
X136613448Y-70388729D01*
X136530186Y-70490186D01*
X136428729Y-70573448D01*
X136392991Y-70602778D01*
X136392989Y-70602779D01*
X136236467Y-70686443D01*
X136179853Y-70703616D01*
X136066627Y-70737963D01*
X136000443Y-70744481D01*
X135934260Y-70751000D01*
X135845740Y-70751000D01*
X135779557Y-70744481D01*
X135713373Y-70737963D01*
X135600147Y-70703616D01*
X135543533Y-70686443D01*
X135387011Y-70602779D01*
X135387009Y-70602778D01*
X135351271Y-70573448D01*
X135249814Y-70490186D01*
X135166552Y-70388729D01*
X135137222Y-70352991D01*
X135072570Y-70232037D01*
X135053557Y-70196467D01*
X135036384Y-70139853D01*
X135002037Y-70026627D01*
X134984641Y-69850000D01*
X135002037Y-69673373D01*
X135053557Y-69503534D01*
X135053557Y-69503533D01*
X135137221Y-69347011D01*
X135137222Y-69347009D01*
X135166552Y-69311271D01*
X135249814Y-69209814D01*
X135351271Y-69126552D01*
X135387009Y-69097222D01*
X135413637Y-69082989D01*
X135543533Y-69013557D01*
X135600147Y-68996384D01*
X135713373Y-68962037D01*
X135779557Y-68955519D01*
X135845740Y-68949000D01*
X135934260Y-68949000D01*
X136000443Y-68955519D01*
X136000443Y-68955519D01*
G37*
G36*
X128380443Y-67685519D02*
X128446627Y-67692037D01*
X128559853Y-67726384D01*
X128616467Y-67743557D01*
X128746363Y-67812989D01*
X128772991Y-67827222D01*
X128808729Y-67856552D01*
X128910186Y-67939814D01*
X128993448Y-68041271D01*
X129022778Y-68077009D01*
X129022779Y-68077011D01*
X129106443Y-68233533D01*
X129106443Y-68233534D01*
X129157963Y-68403373D01*
X129175359Y-68580000D01*
X129157963Y-68756627D01*
X129123616Y-68869853D01*
X129106443Y-68926467D01*
X129087430Y-68962037D01*
X129022778Y-69082991D01*
X128993448Y-69118729D01*
X128910186Y-69220186D01*
X128808729Y-69303448D01*
X128772991Y-69332778D01*
X128772989Y-69332779D01*
X128616467Y-69416443D01*
X128559853Y-69433616D01*
X128446627Y-69467963D01*
X128380442Y-69474482D01*
X128314260Y-69481000D01*
X128225740Y-69481000D01*
X128159558Y-69474482D01*
X128093373Y-69467963D01*
X127980147Y-69433616D01*
X127923533Y-69416443D01*
X127767011Y-69332779D01*
X127767009Y-69332778D01*
X127731271Y-69303448D01*
X127629814Y-69220186D01*
X127546552Y-69118729D01*
X127517222Y-69082991D01*
X127452570Y-68962037D01*
X127433557Y-68926467D01*
X127416384Y-68869853D01*
X127382037Y-68756627D01*
X127364641Y-68580000D01*
X127382037Y-68403373D01*
X127433557Y-68233534D01*
X127433557Y-68233533D01*
X127517221Y-68077011D01*
X127517222Y-68077009D01*
X127546552Y-68041271D01*
X127629814Y-67939814D01*
X127731271Y-67856552D01*
X127767009Y-67827222D01*
X127793637Y-67812989D01*
X127923533Y-67743557D01*
X127980147Y-67726384D01*
X128093373Y-67692037D01*
X128159557Y-67685519D01*
X128225740Y-67679000D01*
X128314260Y-67679000D01*
X128380443Y-67685519D01*
X128380443Y-67685519D01*
G37*
G36*
X138540443Y-66415519D02*
X138606627Y-66422037D01*
X138719853Y-66456384D01*
X138776467Y-66473557D01*
X138906363Y-66542989D01*
X138932991Y-66557222D01*
X138968729Y-66586552D01*
X139070186Y-66669814D01*
X139153448Y-66771271D01*
X139182778Y-66807009D01*
X139182779Y-66807011D01*
X139266443Y-66963533D01*
X139266443Y-66963534D01*
X139317963Y-67133373D01*
X139335359Y-67310000D01*
X139317963Y-67486627D01*
X139283616Y-67599853D01*
X139266443Y-67656467D01*
X139247430Y-67692037D01*
X139182778Y-67812991D01*
X139153448Y-67848729D01*
X139070186Y-67950186D01*
X138968729Y-68033448D01*
X138932991Y-68062778D01*
X138932989Y-68062779D01*
X138776467Y-68146443D01*
X138719853Y-68163616D01*
X138606627Y-68197963D01*
X138540443Y-68204481D01*
X138474260Y-68211000D01*
X138385740Y-68211000D01*
X138319557Y-68204481D01*
X138253373Y-68197963D01*
X138140147Y-68163616D01*
X138083533Y-68146443D01*
X137927011Y-68062779D01*
X137927009Y-68062778D01*
X137891271Y-68033448D01*
X137789814Y-67950186D01*
X137706552Y-67848729D01*
X137677222Y-67812991D01*
X137612570Y-67692037D01*
X137593557Y-67656467D01*
X137576384Y-67599853D01*
X137542037Y-67486627D01*
X137524641Y-67310000D01*
X137542037Y-67133373D01*
X137593557Y-66963534D01*
X137593557Y-66963533D01*
X137677221Y-66807011D01*
X137677222Y-66807009D01*
X137706552Y-66771271D01*
X137789814Y-66669814D01*
X137891271Y-66586552D01*
X137927009Y-66557222D01*
X137953637Y-66542989D01*
X138083533Y-66473557D01*
X138140147Y-66456384D01*
X138253373Y-66422037D01*
X138319557Y-66415519D01*
X138385740Y-66409000D01*
X138474260Y-66409000D01*
X138540443Y-66415519D01*
X138540443Y-66415519D01*
G37*
G36*
X136791000Y-68211000D02*
X134989000Y-68211000D01*
X134989000Y-66409000D01*
X136791000Y-66409000D01*
X136791000Y-68211000D01*
X136791000Y-68211000D01*
G37*
G36*
X128380442Y-65145518D02*
X128446627Y-65152037D01*
X128559853Y-65186384D01*
X128616467Y-65203557D01*
X128755087Y-65277652D01*
X128772991Y-65287222D01*
X128808729Y-65316552D01*
X128910186Y-65399814D01*
X128993448Y-65501271D01*
X129022778Y-65537009D01*
X129022779Y-65537011D01*
X129106443Y-65693533D01*
X129106443Y-65693534D01*
X129157963Y-65863373D01*
X129175359Y-66040000D01*
X129157963Y-66216627D01*
X129123616Y-66329853D01*
X129106443Y-66386467D01*
X129087430Y-66422037D01*
X129022778Y-66542991D01*
X128993448Y-66578729D01*
X128910186Y-66680186D01*
X128808729Y-66763448D01*
X128772991Y-66792778D01*
X128772989Y-66792779D01*
X128616467Y-66876443D01*
X128559853Y-66893616D01*
X128446627Y-66927963D01*
X128380442Y-66934482D01*
X128314260Y-66941000D01*
X128225740Y-66941000D01*
X128159558Y-66934482D01*
X128093373Y-66927963D01*
X127980147Y-66893616D01*
X127923533Y-66876443D01*
X127767011Y-66792779D01*
X127767009Y-66792778D01*
X127731271Y-66763448D01*
X127629814Y-66680186D01*
X127546552Y-66578729D01*
X127517222Y-66542991D01*
X127452570Y-66422037D01*
X127433557Y-66386467D01*
X127416384Y-66329853D01*
X127382037Y-66216627D01*
X127364641Y-66040000D01*
X127382037Y-65863373D01*
X127433557Y-65693534D01*
X127433557Y-65693533D01*
X127517221Y-65537011D01*
X127517222Y-65537009D01*
X127546552Y-65501271D01*
X127629814Y-65399814D01*
X127731271Y-65316552D01*
X127767009Y-65287222D01*
X127784913Y-65277652D01*
X127923533Y-65203557D01*
X127980147Y-65186384D01*
X128093373Y-65152037D01*
X128159558Y-65145518D01*
X128225740Y-65139000D01*
X128314260Y-65139000D01*
X128380442Y-65145518D01*
X128380442Y-65145518D01*
G37*
G36*
X128380442Y-62605518D02*
X128446627Y-62612037D01*
X128559853Y-62646384D01*
X128616467Y-62663557D01*
X128755087Y-62737652D01*
X128772991Y-62747222D01*
X128808729Y-62776552D01*
X128910186Y-62859814D01*
X128993448Y-62961271D01*
X129022778Y-62997009D01*
X129022779Y-62997011D01*
X129106443Y-63153533D01*
X129106443Y-63153534D01*
X129157963Y-63323373D01*
X129175359Y-63500000D01*
X129157963Y-63676627D01*
X129123616Y-63789853D01*
X129106443Y-63846467D01*
X129032348Y-63985087D01*
X129022778Y-64002991D01*
X128993448Y-64038729D01*
X128910186Y-64140186D01*
X128808729Y-64223448D01*
X128772991Y-64252778D01*
X128772989Y-64252779D01*
X128616467Y-64336443D01*
X128559853Y-64353616D01*
X128446627Y-64387963D01*
X128380442Y-64394482D01*
X128314260Y-64401000D01*
X128225740Y-64401000D01*
X128159558Y-64394482D01*
X128093373Y-64387963D01*
X127980147Y-64353616D01*
X127923533Y-64336443D01*
X127767011Y-64252779D01*
X127767009Y-64252778D01*
X127731271Y-64223448D01*
X127629814Y-64140186D01*
X127546552Y-64038729D01*
X127517222Y-64002991D01*
X127507652Y-63985087D01*
X127433557Y-63846467D01*
X127416384Y-63789853D01*
X127382037Y-63676627D01*
X127364641Y-63500000D01*
X127382037Y-63323373D01*
X127433557Y-63153534D01*
X127433557Y-63153533D01*
X127517221Y-62997011D01*
X127517222Y-62997009D01*
X127546552Y-62961271D01*
X127629814Y-62859814D01*
X127731271Y-62776552D01*
X127767009Y-62747222D01*
X127784913Y-62737652D01*
X127923533Y-62663557D01*
X127980147Y-62646384D01*
X128093373Y-62612037D01*
X128159558Y-62605518D01*
X128225740Y-62599000D01*
X128314260Y-62599000D01*
X128380442Y-62605518D01*
X128380442Y-62605518D01*
G37*
G36*
X128380442Y-60065518D02*
X128446627Y-60072037D01*
X128559853Y-60106384D01*
X128616467Y-60123557D01*
X128755087Y-60197652D01*
X128772991Y-60207222D01*
X128808729Y-60236552D01*
X128910186Y-60319814D01*
X128990369Y-60417519D01*
X129022778Y-60457009D01*
X129022779Y-60457011D01*
X129106443Y-60613533D01*
X129106443Y-60613534D01*
X129157963Y-60783373D01*
X129175359Y-60960000D01*
X129157963Y-61136627D01*
X129136243Y-61208228D01*
X129106443Y-61306467D01*
X129032348Y-61445087D01*
X129022778Y-61462991D01*
X128993448Y-61498729D01*
X128910186Y-61600186D01*
X128808729Y-61683448D01*
X128772991Y-61712778D01*
X128772989Y-61712779D01*
X128616467Y-61796443D01*
X128568478Y-61811000D01*
X128446627Y-61847963D01*
X128380443Y-61854481D01*
X128314260Y-61861000D01*
X128225740Y-61861000D01*
X128159557Y-61854481D01*
X128093373Y-61847963D01*
X127971522Y-61811000D01*
X127923533Y-61796443D01*
X127767011Y-61712779D01*
X127767009Y-61712778D01*
X127731271Y-61683448D01*
X127629814Y-61600186D01*
X127546552Y-61498729D01*
X127517222Y-61462991D01*
X127507652Y-61445087D01*
X127433557Y-61306467D01*
X127403757Y-61208228D01*
X127382037Y-61136627D01*
X127364641Y-60960000D01*
X127382037Y-60783373D01*
X127433557Y-60613534D01*
X127433557Y-60613533D01*
X127517221Y-60457011D01*
X127517222Y-60457009D01*
X127549631Y-60417519D01*
X127629814Y-60319814D01*
X127731271Y-60236552D01*
X127767009Y-60207222D01*
X127784913Y-60197652D01*
X127923533Y-60123557D01*
X127980147Y-60106384D01*
X128093373Y-60072037D01*
X128159558Y-60065518D01*
X128225740Y-60059000D01*
X128314260Y-60059000D01*
X128380442Y-60065518D01*
X128380442Y-60065518D01*
G37*
G36*
X136678228Y-60141703D02*
X136833100Y-60205853D01*
X136972481Y-60298985D01*
X137091015Y-60417519D01*
X137184147Y-60556900D01*
X137248297Y-60711772D01*
X137281000Y-60876184D01*
X137281000Y-61043816D01*
X137248297Y-61208228D01*
X137184147Y-61363100D01*
X137091015Y-61502481D01*
X136972481Y-61621015D01*
X136833100Y-61714147D01*
X136678228Y-61778297D01*
X136513816Y-61811000D01*
X136346184Y-61811000D01*
X136181772Y-61778297D01*
X136026900Y-61714147D01*
X135887519Y-61621015D01*
X135768985Y-61502481D01*
X135675853Y-61363100D01*
X135611703Y-61208228D01*
X135579000Y-61043816D01*
X135579000Y-60876184D01*
X135611703Y-60711772D01*
X135675853Y-60556900D01*
X135768985Y-60417519D01*
X135887519Y-60298985D01*
X136026900Y-60205853D01*
X136181772Y-60141703D01*
X136346184Y-60109000D01*
X136513816Y-60109000D01*
X136678228Y-60141703D01*
X136678228Y-60141703D01*
G37*
G36*
X139281000Y-61811000D02*
X137579000Y-61811000D01*
X137579000Y-60109000D01*
X139281000Y-60109000D01*
X139281000Y-61811000D01*
X139281000Y-61811000D01*
G37*
G36*
X128380443Y-57525519D02*
X128446627Y-57532037D01*
X128559853Y-57566384D01*
X128616467Y-57583557D01*
X128755087Y-57657652D01*
X128772991Y-57667222D01*
X128808729Y-57696552D01*
X128910186Y-57779814D01*
X128993448Y-57881271D01*
X129022778Y-57917009D01*
X129022779Y-57917011D01*
X129106443Y-58073533D01*
X129106443Y-58073534D01*
X129157963Y-58243373D01*
X129175359Y-58420000D01*
X129157963Y-58596627D01*
X129123616Y-58709853D01*
X129106443Y-58766467D01*
X129032348Y-58905087D01*
X129022778Y-58922991D01*
X128993448Y-58958729D01*
X128910186Y-59060186D01*
X128808729Y-59143448D01*
X128772991Y-59172778D01*
X128772989Y-59172779D01*
X128616467Y-59256443D01*
X128559853Y-59273616D01*
X128446627Y-59307963D01*
X128380442Y-59314482D01*
X128314260Y-59321000D01*
X128225740Y-59321000D01*
X128159558Y-59314482D01*
X128093373Y-59307963D01*
X127980147Y-59273616D01*
X127923533Y-59256443D01*
X127767011Y-59172779D01*
X127767009Y-59172778D01*
X127731271Y-59143448D01*
X127629814Y-59060186D01*
X127546552Y-58958729D01*
X127517222Y-58922991D01*
X127507652Y-58905087D01*
X127433557Y-58766467D01*
X127416384Y-58709853D01*
X127382037Y-58596627D01*
X127364641Y-58420000D01*
X127382037Y-58243373D01*
X127433557Y-58073534D01*
X127433557Y-58073533D01*
X127517221Y-57917011D01*
X127517222Y-57917009D01*
X127546552Y-57881271D01*
X127629814Y-57779814D01*
X127731271Y-57696552D01*
X127767009Y-57667222D01*
X127784913Y-57657652D01*
X127923533Y-57583557D01*
X127980147Y-57566384D01*
X128093373Y-57532037D01*
X128159557Y-57525519D01*
X128225740Y-57519000D01*
X128314260Y-57519000D01*
X128380443Y-57525519D01*
X128380443Y-57525519D01*
G37*
M02*
