G04 #@! TF.GenerationSoftware,KiCad,Pcbnew,5.0.2+dfsg1-1~bpo9+1*
G04 #@! TF.CreationDate,2019-06-18T09:33:43+01:00*
G04 #@! TF.ProjectId,nrf24l01,6e726632-346c-4303-912e-6b696361645f,rev?*
G04 #@! TF.SameCoordinates,Original*
G04 #@! TF.FileFunction,Legend,Top*
G04 #@! TF.FilePolarity,Positive*
%FSLAX46Y46*%
G04 Gerber Fmt 4.6, Leading zero omitted, Abs format (unit mm)*
G04 Created by KiCad (PCBNEW 5.0.2+dfsg1-1~bpo9+1) date Tue 18 Jun 2019 09:33:43 IST*
%MOMM*%
%LPD*%
G01*
G04 APERTURE LIST*
%ADD10C,0.250000*%
%ADD11C,0.120000*%
%ADD12C,0.150000*%
G04 APERTURE END LIST*
D10*
X130464404Y-74180000D02*
X130369166Y-74108571D01*
X130226309Y-74108571D01*
X130083452Y-74180000D01*
X129988214Y-74322857D01*
X129940595Y-74465714D01*
X129892976Y-74751428D01*
X129892976Y-74965714D01*
X129940595Y-75251428D01*
X129988214Y-75394285D01*
X130083452Y-75537142D01*
X130226309Y-75608571D01*
X130321547Y-75608571D01*
X130464404Y-75537142D01*
X130512023Y-75465714D01*
X130512023Y-74965714D01*
X130321547Y-74965714D01*
X130940595Y-75608571D02*
X130940595Y-74108571D01*
X131512023Y-75608571D01*
X131512023Y-74108571D01*
X131988214Y-75608571D02*
X131988214Y-74108571D01*
X132226309Y-74108571D01*
X132369166Y-74180000D01*
X132464404Y-74322857D01*
X132512023Y-74465714D01*
X132559642Y-74751428D01*
X132559642Y-74965714D01*
X132512023Y-75251428D01*
X132464404Y-75394285D01*
X132369166Y-75537142D01*
X132226309Y-75608571D01*
X131988214Y-75608571D01*
X129940595Y-73068571D02*
X129940595Y-71568571D01*
X130988214Y-73068571D02*
X130654880Y-72354285D01*
X130416785Y-73068571D02*
X130416785Y-71568571D01*
X130797738Y-71568571D01*
X130892976Y-71640000D01*
X130940595Y-71711428D01*
X130988214Y-71854285D01*
X130988214Y-72068571D01*
X130940595Y-72211428D01*
X130892976Y-72282857D01*
X130797738Y-72354285D01*
X130416785Y-72354285D01*
X132083452Y-73211428D02*
X131988214Y-73140000D01*
X131892976Y-72997142D01*
X131750119Y-72782857D01*
X131654880Y-72711428D01*
X131559642Y-72711428D01*
X131607261Y-73068571D02*
X131512023Y-72997142D01*
X131416785Y-72854285D01*
X131369166Y-72568571D01*
X131369166Y-72068571D01*
X131416785Y-71782857D01*
X131512023Y-71640000D01*
X131607261Y-71568571D01*
X131797738Y-71568571D01*
X131892976Y-71640000D01*
X131988214Y-71782857D01*
X132035833Y-72068571D01*
X132035833Y-72568571D01*
X131988214Y-72854285D01*
X131892976Y-72997142D01*
X131797738Y-73068571D01*
X131607261Y-73068571D01*
X129940595Y-70528571D02*
X129940595Y-69028571D01*
X130273928Y-70100000D01*
X130607261Y-69028571D01*
X130607261Y-70528571D01*
X131083452Y-70528571D02*
X131083452Y-69028571D01*
X131512023Y-70457142D02*
X131654880Y-70528571D01*
X131892976Y-70528571D01*
X131988214Y-70457142D01*
X132035833Y-70385714D01*
X132083452Y-70242857D01*
X132083452Y-70100000D01*
X132035833Y-69957142D01*
X131988214Y-69885714D01*
X131892976Y-69814285D01*
X131702500Y-69742857D01*
X131607261Y-69671428D01*
X131559642Y-69600000D01*
X131512023Y-69457142D01*
X131512023Y-69314285D01*
X131559642Y-69171428D01*
X131607261Y-69100000D01*
X131702500Y-69028571D01*
X131940595Y-69028571D01*
X132083452Y-69100000D01*
X132702500Y-69028571D02*
X132892976Y-69028571D01*
X132988214Y-69100000D01*
X133083452Y-69242857D01*
X133131071Y-69528571D01*
X133131071Y-70028571D01*
X133083452Y-70314285D01*
X132988214Y-70457142D01*
X132892976Y-70528571D01*
X132702500Y-70528571D01*
X132607261Y-70457142D01*
X132512023Y-70314285D01*
X132464404Y-70028571D01*
X132464404Y-69528571D01*
X132512023Y-69242857D01*
X132607261Y-69100000D01*
X132702500Y-69028571D01*
X129940595Y-67988571D02*
X129940595Y-66488571D01*
X130273928Y-67560000D01*
X130607261Y-66488571D01*
X130607261Y-67988571D01*
X131273928Y-66488571D02*
X131464404Y-66488571D01*
X131559642Y-66560000D01*
X131654880Y-66702857D01*
X131702500Y-66988571D01*
X131702500Y-67488571D01*
X131654880Y-67774285D01*
X131559642Y-67917142D01*
X131464404Y-67988571D01*
X131273928Y-67988571D01*
X131178690Y-67917142D01*
X131083452Y-67774285D01*
X131035833Y-67488571D01*
X131035833Y-66988571D01*
X131083452Y-66702857D01*
X131178690Y-66560000D01*
X131273928Y-66488571D01*
X132083452Y-67917142D02*
X132226309Y-67988571D01*
X132464404Y-67988571D01*
X132559642Y-67917142D01*
X132607261Y-67845714D01*
X132654880Y-67702857D01*
X132654880Y-67560000D01*
X132607261Y-67417142D01*
X132559642Y-67345714D01*
X132464404Y-67274285D01*
X132273928Y-67202857D01*
X132178690Y-67131428D01*
X132131071Y-67060000D01*
X132083452Y-66917142D01*
X132083452Y-66774285D01*
X132131071Y-66631428D01*
X132178690Y-66560000D01*
X132273928Y-66488571D01*
X132512023Y-66488571D01*
X132654880Y-66560000D01*
X133083452Y-67988571D02*
X133083452Y-66488571D01*
X129892976Y-65377142D02*
X130035833Y-65448571D01*
X130273928Y-65448571D01*
X130369166Y-65377142D01*
X130416785Y-65305714D01*
X130464404Y-65162857D01*
X130464404Y-65020000D01*
X130416785Y-64877142D01*
X130369166Y-64805714D01*
X130273928Y-64734285D01*
X130083452Y-64662857D01*
X129988214Y-64591428D01*
X129940595Y-64520000D01*
X129892976Y-64377142D01*
X129892976Y-64234285D01*
X129940595Y-64091428D01*
X129988214Y-64020000D01*
X130083452Y-63948571D01*
X130321547Y-63948571D01*
X130464404Y-64020000D01*
X131464404Y-65305714D02*
X131416785Y-65377142D01*
X131273928Y-65448571D01*
X131178690Y-65448571D01*
X131035833Y-65377142D01*
X130940595Y-65234285D01*
X130892976Y-65091428D01*
X130845357Y-64805714D01*
X130845357Y-64591428D01*
X130892976Y-64305714D01*
X130940595Y-64162857D01*
X131035833Y-64020000D01*
X131178690Y-63948571D01*
X131273928Y-63948571D01*
X131416785Y-64020000D01*
X131464404Y-64091428D01*
X131892976Y-65448571D02*
X131892976Y-63948571D01*
X132464404Y-65448571D02*
X132035833Y-64591428D01*
X132464404Y-63948571D02*
X131892976Y-64805714D01*
X130512023Y-62765714D02*
X130464404Y-62837142D01*
X130321547Y-62908571D01*
X130226309Y-62908571D01*
X130083452Y-62837142D01*
X129988214Y-62694285D01*
X129940595Y-62551428D01*
X129892976Y-62265714D01*
X129892976Y-62051428D01*
X129940595Y-61765714D01*
X129988214Y-61622857D01*
X130083452Y-61480000D01*
X130226309Y-61408571D01*
X130321547Y-61408571D01*
X130464404Y-61480000D01*
X130512023Y-61551428D01*
X130892976Y-62837142D02*
X131035833Y-62908571D01*
X131273928Y-62908571D01*
X131369166Y-62837142D01*
X131416785Y-62765714D01*
X131464404Y-62622857D01*
X131464404Y-62480000D01*
X131416785Y-62337142D01*
X131369166Y-62265714D01*
X131273928Y-62194285D01*
X131083452Y-62122857D01*
X130988214Y-62051428D01*
X130940595Y-61980000D01*
X130892976Y-61837142D01*
X130892976Y-61694285D01*
X130940595Y-61551428D01*
X130988214Y-61480000D01*
X131083452Y-61408571D01*
X131321547Y-61408571D01*
X131464404Y-61480000D01*
X131892976Y-62908571D02*
X131892976Y-61408571D01*
X132464404Y-62908571D01*
X132464404Y-61408571D01*
X130512023Y-60225714D02*
X130464404Y-60297142D01*
X130321547Y-60368571D01*
X130226309Y-60368571D01*
X130083452Y-60297142D01*
X129988214Y-60154285D01*
X129940595Y-60011428D01*
X129892976Y-59725714D01*
X129892976Y-59511428D01*
X129940595Y-59225714D01*
X129988214Y-59082857D01*
X130083452Y-58940000D01*
X130226309Y-58868571D01*
X130321547Y-58868571D01*
X130464404Y-58940000D01*
X130512023Y-59011428D01*
X130940595Y-59582857D02*
X131273928Y-59582857D01*
X131416785Y-60368571D02*
X130940595Y-60368571D01*
X130940595Y-58868571D01*
X131416785Y-58868571D01*
X129797738Y-56328571D02*
X130131071Y-57828571D01*
X130464404Y-56328571D01*
X131226309Y-57757142D02*
X131131071Y-57828571D01*
X130940595Y-57828571D01*
X130845357Y-57757142D01*
X130797738Y-57685714D01*
X130750119Y-57542857D01*
X130750119Y-57114285D01*
X130797738Y-56971428D01*
X130845357Y-56900000D01*
X130940595Y-56828571D01*
X131131071Y-56828571D01*
X131226309Y-56900000D01*
X132083452Y-57757142D02*
X131988214Y-57828571D01*
X131797738Y-57828571D01*
X131702500Y-57757142D01*
X131654880Y-57685714D01*
X131607261Y-57542857D01*
X131607261Y-57114285D01*
X131654880Y-56971428D01*
X131702500Y-56900000D01*
X131797738Y-56828571D01*
X131988214Y-56828571D01*
X132083452Y-56900000D01*
D11*
G04 #@! TO.C,C1*
X140050000Y-60960000D02*
G75*
G03X140050000Y-60960000I-2620000J0D01*
G01*
X137430000Y-59920000D02*
X137430000Y-58380000D01*
X137430000Y-63540000D02*
X137430000Y-62000000D01*
X137390000Y-59920000D02*
X137390000Y-58380000D01*
X137390000Y-63540000D02*
X137390000Y-62000000D01*
X137350000Y-63539000D02*
X137350000Y-62000000D01*
X137350000Y-59920000D02*
X137350000Y-58381000D01*
X137310000Y-63538000D02*
X137310000Y-62000000D01*
X137310000Y-59920000D02*
X137310000Y-58382000D01*
X137270000Y-63536000D02*
X137270000Y-62000000D01*
X137270000Y-59920000D02*
X137270000Y-58384000D01*
X137230000Y-63533000D02*
X137230000Y-62000000D01*
X137230000Y-59920000D02*
X137230000Y-58387000D01*
X137190000Y-63529000D02*
X137190000Y-62000000D01*
X137190000Y-59920000D02*
X137190000Y-58391000D01*
X137150000Y-63525000D02*
X137150000Y-62000000D01*
X137150000Y-59920000D02*
X137150000Y-58395000D01*
X137110000Y-63521000D02*
X137110000Y-62000000D01*
X137110000Y-59920000D02*
X137110000Y-58399000D01*
X137070000Y-63516000D02*
X137070000Y-62000000D01*
X137070000Y-59920000D02*
X137070000Y-58404000D01*
X137030000Y-63510000D02*
X137030000Y-62000000D01*
X137030000Y-59920000D02*
X137030000Y-58410000D01*
X136990000Y-63503000D02*
X136990000Y-62000000D01*
X136990000Y-59920000D02*
X136990000Y-58417000D01*
X136950000Y-63496000D02*
X136950000Y-62000000D01*
X136950000Y-59920000D02*
X136950000Y-58424000D01*
X136910000Y-63488000D02*
X136910000Y-62000000D01*
X136910000Y-59920000D02*
X136910000Y-58432000D01*
X136870000Y-63480000D02*
X136870000Y-62000000D01*
X136870000Y-59920000D02*
X136870000Y-58440000D01*
X136830000Y-63471000D02*
X136830000Y-62000000D01*
X136830000Y-59920000D02*
X136830000Y-58449000D01*
X136790000Y-63461000D02*
X136790000Y-62000000D01*
X136790000Y-59920000D02*
X136790000Y-58459000D01*
X136750000Y-63451000D02*
X136750000Y-62000000D01*
X136750000Y-59920000D02*
X136750000Y-58469000D01*
X136709000Y-63440000D02*
X136709000Y-62000000D01*
X136709000Y-59920000D02*
X136709000Y-58480000D01*
X136669000Y-63428000D02*
X136669000Y-62000000D01*
X136669000Y-59920000D02*
X136669000Y-58492000D01*
X136629000Y-63415000D02*
X136629000Y-62000000D01*
X136629000Y-59920000D02*
X136629000Y-58505000D01*
X136589000Y-63402000D02*
X136589000Y-62000000D01*
X136589000Y-59920000D02*
X136589000Y-58518000D01*
X136549000Y-63388000D02*
X136549000Y-62000000D01*
X136549000Y-59920000D02*
X136549000Y-58532000D01*
X136509000Y-63374000D02*
X136509000Y-62000000D01*
X136509000Y-59920000D02*
X136509000Y-58546000D01*
X136469000Y-63358000D02*
X136469000Y-62000000D01*
X136469000Y-59920000D02*
X136469000Y-58562000D01*
X136429000Y-63342000D02*
X136429000Y-62000000D01*
X136429000Y-59920000D02*
X136429000Y-58578000D01*
X136389000Y-63325000D02*
X136389000Y-62000000D01*
X136389000Y-59920000D02*
X136389000Y-58595000D01*
X136349000Y-63308000D02*
X136349000Y-62000000D01*
X136349000Y-59920000D02*
X136349000Y-58612000D01*
X136309000Y-63289000D02*
X136309000Y-62000000D01*
X136309000Y-59920000D02*
X136309000Y-58631000D01*
X136269000Y-63270000D02*
X136269000Y-62000000D01*
X136269000Y-59920000D02*
X136269000Y-58650000D01*
X136229000Y-63250000D02*
X136229000Y-62000000D01*
X136229000Y-59920000D02*
X136229000Y-58670000D01*
X136189000Y-63228000D02*
X136189000Y-62000000D01*
X136189000Y-59920000D02*
X136189000Y-58692000D01*
X136149000Y-63207000D02*
X136149000Y-62000000D01*
X136149000Y-59920000D02*
X136149000Y-58713000D01*
X136109000Y-63184000D02*
X136109000Y-62000000D01*
X136109000Y-59920000D02*
X136109000Y-58736000D01*
X136069000Y-63160000D02*
X136069000Y-62000000D01*
X136069000Y-59920000D02*
X136069000Y-58760000D01*
X136029000Y-63135000D02*
X136029000Y-62000000D01*
X136029000Y-59920000D02*
X136029000Y-58785000D01*
X135989000Y-63109000D02*
X135989000Y-62000000D01*
X135989000Y-59920000D02*
X135989000Y-58811000D01*
X135949000Y-63082000D02*
X135949000Y-62000000D01*
X135949000Y-59920000D02*
X135949000Y-58838000D01*
X135909000Y-63055000D02*
X135909000Y-62000000D01*
X135909000Y-59920000D02*
X135909000Y-58865000D01*
X135869000Y-63025000D02*
X135869000Y-62000000D01*
X135869000Y-59920000D02*
X135869000Y-58895000D01*
X135829000Y-62995000D02*
X135829000Y-62000000D01*
X135829000Y-59920000D02*
X135829000Y-58925000D01*
X135789000Y-62964000D02*
X135789000Y-62000000D01*
X135789000Y-59920000D02*
X135789000Y-58956000D01*
X135749000Y-62931000D02*
X135749000Y-62000000D01*
X135749000Y-59920000D02*
X135749000Y-58989000D01*
X135709000Y-62897000D02*
X135709000Y-62000000D01*
X135709000Y-59920000D02*
X135709000Y-59023000D01*
X135669000Y-62861000D02*
X135669000Y-62000000D01*
X135669000Y-59920000D02*
X135669000Y-59059000D01*
X135629000Y-62824000D02*
X135629000Y-62000000D01*
X135629000Y-59920000D02*
X135629000Y-59096000D01*
X135589000Y-62786000D02*
X135589000Y-62000000D01*
X135589000Y-59920000D02*
X135589000Y-59134000D01*
X135549000Y-62745000D02*
X135549000Y-62000000D01*
X135549000Y-59920000D02*
X135549000Y-59175000D01*
X135509000Y-62703000D02*
X135509000Y-62000000D01*
X135509000Y-59920000D02*
X135509000Y-59217000D01*
X135469000Y-62659000D02*
X135469000Y-62000000D01*
X135469000Y-59920000D02*
X135469000Y-59261000D01*
X135429000Y-62613000D02*
X135429000Y-62000000D01*
X135429000Y-59920000D02*
X135429000Y-59307000D01*
X135389000Y-62565000D02*
X135389000Y-59355000D01*
X135349000Y-62514000D02*
X135349000Y-59406000D01*
X135309000Y-62460000D02*
X135309000Y-59460000D01*
X135269000Y-62403000D02*
X135269000Y-59517000D01*
X135229000Y-62343000D02*
X135229000Y-59577000D01*
X135189000Y-62279000D02*
X135189000Y-59641000D01*
X135149000Y-62211000D02*
X135149000Y-59709000D01*
X135109000Y-62138000D02*
X135109000Y-59782000D01*
X135069000Y-62058000D02*
X135069000Y-59862000D01*
X135029000Y-61971000D02*
X135029000Y-59949000D01*
X134989000Y-61875000D02*
X134989000Y-60045000D01*
X134949000Y-61765000D02*
X134949000Y-60155000D01*
X134909000Y-61637000D02*
X134909000Y-60283000D01*
X134869000Y-61478000D02*
X134869000Y-60442000D01*
X134829000Y-61244000D02*
X134829000Y-60676000D01*
X140234775Y-62435000D02*
X139734775Y-62435000D01*
X139984775Y-62685000D02*
X139984775Y-62185000D01*
G04 #@! TO.C,J2*
X134560000Y-76260000D02*
X139760000Y-76260000D01*
X134560000Y-68580000D02*
X134560000Y-76260000D01*
X139760000Y-65980000D02*
X139760000Y-76260000D01*
X134560000Y-68580000D02*
X137160000Y-68580000D01*
X137160000Y-68580000D02*
X137160000Y-65980000D01*
X137160000Y-65980000D02*
X139760000Y-65980000D01*
X134560000Y-67310000D02*
X134560000Y-65980000D01*
X134560000Y-65980000D02*
X135890000Y-65980000D01*
G04 #@! TO.C,C1*
D12*
X137263333Y-65067142D02*
X137215714Y-65114761D01*
X137072857Y-65162380D01*
X136977619Y-65162380D01*
X136834761Y-65114761D01*
X136739523Y-65019523D01*
X136691904Y-64924285D01*
X136644285Y-64733809D01*
X136644285Y-64590952D01*
X136691904Y-64400476D01*
X136739523Y-64305238D01*
X136834761Y-64210000D01*
X136977619Y-64162380D01*
X137072857Y-64162380D01*
X137215714Y-64210000D01*
X137263333Y-64257619D01*
X138215714Y-65162380D02*
X137644285Y-65162380D01*
X137930000Y-65162380D02*
X137930000Y-64162380D01*
X137834761Y-64305238D01*
X137739523Y-64400476D01*
X137644285Y-64448095D01*
G04 #@! TO.C,J2*
X136826666Y-64432380D02*
X136826666Y-65146666D01*
X136779047Y-65289523D01*
X136683809Y-65384761D01*
X136540952Y-65432380D01*
X136445714Y-65432380D01*
X137255238Y-64527619D02*
X137302857Y-64480000D01*
X137398095Y-64432380D01*
X137636190Y-64432380D01*
X137731428Y-64480000D01*
X137779047Y-64527619D01*
X137826666Y-64622857D01*
X137826666Y-64718095D01*
X137779047Y-64860952D01*
X137207619Y-65432380D01*
X137826666Y-65432380D01*
G04 #@! TD*
M02*
