G04 #@! TF.GenerationSoftware,KiCad,Pcbnew,5.0.2+dfsg1-1~bpo9+1*
G04 #@! TF.CreationDate,2020-08-18T09:09:55+01:00*
G04 #@! TF.ProjectId,d1-nrf24l01-shield,64312d6e-7266-4323-946c-30312d736869,rev?*
G04 #@! TF.SameCoordinates,Original*
G04 #@! TF.FileFunction,Legend,Top*
G04 #@! TF.FilePolarity,Positive*
%FSLAX46Y46*%
G04 Gerber Fmt 4.6, Leading zero omitted, Abs format (unit mm)*
G04 Created by KiCad (PCBNEW 5.0.2+dfsg1-1~bpo9+1) date Tue 18 Aug 2020 09:09:55 IST*
%MOMM*%
%LPD*%
G01*
G04 APERTURE LIST*
%ADD10C,0.300000*%
%ADD11C,0.120000*%
%ADD12C,0.150000*%
G04 APERTURE END LIST*
D10*
X134667571Y-104818571D02*
X133810428Y-104818571D01*
X134239000Y-104818571D02*
X134239000Y-103318571D01*
X134096142Y-103532857D01*
X133953285Y-103675714D01*
X133810428Y-103747142D01*
X129489571Y-79429571D02*
X129489571Y-80429571D01*
X129489571Y-79572428D02*
X129561000Y-79501000D01*
X129703857Y-79429571D01*
X129918142Y-79429571D01*
X130061000Y-79501000D01*
X130132428Y-79643857D01*
X130132428Y-80429571D01*
X130846714Y-80429571D02*
X130846714Y-79429571D01*
X130846714Y-79715285D02*
X130918142Y-79572428D01*
X130989571Y-79501000D01*
X131132428Y-79429571D01*
X131275285Y-79429571D01*
X131561000Y-79429571D02*
X132132428Y-79429571D01*
X131775285Y-80429571D02*
X131775285Y-79143857D01*
X131846714Y-79001000D01*
X131989571Y-78929571D01*
X132132428Y-78929571D01*
X132561000Y-79072428D02*
X132632428Y-79001000D01*
X132775285Y-78929571D01*
X133132428Y-78929571D01*
X133275285Y-79001000D01*
X133346714Y-79072428D01*
X133418142Y-79215285D01*
X133418142Y-79358142D01*
X133346714Y-79572428D01*
X132489571Y-80429571D01*
X133418142Y-80429571D01*
X134703857Y-79429571D02*
X134703857Y-80429571D01*
X134346714Y-78858142D02*
X133989571Y-79929571D01*
X134918142Y-79929571D01*
X135703857Y-80429571D02*
X135561000Y-80358142D01*
X135489571Y-80215285D01*
X135489571Y-78929571D01*
X136561000Y-78929571D02*
X136703857Y-78929571D01*
X136846714Y-79001000D01*
X136918142Y-79072428D01*
X136989571Y-79215285D01*
X137061000Y-79501000D01*
X137061000Y-79858142D01*
X136989571Y-80143857D01*
X136918142Y-80286714D01*
X136846714Y-80358142D01*
X136703857Y-80429571D01*
X136561000Y-80429571D01*
X136418142Y-80358142D01*
X136346714Y-80286714D01*
X136275285Y-80143857D01*
X136203857Y-79858142D01*
X136203857Y-79501000D01*
X136275285Y-79215285D01*
X136346714Y-79072428D01*
X136418142Y-79001000D01*
X136561000Y-78929571D01*
X138489571Y-80429571D02*
X137632428Y-80429571D01*
X138061000Y-80429571D02*
X138061000Y-78929571D01*
X137918142Y-79143857D01*
X137775285Y-79286714D01*
X137632428Y-79358142D01*
X139132428Y-79858142D02*
X140275285Y-79858142D01*
X139703857Y-80429571D02*
X139703857Y-79286714D01*
X142061000Y-80358142D02*
X142203857Y-80429571D01*
X142489571Y-80429571D01*
X142632428Y-80358142D01*
X142703857Y-80215285D01*
X142703857Y-80143857D01*
X142632428Y-80001000D01*
X142489571Y-79929571D01*
X142275285Y-79929571D01*
X142132428Y-79858142D01*
X142061000Y-79715285D01*
X142061000Y-79643857D01*
X142132428Y-79501000D01*
X142275285Y-79429571D01*
X142489571Y-79429571D01*
X142632428Y-79501000D01*
X143346714Y-80429571D02*
X143346714Y-78929571D01*
X143989571Y-80429571D02*
X143989571Y-79643857D01*
X143918142Y-79501000D01*
X143775285Y-79429571D01*
X143561000Y-79429571D01*
X143418142Y-79501000D01*
X143346714Y-79572428D01*
X144703857Y-80429571D02*
X144703857Y-79429571D01*
X144703857Y-78929571D02*
X144632428Y-79001000D01*
X144703857Y-79072428D01*
X144775285Y-79001000D01*
X144703857Y-78929571D01*
X144703857Y-79072428D01*
X145989571Y-80358142D02*
X145846714Y-80429571D01*
X145561000Y-80429571D01*
X145418142Y-80358142D01*
X145346714Y-80215285D01*
X145346714Y-79643857D01*
X145418142Y-79501000D01*
X145561000Y-79429571D01*
X145846714Y-79429571D01*
X145989571Y-79501000D01*
X146061000Y-79643857D01*
X146061000Y-79786714D01*
X145346714Y-79929571D01*
X146918142Y-80429571D02*
X146775285Y-80358142D01*
X146703857Y-80215285D01*
X146703857Y-78929571D01*
X148132428Y-80429571D02*
X148132428Y-78929571D01*
X148132428Y-80358142D02*
X147989571Y-80429571D01*
X147703857Y-80429571D01*
X147561000Y-80358142D01*
X147489571Y-80286714D01*
X147418142Y-80143857D01*
X147418142Y-79715285D01*
X147489571Y-79572428D01*
X147561000Y-79501000D01*
X147703857Y-79429571D01*
X147989571Y-79429571D01*
X148132428Y-79501000D01*
X131061000Y-83551000D02*
X130989571Y-83479571D01*
X130846714Y-83265285D01*
X130775285Y-83122428D01*
X130703857Y-82908142D01*
X130632428Y-82551000D01*
X130632428Y-82265285D01*
X130703857Y-81908142D01*
X130775285Y-81693857D01*
X130846714Y-81551000D01*
X130989571Y-81336714D01*
X131061000Y-81265285D01*
X132275285Y-82908142D02*
X132132428Y-82979571D01*
X131846714Y-82979571D01*
X131703857Y-82908142D01*
X131632428Y-82836714D01*
X131561000Y-82693857D01*
X131561000Y-82265285D01*
X131632428Y-82122428D01*
X131703857Y-82051000D01*
X131846714Y-81979571D01*
X132132428Y-81979571D01*
X132275285Y-82051000D01*
X132775285Y-83551000D02*
X132846714Y-83479571D01*
X132989571Y-83265285D01*
X133061000Y-83122428D01*
X133132428Y-82908142D01*
X133203857Y-82551000D01*
X133203857Y-82265285D01*
X133132428Y-81908142D01*
X133061000Y-81693857D01*
X132989571Y-81551000D01*
X132846714Y-81336714D01*
X132775285Y-81265285D01*
X134989571Y-81622428D02*
X135061000Y-81551000D01*
X135203857Y-81479571D01*
X135561000Y-81479571D01*
X135703857Y-81551000D01*
X135775285Y-81622428D01*
X135846714Y-81765285D01*
X135846714Y-81908142D01*
X135775285Y-82122428D01*
X134918142Y-82979571D01*
X135846714Y-82979571D01*
X136775285Y-81479571D02*
X136918142Y-81479571D01*
X137061000Y-81551000D01*
X137132428Y-81622428D01*
X137203857Y-81765285D01*
X137275285Y-82051000D01*
X137275285Y-82408142D01*
X137203857Y-82693857D01*
X137132428Y-82836714D01*
X137061000Y-82908142D01*
X136918142Y-82979571D01*
X136775285Y-82979571D01*
X136632428Y-82908142D01*
X136561000Y-82836714D01*
X136489571Y-82693857D01*
X136418142Y-82408142D01*
X136418142Y-82051000D01*
X136489571Y-81765285D01*
X136561000Y-81622428D01*
X136632428Y-81551000D01*
X136775285Y-81479571D01*
X137846714Y-81622428D02*
X137918142Y-81551000D01*
X138061000Y-81479571D01*
X138418142Y-81479571D01*
X138561000Y-81551000D01*
X138632428Y-81622428D01*
X138703857Y-81765285D01*
X138703857Y-81908142D01*
X138632428Y-82122428D01*
X137775285Y-82979571D01*
X138703857Y-82979571D01*
X139632428Y-81479571D02*
X139775285Y-81479571D01*
X139918142Y-81551000D01*
X139989571Y-81622428D01*
X140061000Y-81765285D01*
X140132428Y-82051000D01*
X140132428Y-82408142D01*
X140061000Y-82693857D01*
X139989571Y-82836714D01*
X139918142Y-82908142D01*
X139775285Y-82979571D01*
X139632428Y-82979571D01*
X139489571Y-82908142D01*
X139418142Y-82836714D01*
X139346714Y-82693857D01*
X139275285Y-82408142D01*
X139275285Y-82051000D01*
X139346714Y-81765285D01*
X139418142Y-81622428D01*
X139489571Y-81551000D01*
X139632428Y-81479571D01*
X141846714Y-82908142D02*
X141989571Y-82979571D01*
X142275285Y-82979571D01*
X142418142Y-82908142D01*
X142489571Y-82765285D01*
X142489571Y-82693857D01*
X142418142Y-82551000D01*
X142275285Y-82479571D01*
X142061000Y-82479571D01*
X141918142Y-82408142D01*
X141846714Y-82265285D01*
X141846714Y-82193857D01*
X141918142Y-82051000D01*
X142061000Y-81979571D01*
X142275285Y-81979571D01*
X142418142Y-82051000D01*
X142918142Y-81979571D02*
X143489571Y-81979571D01*
X143132428Y-81479571D02*
X143132428Y-82765285D01*
X143203857Y-82908142D01*
X143346714Y-82979571D01*
X143489571Y-82979571D01*
X144561000Y-82908142D02*
X144418142Y-82979571D01*
X144132428Y-82979571D01*
X143989571Y-82908142D01*
X143918142Y-82765285D01*
X143918142Y-82193857D01*
X143989571Y-82051000D01*
X144132428Y-81979571D01*
X144418142Y-81979571D01*
X144561000Y-82051000D01*
X144632428Y-82193857D01*
X144632428Y-82336714D01*
X143918142Y-82479571D01*
X145132428Y-81979571D02*
X145489571Y-82979571D01*
X145846714Y-81979571D01*
X146989571Y-82908142D02*
X146846714Y-82979571D01*
X146561000Y-82979571D01*
X146418142Y-82908142D01*
X146346714Y-82765285D01*
X146346714Y-82193857D01*
X146418142Y-82051000D01*
X146561000Y-81979571D01*
X146846714Y-81979571D01*
X146989571Y-82051000D01*
X147061000Y-82193857D01*
X147061000Y-82336714D01*
X146346714Y-82479571D01*
X146828571Y-86778571D02*
X146328571Y-86064285D01*
X145971428Y-86778571D02*
X145971428Y-85278571D01*
X146542857Y-85278571D01*
X146685714Y-85350000D01*
X146757142Y-85421428D01*
X146828571Y-85564285D01*
X146828571Y-85778571D01*
X146757142Y-85921428D01*
X146685714Y-85992857D01*
X146542857Y-86064285D01*
X145971428Y-86064285D01*
X147400000Y-86707142D02*
X147542857Y-86778571D01*
X147828571Y-86778571D01*
X147971428Y-86707142D01*
X148042857Y-86564285D01*
X148042857Y-86492857D01*
X147971428Y-86350000D01*
X147828571Y-86278571D01*
X147614285Y-86278571D01*
X147471428Y-86207142D01*
X147400000Y-86064285D01*
X147400000Y-85992857D01*
X147471428Y-85850000D01*
X147614285Y-85778571D01*
X147828571Y-85778571D01*
X147971428Y-85850000D01*
X148471428Y-85778571D02*
X149042857Y-85778571D01*
X148685714Y-85278571D02*
X148685714Y-86564285D01*
X148757142Y-86707142D01*
X148900000Y-86778571D01*
X149042857Y-86778571D01*
X146728571Y-88950000D02*
X147442857Y-88950000D01*
X146585714Y-89378571D02*
X147085714Y-87878571D01*
X147585714Y-89378571D01*
X148371428Y-87878571D02*
X148514285Y-87878571D01*
X148657142Y-87950000D01*
X148728571Y-88021428D01*
X148800000Y-88164285D01*
X148871428Y-88450000D01*
X148871428Y-88807142D01*
X148800000Y-89092857D01*
X148728571Y-89235714D01*
X148657142Y-89307142D01*
X148514285Y-89378571D01*
X148371428Y-89378571D01*
X148228571Y-89307142D01*
X148157142Y-89235714D01*
X148085714Y-89092857D01*
X148014285Y-88807142D01*
X148014285Y-88450000D01*
X148085714Y-88164285D01*
X148157142Y-88021428D01*
X148228571Y-87950000D01*
X148371428Y-87878571D01*
X146692857Y-91978571D02*
X146692857Y-90478571D01*
X147050000Y-90478571D01*
X147264285Y-90550000D01*
X147407142Y-90692857D01*
X147478571Y-90835714D01*
X147550000Y-91121428D01*
X147550000Y-91335714D01*
X147478571Y-91621428D01*
X147407142Y-91764285D01*
X147264285Y-91907142D01*
X147050000Y-91978571D01*
X146692857Y-91978571D01*
X148478571Y-90478571D02*
X148621428Y-90478571D01*
X148764285Y-90550000D01*
X148835714Y-90621428D01*
X148907142Y-90764285D01*
X148978571Y-91050000D01*
X148978571Y-91407142D01*
X148907142Y-91692857D01*
X148835714Y-91835714D01*
X148764285Y-91907142D01*
X148621428Y-91978571D01*
X148478571Y-91978571D01*
X148335714Y-91907142D01*
X148264285Y-91835714D01*
X148192857Y-91692857D01*
X148121428Y-91407142D01*
X148121428Y-91050000D01*
X148192857Y-90764285D01*
X148264285Y-90621428D01*
X148335714Y-90550000D01*
X148478571Y-90478571D01*
X146692857Y-94578571D02*
X146692857Y-93078571D01*
X147050000Y-93078571D01*
X147264285Y-93150000D01*
X147407142Y-93292857D01*
X147478571Y-93435714D01*
X147550000Y-93721428D01*
X147550000Y-93935714D01*
X147478571Y-94221428D01*
X147407142Y-94364285D01*
X147264285Y-94507142D01*
X147050000Y-94578571D01*
X146692857Y-94578571D01*
X148907142Y-93078571D02*
X148192857Y-93078571D01*
X148121428Y-93792857D01*
X148192857Y-93721428D01*
X148335714Y-93650000D01*
X148692857Y-93650000D01*
X148835714Y-93721428D01*
X148907142Y-93792857D01*
X148978571Y-93935714D01*
X148978571Y-94292857D01*
X148907142Y-94435714D01*
X148835714Y-94507142D01*
X148692857Y-94578571D01*
X148335714Y-94578571D01*
X148192857Y-94507142D01*
X148121428Y-94435714D01*
X146692857Y-97078571D02*
X146692857Y-95578571D01*
X147050000Y-95578571D01*
X147264285Y-95650000D01*
X147407142Y-95792857D01*
X147478571Y-95935714D01*
X147550000Y-96221428D01*
X147550000Y-96435714D01*
X147478571Y-96721428D01*
X147407142Y-96864285D01*
X147264285Y-97007142D01*
X147050000Y-97078571D01*
X146692857Y-97078571D01*
X148835714Y-95578571D02*
X148550000Y-95578571D01*
X148407142Y-95650000D01*
X148335714Y-95721428D01*
X148192857Y-95935714D01*
X148121428Y-96221428D01*
X148121428Y-96792857D01*
X148192857Y-96935714D01*
X148264285Y-97007142D01*
X148407142Y-97078571D01*
X148692857Y-97078571D01*
X148835714Y-97007142D01*
X148907142Y-96935714D01*
X148978571Y-96792857D01*
X148978571Y-96435714D01*
X148907142Y-96292857D01*
X148835714Y-96221428D01*
X148692857Y-96150000D01*
X148407142Y-96150000D01*
X148264285Y-96221428D01*
X148192857Y-96292857D01*
X148121428Y-96435714D01*
X146692857Y-99478571D02*
X146692857Y-97978571D01*
X147050000Y-97978571D01*
X147264285Y-98050000D01*
X147407142Y-98192857D01*
X147478571Y-98335714D01*
X147550000Y-98621428D01*
X147550000Y-98835714D01*
X147478571Y-99121428D01*
X147407142Y-99264285D01*
X147264285Y-99407142D01*
X147050000Y-99478571D01*
X146692857Y-99478571D01*
X148050000Y-97978571D02*
X149050000Y-97978571D01*
X148407142Y-99478571D01*
X146692857Y-102078571D02*
X146692857Y-100578571D01*
X147050000Y-100578571D01*
X147264285Y-100650000D01*
X147407142Y-100792857D01*
X147478571Y-100935714D01*
X147550000Y-101221428D01*
X147550000Y-101435714D01*
X147478571Y-101721428D01*
X147407142Y-101864285D01*
X147264285Y-102007142D01*
X147050000Y-102078571D01*
X146692857Y-102078571D01*
X148407142Y-101221428D02*
X148264285Y-101150000D01*
X148192857Y-101078571D01*
X148121428Y-100935714D01*
X148121428Y-100864285D01*
X148192857Y-100721428D01*
X148264285Y-100650000D01*
X148407142Y-100578571D01*
X148692857Y-100578571D01*
X148835714Y-100650000D01*
X148907142Y-100721428D01*
X148978571Y-100864285D01*
X148978571Y-100935714D01*
X148907142Y-101078571D01*
X148835714Y-101150000D01*
X148692857Y-101221428D01*
X148407142Y-101221428D01*
X148264285Y-101292857D01*
X148192857Y-101364285D01*
X148121428Y-101507142D01*
X148121428Y-101792857D01*
X148192857Y-101935714D01*
X148264285Y-102007142D01*
X148407142Y-102078571D01*
X148692857Y-102078571D01*
X148835714Y-102007142D01*
X148907142Y-101935714D01*
X148978571Y-101792857D01*
X148978571Y-101507142D01*
X148907142Y-101364285D01*
X148835714Y-101292857D01*
X148692857Y-101221428D01*
X145242857Y-103078571D02*
X146171428Y-103078571D01*
X145671428Y-103650000D01*
X145885714Y-103650000D01*
X146028571Y-103721428D01*
X146100000Y-103792857D01*
X146171428Y-103935714D01*
X146171428Y-104292857D01*
X146100000Y-104435714D01*
X146028571Y-104507142D01*
X145885714Y-104578571D01*
X145457142Y-104578571D01*
X145314285Y-104507142D01*
X145242857Y-104435714D01*
X146600000Y-103078571D02*
X147100000Y-104578571D01*
X147600000Y-103078571D01*
X147957142Y-103078571D02*
X148885714Y-103078571D01*
X148385714Y-103650000D01*
X148600000Y-103650000D01*
X148742857Y-103721428D01*
X148814285Y-103792857D01*
X148885714Y-103935714D01*
X148885714Y-104292857D01*
X148814285Y-104435714D01*
X148742857Y-104507142D01*
X148600000Y-104578571D01*
X148171428Y-104578571D01*
X148028571Y-104507142D01*
X147957142Y-104435714D01*
X128657142Y-85378571D02*
X129514285Y-85378571D01*
X129085714Y-86878571D02*
X129085714Y-85378571D01*
X129871428Y-85378571D02*
X130871428Y-86878571D01*
X130871428Y-85378571D02*
X129871428Y-86878571D01*
X129750000Y-89478571D02*
X129250000Y-88764285D01*
X128892857Y-89478571D02*
X128892857Y-87978571D01*
X129464285Y-87978571D01*
X129607142Y-88050000D01*
X129678571Y-88121428D01*
X129750000Y-88264285D01*
X129750000Y-88478571D01*
X129678571Y-88621428D01*
X129607142Y-88692857D01*
X129464285Y-88764285D01*
X128892857Y-88764285D01*
X130250000Y-87978571D02*
X131250000Y-89478571D01*
X131250000Y-87978571D02*
X130250000Y-89478571D01*
X128892857Y-91878571D02*
X128892857Y-90378571D01*
X129250000Y-90378571D01*
X129464285Y-90450000D01*
X129607142Y-90592857D01*
X129678571Y-90735714D01*
X129750000Y-91021428D01*
X129750000Y-91235714D01*
X129678571Y-91521428D01*
X129607142Y-91664285D01*
X129464285Y-91807142D01*
X129250000Y-91878571D01*
X128892857Y-91878571D01*
X131178571Y-91878571D02*
X130321428Y-91878571D01*
X130750000Y-91878571D02*
X130750000Y-90378571D01*
X130607142Y-90592857D01*
X130464285Y-90735714D01*
X130321428Y-90807142D01*
X128892857Y-94478571D02*
X128892857Y-92978571D01*
X129250000Y-92978571D01*
X129464285Y-93050000D01*
X129607142Y-93192857D01*
X129678571Y-93335714D01*
X129750000Y-93621428D01*
X129750000Y-93835714D01*
X129678571Y-94121428D01*
X129607142Y-94264285D01*
X129464285Y-94407142D01*
X129250000Y-94478571D01*
X128892857Y-94478571D01*
X130321428Y-93121428D02*
X130392857Y-93050000D01*
X130535714Y-92978571D01*
X130892857Y-92978571D01*
X131035714Y-93050000D01*
X131107142Y-93121428D01*
X131178571Y-93264285D01*
X131178571Y-93407142D01*
X131107142Y-93621428D01*
X130250000Y-94478571D01*
X131178571Y-94478571D01*
X128892857Y-97078571D02*
X128892857Y-95578571D01*
X129250000Y-95578571D01*
X129464285Y-95650000D01*
X129607142Y-95792857D01*
X129678571Y-95935714D01*
X129750000Y-96221428D01*
X129750000Y-96435714D01*
X129678571Y-96721428D01*
X129607142Y-96864285D01*
X129464285Y-97007142D01*
X129250000Y-97078571D01*
X128892857Y-97078571D01*
X130250000Y-95578571D02*
X131178571Y-95578571D01*
X130678571Y-96150000D01*
X130892857Y-96150000D01*
X131035714Y-96221428D01*
X131107142Y-96292857D01*
X131178571Y-96435714D01*
X131178571Y-96792857D01*
X131107142Y-96935714D01*
X131035714Y-97007142D01*
X130892857Y-97078571D01*
X130464285Y-97078571D01*
X130321428Y-97007142D01*
X130250000Y-96935714D01*
X128892857Y-99678571D02*
X128892857Y-98178571D01*
X129250000Y-98178571D01*
X129464285Y-98250000D01*
X129607142Y-98392857D01*
X129678571Y-98535714D01*
X129750000Y-98821428D01*
X129750000Y-99035714D01*
X129678571Y-99321428D01*
X129607142Y-99464285D01*
X129464285Y-99607142D01*
X129250000Y-99678571D01*
X128892857Y-99678571D01*
X131035714Y-98678571D02*
X131035714Y-99678571D01*
X130678571Y-98107142D02*
X130321428Y-99178571D01*
X131250000Y-99178571D01*
X129792857Y-100750000D02*
X129650000Y-100678571D01*
X129435714Y-100678571D01*
X129221428Y-100750000D01*
X129078571Y-100892857D01*
X129007142Y-101035714D01*
X128935714Y-101321428D01*
X128935714Y-101535714D01*
X129007142Y-101821428D01*
X129078571Y-101964285D01*
X129221428Y-102107142D01*
X129435714Y-102178571D01*
X129578571Y-102178571D01*
X129792857Y-102107142D01*
X129864285Y-102035714D01*
X129864285Y-101535714D01*
X129578571Y-101535714D01*
X129614285Y-103178571D02*
X128900000Y-103178571D01*
X128828571Y-103892857D01*
X128900000Y-103821428D01*
X129042857Y-103750000D01*
X129400000Y-103750000D01*
X129542857Y-103821428D01*
X129614285Y-103892857D01*
X129685714Y-104035714D01*
X129685714Y-104392857D01*
X129614285Y-104535714D01*
X129542857Y-104607142D01*
X129400000Y-104678571D01*
X129042857Y-104678571D01*
X128900000Y-104607142D01*
X128828571Y-104535714D01*
X130114285Y-103178571D02*
X130614285Y-104678571D01*
X131114285Y-103178571D01*
D11*
G04 #@! TO.C,C1*
X134974000Y-108331000D02*
G75*
G03X134974000Y-108331000I-2620000J0D01*
G01*
X132354000Y-110911000D02*
X132354000Y-105751000D01*
X132314000Y-110911000D02*
X132314000Y-105751000D01*
X132274000Y-110910000D02*
X132274000Y-105752000D01*
X132234000Y-110909000D02*
X132234000Y-105753000D01*
X132194000Y-110907000D02*
X132194000Y-105755000D01*
X132154000Y-110904000D02*
X132154000Y-105758000D01*
X132114000Y-110900000D02*
X132114000Y-109371000D01*
X132114000Y-107291000D02*
X132114000Y-105762000D01*
X132074000Y-110896000D02*
X132074000Y-109371000D01*
X132074000Y-107291000D02*
X132074000Y-105766000D01*
X132034000Y-110892000D02*
X132034000Y-109371000D01*
X132034000Y-107291000D02*
X132034000Y-105770000D01*
X131994000Y-110887000D02*
X131994000Y-109371000D01*
X131994000Y-107291000D02*
X131994000Y-105775000D01*
X131954000Y-110881000D02*
X131954000Y-109371000D01*
X131954000Y-107291000D02*
X131954000Y-105781000D01*
X131914000Y-110874000D02*
X131914000Y-109371000D01*
X131914000Y-107291000D02*
X131914000Y-105788000D01*
X131874000Y-110867000D02*
X131874000Y-109371000D01*
X131874000Y-107291000D02*
X131874000Y-105795000D01*
X131834000Y-110859000D02*
X131834000Y-109371000D01*
X131834000Y-107291000D02*
X131834000Y-105803000D01*
X131794000Y-110851000D02*
X131794000Y-109371000D01*
X131794000Y-107291000D02*
X131794000Y-105811000D01*
X131754000Y-110842000D02*
X131754000Y-109371000D01*
X131754000Y-107291000D02*
X131754000Y-105820000D01*
X131714000Y-110832000D02*
X131714000Y-109371000D01*
X131714000Y-107291000D02*
X131714000Y-105830000D01*
X131674000Y-110822000D02*
X131674000Y-109371000D01*
X131674000Y-107291000D02*
X131674000Y-105840000D01*
X131633000Y-110811000D02*
X131633000Y-109371000D01*
X131633000Y-107291000D02*
X131633000Y-105851000D01*
X131593000Y-110799000D02*
X131593000Y-109371000D01*
X131593000Y-107291000D02*
X131593000Y-105863000D01*
X131553000Y-110786000D02*
X131553000Y-109371000D01*
X131553000Y-107291000D02*
X131553000Y-105876000D01*
X131513000Y-110773000D02*
X131513000Y-109371000D01*
X131513000Y-107291000D02*
X131513000Y-105889000D01*
X131473000Y-110759000D02*
X131473000Y-109371000D01*
X131473000Y-107291000D02*
X131473000Y-105903000D01*
X131433000Y-110745000D02*
X131433000Y-109371000D01*
X131433000Y-107291000D02*
X131433000Y-105917000D01*
X131393000Y-110729000D02*
X131393000Y-109371000D01*
X131393000Y-107291000D02*
X131393000Y-105933000D01*
X131353000Y-110713000D02*
X131353000Y-109371000D01*
X131353000Y-107291000D02*
X131353000Y-105949000D01*
X131313000Y-110696000D02*
X131313000Y-109371000D01*
X131313000Y-107291000D02*
X131313000Y-105966000D01*
X131273000Y-110679000D02*
X131273000Y-109371000D01*
X131273000Y-107291000D02*
X131273000Y-105983000D01*
X131233000Y-110660000D02*
X131233000Y-109371000D01*
X131233000Y-107291000D02*
X131233000Y-106002000D01*
X131193000Y-110641000D02*
X131193000Y-109371000D01*
X131193000Y-107291000D02*
X131193000Y-106021000D01*
X131153000Y-110621000D02*
X131153000Y-109371000D01*
X131153000Y-107291000D02*
X131153000Y-106041000D01*
X131113000Y-110599000D02*
X131113000Y-109371000D01*
X131113000Y-107291000D02*
X131113000Y-106063000D01*
X131073000Y-110578000D02*
X131073000Y-109371000D01*
X131073000Y-107291000D02*
X131073000Y-106084000D01*
X131033000Y-110555000D02*
X131033000Y-109371000D01*
X131033000Y-107291000D02*
X131033000Y-106107000D01*
X130993000Y-110531000D02*
X130993000Y-109371000D01*
X130993000Y-107291000D02*
X130993000Y-106131000D01*
X130953000Y-110506000D02*
X130953000Y-109371000D01*
X130953000Y-107291000D02*
X130953000Y-106156000D01*
X130913000Y-110480000D02*
X130913000Y-109371000D01*
X130913000Y-107291000D02*
X130913000Y-106182000D01*
X130873000Y-110453000D02*
X130873000Y-109371000D01*
X130873000Y-107291000D02*
X130873000Y-106209000D01*
X130833000Y-110426000D02*
X130833000Y-109371000D01*
X130833000Y-107291000D02*
X130833000Y-106236000D01*
X130793000Y-110396000D02*
X130793000Y-109371000D01*
X130793000Y-107291000D02*
X130793000Y-106266000D01*
X130753000Y-110366000D02*
X130753000Y-109371000D01*
X130753000Y-107291000D02*
X130753000Y-106296000D01*
X130713000Y-110335000D02*
X130713000Y-109371000D01*
X130713000Y-107291000D02*
X130713000Y-106327000D01*
X130673000Y-110302000D02*
X130673000Y-109371000D01*
X130673000Y-107291000D02*
X130673000Y-106360000D01*
X130633000Y-110268000D02*
X130633000Y-109371000D01*
X130633000Y-107291000D02*
X130633000Y-106394000D01*
X130593000Y-110232000D02*
X130593000Y-109371000D01*
X130593000Y-107291000D02*
X130593000Y-106430000D01*
X130553000Y-110195000D02*
X130553000Y-109371000D01*
X130553000Y-107291000D02*
X130553000Y-106467000D01*
X130513000Y-110157000D02*
X130513000Y-109371000D01*
X130513000Y-107291000D02*
X130513000Y-106505000D01*
X130473000Y-110116000D02*
X130473000Y-109371000D01*
X130473000Y-107291000D02*
X130473000Y-106546000D01*
X130433000Y-110074000D02*
X130433000Y-109371000D01*
X130433000Y-107291000D02*
X130433000Y-106588000D01*
X130393000Y-110030000D02*
X130393000Y-109371000D01*
X130393000Y-107291000D02*
X130393000Y-106632000D01*
X130353000Y-109984000D02*
X130353000Y-109371000D01*
X130353000Y-107291000D02*
X130353000Y-106678000D01*
X130313000Y-109936000D02*
X130313000Y-109371000D01*
X130313000Y-107291000D02*
X130313000Y-106726000D01*
X130273000Y-109885000D02*
X130273000Y-109371000D01*
X130273000Y-107291000D02*
X130273000Y-106777000D01*
X130233000Y-109831000D02*
X130233000Y-109371000D01*
X130233000Y-107291000D02*
X130233000Y-106831000D01*
X130193000Y-109774000D02*
X130193000Y-109371000D01*
X130193000Y-107291000D02*
X130193000Y-106888000D01*
X130153000Y-109714000D02*
X130153000Y-109371000D01*
X130153000Y-107291000D02*
X130153000Y-106948000D01*
X130113000Y-109650000D02*
X130113000Y-109371000D01*
X130113000Y-107291000D02*
X130113000Y-107012000D01*
X130073000Y-109582000D02*
X130073000Y-109371000D01*
X130073000Y-107291000D02*
X130073000Y-107080000D01*
X130033000Y-109509000D02*
X130033000Y-107153000D01*
X129993000Y-109429000D02*
X129993000Y-107233000D01*
X129953000Y-109342000D02*
X129953000Y-107320000D01*
X129913000Y-109246000D02*
X129913000Y-107416000D01*
X129873000Y-109136000D02*
X129873000Y-107526000D01*
X129833000Y-109008000D02*
X129833000Y-107654000D01*
X129793000Y-108849000D02*
X129793000Y-107813000D01*
X129753000Y-108615000D02*
X129753000Y-108047000D01*
X135158775Y-109806000D02*
X134658775Y-109806000D01*
X134908775Y-110056000D02*
X134908775Y-109556000D01*
G04 #@! TO.C,J1*
X143570000Y-102930000D02*
X143570000Y-97730000D01*
X135890000Y-102930000D02*
X143570000Y-102930000D01*
X133290000Y-97730000D02*
X143570000Y-97730000D01*
X135890000Y-102930000D02*
X135890000Y-100330000D01*
X135890000Y-100330000D02*
X133290000Y-100330000D01*
X133290000Y-100330000D02*
X133290000Y-97730000D01*
X134620000Y-102930000D02*
X133290000Y-102930000D01*
X133290000Y-102930000D02*
X133290000Y-101600000D01*
G04 #@! TO.C,R1*
X141954000Y-93699000D02*
X141954000Y-90959000D01*
X141954000Y-90959000D02*
X135414000Y-90959000D01*
X135414000Y-90959000D02*
X135414000Y-93699000D01*
X135414000Y-93699000D02*
X141954000Y-93699000D01*
X142724000Y-92329000D02*
X141954000Y-92329000D01*
X134644000Y-92329000D02*
X135414000Y-92329000D01*
G04 #@! TO.C,C1*
D12*
X132187333Y-112438142D02*
X132139714Y-112485761D01*
X131996857Y-112533380D01*
X131901619Y-112533380D01*
X131758761Y-112485761D01*
X131663523Y-112390523D01*
X131615904Y-112295285D01*
X131568285Y-112104809D01*
X131568285Y-111961952D01*
X131615904Y-111771476D01*
X131663523Y-111676238D01*
X131758761Y-111581000D01*
X131901619Y-111533380D01*
X131996857Y-111533380D01*
X132139714Y-111581000D01*
X132187333Y-111628619D01*
X133139714Y-112533380D02*
X132568285Y-112533380D01*
X132854000Y-112533380D02*
X132854000Y-111533380D01*
X132758761Y-111676238D01*
X132663523Y-111771476D01*
X132568285Y-111819095D01*
G04 #@! TO.C,J1*
X131742380Y-100663333D02*
X132456666Y-100663333D01*
X132599523Y-100710952D01*
X132694761Y-100806190D01*
X132742380Y-100949047D01*
X132742380Y-101044285D01*
X132742380Y-99663333D02*
X132742380Y-100234761D01*
X132742380Y-99949047D02*
X131742380Y-99949047D01*
X131885238Y-100044285D01*
X131980476Y-100139523D01*
X132028095Y-100234761D01*
G04 #@! TO.C,R1*
X138517333Y-95151380D02*
X138184000Y-94675190D01*
X137945904Y-95151380D02*
X137945904Y-94151380D01*
X138326857Y-94151380D01*
X138422095Y-94199000D01*
X138469714Y-94246619D01*
X138517333Y-94341857D01*
X138517333Y-94484714D01*
X138469714Y-94579952D01*
X138422095Y-94627571D01*
X138326857Y-94675190D01*
X137945904Y-94675190D01*
X139469714Y-95151380D02*
X138898285Y-95151380D01*
X139184000Y-95151380D02*
X139184000Y-94151380D01*
X139088761Y-94294238D01*
X138993523Y-94389476D01*
X138898285Y-94437095D01*
G04 #@! TO.C,P1*
X126861904Y-106852380D02*
X126861904Y-105852380D01*
X127242857Y-105852380D01*
X127338095Y-105900000D01*
X127385714Y-105947619D01*
X127433333Y-106042857D01*
X127433333Y-106185714D01*
X127385714Y-106280952D01*
X127338095Y-106328571D01*
X127242857Y-106376190D01*
X126861904Y-106376190D01*
X128385714Y-106852380D02*
X127814285Y-106852380D01*
X128100000Y-106852380D02*
X128100000Y-105852380D01*
X128004761Y-105995238D01*
X127909523Y-106090476D01*
X127814285Y-106138095D01*
G04 #@! TO.C,P2*
X149561904Y-84252380D02*
X149561904Y-83252380D01*
X149942857Y-83252380D01*
X150038095Y-83300000D01*
X150085714Y-83347619D01*
X150133333Y-83442857D01*
X150133333Y-83585714D01*
X150085714Y-83680952D01*
X150038095Y-83728571D01*
X149942857Y-83776190D01*
X149561904Y-83776190D01*
X150514285Y-83347619D02*
X150561904Y-83300000D01*
X150657142Y-83252380D01*
X150895238Y-83252380D01*
X150990476Y-83300000D01*
X151038095Y-83347619D01*
X151085714Y-83442857D01*
X151085714Y-83538095D01*
X151038095Y-83680952D01*
X150466666Y-84252380D01*
X151085714Y-84252380D01*
G04 #@! TD*
M02*
