G04 #@! TF.GenerationSoftware,KiCad,Pcbnew,5.0.2+dfsg1-1~bpo9+1*
G04 #@! TF.CreationDate,2020-08-18T09:09:55+01:00*
G04 #@! TF.ProjectId,d1-nrf24l01-shield,64312d6e-7266-4323-946c-30312d736869,rev?*
G04 #@! TF.SameCoordinates,Original*
G04 #@! TF.FileFunction,Soldermask,Bot*
G04 #@! TF.FilePolarity,Negative*
%FSLAX46Y46*%
G04 Gerber Fmt 4.6, Leading zero omitted, Abs format (unit mm)*
G04 Created by KiCad (PCBNEW 5.0.2+dfsg1-1~bpo9+1) date Tue 18 Aug 2020 09:09:55 IST*
%MOMM*%
%LPD*%
G01*
G04 APERTURE LIST*
%ADD10C,0.100000*%
G04 APERTURE END LIST*
D10*
G36*
X134604000Y-109331000D02*
X132604000Y-109331000D01*
X132604000Y-107331000D01*
X134604000Y-107331000D01*
X134604000Y-109331000D01*
X134604000Y-109331000D01*
G37*
G36*
X131279770Y-107346372D02*
X131395689Y-107369429D01*
X131577678Y-107444811D01*
X131741463Y-107554249D01*
X131880751Y-107693537D01*
X131990189Y-107857322D01*
X132065571Y-108039311D01*
X132104000Y-108232509D01*
X132104000Y-108429491D01*
X132065571Y-108622689D01*
X131990189Y-108804678D01*
X131880751Y-108968463D01*
X131741463Y-109107751D01*
X131577678Y-109217189D01*
X131395689Y-109292571D01*
X131279770Y-109315628D01*
X131202493Y-109331000D01*
X131005507Y-109331000D01*
X130928230Y-109315628D01*
X130812311Y-109292571D01*
X130630322Y-109217189D01*
X130466537Y-109107751D01*
X130327249Y-108968463D01*
X130217811Y-108804678D01*
X130142429Y-108622689D01*
X130104000Y-108429491D01*
X130104000Y-108232509D01*
X130142429Y-108039311D01*
X130217811Y-107857322D01*
X130327249Y-107693537D01*
X130466537Y-107554249D01*
X130630322Y-107444811D01*
X130812311Y-107369429D01*
X130928230Y-107346372D01*
X131005507Y-107331000D01*
X131202493Y-107331000D01*
X131279770Y-107346372D01*
X131279770Y-107346372D01*
G37*
G36*
X128590000Y-105050000D02*
X126390000Y-105050000D01*
X126390000Y-102850000D01*
X128590000Y-102850000D01*
X128590000Y-105050000D01*
X128590000Y-105050000D01*
G37*
G36*
X151450000Y-105050000D02*
X149250000Y-105050000D01*
X149250000Y-102850000D01*
X151450000Y-102850000D01*
X151450000Y-105050000D01*
X151450000Y-105050000D01*
G37*
G36*
X142368707Y-100557597D02*
X142445836Y-100565193D01*
X142577787Y-100605220D01*
X142643763Y-100625233D01*
X142826172Y-100722733D01*
X142986054Y-100853946D01*
X143117267Y-101013828D01*
X143214767Y-101196237D01*
X143214767Y-101196238D01*
X143274807Y-101394164D01*
X143295080Y-101600000D01*
X143274807Y-101805836D01*
X143234780Y-101937787D01*
X143214767Y-102003763D01*
X143117267Y-102186172D01*
X142986054Y-102346054D01*
X142826172Y-102477267D01*
X142643763Y-102574767D01*
X142577787Y-102594780D01*
X142445836Y-102634807D01*
X142368707Y-102642404D01*
X142291580Y-102650000D01*
X142188420Y-102650000D01*
X142111293Y-102642404D01*
X142034164Y-102634807D01*
X141902213Y-102594780D01*
X141836237Y-102574767D01*
X141653828Y-102477267D01*
X141493946Y-102346054D01*
X141362733Y-102186172D01*
X141265233Y-102003763D01*
X141245220Y-101937787D01*
X141205193Y-101805836D01*
X141184920Y-101600000D01*
X141205193Y-101394164D01*
X141265233Y-101196238D01*
X141265233Y-101196237D01*
X141362733Y-101013828D01*
X141493946Y-100853946D01*
X141653828Y-100722733D01*
X141836237Y-100625233D01*
X141902213Y-100605220D01*
X142034164Y-100565193D01*
X142111293Y-100557597D01*
X142188420Y-100550000D01*
X142291580Y-100550000D01*
X142368707Y-100557597D01*
X142368707Y-100557597D01*
G37*
G36*
X139828707Y-100557597D02*
X139905836Y-100565193D01*
X140037787Y-100605220D01*
X140103763Y-100625233D01*
X140286172Y-100722733D01*
X140446054Y-100853946D01*
X140577267Y-101013828D01*
X140674767Y-101196237D01*
X140674767Y-101196238D01*
X140734807Y-101394164D01*
X140755080Y-101600000D01*
X140734807Y-101805836D01*
X140694780Y-101937787D01*
X140674767Y-102003763D01*
X140577267Y-102186172D01*
X140446054Y-102346054D01*
X140286172Y-102477267D01*
X140103763Y-102574767D01*
X140037787Y-102594780D01*
X139905836Y-102634807D01*
X139828707Y-102642404D01*
X139751580Y-102650000D01*
X139648420Y-102650000D01*
X139571293Y-102642404D01*
X139494164Y-102634807D01*
X139362213Y-102594780D01*
X139296237Y-102574767D01*
X139113828Y-102477267D01*
X138953946Y-102346054D01*
X138822733Y-102186172D01*
X138725233Y-102003763D01*
X138705220Y-101937787D01*
X138665193Y-101805836D01*
X138644920Y-101600000D01*
X138665193Y-101394164D01*
X138725233Y-101196238D01*
X138725233Y-101196237D01*
X138822733Y-101013828D01*
X138953946Y-100853946D01*
X139113828Y-100722733D01*
X139296237Y-100625233D01*
X139362213Y-100605220D01*
X139494164Y-100565193D01*
X139571293Y-100557597D01*
X139648420Y-100550000D01*
X139751580Y-100550000D01*
X139828707Y-100557597D01*
X139828707Y-100557597D01*
G37*
G36*
X137288707Y-100557597D02*
X137365836Y-100565193D01*
X137497787Y-100605220D01*
X137563763Y-100625233D01*
X137746172Y-100722733D01*
X137906054Y-100853946D01*
X138037267Y-101013828D01*
X138134767Y-101196237D01*
X138134767Y-101196238D01*
X138194807Y-101394164D01*
X138215080Y-101600000D01*
X138194807Y-101805836D01*
X138154780Y-101937787D01*
X138134767Y-102003763D01*
X138037267Y-102186172D01*
X137906054Y-102346054D01*
X137746172Y-102477267D01*
X137563763Y-102574767D01*
X137497787Y-102594780D01*
X137365836Y-102634807D01*
X137288707Y-102642404D01*
X137211580Y-102650000D01*
X137108420Y-102650000D01*
X137031293Y-102642404D01*
X136954164Y-102634807D01*
X136822213Y-102594780D01*
X136756237Y-102574767D01*
X136573828Y-102477267D01*
X136413946Y-102346054D01*
X136282733Y-102186172D01*
X136185233Y-102003763D01*
X136165220Y-101937787D01*
X136125193Y-101805836D01*
X136104920Y-101600000D01*
X136125193Y-101394164D01*
X136185233Y-101196238D01*
X136185233Y-101196237D01*
X136282733Y-101013828D01*
X136413946Y-100853946D01*
X136573828Y-100722733D01*
X136756237Y-100625233D01*
X136822213Y-100605220D01*
X136954164Y-100565193D01*
X137031293Y-100557597D01*
X137108420Y-100550000D01*
X137211580Y-100550000D01*
X137288707Y-100557597D01*
X137288707Y-100557597D01*
G37*
G36*
X135670000Y-102650000D02*
X133570000Y-102650000D01*
X133570000Y-100550000D01*
X135670000Y-100550000D01*
X135670000Y-102650000D01*
X135670000Y-102650000D01*
G37*
G36*
X150565639Y-100325916D02*
X150772986Y-100388815D01*
X150772988Y-100388816D01*
X150964084Y-100490958D01*
X151131581Y-100628419D01*
X151269042Y-100795916D01*
X151300059Y-100853946D01*
X151371185Y-100987014D01*
X151434084Y-101194361D01*
X151455322Y-101410000D01*
X151434084Y-101625639D01*
X151379422Y-101805834D01*
X151371184Y-101832988D01*
X151269042Y-102024084D01*
X151131581Y-102191581D01*
X150964084Y-102329042D01*
X150772988Y-102431184D01*
X150772986Y-102431185D01*
X150565639Y-102494084D01*
X150404038Y-102510000D01*
X150295962Y-102510000D01*
X150134361Y-102494084D01*
X149927014Y-102431185D01*
X149927012Y-102431184D01*
X149735916Y-102329042D01*
X149568419Y-102191581D01*
X149430958Y-102024084D01*
X149328816Y-101832988D01*
X149320579Y-101805834D01*
X149265916Y-101625639D01*
X149244678Y-101410000D01*
X149265916Y-101194361D01*
X149328815Y-100987014D01*
X149399941Y-100853946D01*
X149430958Y-100795916D01*
X149568419Y-100628419D01*
X149735916Y-100490958D01*
X149927012Y-100388816D01*
X149927014Y-100388815D01*
X150134361Y-100325916D01*
X150295962Y-100310000D01*
X150404038Y-100310000D01*
X150565639Y-100325916D01*
X150565639Y-100325916D01*
G37*
G36*
X127705639Y-100325916D02*
X127912986Y-100388815D01*
X127912988Y-100388816D01*
X128104084Y-100490958D01*
X128271581Y-100628419D01*
X128409042Y-100795916D01*
X128440059Y-100853946D01*
X128511185Y-100987014D01*
X128574084Y-101194361D01*
X128595322Y-101410000D01*
X128574084Y-101625639D01*
X128519422Y-101805834D01*
X128511184Y-101832988D01*
X128409042Y-102024084D01*
X128271581Y-102191581D01*
X128104084Y-102329042D01*
X127912988Y-102431184D01*
X127912986Y-102431185D01*
X127705639Y-102494084D01*
X127544038Y-102510000D01*
X127435962Y-102510000D01*
X127274361Y-102494084D01*
X127067014Y-102431185D01*
X127067012Y-102431184D01*
X126875916Y-102329042D01*
X126708419Y-102191581D01*
X126570958Y-102024084D01*
X126468816Y-101832988D01*
X126460579Y-101805834D01*
X126405916Y-101625639D01*
X126384678Y-101410000D01*
X126405916Y-101194361D01*
X126468815Y-100987014D01*
X126539941Y-100853946D01*
X126570958Y-100795916D01*
X126708419Y-100628419D01*
X126875916Y-100490958D01*
X127067012Y-100388816D01*
X127067014Y-100388815D01*
X127274361Y-100325916D01*
X127435962Y-100310000D01*
X127544038Y-100310000D01*
X127705639Y-100325916D01*
X127705639Y-100325916D01*
G37*
G36*
X142368707Y-98017596D02*
X142445836Y-98025193D01*
X142577787Y-98065220D01*
X142643763Y-98085233D01*
X142826172Y-98182733D01*
X142986054Y-98313946D01*
X143117267Y-98473828D01*
X143214767Y-98656237D01*
X143214767Y-98656238D01*
X143274807Y-98854164D01*
X143295080Y-99060000D01*
X143274807Y-99265836D01*
X143234780Y-99397787D01*
X143214767Y-99463763D01*
X143117267Y-99646172D01*
X142986054Y-99806054D01*
X142826172Y-99937267D01*
X142643763Y-100034767D01*
X142577787Y-100054780D01*
X142445836Y-100094807D01*
X142368707Y-100102403D01*
X142291580Y-100110000D01*
X142188420Y-100110000D01*
X142111293Y-100102403D01*
X142034164Y-100094807D01*
X141902213Y-100054780D01*
X141836237Y-100034767D01*
X141653828Y-99937267D01*
X141493946Y-99806054D01*
X141362733Y-99646172D01*
X141265233Y-99463763D01*
X141245220Y-99397787D01*
X141205193Y-99265836D01*
X141184920Y-99060000D01*
X141205193Y-98854164D01*
X141265233Y-98656238D01*
X141265233Y-98656237D01*
X141362733Y-98473828D01*
X141493946Y-98313946D01*
X141653828Y-98182733D01*
X141836237Y-98085233D01*
X141902213Y-98065220D01*
X142034164Y-98025193D01*
X142111293Y-98017596D01*
X142188420Y-98010000D01*
X142291580Y-98010000D01*
X142368707Y-98017596D01*
X142368707Y-98017596D01*
G37*
G36*
X139828707Y-98017596D02*
X139905836Y-98025193D01*
X140037787Y-98065220D01*
X140103763Y-98085233D01*
X140286172Y-98182733D01*
X140446054Y-98313946D01*
X140577267Y-98473828D01*
X140674767Y-98656237D01*
X140674767Y-98656238D01*
X140734807Y-98854164D01*
X140755080Y-99060000D01*
X140734807Y-99265836D01*
X140694780Y-99397787D01*
X140674767Y-99463763D01*
X140577267Y-99646172D01*
X140446054Y-99806054D01*
X140286172Y-99937267D01*
X140103763Y-100034767D01*
X140037787Y-100054780D01*
X139905836Y-100094807D01*
X139828707Y-100102403D01*
X139751580Y-100110000D01*
X139648420Y-100110000D01*
X139571293Y-100102403D01*
X139494164Y-100094807D01*
X139362213Y-100054780D01*
X139296237Y-100034767D01*
X139113828Y-99937267D01*
X138953946Y-99806054D01*
X138822733Y-99646172D01*
X138725233Y-99463763D01*
X138705220Y-99397787D01*
X138665193Y-99265836D01*
X138644920Y-99060000D01*
X138665193Y-98854164D01*
X138725233Y-98656238D01*
X138725233Y-98656237D01*
X138822733Y-98473828D01*
X138953946Y-98313946D01*
X139113828Y-98182733D01*
X139296237Y-98085233D01*
X139362213Y-98065220D01*
X139494164Y-98025193D01*
X139571293Y-98017596D01*
X139648420Y-98010000D01*
X139751580Y-98010000D01*
X139828707Y-98017596D01*
X139828707Y-98017596D01*
G37*
G36*
X137288707Y-98017596D02*
X137365836Y-98025193D01*
X137497787Y-98065220D01*
X137563763Y-98085233D01*
X137746172Y-98182733D01*
X137906054Y-98313946D01*
X138037267Y-98473828D01*
X138134767Y-98656237D01*
X138134767Y-98656238D01*
X138194807Y-98854164D01*
X138215080Y-99060000D01*
X138194807Y-99265836D01*
X138154780Y-99397787D01*
X138134767Y-99463763D01*
X138037267Y-99646172D01*
X137906054Y-99806054D01*
X137746172Y-99937267D01*
X137563763Y-100034767D01*
X137497787Y-100054780D01*
X137365836Y-100094807D01*
X137288707Y-100102403D01*
X137211580Y-100110000D01*
X137108420Y-100110000D01*
X137031293Y-100102403D01*
X136954164Y-100094807D01*
X136822213Y-100054780D01*
X136756237Y-100034767D01*
X136573828Y-99937267D01*
X136413946Y-99806054D01*
X136282733Y-99646172D01*
X136185233Y-99463763D01*
X136165220Y-99397787D01*
X136125193Y-99265836D01*
X136104920Y-99060000D01*
X136125193Y-98854164D01*
X136185233Y-98656238D01*
X136185233Y-98656237D01*
X136282733Y-98473828D01*
X136413946Y-98313946D01*
X136573828Y-98182733D01*
X136756237Y-98085233D01*
X136822213Y-98065220D01*
X136954164Y-98025193D01*
X137031293Y-98017596D01*
X137108420Y-98010000D01*
X137211580Y-98010000D01*
X137288707Y-98017596D01*
X137288707Y-98017596D01*
G37*
G36*
X134748707Y-98017596D02*
X134825836Y-98025193D01*
X134957787Y-98065220D01*
X135023763Y-98085233D01*
X135206172Y-98182733D01*
X135366054Y-98313946D01*
X135497267Y-98473828D01*
X135594767Y-98656237D01*
X135594767Y-98656238D01*
X135654807Y-98854164D01*
X135675080Y-99060000D01*
X135654807Y-99265836D01*
X135614780Y-99397787D01*
X135594767Y-99463763D01*
X135497267Y-99646172D01*
X135366054Y-99806054D01*
X135206172Y-99937267D01*
X135023763Y-100034767D01*
X134957787Y-100054780D01*
X134825836Y-100094807D01*
X134748707Y-100102403D01*
X134671580Y-100110000D01*
X134568420Y-100110000D01*
X134491293Y-100102403D01*
X134414164Y-100094807D01*
X134282213Y-100054780D01*
X134216237Y-100034767D01*
X134033828Y-99937267D01*
X133873946Y-99806054D01*
X133742733Y-99646172D01*
X133645233Y-99463763D01*
X133625220Y-99397787D01*
X133585193Y-99265836D01*
X133564920Y-99060000D01*
X133585193Y-98854164D01*
X133645233Y-98656238D01*
X133645233Y-98656237D01*
X133742733Y-98473828D01*
X133873946Y-98313946D01*
X134033828Y-98182733D01*
X134216237Y-98085233D01*
X134282213Y-98065220D01*
X134414164Y-98025193D01*
X134491293Y-98017596D01*
X134568420Y-98010000D01*
X134671580Y-98010000D01*
X134748707Y-98017596D01*
X134748707Y-98017596D01*
G37*
G36*
X127705639Y-97785916D02*
X127912986Y-97848815D01*
X127912988Y-97848816D01*
X128104084Y-97950958D01*
X128271581Y-98088419D01*
X128409042Y-98255916D01*
X128440059Y-98313946D01*
X128511185Y-98447014D01*
X128574084Y-98654361D01*
X128595322Y-98870000D01*
X128574084Y-99085639D01*
X128519422Y-99265834D01*
X128511184Y-99292988D01*
X128409042Y-99484084D01*
X128271581Y-99651581D01*
X128104084Y-99789042D01*
X127912988Y-99891184D01*
X127912986Y-99891185D01*
X127705639Y-99954084D01*
X127544038Y-99970000D01*
X127435962Y-99970000D01*
X127274361Y-99954084D01*
X127067014Y-99891185D01*
X127067012Y-99891184D01*
X126875916Y-99789042D01*
X126708419Y-99651581D01*
X126570958Y-99484084D01*
X126468816Y-99292988D01*
X126460579Y-99265834D01*
X126405916Y-99085639D01*
X126384678Y-98870000D01*
X126405916Y-98654361D01*
X126468815Y-98447014D01*
X126539941Y-98313946D01*
X126570958Y-98255916D01*
X126708419Y-98088419D01*
X126875916Y-97950958D01*
X127067012Y-97848816D01*
X127067014Y-97848815D01*
X127274361Y-97785916D01*
X127435962Y-97770000D01*
X127544038Y-97770000D01*
X127705639Y-97785916D01*
X127705639Y-97785916D01*
G37*
G36*
X150565639Y-97785916D02*
X150772986Y-97848815D01*
X150772988Y-97848816D01*
X150964084Y-97950958D01*
X151131581Y-98088419D01*
X151269042Y-98255916D01*
X151300059Y-98313946D01*
X151371185Y-98447014D01*
X151434084Y-98654361D01*
X151455322Y-98870000D01*
X151434084Y-99085639D01*
X151379422Y-99265834D01*
X151371184Y-99292988D01*
X151269042Y-99484084D01*
X151131581Y-99651581D01*
X150964084Y-99789042D01*
X150772988Y-99891184D01*
X150772986Y-99891185D01*
X150565639Y-99954084D01*
X150404038Y-99970000D01*
X150295962Y-99970000D01*
X150134361Y-99954084D01*
X149927014Y-99891185D01*
X149927012Y-99891184D01*
X149735916Y-99789042D01*
X149568419Y-99651581D01*
X149430958Y-99484084D01*
X149328816Y-99292988D01*
X149320579Y-99265834D01*
X149265916Y-99085639D01*
X149244678Y-98870000D01*
X149265916Y-98654361D01*
X149328815Y-98447014D01*
X149399941Y-98313946D01*
X149430958Y-98255916D01*
X149568419Y-98088419D01*
X149735916Y-97950958D01*
X149927012Y-97848816D01*
X149927014Y-97848815D01*
X150134361Y-97785916D01*
X150295962Y-97770000D01*
X150404038Y-97770000D01*
X150565639Y-97785916D01*
X150565639Y-97785916D01*
G37*
G36*
X150565639Y-95245916D02*
X150772986Y-95308815D01*
X150772988Y-95308816D01*
X150964084Y-95410958D01*
X151131581Y-95548419D01*
X151269042Y-95715916D01*
X151371184Y-95907012D01*
X151434084Y-96114362D01*
X151455322Y-96330000D01*
X151434084Y-96545638D01*
X151371184Y-96752988D01*
X151269042Y-96944084D01*
X151131581Y-97111581D01*
X150964084Y-97249042D01*
X150772988Y-97351184D01*
X150772986Y-97351185D01*
X150565639Y-97414084D01*
X150404038Y-97430000D01*
X150295962Y-97430000D01*
X150134361Y-97414084D01*
X149927014Y-97351185D01*
X149927012Y-97351184D01*
X149735916Y-97249042D01*
X149568419Y-97111581D01*
X149430958Y-96944084D01*
X149328816Y-96752988D01*
X149265916Y-96545638D01*
X149244678Y-96330000D01*
X149265916Y-96114362D01*
X149328816Y-95907012D01*
X149430958Y-95715916D01*
X149568419Y-95548419D01*
X149735916Y-95410958D01*
X149927012Y-95308816D01*
X149927014Y-95308815D01*
X150134361Y-95245916D01*
X150295962Y-95230000D01*
X150404038Y-95230000D01*
X150565639Y-95245916D01*
X150565639Y-95245916D01*
G37*
G36*
X127705639Y-95245916D02*
X127912986Y-95308815D01*
X127912988Y-95308816D01*
X128104084Y-95410958D01*
X128271581Y-95548419D01*
X128409042Y-95715916D01*
X128511184Y-95907012D01*
X128574084Y-96114362D01*
X128595322Y-96330000D01*
X128574084Y-96545638D01*
X128511184Y-96752988D01*
X128409042Y-96944084D01*
X128271581Y-97111581D01*
X128104084Y-97249042D01*
X127912988Y-97351184D01*
X127912986Y-97351185D01*
X127705639Y-97414084D01*
X127544038Y-97430000D01*
X127435962Y-97430000D01*
X127274361Y-97414084D01*
X127067014Y-97351185D01*
X127067012Y-97351184D01*
X126875916Y-97249042D01*
X126708419Y-97111581D01*
X126570958Y-96944084D01*
X126468816Y-96752988D01*
X126405916Y-96545638D01*
X126384678Y-96330000D01*
X126405916Y-96114362D01*
X126468816Y-95907012D01*
X126570958Y-95715916D01*
X126708419Y-95548419D01*
X126875916Y-95410958D01*
X127067012Y-95308816D01*
X127067014Y-95308815D01*
X127274361Y-95245916D01*
X127435962Y-95230000D01*
X127544038Y-95230000D01*
X127705639Y-95245916D01*
X127705639Y-95245916D01*
G37*
G36*
X150565639Y-92705916D02*
X150772986Y-92768815D01*
X150772988Y-92768816D01*
X150964084Y-92870958D01*
X151131581Y-93008419D01*
X151269042Y-93175916D01*
X151371184Y-93367012D01*
X151434084Y-93574362D01*
X151455322Y-93790000D01*
X151434084Y-94005638D01*
X151371184Y-94212988D01*
X151269042Y-94404084D01*
X151131581Y-94571581D01*
X150964084Y-94709042D01*
X150772988Y-94811184D01*
X150772986Y-94811185D01*
X150565639Y-94874084D01*
X150404038Y-94890000D01*
X150295962Y-94890000D01*
X150134361Y-94874084D01*
X149927014Y-94811185D01*
X149927012Y-94811184D01*
X149735916Y-94709042D01*
X149568419Y-94571581D01*
X149430958Y-94404084D01*
X149328816Y-94212988D01*
X149265916Y-94005638D01*
X149244678Y-93790000D01*
X149265916Y-93574362D01*
X149328816Y-93367012D01*
X149430958Y-93175916D01*
X149568419Y-93008419D01*
X149735916Y-92870958D01*
X149927012Y-92768816D01*
X149927014Y-92768815D01*
X150134361Y-92705916D01*
X150295962Y-92690000D01*
X150404038Y-92690000D01*
X150565639Y-92705916D01*
X150565639Y-92705916D01*
G37*
G36*
X127705639Y-92705916D02*
X127912986Y-92768815D01*
X127912988Y-92768816D01*
X128104084Y-92870958D01*
X128271581Y-93008419D01*
X128409042Y-93175916D01*
X128511184Y-93367012D01*
X128574084Y-93574362D01*
X128595322Y-93790000D01*
X128574084Y-94005638D01*
X128511184Y-94212988D01*
X128409042Y-94404084D01*
X128271581Y-94571581D01*
X128104084Y-94709042D01*
X127912988Y-94811184D01*
X127912986Y-94811185D01*
X127705639Y-94874084D01*
X127544038Y-94890000D01*
X127435962Y-94890000D01*
X127274361Y-94874084D01*
X127067014Y-94811185D01*
X127067012Y-94811184D01*
X126875916Y-94709042D01*
X126708419Y-94571581D01*
X126570958Y-94404084D01*
X126468816Y-94212988D01*
X126405916Y-94005638D01*
X126384678Y-93790000D01*
X126405916Y-93574362D01*
X126468816Y-93367012D01*
X126570958Y-93175916D01*
X126708419Y-93008419D01*
X126875916Y-92870958D01*
X127067012Y-92768816D01*
X127067014Y-92768815D01*
X127274361Y-92705916D01*
X127435962Y-92690000D01*
X127544038Y-92690000D01*
X127705639Y-92705916D01*
X127705639Y-92705916D01*
G37*
G36*
X133800030Y-91343469D02*
X133800033Y-91343470D01*
X133800034Y-91343470D01*
X133988535Y-91400651D01*
X133988537Y-91400652D01*
X134162260Y-91493509D01*
X134314528Y-91618472D01*
X134439491Y-91770740D01*
X134532348Y-91944463D01*
X134589531Y-92132970D01*
X134608838Y-92329000D01*
X134589531Y-92525030D01*
X134532348Y-92713537D01*
X134439491Y-92887260D01*
X134314528Y-93039528D01*
X134162260Y-93164491D01*
X134067411Y-93215189D01*
X133988535Y-93257349D01*
X133800034Y-93314530D01*
X133800033Y-93314530D01*
X133800030Y-93314531D01*
X133653124Y-93329000D01*
X133554876Y-93329000D01*
X133407970Y-93314531D01*
X133407967Y-93314530D01*
X133407966Y-93314530D01*
X133219465Y-93257349D01*
X133140589Y-93215189D01*
X133045740Y-93164491D01*
X132893472Y-93039528D01*
X132768509Y-92887260D01*
X132675652Y-92713537D01*
X132618469Y-92525030D01*
X132599162Y-92329000D01*
X132618469Y-92132970D01*
X132675652Y-91944463D01*
X132768509Y-91770740D01*
X132893472Y-91618472D01*
X133045740Y-91493509D01*
X133219463Y-91400652D01*
X133219465Y-91400651D01*
X133407966Y-91343470D01*
X133407967Y-91343470D01*
X133407970Y-91343469D01*
X133554876Y-91329000D01*
X133653124Y-91329000D01*
X133800030Y-91343469D01*
X133800030Y-91343469D01*
G37*
G36*
X143939770Y-91344372D02*
X144055689Y-91367429D01*
X144237678Y-91442811D01*
X144401463Y-91552249D01*
X144540751Y-91691537D01*
X144650189Y-91855322D01*
X144725571Y-92037311D01*
X144764000Y-92230509D01*
X144764000Y-92427491D01*
X144725571Y-92620689D01*
X144650189Y-92802678D01*
X144540751Y-92966463D01*
X144401463Y-93105751D01*
X144237678Y-93215189D01*
X144055689Y-93290571D01*
X143939770Y-93313628D01*
X143862493Y-93329000D01*
X143665507Y-93329000D01*
X143588230Y-93313628D01*
X143472311Y-93290571D01*
X143290322Y-93215189D01*
X143126537Y-93105751D01*
X142987249Y-92966463D01*
X142877811Y-92802678D01*
X142802429Y-92620689D01*
X142764000Y-92427491D01*
X142764000Y-92230509D01*
X142802429Y-92037311D01*
X142877811Y-91855322D01*
X142987249Y-91691537D01*
X143126537Y-91552249D01*
X143290322Y-91442811D01*
X143472311Y-91367429D01*
X143588230Y-91344372D01*
X143665507Y-91329000D01*
X143862493Y-91329000D01*
X143939770Y-91344372D01*
X143939770Y-91344372D01*
G37*
G36*
X150565639Y-90165916D02*
X150772986Y-90228815D01*
X150772988Y-90228816D01*
X150964084Y-90330958D01*
X151131581Y-90468419D01*
X151269042Y-90635916D01*
X151371184Y-90827012D01*
X151371185Y-90827014D01*
X151434084Y-91034361D01*
X151455322Y-91250000D01*
X151434084Y-91465639D01*
X151407810Y-91552253D01*
X151371184Y-91672988D01*
X151269042Y-91864084D01*
X151131581Y-92031581D01*
X150964084Y-92169042D01*
X150772988Y-92271184D01*
X150772986Y-92271185D01*
X150565639Y-92334084D01*
X150404038Y-92350000D01*
X150295962Y-92350000D01*
X150134361Y-92334084D01*
X149927014Y-92271185D01*
X149927012Y-92271184D01*
X149735916Y-92169042D01*
X149568419Y-92031581D01*
X149430958Y-91864084D01*
X149328816Y-91672988D01*
X149292191Y-91552253D01*
X149265916Y-91465639D01*
X149244678Y-91250000D01*
X149265916Y-91034361D01*
X149328815Y-90827014D01*
X149328816Y-90827012D01*
X149430958Y-90635916D01*
X149568419Y-90468419D01*
X149735916Y-90330958D01*
X149927012Y-90228816D01*
X149927014Y-90228815D01*
X150134361Y-90165916D01*
X150295962Y-90150000D01*
X150404038Y-90150000D01*
X150565639Y-90165916D01*
X150565639Y-90165916D01*
G37*
G36*
X127705639Y-90165916D02*
X127912986Y-90228815D01*
X127912988Y-90228816D01*
X128104084Y-90330958D01*
X128271581Y-90468419D01*
X128409042Y-90635916D01*
X128511184Y-90827012D01*
X128511185Y-90827014D01*
X128574084Y-91034361D01*
X128595322Y-91250000D01*
X128574084Y-91465639D01*
X128547810Y-91552253D01*
X128511184Y-91672988D01*
X128409042Y-91864084D01*
X128271581Y-92031581D01*
X128104084Y-92169042D01*
X127912988Y-92271184D01*
X127912986Y-92271185D01*
X127705639Y-92334084D01*
X127544038Y-92350000D01*
X127435962Y-92350000D01*
X127274361Y-92334084D01*
X127067014Y-92271185D01*
X127067012Y-92271184D01*
X126875916Y-92169042D01*
X126708419Y-92031581D01*
X126570958Y-91864084D01*
X126468816Y-91672988D01*
X126432191Y-91552253D01*
X126405916Y-91465639D01*
X126384678Y-91250000D01*
X126405916Y-91034361D01*
X126468815Y-90827014D01*
X126468816Y-90827012D01*
X126570958Y-90635916D01*
X126708419Y-90468419D01*
X126875916Y-90330958D01*
X127067012Y-90228816D01*
X127067014Y-90228815D01*
X127274361Y-90165916D01*
X127435962Y-90150000D01*
X127544038Y-90150000D01*
X127705639Y-90165916D01*
X127705639Y-90165916D01*
G37*
G36*
X127705639Y-87625916D02*
X127912986Y-87688815D01*
X127912988Y-87688816D01*
X128104084Y-87790958D01*
X128271581Y-87928419D01*
X128409042Y-88095916D01*
X128511184Y-88287012D01*
X128574084Y-88494362D01*
X128595322Y-88710000D01*
X128574084Y-88925638D01*
X128511184Y-89132988D01*
X128409042Y-89324084D01*
X128271581Y-89491581D01*
X128104084Y-89629042D01*
X127912988Y-89731184D01*
X127912986Y-89731185D01*
X127705639Y-89794084D01*
X127544038Y-89810000D01*
X127435962Y-89810000D01*
X127274361Y-89794084D01*
X127067014Y-89731185D01*
X127067012Y-89731184D01*
X126875916Y-89629042D01*
X126708419Y-89491581D01*
X126570958Y-89324084D01*
X126468816Y-89132988D01*
X126405916Y-88925638D01*
X126384678Y-88710000D01*
X126405916Y-88494362D01*
X126468816Y-88287012D01*
X126570958Y-88095916D01*
X126708419Y-87928419D01*
X126875916Y-87790958D01*
X127067012Y-87688816D01*
X127067014Y-87688815D01*
X127274361Y-87625916D01*
X127435962Y-87610000D01*
X127544038Y-87610000D01*
X127705639Y-87625916D01*
X127705639Y-87625916D01*
G37*
G36*
X150565639Y-87625916D02*
X150772986Y-87688815D01*
X150772988Y-87688816D01*
X150964084Y-87790958D01*
X151131581Y-87928419D01*
X151269042Y-88095916D01*
X151371184Y-88287012D01*
X151434084Y-88494362D01*
X151455322Y-88710000D01*
X151434084Y-88925638D01*
X151371184Y-89132988D01*
X151269042Y-89324084D01*
X151131581Y-89491581D01*
X150964084Y-89629042D01*
X150772988Y-89731184D01*
X150772986Y-89731185D01*
X150565639Y-89794084D01*
X150404038Y-89810000D01*
X150295962Y-89810000D01*
X150134361Y-89794084D01*
X149927014Y-89731185D01*
X149927012Y-89731184D01*
X149735916Y-89629042D01*
X149568419Y-89491581D01*
X149430958Y-89324084D01*
X149328816Y-89132988D01*
X149265916Y-88925638D01*
X149244678Y-88710000D01*
X149265916Y-88494362D01*
X149328816Y-88287012D01*
X149430958Y-88095916D01*
X149568419Y-87928419D01*
X149735916Y-87790958D01*
X149927012Y-87688816D01*
X149927014Y-87688815D01*
X150134361Y-87625916D01*
X150295962Y-87610000D01*
X150404038Y-87610000D01*
X150565639Y-87625916D01*
X150565639Y-87625916D01*
G37*
G36*
X127705639Y-85085916D02*
X127912986Y-85148815D01*
X127912988Y-85148816D01*
X128104084Y-85250958D01*
X128271581Y-85388419D01*
X128409042Y-85555916D01*
X128511184Y-85747012D01*
X128574084Y-85954362D01*
X128595322Y-86170000D01*
X128574084Y-86385638D01*
X128511184Y-86592988D01*
X128409042Y-86784084D01*
X128271581Y-86951581D01*
X128104084Y-87089042D01*
X127912988Y-87191184D01*
X127912986Y-87191185D01*
X127705639Y-87254084D01*
X127544038Y-87270000D01*
X127435962Y-87270000D01*
X127274361Y-87254084D01*
X127067014Y-87191185D01*
X127067012Y-87191184D01*
X126875916Y-87089042D01*
X126708419Y-86951581D01*
X126570958Y-86784084D01*
X126468816Y-86592988D01*
X126405916Y-86385638D01*
X126384678Y-86170000D01*
X126405916Y-85954362D01*
X126468816Y-85747012D01*
X126570958Y-85555916D01*
X126708419Y-85388419D01*
X126875916Y-85250958D01*
X127067012Y-85148816D01*
X127067014Y-85148815D01*
X127274361Y-85085916D01*
X127435962Y-85070000D01*
X127544038Y-85070000D01*
X127705639Y-85085916D01*
X127705639Y-85085916D01*
G37*
G36*
X150565639Y-85085916D02*
X150772986Y-85148815D01*
X150772988Y-85148816D01*
X150964084Y-85250958D01*
X151131581Y-85388419D01*
X151269042Y-85555916D01*
X151371184Y-85747012D01*
X151434084Y-85954362D01*
X151455322Y-86170000D01*
X151434084Y-86385638D01*
X151371184Y-86592988D01*
X151269042Y-86784084D01*
X151131581Y-86951581D01*
X150964084Y-87089042D01*
X150772988Y-87191184D01*
X150772986Y-87191185D01*
X150565639Y-87254084D01*
X150404038Y-87270000D01*
X150295962Y-87270000D01*
X150134361Y-87254084D01*
X149927014Y-87191185D01*
X149927012Y-87191184D01*
X149735916Y-87089042D01*
X149568419Y-86951581D01*
X149430958Y-86784084D01*
X149328816Y-86592988D01*
X149265916Y-86385638D01*
X149244678Y-86170000D01*
X149265916Y-85954362D01*
X149328816Y-85747012D01*
X149430958Y-85555916D01*
X149568419Y-85388419D01*
X149735916Y-85250958D01*
X149927012Y-85148816D01*
X149927014Y-85148815D01*
X150134361Y-85085916D01*
X150295962Y-85070000D01*
X150404038Y-85070000D01*
X150565639Y-85085916D01*
X150565639Y-85085916D01*
G37*
M02*
