G04 #@! TF.GenerationSoftware,KiCad,Pcbnew,5.0.2+dfsg1-1~bpo9+1*
G04 #@! TF.CreationDate,2020-08-18T09:09:54+01:00*
G04 #@! TF.ProjectId,d1-nrf24l01-shield,64312d6e-7266-4323-946c-30312d736869,rev?*
G04 #@! TF.SameCoordinates,Original*
G04 #@! TF.FileFunction,Copper,L2,Bot*
G04 #@! TF.FilePolarity,Positive*
%FSLAX46Y46*%
G04 Gerber Fmt 4.6, Leading zero omitted, Abs format (unit mm)*
G04 Created by KiCad (PCBNEW 5.0.2+dfsg1-1~bpo9+1) date Tue 18 Aug 2020 09:09:54 IST*
%MOMM*%
%LPD*%
G01*
G04 APERTURE LIST*
G04 #@! TA.AperFunction,ComponentPad*
%ADD10R,1.600000X1.600000*%
G04 #@! TD*
G04 #@! TA.AperFunction,ComponentPad*
%ADD11C,1.600000*%
G04 #@! TD*
G04 #@! TA.AperFunction,ComponentPad*
%ADD12R,1.700000X1.700000*%
G04 #@! TD*
G04 #@! TA.AperFunction,ComponentPad*
%ADD13O,1.700000X1.700000*%
G04 #@! TD*
G04 #@! TA.AperFunction,ComponentPad*
%ADD14O,1.600000X1.600000*%
G04 #@! TD*
G04 #@! TA.AperFunction,ComponentPad*
%ADD15R,1.800000X1.800000*%
G04 #@! TD*
G04 #@! TA.AperFunction,ComponentPad*
%ADD16O,1.800000X1.800000*%
G04 #@! TD*
G04 #@! TA.AperFunction,Conductor*
%ADD17C,0.250000*%
G04 #@! TD*
G04 APERTURE END LIST*
D10*
G04 #@! TO.P,C1,1*
G04 #@! TO.N,/+3V3*
X133604000Y-108331000D03*
D11*
G04 #@! TO.P,C1,2*
G04 #@! TO.N,GND*
X131104000Y-108331000D03*
G04 #@! TD*
D12*
G04 #@! TO.P,J1,1*
G04 #@! TO.N,GND*
X134620000Y-101600000D03*
D13*
G04 #@! TO.P,J1,2*
G04 #@! TO.N,/+3V3*
X134620000Y-99060000D03*
G04 #@! TO.P,J1,3*
G04 #@! TO.N,/D3*
X137160000Y-101600000D03*
G04 #@! TO.P,J1,4*
G04 #@! TO.N,/D8*
X137160000Y-99060000D03*
G04 #@! TO.P,J1,5*
G04 #@! TO.N,/D5*
X139700000Y-101600000D03*
G04 #@! TO.P,J1,6*
G04 #@! TO.N,/D7*
X139700000Y-99060000D03*
G04 #@! TO.P,J1,7*
G04 #@! TO.N,/D6*
X142240000Y-101600000D03*
G04 #@! TO.P,J1,8*
G04 #@! TO.N,/D2*
X142240000Y-99060000D03*
G04 #@! TD*
D11*
G04 #@! TO.P,R1,1*
G04 #@! TO.N,/D8*
X143764000Y-92329000D03*
D14*
G04 #@! TO.P,R1,2*
G04 #@! TO.N,GND*
X133604000Y-92329000D03*
G04 #@! TD*
D15*
G04 #@! TO.P,P1,1*
G04 #@! TO.N,/+5V*
X127490000Y-103950000D03*
D16*
G04 #@! TO.P,P1,2*
G04 #@! TO.N,GND*
X127490000Y-101410000D03*
G04 #@! TO.P,P1,3*
G04 #@! TO.N,/D4*
X127490000Y-98870000D03*
G04 #@! TO.P,P1,4*
G04 #@! TO.N,/D3*
X127490000Y-96330000D03*
G04 #@! TO.P,P1,5*
G04 #@! TO.N,/D2*
X127490000Y-93790000D03*
G04 #@! TO.P,P1,6*
G04 #@! TO.N,/D1*
X127490000Y-91250000D03*
G04 #@! TO.P,P1,7*
G04 #@! TO.N,/RX*
X127490000Y-88710000D03*
G04 #@! TO.P,P1,8*
G04 #@! TO.N,/TX*
X127490000Y-86170000D03*
G04 #@! TD*
D15*
G04 #@! TO.P,P2,1*
G04 #@! TO.N,/+3V3*
X150350000Y-103950000D03*
D16*
G04 #@! TO.P,P2,2*
G04 #@! TO.N,/D8*
X150350000Y-101410000D03*
G04 #@! TO.P,P2,3*
G04 #@! TO.N,/D7*
X150350000Y-98870000D03*
G04 #@! TO.P,P2,4*
G04 #@! TO.N,/D6*
X150350000Y-96330000D03*
G04 #@! TO.P,P2,5*
G04 #@! TO.N,/D5*
X150350000Y-93790000D03*
G04 #@! TO.P,P2,6*
G04 #@! TO.N,/D0*
X150350000Y-91250000D03*
G04 #@! TO.P,P2,7*
G04 #@! TO.N,/A0*
X150350000Y-88710000D03*
G04 #@! TO.P,P2,8*
G04 #@! TO.N,/RST*
X150350000Y-86170000D03*
G04 #@! TD*
D17*
G04 #@! TO.N,/D3*
X137160000Y-101600000D02*
X137160000Y-100424700D01*
X127490000Y-96330000D02*
X133580800Y-96330000D01*
X133580800Y-96330000D02*
X135890000Y-98639200D01*
X135890000Y-98639200D02*
X135890000Y-99474600D01*
X135890000Y-99474600D02*
X136840100Y-100424700D01*
X136840100Y-100424700D02*
X137160000Y-100424700D01*
G04 #@! TO.N,/D2*
X142240000Y-99060000D02*
X141064700Y-99060000D01*
X127490000Y-93790000D02*
X136162000Y-93790000D01*
X136162000Y-93790000D02*
X141064700Y-98692700D01*
X141064700Y-98692700D02*
X141064700Y-99060000D01*
G04 #@! TO.N,/D7*
X139700000Y-99060000D02*
X139700000Y-100235300D01*
X150350000Y-98870000D02*
X149124700Y-98870000D01*
X149124700Y-98870000D02*
X145197200Y-102797500D01*
X145197200Y-102797500D02*
X139206600Y-102797500D01*
X139206600Y-102797500D02*
X138524700Y-102115600D01*
X138524700Y-102115600D02*
X138524700Y-101043200D01*
X138524700Y-101043200D02*
X139332600Y-100235300D01*
X139332600Y-100235300D02*
X139700000Y-100235300D01*
G04 #@! TO.N,/D6*
X150350000Y-96330000D02*
X149124700Y-96330000D01*
X149124700Y-96330000D02*
X143854700Y-101600000D01*
X143854700Y-101600000D02*
X142240000Y-101600000D01*
G04 #@! TO.N,/D5*
X139700000Y-101600000D02*
X140875300Y-101600000D01*
X150350000Y-93790000D02*
X149124700Y-93790000D01*
X149124700Y-93790000D02*
X149124700Y-93866600D01*
X149124700Y-93866600D02*
X142566600Y-100424700D01*
X142566600Y-100424700D02*
X141683200Y-100424700D01*
X141683200Y-100424700D02*
X140875300Y-101232600D01*
X140875300Y-101232600D02*
X140875300Y-101600000D01*
G04 #@! TO.N,/+3V3*
X138457100Y-104603200D02*
X134729300Y-108331000D01*
X150350000Y-103950000D02*
X139110300Y-103950000D01*
X139110300Y-103950000D02*
X138457100Y-104603200D01*
X134620000Y-100235300D02*
X135428100Y-100235300D01*
X135428100Y-100235300D02*
X135795300Y-100602500D01*
X135795300Y-100602500D02*
X135795300Y-101941400D01*
X135795300Y-101941400D02*
X138457100Y-104603200D01*
X134620000Y-99060000D02*
X134620000Y-100235300D01*
X133604000Y-108331000D02*
X134729300Y-108331000D01*
G04 #@! TD*
M02*
