G04 #@! TF.GenerationSoftware,KiCad,Pcbnew,5.0.2+dfsg1-1~bpo9+1*
G04 #@! TF.CreationDate,2020-08-18T09:09:54+01:00*
G04 #@! TF.ProjectId,d1-nrf24l01-shield,64312d6e-7266-4323-946c-30312d736869,rev?*
G04 #@! TF.SameCoordinates,Original*
G04 #@! TF.FileFunction,Copper,L1,Top*
G04 #@! TF.FilePolarity,Positive*
%FSLAX46Y46*%
G04 Gerber Fmt 4.6, Leading zero omitted, Abs format (unit mm)*
G04 Created by KiCad (PCBNEW 5.0.2+dfsg1-1~bpo9+1) date Tue 18 Aug 2020 09:09:54 IST*
%MOMM*%
%LPD*%
G01*
G04 APERTURE LIST*
G04 #@! TA.AperFunction,ComponentPad*
%ADD10R,1.600000X1.600000*%
G04 #@! TD*
G04 #@! TA.AperFunction,ComponentPad*
%ADD11C,1.600000*%
G04 #@! TD*
G04 #@! TA.AperFunction,ComponentPad*
%ADD12R,1.700000X1.700000*%
G04 #@! TD*
G04 #@! TA.AperFunction,ComponentPad*
%ADD13O,1.700000X1.700000*%
G04 #@! TD*
G04 #@! TA.AperFunction,ComponentPad*
%ADD14O,1.600000X1.600000*%
G04 #@! TD*
G04 #@! TA.AperFunction,ComponentPad*
%ADD15R,1.800000X1.800000*%
G04 #@! TD*
G04 #@! TA.AperFunction,ComponentPad*
%ADD16O,1.800000X1.800000*%
G04 #@! TD*
G04 #@! TA.AperFunction,Conductor*
%ADD17C,0.250000*%
G04 #@! TD*
G04 #@! TA.AperFunction,Conductor*
%ADD18C,0.254000*%
G04 #@! TD*
G04 APERTURE END LIST*
D10*
G04 #@! TO.P,C1,1*
G04 #@! TO.N,/+3V3*
X133604000Y-108331000D03*
D11*
G04 #@! TO.P,C1,2*
G04 #@! TO.N,GND*
X131104000Y-108331000D03*
G04 #@! TD*
D12*
G04 #@! TO.P,J1,1*
G04 #@! TO.N,GND*
X134620000Y-101600000D03*
D13*
G04 #@! TO.P,J1,2*
G04 #@! TO.N,/+3V3*
X134620000Y-99060000D03*
G04 #@! TO.P,J1,3*
G04 #@! TO.N,/D3*
X137160000Y-101600000D03*
G04 #@! TO.P,J1,4*
G04 #@! TO.N,/D8*
X137160000Y-99060000D03*
G04 #@! TO.P,J1,5*
G04 #@! TO.N,/D5*
X139700000Y-101600000D03*
G04 #@! TO.P,J1,6*
G04 #@! TO.N,/D7*
X139700000Y-99060000D03*
G04 #@! TO.P,J1,7*
G04 #@! TO.N,/D6*
X142240000Y-101600000D03*
G04 #@! TO.P,J1,8*
G04 #@! TO.N,/D2*
X142240000Y-99060000D03*
G04 #@! TD*
D11*
G04 #@! TO.P,R1,1*
G04 #@! TO.N,/D8*
X143764000Y-92329000D03*
D14*
G04 #@! TO.P,R1,2*
G04 #@! TO.N,GND*
X133604000Y-92329000D03*
G04 #@! TD*
D15*
G04 #@! TO.P,P1,1*
G04 #@! TO.N,/+5V*
X127490000Y-103950000D03*
D16*
G04 #@! TO.P,P1,2*
G04 #@! TO.N,GND*
X127490000Y-101410000D03*
G04 #@! TO.P,P1,3*
G04 #@! TO.N,/D4*
X127490000Y-98870000D03*
G04 #@! TO.P,P1,4*
G04 #@! TO.N,/D3*
X127490000Y-96330000D03*
G04 #@! TO.P,P1,5*
G04 #@! TO.N,/D2*
X127490000Y-93790000D03*
G04 #@! TO.P,P1,6*
G04 #@! TO.N,/D1*
X127490000Y-91250000D03*
G04 #@! TO.P,P1,7*
G04 #@! TO.N,/RX*
X127490000Y-88710000D03*
G04 #@! TO.P,P1,8*
G04 #@! TO.N,/TX*
X127490000Y-86170000D03*
G04 #@! TD*
D15*
G04 #@! TO.P,P2,1*
G04 #@! TO.N,/+3V3*
X150350000Y-103950000D03*
D16*
G04 #@! TO.P,P2,2*
G04 #@! TO.N,/D8*
X150350000Y-101410000D03*
G04 #@! TO.P,P2,3*
G04 #@! TO.N,/D7*
X150350000Y-98870000D03*
G04 #@! TO.P,P2,4*
G04 #@! TO.N,/D6*
X150350000Y-96330000D03*
G04 #@! TO.P,P2,5*
G04 #@! TO.N,/D5*
X150350000Y-93790000D03*
G04 #@! TO.P,P2,6*
G04 #@! TO.N,/D0*
X150350000Y-91250000D03*
G04 #@! TO.P,P2,7*
G04 #@! TO.N,/A0*
X150350000Y-88710000D03*
G04 #@! TO.P,P2,8*
G04 #@! TO.N,/RST*
X150350000Y-86170000D03*
G04 #@! TD*
D17*
G04 #@! TO.N,/D8*
X143764000Y-94058200D02*
X143764000Y-92329000D01*
X150350000Y-100184700D02*
X149890500Y-100184700D01*
X149890500Y-100184700D02*
X143764000Y-94058200D01*
X143764000Y-94058200D02*
X143016700Y-94058200D01*
X143016700Y-94058200D02*
X138335300Y-98739600D01*
X138335300Y-98739600D02*
X138335300Y-99060000D01*
X137160000Y-99060000D02*
X138335300Y-99060000D01*
X150350000Y-101410000D02*
X150350000Y-100184700D01*
G04 #@! TO.N,GND*
X133444700Y-101600000D02*
X133444700Y-93613600D01*
X133444700Y-93613600D02*
X133604000Y-93454300D01*
X133604000Y-92329000D02*
X133604000Y-93454300D01*
X131104000Y-101600000D02*
X133444700Y-101600000D01*
X131104000Y-101600000D02*
X131104000Y-108331000D01*
X127490000Y-101410000D02*
X130914000Y-101410000D01*
X130914000Y-101410000D02*
X131104000Y-101600000D01*
X134620000Y-101600000D02*
X133444700Y-101600000D01*
G04 #@! TD*
D18*
G04 #@! TO.N,GND*
G36*
X150998577Y-84757237D02*
X150948927Y-84724062D01*
X150501182Y-84635000D01*
X150198818Y-84635000D01*
X149751073Y-84724062D01*
X149243327Y-85063327D01*
X148904062Y-85571073D01*
X148784928Y-86170000D01*
X148904062Y-86768927D01*
X149243327Y-87276673D01*
X149487763Y-87440000D01*
X149243327Y-87603327D01*
X148904062Y-88111073D01*
X148784928Y-88710000D01*
X148904062Y-89308927D01*
X149243327Y-89816673D01*
X149487763Y-89980000D01*
X149243327Y-90143327D01*
X148904062Y-90651073D01*
X148784928Y-91250000D01*
X148904062Y-91848927D01*
X149243327Y-92356673D01*
X149487763Y-92520000D01*
X149243327Y-92683327D01*
X148904062Y-93191073D01*
X148784928Y-93790000D01*
X148904062Y-94388927D01*
X149243327Y-94896673D01*
X149487763Y-95060000D01*
X149243327Y-95223327D01*
X148904062Y-95731073D01*
X148784928Y-96330000D01*
X148904062Y-96928927D01*
X149243327Y-97436673D01*
X149487763Y-97600000D01*
X149243327Y-97763327D01*
X148963188Y-98182585D01*
X144524000Y-93743399D01*
X144524000Y-93567430D01*
X144576862Y-93545534D01*
X144980534Y-93141862D01*
X145199000Y-92614439D01*
X145199000Y-92043561D01*
X144980534Y-91516138D01*
X144576862Y-91112466D01*
X144049439Y-90894000D01*
X143478561Y-90894000D01*
X142951138Y-91112466D01*
X142547466Y-91516138D01*
X142329000Y-92043561D01*
X142329000Y-92614439D01*
X142547466Y-93141862D01*
X142743298Y-93337694D01*
X142720163Y-93342296D01*
X142720161Y-93342297D01*
X142720162Y-93342297D01*
X142532226Y-93467871D01*
X142532224Y-93467873D01*
X142468771Y-93510271D01*
X142426373Y-93573724D01*
X138098804Y-97901295D01*
X137739418Y-97661161D01*
X137306256Y-97575000D01*
X137013744Y-97575000D01*
X136580582Y-97661161D01*
X136089375Y-97989375D01*
X135890000Y-98287761D01*
X135690625Y-97989375D01*
X135199418Y-97661161D01*
X134766256Y-97575000D01*
X134473744Y-97575000D01*
X134040582Y-97661161D01*
X133549375Y-97989375D01*
X133221161Y-98480582D01*
X133105908Y-99060000D01*
X133221161Y-99639418D01*
X133549375Y-100130625D01*
X133571032Y-100145096D01*
X133410301Y-100211673D01*
X133231673Y-100390302D01*
X133135000Y-100623691D01*
X133135000Y-101314250D01*
X133293750Y-101473000D01*
X134493000Y-101473000D01*
X134493000Y-101453000D01*
X134747000Y-101453000D01*
X134747000Y-101473000D01*
X134767000Y-101473000D01*
X134767000Y-101727000D01*
X134747000Y-101727000D01*
X134747000Y-102926250D01*
X134905750Y-103085000D01*
X135596310Y-103085000D01*
X135829699Y-102988327D01*
X136008327Y-102809698D01*
X136074904Y-102648967D01*
X136089375Y-102670625D01*
X136580582Y-102998839D01*
X137013744Y-103085000D01*
X137306256Y-103085000D01*
X137739418Y-102998839D01*
X138230625Y-102670625D01*
X138430000Y-102372239D01*
X138629375Y-102670625D01*
X139120582Y-102998839D01*
X139553744Y-103085000D01*
X139846256Y-103085000D01*
X140279418Y-102998839D01*
X140770625Y-102670625D01*
X140970000Y-102372239D01*
X141169375Y-102670625D01*
X141660582Y-102998839D01*
X142093744Y-103085000D01*
X142386256Y-103085000D01*
X142819418Y-102998839D01*
X143310625Y-102670625D01*
X143638839Y-102179418D01*
X143754092Y-101600000D01*
X143638839Y-101020582D01*
X143310625Y-100529375D01*
X143012239Y-100330000D01*
X143310625Y-100130625D01*
X143638839Y-99639418D01*
X143754092Y-99060000D01*
X143638839Y-98480582D01*
X143310625Y-97989375D01*
X142819418Y-97661161D01*
X142386256Y-97575000D01*
X142093744Y-97575000D01*
X141660582Y-97661161D01*
X141169375Y-97989375D01*
X140970000Y-98287761D01*
X140770625Y-97989375D01*
X140404778Y-97744924D01*
X143331503Y-94818200D01*
X143449199Y-94818200D01*
X149119558Y-100488561D01*
X148904062Y-100811073D01*
X148784928Y-101410000D01*
X148904062Y-102008927D01*
X149200696Y-102452871D01*
X148992191Y-102592191D01*
X148851843Y-102802235D01*
X148802560Y-103050000D01*
X148802560Y-104850000D01*
X148851843Y-105097765D01*
X148992191Y-105307809D01*
X149145129Y-105410000D01*
X145415000Y-105410000D01*
X145366399Y-105419667D01*
X145325197Y-105447197D01*
X145297667Y-105488399D01*
X145288000Y-105537000D01*
X145288000Y-111125000D01*
X144428072Y-111125000D01*
X144407689Y-111093954D01*
X144405084Y-111092183D01*
X144403332Y-111089565D01*
X144292495Y-111015628D01*
X144182338Y-110940726D01*
X144179254Y-110940087D01*
X144176633Y-110938338D01*
X144045981Y-110912453D01*
X143915504Y-110885399D01*
X143844925Y-110898845D01*
X135145267Y-110905433D01*
X135077480Y-110892065D01*
X134944013Y-110918842D01*
X134810866Y-110945431D01*
X134810603Y-110945607D01*
X134810294Y-110945669D01*
X134697139Y-111021546D01*
X134584397Y-111097001D01*
X134584223Y-111097262D01*
X134583959Y-111097439D01*
X134565609Y-111125000D01*
X126685544Y-111125000D01*
X126686345Y-109338745D01*
X130275861Y-109338745D01*
X130349995Y-109584864D01*
X130887223Y-109777965D01*
X131457454Y-109750778D01*
X131858005Y-109584864D01*
X131932139Y-109338745D01*
X131104000Y-108510605D01*
X130275861Y-109338745D01*
X126686345Y-109338745D01*
X126686895Y-108114223D01*
X129657035Y-108114223D01*
X129684222Y-108684454D01*
X129850136Y-109085005D01*
X130096255Y-109159139D01*
X130924395Y-108331000D01*
X131283605Y-108331000D01*
X132111745Y-109159139D01*
X132159307Y-109144813D01*
X132205843Y-109378765D01*
X132346191Y-109588809D01*
X132556235Y-109729157D01*
X132804000Y-109778440D01*
X134404000Y-109778440D01*
X134651765Y-109729157D01*
X134861809Y-109588809D01*
X135002157Y-109378765D01*
X135051440Y-109131000D01*
X135051440Y-107531000D01*
X135002157Y-107283235D01*
X134861809Y-107073191D01*
X134651765Y-106932843D01*
X134404000Y-106883560D01*
X132804000Y-106883560D01*
X132556235Y-106932843D01*
X132346191Y-107073191D01*
X132205843Y-107283235D01*
X132159307Y-107517187D01*
X132111745Y-107502861D01*
X131283605Y-108331000D01*
X130924395Y-108331000D01*
X130096255Y-107502861D01*
X129850136Y-107576995D01*
X129657035Y-108114223D01*
X126686895Y-108114223D01*
X126687250Y-107323255D01*
X130275861Y-107323255D01*
X131104000Y-108151395D01*
X131932139Y-107323255D01*
X131858005Y-107077136D01*
X131320777Y-106884035D01*
X130750546Y-106911222D01*
X130349995Y-107077136D01*
X130275861Y-107323255D01*
X126687250Y-107323255D01*
X126688071Y-105497440D01*
X128390000Y-105497440D01*
X128637765Y-105448157D01*
X128847809Y-105307809D01*
X128988157Y-105097765D01*
X129037440Y-104850000D01*
X129037440Y-103050000D01*
X128988157Y-102802235D01*
X128847809Y-102592191D01*
X128637765Y-102451843D01*
X128586636Y-102441673D01*
X128802240Y-102206417D01*
X128935056Y-101885750D01*
X133135000Y-101885750D01*
X133135000Y-102576309D01*
X133231673Y-102809698D01*
X133410301Y-102988327D01*
X133643690Y-103085000D01*
X134334250Y-103085000D01*
X134493000Y-102926250D01*
X134493000Y-101727000D01*
X133293750Y-101727000D01*
X133135000Y-101885750D01*
X128935056Y-101885750D01*
X128981036Y-101774740D01*
X128860378Y-101537000D01*
X127617000Y-101537000D01*
X127617000Y-101557000D01*
X127363000Y-101557000D01*
X127363000Y-101537000D01*
X127343000Y-101537000D01*
X127343000Y-101283000D01*
X127363000Y-101283000D01*
X127363000Y-101263000D01*
X127617000Y-101263000D01*
X127617000Y-101283000D01*
X128860378Y-101283000D01*
X128981036Y-101045260D01*
X128802240Y-100613583D01*
X128397576Y-100172034D01*
X128342632Y-100146418D01*
X128596673Y-99976673D01*
X128935938Y-99468927D01*
X129055072Y-98870000D01*
X128935938Y-98271073D01*
X128596673Y-97763327D01*
X128352237Y-97600000D01*
X128596673Y-97436673D01*
X128935938Y-96928927D01*
X129055072Y-96330000D01*
X128935938Y-95731073D01*
X128596673Y-95223327D01*
X128352237Y-95060000D01*
X128596673Y-94896673D01*
X128935938Y-94388927D01*
X129055072Y-93790000D01*
X128935938Y-93191073D01*
X128596673Y-92683327D01*
X128588759Y-92678039D01*
X132212096Y-92678039D01*
X132372959Y-93066423D01*
X132748866Y-93481389D01*
X133254959Y-93720914D01*
X133477000Y-93599629D01*
X133477000Y-92456000D01*
X133731000Y-92456000D01*
X133731000Y-93599629D01*
X133953041Y-93720914D01*
X134459134Y-93481389D01*
X134835041Y-93066423D01*
X134995904Y-92678039D01*
X134873915Y-92456000D01*
X133731000Y-92456000D01*
X133477000Y-92456000D01*
X132334085Y-92456000D01*
X132212096Y-92678039D01*
X128588759Y-92678039D01*
X128352237Y-92520000D01*
X128596673Y-92356673D01*
X128848383Y-91979961D01*
X132212096Y-91979961D01*
X132334085Y-92202000D01*
X133477000Y-92202000D01*
X133477000Y-91058371D01*
X133731000Y-91058371D01*
X133731000Y-92202000D01*
X134873915Y-92202000D01*
X134995904Y-91979961D01*
X134835041Y-91591577D01*
X134459134Y-91176611D01*
X133953041Y-90937086D01*
X133731000Y-91058371D01*
X133477000Y-91058371D01*
X133254959Y-90937086D01*
X132748866Y-91176611D01*
X132372959Y-91591577D01*
X132212096Y-91979961D01*
X128848383Y-91979961D01*
X128935938Y-91848927D01*
X129055072Y-91250000D01*
X128935938Y-90651073D01*
X128596673Y-90143327D01*
X128352237Y-89980000D01*
X128596673Y-89816673D01*
X128935938Y-89308927D01*
X129055072Y-88710000D01*
X128935938Y-88111073D01*
X128596673Y-87603327D01*
X128352237Y-87440000D01*
X128596673Y-87276673D01*
X128935938Y-86768927D01*
X129055072Y-86170000D01*
X128935938Y-85571073D01*
X128596673Y-85063327D01*
X128088927Y-84724062D01*
X127641182Y-84635000D01*
X127338818Y-84635000D01*
X126891073Y-84724062D01*
X126697342Y-84853509D01*
X126697692Y-84074000D01*
X150997821Y-84074000D01*
X150998577Y-84757237D01*
X150998577Y-84757237D01*
G37*
X150998577Y-84757237D02*
X150948927Y-84724062D01*
X150501182Y-84635000D01*
X150198818Y-84635000D01*
X149751073Y-84724062D01*
X149243327Y-85063327D01*
X148904062Y-85571073D01*
X148784928Y-86170000D01*
X148904062Y-86768927D01*
X149243327Y-87276673D01*
X149487763Y-87440000D01*
X149243327Y-87603327D01*
X148904062Y-88111073D01*
X148784928Y-88710000D01*
X148904062Y-89308927D01*
X149243327Y-89816673D01*
X149487763Y-89980000D01*
X149243327Y-90143327D01*
X148904062Y-90651073D01*
X148784928Y-91250000D01*
X148904062Y-91848927D01*
X149243327Y-92356673D01*
X149487763Y-92520000D01*
X149243327Y-92683327D01*
X148904062Y-93191073D01*
X148784928Y-93790000D01*
X148904062Y-94388927D01*
X149243327Y-94896673D01*
X149487763Y-95060000D01*
X149243327Y-95223327D01*
X148904062Y-95731073D01*
X148784928Y-96330000D01*
X148904062Y-96928927D01*
X149243327Y-97436673D01*
X149487763Y-97600000D01*
X149243327Y-97763327D01*
X148963188Y-98182585D01*
X144524000Y-93743399D01*
X144524000Y-93567430D01*
X144576862Y-93545534D01*
X144980534Y-93141862D01*
X145199000Y-92614439D01*
X145199000Y-92043561D01*
X144980534Y-91516138D01*
X144576862Y-91112466D01*
X144049439Y-90894000D01*
X143478561Y-90894000D01*
X142951138Y-91112466D01*
X142547466Y-91516138D01*
X142329000Y-92043561D01*
X142329000Y-92614439D01*
X142547466Y-93141862D01*
X142743298Y-93337694D01*
X142720163Y-93342296D01*
X142720161Y-93342297D01*
X142720162Y-93342297D01*
X142532226Y-93467871D01*
X142532224Y-93467873D01*
X142468771Y-93510271D01*
X142426373Y-93573724D01*
X138098804Y-97901295D01*
X137739418Y-97661161D01*
X137306256Y-97575000D01*
X137013744Y-97575000D01*
X136580582Y-97661161D01*
X136089375Y-97989375D01*
X135890000Y-98287761D01*
X135690625Y-97989375D01*
X135199418Y-97661161D01*
X134766256Y-97575000D01*
X134473744Y-97575000D01*
X134040582Y-97661161D01*
X133549375Y-97989375D01*
X133221161Y-98480582D01*
X133105908Y-99060000D01*
X133221161Y-99639418D01*
X133549375Y-100130625D01*
X133571032Y-100145096D01*
X133410301Y-100211673D01*
X133231673Y-100390302D01*
X133135000Y-100623691D01*
X133135000Y-101314250D01*
X133293750Y-101473000D01*
X134493000Y-101473000D01*
X134493000Y-101453000D01*
X134747000Y-101453000D01*
X134747000Y-101473000D01*
X134767000Y-101473000D01*
X134767000Y-101727000D01*
X134747000Y-101727000D01*
X134747000Y-102926250D01*
X134905750Y-103085000D01*
X135596310Y-103085000D01*
X135829699Y-102988327D01*
X136008327Y-102809698D01*
X136074904Y-102648967D01*
X136089375Y-102670625D01*
X136580582Y-102998839D01*
X137013744Y-103085000D01*
X137306256Y-103085000D01*
X137739418Y-102998839D01*
X138230625Y-102670625D01*
X138430000Y-102372239D01*
X138629375Y-102670625D01*
X139120582Y-102998839D01*
X139553744Y-103085000D01*
X139846256Y-103085000D01*
X140279418Y-102998839D01*
X140770625Y-102670625D01*
X140970000Y-102372239D01*
X141169375Y-102670625D01*
X141660582Y-102998839D01*
X142093744Y-103085000D01*
X142386256Y-103085000D01*
X142819418Y-102998839D01*
X143310625Y-102670625D01*
X143638839Y-102179418D01*
X143754092Y-101600000D01*
X143638839Y-101020582D01*
X143310625Y-100529375D01*
X143012239Y-100330000D01*
X143310625Y-100130625D01*
X143638839Y-99639418D01*
X143754092Y-99060000D01*
X143638839Y-98480582D01*
X143310625Y-97989375D01*
X142819418Y-97661161D01*
X142386256Y-97575000D01*
X142093744Y-97575000D01*
X141660582Y-97661161D01*
X141169375Y-97989375D01*
X140970000Y-98287761D01*
X140770625Y-97989375D01*
X140404778Y-97744924D01*
X143331503Y-94818200D01*
X143449199Y-94818200D01*
X149119558Y-100488561D01*
X148904062Y-100811073D01*
X148784928Y-101410000D01*
X148904062Y-102008927D01*
X149200696Y-102452871D01*
X148992191Y-102592191D01*
X148851843Y-102802235D01*
X148802560Y-103050000D01*
X148802560Y-104850000D01*
X148851843Y-105097765D01*
X148992191Y-105307809D01*
X149145129Y-105410000D01*
X145415000Y-105410000D01*
X145366399Y-105419667D01*
X145325197Y-105447197D01*
X145297667Y-105488399D01*
X145288000Y-105537000D01*
X145288000Y-111125000D01*
X144428072Y-111125000D01*
X144407689Y-111093954D01*
X144405084Y-111092183D01*
X144403332Y-111089565D01*
X144292495Y-111015628D01*
X144182338Y-110940726D01*
X144179254Y-110940087D01*
X144176633Y-110938338D01*
X144045981Y-110912453D01*
X143915504Y-110885399D01*
X143844925Y-110898845D01*
X135145267Y-110905433D01*
X135077480Y-110892065D01*
X134944013Y-110918842D01*
X134810866Y-110945431D01*
X134810603Y-110945607D01*
X134810294Y-110945669D01*
X134697139Y-111021546D01*
X134584397Y-111097001D01*
X134584223Y-111097262D01*
X134583959Y-111097439D01*
X134565609Y-111125000D01*
X126685544Y-111125000D01*
X126686345Y-109338745D01*
X130275861Y-109338745D01*
X130349995Y-109584864D01*
X130887223Y-109777965D01*
X131457454Y-109750778D01*
X131858005Y-109584864D01*
X131932139Y-109338745D01*
X131104000Y-108510605D01*
X130275861Y-109338745D01*
X126686345Y-109338745D01*
X126686895Y-108114223D01*
X129657035Y-108114223D01*
X129684222Y-108684454D01*
X129850136Y-109085005D01*
X130096255Y-109159139D01*
X130924395Y-108331000D01*
X131283605Y-108331000D01*
X132111745Y-109159139D01*
X132159307Y-109144813D01*
X132205843Y-109378765D01*
X132346191Y-109588809D01*
X132556235Y-109729157D01*
X132804000Y-109778440D01*
X134404000Y-109778440D01*
X134651765Y-109729157D01*
X134861809Y-109588809D01*
X135002157Y-109378765D01*
X135051440Y-109131000D01*
X135051440Y-107531000D01*
X135002157Y-107283235D01*
X134861809Y-107073191D01*
X134651765Y-106932843D01*
X134404000Y-106883560D01*
X132804000Y-106883560D01*
X132556235Y-106932843D01*
X132346191Y-107073191D01*
X132205843Y-107283235D01*
X132159307Y-107517187D01*
X132111745Y-107502861D01*
X131283605Y-108331000D01*
X130924395Y-108331000D01*
X130096255Y-107502861D01*
X129850136Y-107576995D01*
X129657035Y-108114223D01*
X126686895Y-108114223D01*
X126687250Y-107323255D01*
X130275861Y-107323255D01*
X131104000Y-108151395D01*
X131932139Y-107323255D01*
X131858005Y-107077136D01*
X131320777Y-106884035D01*
X130750546Y-106911222D01*
X130349995Y-107077136D01*
X130275861Y-107323255D01*
X126687250Y-107323255D01*
X126688071Y-105497440D01*
X128390000Y-105497440D01*
X128637765Y-105448157D01*
X128847809Y-105307809D01*
X128988157Y-105097765D01*
X129037440Y-104850000D01*
X129037440Y-103050000D01*
X128988157Y-102802235D01*
X128847809Y-102592191D01*
X128637765Y-102451843D01*
X128586636Y-102441673D01*
X128802240Y-102206417D01*
X128935056Y-101885750D01*
X133135000Y-101885750D01*
X133135000Y-102576309D01*
X133231673Y-102809698D01*
X133410301Y-102988327D01*
X133643690Y-103085000D01*
X134334250Y-103085000D01*
X134493000Y-102926250D01*
X134493000Y-101727000D01*
X133293750Y-101727000D01*
X133135000Y-101885750D01*
X128935056Y-101885750D01*
X128981036Y-101774740D01*
X128860378Y-101537000D01*
X127617000Y-101537000D01*
X127617000Y-101557000D01*
X127363000Y-101557000D01*
X127363000Y-101537000D01*
X127343000Y-101537000D01*
X127343000Y-101283000D01*
X127363000Y-101283000D01*
X127363000Y-101263000D01*
X127617000Y-101263000D01*
X127617000Y-101283000D01*
X128860378Y-101283000D01*
X128981036Y-101045260D01*
X128802240Y-100613583D01*
X128397576Y-100172034D01*
X128342632Y-100146418D01*
X128596673Y-99976673D01*
X128935938Y-99468927D01*
X129055072Y-98870000D01*
X128935938Y-98271073D01*
X128596673Y-97763327D01*
X128352237Y-97600000D01*
X128596673Y-97436673D01*
X128935938Y-96928927D01*
X129055072Y-96330000D01*
X128935938Y-95731073D01*
X128596673Y-95223327D01*
X128352237Y-95060000D01*
X128596673Y-94896673D01*
X128935938Y-94388927D01*
X129055072Y-93790000D01*
X128935938Y-93191073D01*
X128596673Y-92683327D01*
X128588759Y-92678039D01*
X132212096Y-92678039D01*
X132372959Y-93066423D01*
X132748866Y-93481389D01*
X133254959Y-93720914D01*
X133477000Y-93599629D01*
X133477000Y-92456000D01*
X133731000Y-92456000D01*
X133731000Y-93599629D01*
X133953041Y-93720914D01*
X134459134Y-93481389D01*
X134835041Y-93066423D01*
X134995904Y-92678039D01*
X134873915Y-92456000D01*
X133731000Y-92456000D01*
X133477000Y-92456000D01*
X132334085Y-92456000D01*
X132212096Y-92678039D01*
X128588759Y-92678039D01*
X128352237Y-92520000D01*
X128596673Y-92356673D01*
X128848383Y-91979961D01*
X132212096Y-91979961D01*
X132334085Y-92202000D01*
X133477000Y-92202000D01*
X133477000Y-91058371D01*
X133731000Y-91058371D01*
X133731000Y-92202000D01*
X134873915Y-92202000D01*
X134995904Y-91979961D01*
X134835041Y-91591577D01*
X134459134Y-91176611D01*
X133953041Y-90937086D01*
X133731000Y-91058371D01*
X133477000Y-91058371D01*
X133254959Y-90937086D01*
X132748866Y-91176611D01*
X132372959Y-91591577D01*
X132212096Y-91979961D01*
X128848383Y-91979961D01*
X128935938Y-91848927D01*
X129055072Y-91250000D01*
X128935938Y-90651073D01*
X128596673Y-90143327D01*
X128352237Y-89980000D01*
X128596673Y-89816673D01*
X128935938Y-89308927D01*
X129055072Y-88710000D01*
X128935938Y-88111073D01*
X128596673Y-87603327D01*
X128352237Y-87440000D01*
X128596673Y-87276673D01*
X128935938Y-86768927D01*
X129055072Y-86170000D01*
X128935938Y-85571073D01*
X128596673Y-85063327D01*
X128088927Y-84724062D01*
X127641182Y-84635000D01*
X127338818Y-84635000D01*
X126891073Y-84724062D01*
X126697342Y-84853509D01*
X126697692Y-84074000D01*
X150997821Y-84074000D01*
X150998577Y-84757237D01*
G04 #@! TD*
M02*
