M48
;DRILL file {KiCad 5.0.2+dfsg1-1~bpo9+1} date Tue 18 Aug 2020 09:09:59 IST
;FORMAT={3:3/ absolute / metric / suppress leading zeros}
FMAT,2
METRIC,TZ
T1C0.800
T2C1.000
T3C1.016
%
G90
G05
T1
X133604Y-92329
X143764Y-92329
X131104Y-108331
X133604Y-108331
T2
X134620Y-99060
X134620Y-101600
X137160Y-99060
X137160Y-101600
X139700Y-99060
X139700Y-101600
X142240Y-99060
X142240Y-101600
T3
X150350Y-86170
X150350Y-88710
X150350Y-91250
X150350Y-93790
X150350Y-96330
X150350Y-98870
X150350Y-101410
X150350Y-103950
X127490Y-86170
X127490Y-88710
X127490Y-91250
X127490Y-93790
X127490Y-96330
X127490Y-98870
X127490Y-101410
X127490Y-103950
T0
M30
