G04 #@! TF.GenerationSoftware,KiCad,Pcbnew,5.0.2+dfsg1-1~bpo9+1*
G04 #@! TF.CreationDate,2020-08-17T14:39:57+01:00*
G04 #@! TF.ProjectId,t85opti,7438356f-7074-4692-9e6b-696361645f70,rev?*
G04 #@! TF.SameCoordinates,Original*
G04 #@! TF.FileFunction,Copper,L1,Top*
G04 #@! TF.FilePolarity,Positive*
%FSLAX46Y46*%
G04 Gerber Fmt 4.6, Leading zero omitted, Abs format (unit mm)*
G04 Created by KiCad (PCBNEW 5.0.2+dfsg1-1~bpo9+1) date Mon 17 Aug 2020 14:39:57 IST*
%MOMM*%
%LPD*%
G01*
G04 APERTURE LIST*
G04 #@! TA.AperFunction,ComponentPad*
%ADD10C,1.600000*%
G04 #@! TD*
G04 #@! TA.AperFunction,ComponentPad*
%ADD11O,1.600000X1.600000*%
G04 #@! TD*
G04 #@! TA.AperFunction,ComponentPad*
%ADD12C,2.000000*%
G04 #@! TD*
G04 #@! TA.AperFunction,ComponentPad*
%ADD13O,1.700000X1.700000*%
G04 #@! TD*
G04 #@! TA.AperFunction,ComponentPad*
%ADD14R,1.700000X1.700000*%
G04 #@! TD*
G04 #@! TA.AperFunction,ComponentPad*
%ADD15R,1.600000X1.600000*%
G04 #@! TD*
G04 #@! TA.AperFunction,Conductor*
%ADD16C,0.250000*%
G04 #@! TD*
G04 APERTURE END LIST*
D10*
G04 #@! TO.P,R1,1*
G04 #@! TO.N,VCC*
X140208000Y-54864000D03*
D11*
G04 #@! TO.P,R1,2*
G04 #@! TO.N,/RESET*
X130048000Y-54864000D03*
G04 #@! TD*
D12*
G04 #@! TO.P,SW1,2*
G04 #@! TO.N,GND*
X133858000Y-50601000D03*
G04 #@! TO.P,SW1,1*
G04 #@! TO.N,Net-(C2-Pad1)*
X133858000Y-46101000D03*
G04 #@! TO.P,SW1,2*
G04 #@! TO.N,GND*
X140358000Y-50601000D03*
G04 #@! TO.P,SW1,1*
G04 #@! TO.N,Net-(C2-Pad1)*
X140358000Y-46101000D03*
G04 #@! TD*
D10*
G04 #@! TO.P,C2,2*
G04 #@! TO.N,/RESET*
X128778000Y-50720000D03*
G04 #@! TO.P,C2,1*
G04 #@! TO.N,Net-(C2-Pad1)*
X128778000Y-45720000D03*
G04 #@! TD*
G04 #@! TO.P,C1,1*
G04 #@! TO.N,VCC*
X137668000Y-58928000D03*
G04 #@! TO.P,C1,2*
G04 #@! TO.N,GND*
X132668000Y-58928000D03*
G04 #@! TD*
D13*
G04 #@! TO.P,J3,4*
G04 #@! TO.N,GND*
X127508000Y-70612000D03*
G04 #@! TO.P,J3,3*
G04 #@! TO.N,Net-(J3-Pad3)*
X127508000Y-68072000D03*
G04 #@! TO.P,J3,2*
G04 #@! TO.N,Net-(J3-Pad2)*
X127508000Y-65532000D03*
D14*
G04 #@! TO.P,J3,1*
G04 #@! TO.N,/RESET*
X127508000Y-62992000D03*
G04 #@! TD*
G04 #@! TO.P,J2,1*
G04 #@! TO.N,VCC*
X141986000Y-62992000D03*
D13*
G04 #@! TO.P,J2,2*
G04 #@! TO.N,Net-(J2-Pad2)*
X141986000Y-65532000D03*
G04 #@! TO.P,J2,3*
G04 #@! TO.N,/TxD*
X141986000Y-68072000D03*
G04 #@! TO.P,J2,4*
G04 #@! TO.N,/RxD*
X141986000Y-70612000D03*
G04 #@! TD*
D14*
G04 #@! TO.P,J1,1*
G04 #@! TO.N,GND*
X141224000Y-41910000D03*
D13*
G04 #@! TO.P,J1,2*
X138684000Y-41910000D03*
G04 #@! TO.P,J1,3*
G04 #@! TO.N,VCC*
X136144000Y-41910000D03*
G04 #@! TO.P,J1,4*
G04 #@! TO.N,/TxD*
X133604000Y-41910000D03*
G04 #@! TO.P,J1,5*
G04 #@! TO.N,/RxD*
X131064000Y-41910000D03*
G04 #@! TO.P,J1,6*
G04 #@! TO.N,Net-(C2-Pad1)*
X128524000Y-41910000D03*
G04 #@! TD*
D15*
G04 #@! TO.P,U1,1*
G04 #@! TO.N,/RESET*
X131064000Y-62992000D03*
D11*
G04 #@! TO.P,U1,5*
G04 #@! TO.N,/RxD*
X138684000Y-70612000D03*
G04 #@! TO.P,U1,2*
G04 #@! TO.N,Net-(J3-Pad2)*
X131064000Y-65532000D03*
G04 #@! TO.P,U1,6*
G04 #@! TO.N,/TxD*
X138684000Y-68072000D03*
G04 #@! TO.P,U1,3*
G04 #@! TO.N,Net-(J3-Pad3)*
X131064000Y-68072000D03*
G04 #@! TO.P,U1,7*
G04 #@! TO.N,Net-(J2-Pad2)*
X138684000Y-65532000D03*
G04 #@! TO.P,U1,4*
G04 #@! TO.N,GND*
X131064000Y-70612000D03*
G04 #@! TO.P,U1,8*
G04 #@! TO.N,VCC*
X138684000Y-62992000D03*
G04 #@! TD*
D16*
G04 #@! TO.N,VCC*
X136144000Y-41910000D02*
X136144000Y-43085300D01*
X140208000Y-54864000D02*
X137319300Y-51975300D01*
X137319300Y-51975300D02*
X137319300Y-44260600D01*
X137319300Y-44260600D02*
X136144000Y-43085300D01*
G04 #@! TO.N,/RESET*
X130048000Y-54864000D02*
X130048000Y-55989300D01*
X130316600Y-61358700D02*
X128683300Y-62992000D01*
X131064000Y-61866700D02*
X130556000Y-61358700D01*
X130556000Y-61358700D02*
X130316600Y-61358700D01*
X130316600Y-61358700D02*
X130316600Y-56257900D01*
X130316600Y-56257900D02*
X130048000Y-55989300D01*
X127508000Y-62992000D02*
X128683300Y-62992000D01*
X131064000Y-62992000D02*
X131064000Y-61866700D01*
X130048000Y-54864000D02*
X130048000Y-53738700D01*
X130048000Y-53738700D02*
X128778000Y-52468700D01*
X128778000Y-52468700D02*
X128778000Y-50720000D01*
G04 #@! TO.N,/RxD*
X141986000Y-70612000D02*
X140810700Y-70612000D01*
X138684000Y-70049300D02*
X140248000Y-70049300D01*
X140248000Y-70049300D02*
X140810700Y-70612000D01*
X138684000Y-70049300D02*
X138684000Y-69486700D01*
X138684000Y-70612000D02*
X138684000Y-70049300D01*
X131064000Y-41910000D02*
X131064000Y-54117800D01*
X131064000Y-54117800D02*
X136080500Y-59134300D01*
X136080500Y-59134300D02*
X136080500Y-67164500D01*
X136080500Y-67164500D02*
X138402700Y-69486700D01*
X138402700Y-69486700D02*
X138684000Y-69486700D01*
G04 #@! TO.N,/TxD*
X133604000Y-41910000D02*
X133604000Y-43085300D01*
X138684000Y-68072000D02*
X138684000Y-66946700D01*
X138684000Y-66946700D02*
X138402600Y-66946700D01*
X138402600Y-66946700D02*
X136530900Y-65075000D01*
X136530900Y-65075000D02*
X136530900Y-46012200D01*
X136530900Y-46012200D02*
X133604000Y-43085300D01*
G04 #@! TO.N,GND*
X141224000Y-41910000D02*
X140048700Y-41910000D01*
X138684000Y-42497600D02*
X139461100Y-42497600D01*
X139461100Y-42497600D02*
X140048700Y-41910000D01*
X138684000Y-42497600D02*
X138684000Y-43085300D01*
X138684000Y-41910000D02*
X138684000Y-42497600D01*
X127508000Y-70612000D02*
X128683300Y-70612000D01*
X131064000Y-70049300D02*
X129246000Y-70049300D01*
X129246000Y-70049300D02*
X128683300Y-70612000D01*
X131064000Y-70049300D02*
X131064000Y-69486700D01*
X131064000Y-70612000D02*
X131064000Y-70049300D01*
X131064000Y-69486700D02*
X131345300Y-69486700D01*
X131345300Y-69486700D02*
X132668000Y-68164000D01*
X132668000Y-68164000D02*
X132668000Y-58928000D01*
X138684000Y-43085300D02*
X138684000Y-48927000D01*
X138684000Y-48927000D02*
X140358000Y-50601000D01*
G04 #@! TO.N,Net-(C2-Pad1)*
X128524000Y-41910000D02*
X128524000Y-45466000D01*
X128524000Y-45466000D02*
X128778000Y-45720000D01*
G04 #@! TD*
M02*
