M48
;DRILL file {KiCad 5.0.2+dfsg1-1~bpo9+1} date Mon 17 Aug 2020 14:40:01 IST
;FORMAT={3:3/ absolute / metric / suppress leading zeros}
FMAT,2
METRIC,TZ
T1C0.800
T2C1.000
T3C1.100
%
G90
G05
T1
X131064Y-62992
X131064Y-65532
X131064Y-68072
X131064Y-70612
X138684Y-62992
X138684Y-65532
X138684Y-68072
X138684Y-70612
X128778Y-45720
X128778Y-50720
X130048Y-54864
X140208Y-54864
X132668Y-58928
X137668Y-58928
T2
X127508Y-62992
X127508Y-65532
X127508Y-68072
X127508Y-70612
X128524Y-41910
X131064Y-41910
X133604Y-41910
X136144Y-41910
X138684Y-41910
X141224Y-41910
X141986Y-62992
X141986Y-65532
X141986Y-68072
X141986Y-70612
T3
X133858Y-46101
X133858Y-50601
X140358Y-46101
X140358Y-50601
T0
M30
