G04 #@! TF.GenerationSoftware,KiCad,Pcbnew,5.0.2+dfsg1-1~bpo9+1*
G04 #@! TF.CreationDate,2020-08-17T14:39:57+01:00*
G04 #@! TF.ProjectId,t85opti,7438356f-7074-4692-9e6b-696361645f70,rev?*
G04 #@! TF.SameCoordinates,Original*
G04 #@! TF.FileFunction,Soldermask,Top*
G04 #@! TF.FilePolarity,Negative*
%FSLAX46Y46*%
G04 Gerber Fmt 4.6, Leading zero omitted, Abs format (unit mm)*
G04 Created by KiCad (PCBNEW 5.0.2+dfsg1-1~bpo9+1) date Mon 17 Aug 2020 14:39:57 IST*
%MOMM*%
%LPD*%
G01*
G04 APERTURE LIST*
%ADD10C,0.100000*%
G04 APERTURE END LIST*
D10*
G36*
X142152630Y-69774299D02*
X142312855Y-69822903D01*
X142460520Y-69901831D01*
X142589949Y-70008051D01*
X142696169Y-70137480D01*
X142775097Y-70285145D01*
X142823701Y-70445370D01*
X142840112Y-70612000D01*
X142823701Y-70778630D01*
X142775097Y-70938855D01*
X142696169Y-71086520D01*
X142589949Y-71215949D01*
X142460520Y-71322169D01*
X142312855Y-71401097D01*
X142152630Y-71449701D01*
X142027752Y-71462000D01*
X141944248Y-71462000D01*
X141819370Y-71449701D01*
X141659145Y-71401097D01*
X141511480Y-71322169D01*
X141382051Y-71215949D01*
X141275831Y-71086520D01*
X141196903Y-70938855D01*
X141148299Y-70778630D01*
X141131888Y-70612000D01*
X141148299Y-70445370D01*
X141196903Y-70285145D01*
X141275831Y-70137480D01*
X141382051Y-70008051D01*
X141511480Y-69901831D01*
X141659145Y-69822903D01*
X141819370Y-69774299D01*
X141944248Y-69762000D01*
X142027752Y-69762000D01*
X142152630Y-69774299D01*
X142152630Y-69774299D01*
G37*
G36*
X127674630Y-69774299D02*
X127834855Y-69822903D01*
X127982520Y-69901831D01*
X128111949Y-70008051D01*
X128218169Y-70137480D01*
X128297097Y-70285145D01*
X128345701Y-70445370D01*
X128362112Y-70612000D01*
X128345701Y-70778630D01*
X128297097Y-70938855D01*
X128218169Y-71086520D01*
X128111949Y-71215949D01*
X127982520Y-71322169D01*
X127834855Y-71401097D01*
X127674630Y-71449701D01*
X127549752Y-71462000D01*
X127466248Y-71462000D01*
X127341370Y-71449701D01*
X127181145Y-71401097D01*
X127033480Y-71322169D01*
X126904051Y-71215949D01*
X126797831Y-71086520D01*
X126718903Y-70938855D01*
X126670299Y-70778630D01*
X126653888Y-70612000D01*
X126670299Y-70445370D01*
X126718903Y-70285145D01*
X126797831Y-70137480D01*
X126904051Y-70008051D01*
X127033480Y-69901831D01*
X127181145Y-69822903D01*
X127341370Y-69774299D01*
X127466248Y-69762000D01*
X127549752Y-69762000D01*
X127674630Y-69774299D01*
X127674630Y-69774299D01*
G37*
G36*
X138801649Y-69819717D02*
X138840827Y-69823576D01*
X138916228Y-69846449D01*
X138991629Y-69869321D01*
X139130608Y-69943608D01*
X139252422Y-70043578D01*
X139352392Y-70165392D01*
X139426679Y-70304371D01*
X139426679Y-70304372D01*
X139472424Y-70455173D01*
X139487870Y-70612000D01*
X139472424Y-70768827D01*
X139469450Y-70778630D01*
X139426679Y-70919629D01*
X139352392Y-71058608D01*
X139252422Y-71180422D01*
X139130608Y-71280392D01*
X138991629Y-71354679D01*
X138916228Y-71377551D01*
X138840827Y-71400424D01*
X138801649Y-71404283D01*
X138723295Y-71412000D01*
X138644705Y-71412000D01*
X138566351Y-71404283D01*
X138527173Y-71400424D01*
X138451772Y-71377551D01*
X138376371Y-71354679D01*
X138237392Y-71280392D01*
X138115578Y-71180422D01*
X138015608Y-71058608D01*
X137941321Y-70919629D01*
X137898550Y-70778630D01*
X137895576Y-70768827D01*
X137880130Y-70612000D01*
X137895576Y-70455173D01*
X137941321Y-70304372D01*
X137941321Y-70304371D01*
X138015608Y-70165392D01*
X138115578Y-70043578D01*
X138237392Y-69943608D01*
X138376371Y-69869321D01*
X138451772Y-69846449D01*
X138527173Y-69823576D01*
X138566351Y-69819717D01*
X138644705Y-69812000D01*
X138723295Y-69812000D01*
X138801649Y-69819717D01*
X138801649Y-69819717D01*
G37*
G36*
X131181649Y-69819717D02*
X131220827Y-69823576D01*
X131296228Y-69846449D01*
X131371629Y-69869321D01*
X131510608Y-69943608D01*
X131632422Y-70043578D01*
X131732392Y-70165392D01*
X131806679Y-70304371D01*
X131806679Y-70304372D01*
X131852424Y-70455173D01*
X131867870Y-70612000D01*
X131852424Y-70768827D01*
X131849450Y-70778630D01*
X131806679Y-70919629D01*
X131732392Y-71058608D01*
X131632422Y-71180422D01*
X131510608Y-71280392D01*
X131371629Y-71354679D01*
X131296228Y-71377551D01*
X131220827Y-71400424D01*
X131181649Y-71404283D01*
X131103295Y-71412000D01*
X131024705Y-71412000D01*
X130946351Y-71404283D01*
X130907173Y-71400424D01*
X130831772Y-71377551D01*
X130756371Y-71354679D01*
X130617392Y-71280392D01*
X130495578Y-71180422D01*
X130395608Y-71058608D01*
X130321321Y-70919629D01*
X130278550Y-70778630D01*
X130275576Y-70768827D01*
X130260130Y-70612000D01*
X130275576Y-70455173D01*
X130321321Y-70304372D01*
X130321321Y-70304371D01*
X130395608Y-70165392D01*
X130495578Y-70043578D01*
X130617392Y-69943608D01*
X130756371Y-69869321D01*
X130831772Y-69846449D01*
X130907173Y-69823576D01*
X130946351Y-69819717D01*
X131024705Y-69812000D01*
X131103295Y-69812000D01*
X131181649Y-69819717D01*
X131181649Y-69819717D01*
G37*
G36*
X127674630Y-67234299D02*
X127834855Y-67282903D01*
X127982520Y-67361831D01*
X128111949Y-67468051D01*
X128218169Y-67597480D01*
X128297097Y-67745145D01*
X128345701Y-67905370D01*
X128362112Y-68072000D01*
X128345701Y-68238630D01*
X128297097Y-68398855D01*
X128218169Y-68546520D01*
X128111949Y-68675949D01*
X127982520Y-68782169D01*
X127834855Y-68861097D01*
X127674630Y-68909701D01*
X127549752Y-68922000D01*
X127466248Y-68922000D01*
X127341370Y-68909701D01*
X127181145Y-68861097D01*
X127033480Y-68782169D01*
X126904051Y-68675949D01*
X126797831Y-68546520D01*
X126718903Y-68398855D01*
X126670299Y-68238630D01*
X126653888Y-68072000D01*
X126670299Y-67905370D01*
X126718903Y-67745145D01*
X126797831Y-67597480D01*
X126904051Y-67468051D01*
X127033480Y-67361831D01*
X127181145Y-67282903D01*
X127341370Y-67234299D01*
X127466248Y-67222000D01*
X127549752Y-67222000D01*
X127674630Y-67234299D01*
X127674630Y-67234299D01*
G37*
G36*
X142152630Y-67234299D02*
X142312855Y-67282903D01*
X142460520Y-67361831D01*
X142589949Y-67468051D01*
X142696169Y-67597480D01*
X142775097Y-67745145D01*
X142823701Y-67905370D01*
X142840112Y-68072000D01*
X142823701Y-68238630D01*
X142775097Y-68398855D01*
X142696169Y-68546520D01*
X142589949Y-68675949D01*
X142460520Y-68782169D01*
X142312855Y-68861097D01*
X142152630Y-68909701D01*
X142027752Y-68922000D01*
X141944248Y-68922000D01*
X141819370Y-68909701D01*
X141659145Y-68861097D01*
X141511480Y-68782169D01*
X141382051Y-68675949D01*
X141275831Y-68546520D01*
X141196903Y-68398855D01*
X141148299Y-68238630D01*
X141131888Y-68072000D01*
X141148299Y-67905370D01*
X141196903Y-67745145D01*
X141275831Y-67597480D01*
X141382051Y-67468051D01*
X141511480Y-67361831D01*
X141659145Y-67282903D01*
X141819370Y-67234299D01*
X141944248Y-67222000D01*
X142027752Y-67222000D01*
X142152630Y-67234299D01*
X142152630Y-67234299D01*
G37*
G36*
X131181649Y-67279717D02*
X131220827Y-67283576D01*
X131296227Y-67306448D01*
X131371629Y-67329321D01*
X131510608Y-67403608D01*
X131632422Y-67503578D01*
X131732392Y-67625392D01*
X131806679Y-67764371D01*
X131806679Y-67764372D01*
X131852424Y-67915173D01*
X131867870Y-68072000D01*
X131852424Y-68228827D01*
X131849450Y-68238630D01*
X131806679Y-68379629D01*
X131732392Y-68518608D01*
X131632422Y-68640422D01*
X131510608Y-68740392D01*
X131371629Y-68814679D01*
X131296228Y-68837551D01*
X131220827Y-68860424D01*
X131181649Y-68864283D01*
X131103295Y-68872000D01*
X131024705Y-68872000D01*
X130946351Y-68864283D01*
X130907173Y-68860424D01*
X130831773Y-68837552D01*
X130756371Y-68814679D01*
X130617392Y-68740392D01*
X130495578Y-68640422D01*
X130395608Y-68518608D01*
X130321321Y-68379629D01*
X130278550Y-68238630D01*
X130275576Y-68228827D01*
X130260130Y-68072000D01*
X130275576Y-67915173D01*
X130321321Y-67764372D01*
X130321321Y-67764371D01*
X130395608Y-67625392D01*
X130495578Y-67503578D01*
X130617392Y-67403608D01*
X130756371Y-67329321D01*
X130831773Y-67306448D01*
X130907173Y-67283576D01*
X130946351Y-67279717D01*
X131024705Y-67272000D01*
X131103295Y-67272000D01*
X131181649Y-67279717D01*
X131181649Y-67279717D01*
G37*
G36*
X138801649Y-67279717D02*
X138840827Y-67283576D01*
X138916227Y-67306448D01*
X138991629Y-67329321D01*
X139130608Y-67403608D01*
X139252422Y-67503578D01*
X139352392Y-67625392D01*
X139426679Y-67764371D01*
X139426679Y-67764372D01*
X139472424Y-67915173D01*
X139487870Y-68072000D01*
X139472424Y-68228827D01*
X139469450Y-68238630D01*
X139426679Y-68379629D01*
X139352392Y-68518608D01*
X139252422Y-68640422D01*
X139130608Y-68740392D01*
X138991629Y-68814679D01*
X138916228Y-68837551D01*
X138840827Y-68860424D01*
X138801649Y-68864283D01*
X138723295Y-68872000D01*
X138644705Y-68872000D01*
X138566351Y-68864283D01*
X138527173Y-68860424D01*
X138451773Y-68837552D01*
X138376371Y-68814679D01*
X138237392Y-68740392D01*
X138115578Y-68640422D01*
X138015608Y-68518608D01*
X137941321Y-68379629D01*
X137898550Y-68238630D01*
X137895576Y-68228827D01*
X137880130Y-68072000D01*
X137895576Y-67915173D01*
X137941321Y-67764372D01*
X137941321Y-67764371D01*
X138015608Y-67625392D01*
X138115578Y-67503578D01*
X138237392Y-67403608D01*
X138376371Y-67329321D01*
X138451773Y-67306448D01*
X138527173Y-67283576D01*
X138566351Y-67279717D01*
X138644705Y-67272000D01*
X138723295Y-67272000D01*
X138801649Y-67279717D01*
X138801649Y-67279717D01*
G37*
G36*
X127674630Y-64694299D02*
X127834855Y-64742903D01*
X127982520Y-64821831D01*
X128111949Y-64928051D01*
X128218169Y-65057480D01*
X128297097Y-65205145D01*
X128345701Y-65365370D01*
X128362112Y-65532000D01*
X128345701Y-65698630D01*
X128297097Y-65858855D01*
X128218169Y-66006520D01*
X128111949Y-66135949D01*
X127982520Y-66242169D01*
X127834855Y-66321097D01*
X127674630Y-66369701D01*
X127549752Y-66382000D01*
X127466248Y-66382000D01*
X127341370Y-66369701D01*
X127181145Y-66321097D01*
X127033480Y-66242169D01*
X126904051Y-66135949D01*
X126797831Y-66006520D01*
X126718903Y-65858855D01*
X126670299Y-65698630D01*
X126653888Y-65532000D01*
X126670299Y-65365370D01*
X126718903Y-65205145D01*
X126797831Y-65057480D01*
X126904051Y-64928051D01*
X127033480Y-64821831D01*
X127181145Y-64742903D01*
X127341370Y-64694299D01*
X127466248Y-64682000D01*
X127549752Y-64682000D01*
X127674630Y-64694299D01*
X127674630Y-64694299D01*
G37*
G36*
X142152630Y-64694299D02*
X142312855Y-64742903D01*
X142460520Y-64821831D01*
X142589949Y-64928051D01*
X142696169Y-65057480D01*
X142775097Y-65205145D01*
X142823701Y-65365370D01*
X142840112Y-65532000D01*
X142823701Y-65698630D01*
X142775097Y-65858855D01*
X142696169Y-66006520D01*
X142589949Y-66135949D01*
X142460520Y-66242169D01*
X142312855Y-66321097D01*
X142152630Y-66369701D01*
X142027752Y-66382000D01*
X141944248Y-66382000D01*
X141819370Y-66369701D01*
X141659145Y-66321097D01*
X141511480Y-66242169D01*
X141382051Y-66135949D01*
X141275831Y-66006520D01*
X141196903Y-65858855D01*
X141148299Y-65698630D01*
X141131888Y-65532000D01*
X141148299Y-65365370D01*
X141196903Y-65205145D01*
X141275831Y-65057480D01*
X141382051Y-64928051D01*
X141511480Y-64821831D01*
X141659145Y-64742903D01*
X141819370Y-64694299D01*
X141944248Y-64682000D01*
X142027752Y-64682000D01*
X142152630Y-64694299D01*
X142152630Y-64694299D01*
G37*
G36*
X138801649Y-64739717D02*
X138840827Y-64743576D01*
X138916227Y-64766448D01*
X138991629Y-64789321D01*
X139130608Y-64863608D01*
X139252422Y-64963578D01*
X139352392Y-65085392D01*
X139426679Y-65224371D01*
X139426679Y-65224372D01*
X139472424Y-65375173D01*
X139487870Y-65532000D01*
X139472424Y-65688827D01*
X139469450Y-65698630D01*
X139426679Y-65839629D01*
X139352392Y-65978608D01*
X139252422Y-66100422D01*
X139130608Y-66200392D01*
X138991629Y-66274679D01*
X138916228Y-66297551D01*
X138840827Y-66320424D01*
X138801649Y-66324283D01*
X138723295Y-66332000D01*
X138644705Y-66332000D01*
X138566351Y-66324283D01*
X138527173Y-66320424D01*
X138451772Y-66297551D01*
X138376371Y-66274679D01*
X138237392Y-66200392D01*
X138115578Y-66100422D01*
X138015608Y-65978608D01*
X137941321Y-65839629D01*
X137898550Y-65698630D01*
X137895576Y-65688827D01*
X137880130Y-65532000D01*
X137895576Y-65375173D01*
X137941321Y-65224372D01*
X137941321Y-65224371D01*
X138015608Y-65085392D01*
X138115578Y-64963578D01*
X138237392Y-64863608D01*
X138376371Y-64789321D01*
X138451772Y-64766449D01*
X138527173Y-64743576D01*
X138566351Y-64739717D01*
X138644705Y-64732000D01*
X138723295Y-64732000D01*
X138801649Y-64739717D01*
X138801649Y-64739717D01*
G37*
G36*
X131181649Y-64739717D02*
X131220827Y-64743576D01*
X131296227Y-64766448D01*
X131371629Y-64789321D01*
X131510608Y-64863608D01*
X131632422Y-64963578D01*
X131732392Y-65085392D01*
X131806679Y-65224371D01*
X131806679Y-65224372D01*
X131852424Y-65375173D01*
X131867870Y-65532000D01*
X131852424Y-65688827D01*
X131849450Y-65698630D01*
X131806679Y-65839629D01*
X131732392Y-65978608D01*
X131632422Y-66100422D01*
X131510608Y-66200392D01*
X131371629Y-66274679D01*
X131296228Y-66297551D01*
X131220827Y-66320424D01*
X131181649Y-66324283D01*
X131103295Y-66332000D01*
X131024705Y-66332000D01*
X130946351Y-66324283D01*
X130907173Y-66320424D01*
X130831772Y-66297551D01*
X130756371Y-66274679D01*
X130617392Y-66200392D01*
X130495578Y-66100422D01*
X130395608Y-65978608D01*
X130321321Y-65839629D01*
X130278550Y-65698630D01*
X130275576Y-65688827D01*
X130260130Y-65532000D01*
X130275576Y-65375173D01*
X130321321Y-65224372D01*
X130321321Y-65224371D01*
X130395608Y-65085392D01*
X130495578Y-64963578D01*
X130617392Y-64863608D01*
X130756371Y-64789321D01*
X130831772Y-64766449D01*
X130907173Y-64743576D01*
X130946351Y-64739717D01*
X131024705Y-64732000D01*
X131103295Y-64732000D01*
X131181649Y-64739717D01*
X131181649Y-64739717D01*
G37*
G36*
X128358000Y-63842000D02*
X126658000Y-63842000D01*
X126658000Y-62142000D01*
X128358000Y-62142000D01*
X128358000Y-63842000D01*
X128358000Y-63842000D01*
G37*
G36*
X142836000Y-63842000D02*
X141136000Y-63842000D01*
X141136000Y-62142000D01*
X142836000Y-62142000D01*
X142836000Y-63842000D01*
X142836000Y-63842000D01*
G37*
G36*
X131864000Y-63792000D02*
X130264000Y-63792000D01*
X130264000Y-62192000D01*
X131864000Y-62192000D01*
X131864000Y-63792000D01*
X131864000Y-63792000D01*
G37*
G36*
X138801649Y-62199717D02*
X138840827Y-62203576D01*
X138916227Y-62226448D01*
X138991629Y-62249321D01*
X139130608Y-62323608D01*
X139252422Y-62423578D01*
X139352392Y-62545392D01*
X139426679Y-62684371D01*
X139472424Y-62835174D01*
X139487870Y-62992000D01*
X139472424Y-63148826D01*
X139426679Y-63299629D01*
X139352392Y-63438608D01*
X139252422Y-63560422D01*
X139130608Y-63660392D01*
X138991629Y-63734679D01*
X138916228Y-63757551D01*
X138840827Y-63780424D01*
X138801649Y-63784283D01*
X138723295Y-63792000D01*
X138644705Y-63792000D01*
X138566351Y-63784283D01*
X138527173Y-63780424D01*
X138451772Y-63757551D01*
X138376371Y-63734679D01*
X138237392Y-63660392D01*
X138115578Y-63560422D01*
X138015608Y-63438608D01*
X137941321Y-63299629D01*
X137895576Y-63148826D01*
X137880130Y-62992000D01*
X137895576Y-62835174D01*
X137941321Y-62684371D01*
X138015608Y-62545392D01*
X138115578Y-62423578D01*
X138237392Y-62323608D01*
X138376371Y-62249321D01*
X138451773Y-62226448D01*
X138527173Y-62203576D01*
X138566351Y-62199717D01*
X138644705Y-62192000D01*
X138723295Y-62192000D01*
X138801649Y-62199717D01*
X138801649Y-62199717D01*
G37*
G36*
X132901352Y-58158743D02*
X133046941Y-58219048D01*
X133177973Y-58306601D01*
X133289399Y-58418027D01*
X133376952Y-58549059D01*
X133437257Y-58694648D01*
X133468000Y-58849205D01*
X133468000Y-59006795D01*
X133437257Y-59161352D01*
X133376952Y-59306941D01*
X133289399Y-59437973D01*
X133177973Y-59549399D01*
X133046941Y-59636952D01*
X132901352Y-59697257D01*
X132746795Y-59728000D01*
X132589205Y-59728000D01*
X132434648Y-59697257D01*
X132289059Y-59636952D01*
X132158027Y-59549399D01*
X132046601Y-59437973D01*
X131959048Y-59306941D01*
X131898743Y-59161352D01*
X131868000Y-59006795D01*
X131868000Y-58849205D01*
X131898743Y-58694648D01*
X131959048Y-58549059D01*
X132046601Y-58418027D01*
X132158027Y-58306601D01*
X132289059Y-58219048D01*
X132434648Y-58158743D01*
X132589205Y-58128000D01*
X132746795Y-58128000D01*
X132901352Y-58158743D01*
X132901352Y-58158743D01*
G37*
G36*
X137901352Y-58158743D02*
X138046941Y-58219048D01*
X138177973Y-58306601D01*
X138289399Y-58418027D01*
X138376952Y-58549059D01*
X138437257Y-58694648D01*
X138468000Y-58849205D01*
X138468000Y-59006795D01*
X138437257Y-59161352D01*
X138376952Y-59306941D01*
X138289399Y-59437973D01*
X138177973Y-59549399D01*
X138046941Y-59636952D01*
X137901352Y-59697257D01*
X137746795Y-59728000D01*
X137589205Y-59728000D01*
X137434648Y-59697257D01*
X137289059Y-59636952D01*
X137158027Y-59549399D01*
X137046601Y-59437973D01*
X136959048Y-59306941D01*
X136898743Y-59161352D01*
X136868000Y-59006795D01*
X136868000Y-58849205D01*
X136898743Y-58694648D01*
X136959048Y-58549059D01*
X137046601Y-58418027D01*
X137158027Y-58306601D01*
X137289059Y-58219048D01*
X137434648Y-58158743D01*
X137589205Y-58128000D01*
X137746795Y-58128000D01*
X137901352Y-58158743D01*
X137901352Y-58158743D01*
G37*
G36*
X130165649Y-54071717D02*
X130204827Y-54075576D01*
X130268012Y-54094743D01*
X130355629Y-54121321D01*
X130494608Y-54195608D01*
X130616422Y-54295578D01*
X130716392Y-54417392D01*
X130790679Y-54556371D01*
X130836424Y-54707174D01*
X130851870Y-54864000D01*
X130836424Y-55020826D01*
X130790679Y-55171629D01*
X130716392Y-55310608D01*
X130616422Y-55432422D01*
X130494608Y-55532392D01*
X130355629Y-55606679D01*
X130280227Y-55629552D01*
X130204827Y-55652424D01*
X130165649Y-55656283D01*
X130087295Y-55664000D01*
X130008705Y-55664000D01*
X129930351Y-55656283D01*
X129891173Y-55652424D01*
X129815772Y-55629551D01*
X129740371Y-55606679D01*
X129601392Y-55532392D01*
X129479578Y-55432422D01*
X129379608Y-55310608D01*
X129305321Y-55171629D01*
X129259576Y-55020826D01*
X129244130Y-54864000D01*
X129259576Y-54707174D01*
X129305321Y-54556371D01*
X129379608Y-54417392D01*
X129479578Y-54295578D01*
X129601392Y-54195608D01*
X129740371Y-54121321D01*
X129827988Y-54094743D01*
X129891173Y-54075576D01*
X129930351Y-54071717D01*
X130008705Y-54064000D01*
X130087295Y-54064000D01*
X130165649Y-54071717D01*
X130165649Y-54071717D01*
G37*
G36*
X140441352Y-54094743D02*
X140586941Y-54155048D01*
X140717973Y-54242601D01*
X140829399Y-54354027D01*
X140916952Y-54485059D01*
X140977257Y-54630648D01*
X141008000Y-54785205D01*
X141008000Y-54942795D01*
X140977257Y-55097352D01*
X140916952Y-55242941D01*
X140829399Y-55373973D01*
X140717973Y-55485399D01*
X140586941Y-55572952D01*
X140441352Y-55633257D01*
X140286795Y-55664000D01*
X140129205Y-55664000D01*
X139974648Y-55633257D01*
X139829059Y-55572952D01*
X139698027Y-55485399D01*
X139586601Y-55373973D01*
X139499048Y-55242941D01*
X139438743Y-55097352D01*
X139408000Y-54942795D01*
X139408000Y-54785205D01*
X139438743Y-54630648D01*
X139499048Y-54485059D01*
X139586601Y-54354027D01*
X139698027Y-54242601D01*
X139829059Y-54155048D01*
X139974648Y-54094743D01*
X140129205Y-54064000D01*
X140286795Y-54064000D01*
X140441352Y-54094743D01*
X140441352Y-54094743D01*
G37*
G36*
X140533770Y-49616372D02*
X140649689Y-49639429D01*
X140831678Y-49714811D01*
X140995463Y-49824249D01*
X141134751Y-49963537D01*
X141244189Y-50127322D01*
X141319571Y-50309311D01*
X141325886Y-50341059D01*
X141354846Y-50486649D01*
X141358000Y-50502509D01*
X141358000Y-50699491D01*
X141319571Y-50892689D01*
X141244189Y-51074678D01*
X141134751Y-51238463D01*
X140995463Y-51377751D01*
X140831678Y-51487189D01*
X140649689Y-51562571D01*
X140533770Y-51585628D01*
X140456493Y-51601000D01*
X140259507Y-51601000D01*
X140182230Y-51585628D01*
X140066311Y-51562571D01*
X139884322Y-51487189D01*
X139720537Y-51377751D01*
X139581249Y-51238463D01*
X139471811Y-51074678D01*
X139396429Y-50892689D01*
X139358000Y-50699491D01*
X139358000Y-50502509D01*
X139361155Y-50486649D01*
X139390114Y-50341059D01*
X139396429Y-50309311D01*
X139471811Y-50127322D01*
X139581249Y-49963537D01*
X139720537Y-49824249D01*
X139884322Y-49714811D01*
X140066311Y-49639429D01*
X140182230Y-49616372D01*
X140259507Y-49601000D01*
X140456493Y-49601000D01*
X140533770Y-49616372D01*
X140533770Y-49616372D01*
G37*
G36*
X134033770Y-49616372D02*
X134149689Y-49639429D01*
X134331678Y-49714811D01*
X134495463Y-49824249D01*
X134634751Y-49963537D01*
X134744189Y-50127322D01*
X134819571Y-50309311D01*
X134825886Y-50341059D01*
X134854846Y-50486649D01*
X134858000Y-50502509D01*
X134858000Y-50699491D01*
X134819571Y-50892689D01*
X134744189Y-51074678D01*
X134634751Y-51238463D01*
X134495463Y-51377751D01*
X134331678Y-51487189D01*
X134149689Y-51562571D01*
X134033770Y-51585628D01*
X133956493Y-51601000D01*
X133759507Y-51601000D01*
X133682230Y-51585628D01*
X133566311Y-51562571D01*
X133384322Y-51487189D01*
X133220537Y-51377751D01*
X133081249Y-51238463D01*
X132971811Y-51074678D01*
X132896429Y-50892689D01*
X132858000Y-50699491D01*
X132858000Y-50502509D01*
X132861155Y-50486649D01*
X132890114Y-50341059D01*
X132896429Y-50309311D01*
X132971811Y-50127322D01*
X133081249Y-49963537D01*
X133220537Y-49824249D01*
X133384322Y-49714811D01*
X133566311Y-49639429D01*
X133682230Y-49616372D01*
X133759507Y-49601000D01*
X133956493Y-49601000D01*
X134033770Y-49616372D01*
X134033770Y-49616372D01*
G37*
G36*
X129011352Y-49950743D02*
X129156941Y-50011048D01*
X129287973Y-50098601D01*
X129399399Y-50210027D01*
X129486952Y-50341059D01*
X129547257Y-50486648D01*
X129578000Y-50641205D01*
X129578000Y-50798795D01*
X129547257Y-50953352D01*
X129486952Y-51098941D01*
X129399399Y-51229973D01*
X129287973Y-51341399D01*
X129156941Y-51428952D01*
X129011352Y-51489257D01*
X128856795Y-51520000D01*
X128699205Y-51520000D01*
X128544648Y-51489257D01*
X128399059Y-51428952D01*
X128268027Y-51341399D01*
X128156601Y-51229973D01*
X128069048Y-51098941D01*
X128008743Y-50953352D01*
X127978000Y-50798795D01*
X127978000Y-50641205D01*
X128008743Y-50486648D01*
X128069048Y-50341059D01*
X128156601Y-50210027D01*
X128268027Y-50098601D01*
X128399059Y-50011048D01*
X128544648Y-49950743D01*
X128699205Y-49920000D01*
X128856795Y-49920000D01*
X129011352Y-49950743D01*
X129011352Y-49950743D01*
G37*
G36*
X134033770Y-45116372D02*
X134149689Y-45139429D01*
X134331678Y-45214811D01*
X134495463Y-45324249D01*
X134634751Y-45463537D01*
X134744189Y-45627322D01*
X134819571Y-45809311D01*
X134842628Y-45925230D01*
X134858000Y-46002507D01*
X134858000Y-46199493D01*
X134851937Y-46229973D01*
X134819571Y-46392689D01*
X134744189Y-46574678D01*
X134634751Y-46738463D01*
X134495463Y-46877751D01*
X134331678Y-46987189D01*
X134149689Y-47062571D01*
X134033770Y-47085628D01*
X133956493Y-47101000D01*
X133759507Y-47101000D01*
X133682230Y-47085628D01*
X133566311Y-47062571D01*
X133384322Y-46987189D01*
X133220537Y-46877751D01*
X133081249Y-46738463D01*
X132971811Y-46574678D01*
X132896429Y-46392689D01*
X132864063Y-46229973D01*
X132858000Y-46199493D01*
X132858000Y-46002507D01*
X132873372Y-45925230D01*
X132896429Y-45809311D01*
X132971811Y-45627322D01*
X133081249Y-45463537D01*
X133220537Y-45324249D01*
X133384322Y-45214811D01*
X133566311Y-45139429D01*
X133682230Y-45116372D01*
X133759507Y-45101000D01*
X133956493Y-45101000D01*
X134033770Y-45116372D01*
X134033770Y-45116372D01*
G37*
G36*
X140533770Y-45116372D02*
X140649689Y-45139429D01*
X140831678Y-45214811D01*
X140995463Y-45324249D01*
X141134751Y-45463537D01*
X141244189Y-45627322D01*
X141319571Y-45809311D01*
X141342628Y-45925230D01*
X141358000Y-46002507D01*
X141358000Y-46199493D01*
X141351937Y-46229973D01*
X141319571Y-46392689D01*
X141244189Y-46574678D01*
X141134751Y-46738463D01*
X140995463Y-46877751D01*
X140831678Y-46987189D01*
X140649689Y-47062571D01*
X140533770Y-47085628D01*
X140456493Y-47101000D01*
X140259507Y-47101000D01*
X140182230Y-47085628D01*
X140066311Y-47062571D01*
X139884322Y-46987189D01*
X139720537Y-46877751D01*
X139581249Y-46738463D01*
X139471811Y-46574678D01*
X139396429Y-46392689D01*
X139364063Y-46229973D01*
X139358000Y-46199493D01*
X139358000Y-46002507D01*
X139373372Y-45925230D01*
X139396429Y-45809311D01*
X139471811Y-45627322D01*
X139581249Y-45463537D01*
X139720537Y-45324249D01*
X139884322Y-45214811D01*
X140066311Y-45139429D01*
X140182230Y-45116372D01*
X140259507Y-45101000D01*
X140456493Y-45101000D01*
X140533770Y-45116372D01*
X140533770Y-45116372D01*
G37*
G36*
X129011352Y-44950743D02*
X129156941Y-45011048D01*
X129287973Y-45098601D01*
X129399399Y-45210027D01*
X129486952Y-45341059D01*
X129547257Y-45486648D01*
X129578000Y-45641205D01*
X129578000Y-45798795D01*
X129547257Y-45953352D01*
X129486952Y-46098941D01*
X129399399Y-46229973D01*
X129287973Y-46341399D01*
X129156941Y-46428952D01*
X129011352Y-46489257D01*
X128856795Y-46520000D01*
X128699205Y-46520000D01*
X128544648Y-46489257D01*
X128399059Y-46428952D01*
X128268027Y-46341399D01*
X128156601Y-46229973D01*
X128069048Y-46098941D01*
X128008743Y-45953352D01*
X127978000Y-45798795D01*
X127978000Y-45641205D01*
X128008743Y-45486648D01*
X128069048Y-45341059D01*
X128156601Y-45210027D01*
X128268027Y-45098601D01*
X128399059Y-45011048D01*
X128544648Y-44950743D01*
X128699205Y-44920000D01*
X128856795Y-44920000D01*
X129011352Y-44950743D01*
X129011352Y-44950743D01*
G37*
G36*
X131230630Y-41072299D02*
X131390855Y-41120903D01*
X131538520Y-41199831D01*
X131667949Y-41306051D01*
X131774169Y-41435480D01*
X131853097Y-41583145D01*
X131901701Y-41743370D01*
X131918112Y-41910000D01*
X131901701Y-42076630D01*
X131853097Y-42236855D01*
X131774169Y-42384520D01*
X131667949Y-42513949D01*
X131538520Y-42620169D01*
X131390855Y-42699097D01*
X131230630Y-42747701D01*
X131105752Y-42760000D01*
X131022248Y-42760000D01*
X130897370Y-42747701D01*
X130737145Y-42699097D01*
X130589480Y-42620169D01*
X130460051Y-42513949D01*
X130353831Y-42384520D01*
X130274903Y-42236855D01*
X130226299Y-42076630D01*
X130209888Y-41910000D01*
X130226299Y-41743370D01*
X130274903Y-41583145D01*
X130353831Y-41435480D01*
X130460051Y-41306051D01*
X130589480Y-41199831D01*
X130737145Y-41120903D01*
X130897370Y-41072299D01*
X131022248Y-41060000D01*
X131105752Y-41060000D01*
X131230630Y-41072299D01*
X131230630Y-41072299D01*
G37*
G36*
X142074000Y-42760000D02*
X140374000Y-42760000D01*
X140374000Y-41060000D01*
X142074000Y-41060000D01*
X142074000Y-42760000D01*
X142074000Y-42760000D01*
G37*
G36*
X138850630Y-41072299D02*
X139010855Y-41120903D01*
X139158520Y-41199831D01*
X139287949Y-41306051D01*
X139394169Y-41435480D01*
X139473097Y-41583145D01*
X139521701Y-41743370D01*
X139538112Y-41910000D01*
X139521701Y-42076630D01*
X139473097Y-42236855D01*
X139394169Y-42384520D01*
X139287949Y-42513949D01*
X139158520Y-42620169D01*
X139010855Y-42699097D01*
X138850630Y-42747701D01*
X138725752Y-42760000D01*
X138642248Y-42760000D01*
X138517370Y-42747701D01*
X138357145Y-42699097D01*
X138209480Y-42620169D01*
X138080051Y-42513949D01*
X137973831Y-42384520D01*
X137894903Y-42236855D01*
X137846299Y-42076630D01*
X137829888Y-41910000D01*
X137846299Y-41743370D01*
X137894903Y-41583145D01*
X137973831Y-41435480D01*
X138080051Y-41306051D01*
X138209480Y-41199831D01*
X138357145Y-41120903D01*
X138517370Y-41072299D01*
X138642248Y-41060000D01*
X138725752Y-41060000D01*
X138850630Y-41072299D01*
X138850630Y-41072299D01*
G37*
G36*
X136310630Y-41072299D02*
X136470855Y-41120903D01*
X136618520Y-41199831D01*
X136747949Y-41306051D01*
X136854169Y-41435480D01*
X136933097Y-41583145D01*
X136981701Y-41743370D01*
X136998112Y-41910000D01*
X136981701Y-42076630D01*
X136933097Y-42236855D01*
X136854169Y-42384520D01*
X136747949Y-42513949D01*
X136618520Y-42620169D01*
X136470855Y-42699097D01*
X136310630Y-42747701D01*
X136185752Y-42760000D01*
X136102248Y-42760000D01*
X135977370Y-42747701D01*
X135817145Y-42699097D01*
X135669480Y-42620169D01*
X135540051Y-42513949D01*
X135433831Y-42384520D01*
X135354903Y-42236855D01*
X135306299Y-42076630D01*
X135289888Y-41910000D01*
X135306299Y-41743370D01*
X135354903Y-41583145D01*
X135433831Y-41435480D01*
X135540051Y-41306051D01*
X135669480Y-41199831D01*
X135817145Y-41120903D01*
X135977370Y-41072299D01*
X136102248Y-41060000D01*
X136185752Y-41060000D01*
X136310630Y-41072299D01*
X136310630Y-41072299D01*
G37*
G36*
X133770630Y-41072299D02*
X133930855Y-41120903D01*
X134078520Y-41199831D01*
X134207949Y-41306051D01*
X134314169Y-41435480D01*
X134393097Y-41583145D01*
X134441701Y-41743370D01*
X134458112Y-41910000D01*
X134441701Y-42076630D01*
X134393097Y-42236855D01*
X134314169Y-42384520D01*
X134207949Y-42513949D01*
X134078520Y-42620169D01*
X133930855Y-42699097D01*
X133770630Y-42747701D01*
X133645752Y-42760000D01*
X133562248Y-42760000D01*
X133437370Y-42747701D01*
X133277145Y-42699097D01*
X133129480Y-42620169D01*
X133000051Y-42513949D01*
X132893831Y-42384520D01*
X132814903Y-42236855D01*
X132766299Y-42076630D01*
X132749888Y-41910000D01*
X132766299Y-41743370D01*
X132814903Y-41583145D01*
X132893831Y-41435480D01*
X133000051Y-41306051D01*
X133129480Y-41199831D01*
X133277145Y-41120903D01*
X133437370Y-41072299D01*
X133562248Y-41060000D01*
X133645752Y-41060000D01*
X133770630Y-41072299D01*
X133770630Y-41072299D01*
G37*
G36*
X128690630Y-41072299D02*
X128850855Y-41120903D01*
X128998520Y-41199831D01*
X129127949Y-41306051D01*
X129234169Y-41435480D01*
X129313097Y-41583145D01*
X129361701Y-41743370D01*
X129378112Y-41910000D01*
X129361701Y-42076630D01*
X129313097Y-42236855D01*
X129234169Y-42384520D01*
X129127949Y-42513949D01*
X128998520Y-42620169D01*
X128850855Y-42699097D01*
X128690630Y-42747701D01*
X128565752Y-42760000D01*
X128482248Y-42760000D01*
X128357370Y-42747701D01*
X128197145Y-42699097D01*
X128049480Y-42620169D01*
X127920051Y-42513949D01*
X127813831Y-42384520D01*
X127734903Y-42236855D01*
X127686299Y-42076630D01*
X127669888Y-41910000D01*
X127686299Y-41743370D01*
X127734903Y-41583145D01*
X127813831Y-41435480D01*
X127920051Y-41306051D01*
X128049480Y-41199831D01*
X128197145Y-41120903D01*
X128357370Y-41072299D01*
X128482248Y-41060000D01*
X128565752Y-41060000D01*
X128690630Y-41072299D01*
X128690630Y-41072299D01*
G37*
M02*
