G04 #@! TF.GenerationSoftware,KiCad,Pcbnew,5.0.2+dfsg1-1~bpo9+1*
G04 #@! TF.CreationDate,2020-08-17T14:39:57+01:00*
G04 #@! TF.ProjectId,t85opti,7438356f-7074-4692-9e6b-696361645f70,rev?*
G04 #@! TF.SameCoordinates,Original*
G04 #@! TF.FileFunction,Copper,L2,Bot*
G04 #@! TF.FilePolarity,Positive*
%FSLAX46Y46*%
G04 Gerber Fmt 4.6, Leading zero omitted, Abs format (unit mm)*
G04 Created by KiCad (PCBNEW 5.0.2+dfsg1-1~bpo9+1) date Mon 17 Aug 2020 14:39:57 IST*
%MOMM*%
%LPD*%
G01*
G04 APERTURE LIST*
G04 #@! TA.AperFunction,ComponentPad*
%ADD10C,1.600000*%
G04 #@! TD*
G04 #@! TA.AperFunction,ComponentPad*
%ADD11O,1.600000X1.600000*%
G04 #@! TD*
G04 #@! TA.AperFunction,ComponentPad*
%ADD12C,2.000000*%
G04 #@! TD*
G04 #@! TA.AperFunction,ComponentPad*
%ADD13O,1.700000X1.700000*%
G04 #@! TD*
G04 #@! TA.AperFunction,ComponentPad*
%ADD14R,1.700000X1.700000*%
G04 #@! TD*
G04 #@! TA.AperFunction,ComponentPad*
%ADD15R,1.600000X1.600000*%
G04 #@! TD*
G04 #@! TA.AperFunction,Conductor*
%ADD16C,0.250000*%
G04 #@! TD*
G04 #@! TA.AperFunction,Conductor*
%ADD17C,0.254000*%
G04 #@! TD*
G04 APERTURE END LIST*
D10*
G04 #@! TO.P,R1,1*
G04 #@! TO.N,VCC*
X140208000Y-54864000D03*
D11*
G04 #@! TO.P,R1,2*
G04 #@! TO.N,/RESET*
X130048000Y-54864000D03*
G04 #@! TD*
D12*
G04 #@! TO.P,SW1,2*
G04 #@! TO.N,GND*
X133858000Y-50601000D03*
G04 #@! TO.P,SW1,1*
G04 #@! TO.N,Net-(C2-Pad1)*
X133858000Y-46101000D03*
G04 #@! TO.P,SW1,2*
G04 #@! TO.N,GND*
X140358000Y-50601000D03*
G04 #@! TO.P,SW1,1*
G04 #@! TO.N,Net-(C2-Pad1)*
X140358000Y-46101000D03*
G04 #@! TD*
D10*
G04 #@! TO.P,C2,2*
G04 #@! TO.N,/RESET*
X128778000Y-50720000D03*
G04 #@! TO.P,C2,1*
G04 #@! TO.N,Net-(C2-Pad1)*
X128778000Y-45720000D03*
G04 #@! TD*
G04 #@! TO.P,C1,1*
G04 #@! TO.N,VCC*
X137668000Y-58928000D03*
G04 #@! TO.P,C1,2*
G04 #@! TO.N,GND*
X132668000Y-58928000D03*
G04 #@! TD*
D13*
G04 #@! TO.P,J3,4*
G04 #@! TO.N,GND*
X127508000Y-70612000D03*
G04 #@! TO.P,J3,3*
G04 #@! TO.N,Net-(J3-Pad3)*
X127508000Y-68072000D03*
G04 #@! TO.P,J3,2*
G04 #@! TO.N,Net-(J3-Pad2)*
X127508000Y-65532000D03*
D14*
G04 #@! TO.P,J3,1*
G04 #@! TO.N,/RESET*
X127508000Y-62992000D03*
G04 #@! TD*
G04 #@! TO.P,J2,1*
G04 #@! TO.N,VCC*
X141986000Y-62992000D03*
D13*
G04 #@! TO.P,J2,2*
G04 #@! TO.N,Net-(J2-Pad2)*
X141986000Y-65532000D03*
G04 #@! TO.P,J2,3*
G04 #@! TO.N,/TxD*
X141986000Y-68072000D03*
G04 #@! TO.P,J2,4*
G04 #@! TO.N,/RxD*
X141986000Y-70612000D03*
G04 #@! TD*
D14*
G04 #@! TO.P,J1,1*
G04 #@! TO.N,GND*
X141224000Y-41910000D03*
D13*
G04 #@! TO.P,J1,2*
X138684000Y-41910000D03*
G04 #@! TO.P,J1,3*
G04 #@! TO.N,VCC*
X136144000Y-41910000D03*
G04 #@! TO.P,J1,4*
G04 #@! TO.N,/TxD*
X133604000Y-41910000D03*
G04 #@! TO.P,J1,5*
G04 #@! TO.N,/RxD*
X131064000Y-41910000D03*
G04 #@! TO.P,J1,6*
G04 #@! TO.N,Net-(C2-Pad1)*
X128524000Y-41910000D03*
G04 #@! TD*
D15*
G04 #@! TO.P,U1,1*
G04 #@! TO.N,/RESET*
X131064000Y-62992000D03*
D11*
G04 #@! TO.P,U1,5*
G04 #@! TO.N,/RxD*
X138684000Y-70612000D03*
G04 #@! TO.P,U1,2*
G04 #@! TO.N,Net-(J3-Pad2)*
X131064000Y-65532000D03*
G04 #@! TO.P,U1,6*
G04 #@! TO.N,/TxD*
X138684000Y-68072000D03*
G04 #@! TO.P,U1,3*
G04 #@! TO.N,Net-(J3-Pad3)*
X131064000Y-68072000D03*
G04 #@! TO.P,U1,7*
G04 #@! TO.N,Net-(J2-Pad2)*
X138684000Y-65532000D03*
G04 #@! TO.P,U1,4*
G04 #@! TO.N,GND*
X131064000Y-70612000D03*
G04 #@! TO.P,U1,8*
G04 #@! TO.N,VCC*
X138684000Y-62992000D03*
G04 #@! TD*
D16*
G04 #@! TO.N,VCC*
X138684000Y-62992000D02*
X140810700Y-62992000D01*
X141986000Y-62992000D02*
X140810700Y-62992000D01*
X138684000Y-62992000D02*
X138684000Y-59944000D01*
X138684000Y-59944000D02*
X137668000Y-58928000D01*
X140208000Y-54864000D02*
X137668000Y-57404000D01*
X137668000Y-57404000D02*
X137668000Y-58928000D01*
G04 #@! TO.N,Net-(J3-Pad2)*
X131064000Y-65532000D02*
X127508000Y-65532000D01*
G04 #@! TO.N,/TxD*
X138684000Y-68072000D02*
X141986000Y-68072000D01*
G04 #@! TO.N,Net-(J3-Pad3)*
X131064000Y-68072000D02*
X127508000Y-68072000D01*
G04 #@! TO.N,Net-(J2-Pad2)*
X138684000Y-65532000D02*
X141986000Y-65532000D01*
G04 #@! TO.N,GND*
X140358000Y-50601000D02*
X133858000Y-50601000D01*
X132668000Y-58928000D02*
X133858000Y-57738000D01*
X133858000Y-57738000D02*
X133858000Y-50601000D01*
G04 #@! TO.N,Net-(C2-Pad1)*
X128778000Y-45720000D02*
X133477000Y-45720000D01*
X133477000Y-45720000D02*
X133858000Y-46101000D01*
X140358000Y-46101000D02*
X133858000Y-46101000D01*
G04 #@! TD*
D17*
G04 #@! TO.N,GND*
G36*
X127453375Y-40839375D02*
X127125161Y-41330582D01*
X127009908Y-41910000D01*
X127125161Y-42489418D01*
X127453375Y-42980625D01*
X127944582Y-43308839D01*
X128377744Y-43395000D01*
X128670256Y-43395000D01*
X129103418Y-43308839D01*
X129594625Y-42980625D01*
X129794000Y-42682239D01*
X129993375Y-42980625D01*
X130484582Y-43308839D01*
X130917744Y-43395000D01*
X131210256Y-43395000D01*
X131643418Y-43308839D01*
X132134625Y-42980625D01*
X132334000Y-42682239D01*
X132533375Y-42980625D01*
X133024582Y-43308839D01*
X133457744Y-43395000D01*
X133750256Y-43395000D01*
X134183418Y-43308839D01*
X134674625Y-42980625D01*
X134874000Y-42682239D01*
X135073375Y-42980625D01*
X135564582Y-43308839D01*
X135997744Y-43395000D01*
X136290256Y-43395000D01*
X136723418Y-43308839D01*
X137214625Y-42980625D01*
X137427843Y-42661522D01*
X137488817Y-42791358D01*
X137917076Y-43181645D01*
X138327110Y-43351476D01*
X138557000Y-43230155D01*
X138557000Y-42037000D01*
X138811000Y-42037000D01*
X138811000Y-43230155D01*
X139040890Y-43351476D01*
X139450924Y-43181645D01*
X139748864Y-42910122D01*
X139835673Y-43119698D01*
X140014301Y-43298327D01*
X140247690Y-43395000D01*
X140938250Y-43395000D01*
X141097000Y-43236250D01*
X141097000Y-42037000D01*
X141351000Y-42037000D01*
X141351000Y-43236250D01*
X141509750Y-43395000D01*
X142200310Y-43395000D01*
X142433699Y-43298327D01*
X142612327Y-43119698D01*
X142709000Y-42886309D01*
X142709000Y-42195750D01*
X142550250Y-42037000D01*
X141351000Y-42037000D01*
X141097000Y-42037000D01*
X138811000Y-42037000D01*
X138557000Y-42037000D01*
X138537000Y-42037000D01*
X138537000Y-41783000D01*
X138557000Y-41783000D01*
X138557000Y-41763000D01*
X138811000Y-41763000D01*
X138811000Y-41783000D01*
X141097000Y-41783000D01*
X141097000Y-41763000D01*
X141351000Y-41763000D01*
X141351000Y-41783000D01*
X142550250Y-41783000D01*
X142709000Y-41624250D01*
X142709000Y-40933691D01*
X142612327Y-40700302D01*
X142602025Y-40690000D01*
X143333001Y-40690000D01*
X143333000Y-61742845D01*
X143293809Y-61684191D01*
X143083765Y-61543843D01*
X142836000Y-61494560D01*
X141136000Y-61494560D01*
X140888235Y-61543843D01*
X140678191Y-61684191D01*
X140537843Y-61894235D01*
X140488560Y-62142000D01*
X140488560Y-62232000D01*
X139902043Y-62232000D01*
X139718577Y-61957423D01*
X139444000Y-61773957D01*
X139444000Y-60018847D01*
X139458888Y-59944000D01*
X139444000Y-59869153D01*
X139444000Y-59869148D01*
X139399904Y-59647463D01*
X139231929Y-59396071D01*
X139168473Y-59353671D01*
X139081104Y-59266302D01*
X139103000Y-59213439D01*
X139103000Y-58642561D01*
X138884534Y-58115138D01*
X138480862Y-57711466D01*
X138448670Y-57698132D01*
X139869699Y-56277104D01*
X139922561Y-56299000D01*
X140493439Y-56299000D01*
X141020862Y-56080534D01*
X141424534Y-55676862D01*
X141643000Y-55149439D01*
X141643000Y-54578561D01*
X141424534Y-54051138D01*
X141020862Y-53647466D01*
X140493439Y-53429000D01*
X139922561Y-53429000D01*
X139395138Y-53647466D01*
X138991466Y-54051138D01*
X138773000Y-54578561D01*
X138773000Y-55149439D01*
X138794896Y-55202301D01*
X137183530Y-56813669D01*
X137120071Y-56856071D01*
X136952096Y-57107464D01*
X136908000Y-57329149D01*
X136908000Y-57329153D01*
X136893112Y-57404000D01*
X136908000Y-57478847D01*
X136908000Y-57689570D01*
X136855138Y-57711466D01*
X136451466Y-58115138D01*
X136233000Y-58642561D01*
X136233000Y-59213439D01*
X136451466Y-59740862D01*
X136855138Y-60144534D01*
X137382561Y-60363000D01*
X137924001Y-60363000D01*
X137924000Y-61773956D01*
X137649423Y-61957423D01*
X137332260Y-62432091D01*
X137220887Y-62992000D01*
X137332260Y-63551909D01*
X137649423Y-64026577D01*
X138001758Y-64262000D01*
X137649423Y-64497423D01*
X137332260Y-64972091D01*
X137220887Y-65532000D01*
X137332260Y-66091909D01*
X137649423Y-66566577D01*
X138001758Y-66802000D01*
X137649423Y-67037423D01*
X137332260Y-67512091D01*
X137220887Y-68072000D01*
X137332260Y-68631909D01*
X137649423Y-69106577D01*
X138001758Y-69342000D01*
X137649423Y-69577423D01*
X137332260Y-70052091D01*
X137220887Y-70612000D01*
X137332260Y-71171909D01*
X137649423Y-71646577D01*
X137926928Y-71832000D01*
X131776279Y-71832000D01*
X131919134Y-71764389D01*
X132295041Y-71349423D01*
X132455904Y-70961039D01*
X132333915Y-70739000D01*
X131191000Y-70739000D01*
X131191000Y-70759000D01*
X130937000Y-70759000D01*
X130937000Y-70739000D01*
X129794085Y-70739000D01*
X129672096Y-70961039D01*
X129832959Y-71349423D01*
X130208866Y-71764389D01*
X130351721Y-71832000D01*
X128336514Y-71832000D01*
X128389358Y-71807183D01*
X128779645Y-71378924D01*
X128949476Y-70968890D01*
X128828155Y-70739000D01*
X127635000Y-70739000D01*
X127635000Y-70759000D01*
X127381000Y-70759000D01*
X127381000Y-70739000D01*
X127361000Y-70739000D01*
X127361000Y-70485000D01*
X127381000Y-70485000D01*
X127381000Y-70465000D01*
X127635000Y-70465000D01*
X127635000Y-70485000D01*
X128828155Y-70485000D01*
X128949476Y-70255110D01*
X128779645Y-69845076D01*
X128389358Y-69416817D01*
X128259522Y-69355843D01*
X128578625Y-69142625D01*
X128786178Y-68832000D01*
X129845957Y-68832000D01*
X130029423Y-69106577D01*
X130413108Y-69362947D01*
X130208866Y-69459611D01*
X129832959Y-69874577D01*
X129672096Y-70262961D01*
X129794085Y-70485000D01*
X130937000Y-70485000D01*
X130937000Y-70465000D01*
X131191000Y-70465000D01*
X131191000Y-70485000D01*
X132333915Y-70485000D01*
X132455904Y-70262961D01*
X132295041Y-69874577D01*
X131919134Y-69459611D01*
X131714892Y-69362947D01*
X132098577Y-69106577D01*
X132415740Y-68631909D01*
X132527113Y-68072000D01*
X132415740Y-67512091D01*
X132098577Y-67037423D01*
X131746242Y-66802000D01*
X132098577Y-66566577D01*
X132415740Y-66091909D01*
X132527113Y-65532000D01*
X132415740Y-64972091D01*
X132098577Y-64497423D01*
X131977894Y-64416785D01*
X132111765Y-64390157D01*
X132321809Y-64249809D01*
X132462157Y-64039765D01*
X132511440Y-63792000D01*
X132511440Y-62192000D01*
X132462157Y-61944235D01*
X132321809Y-61734191D01*
X132111765Y-61593843D01*
X131864000Y-61544560D01*
X130264000Y-61544560D01*
X130016235Y-61593843D01*
X129806191Y-61734191D01*
X129665843Y-61944235D01*
X129616560Y-62192000D01*
X129616560Y-63792000D01*
X129665843Y-64039765D01*
X129806191Y-64249809D01*
X130016235Y-64390157D01*
X130150106Y-64416785D01*
X130029423Y-64497423D01*
X129845957Y-64772000D01*
X128786178Y-64772000D01*
X128578625Y-64461375D01*
X128560381Y-64449184D01*
X128605765Y-64440157D01*
X128815809Y-64299809D01*
X128956157Y-64089765D01*
X129005440Y-63842000D01*
X129005440Y-62142000D01*
X128956157Y-61894235D01*
X128815809Y-61684191D01*
X128605765Y-61543843D01*
X128358000Y-61494560D01*
X126658000Y-61494560D01*
X126410235Y-61543843D01*
X126330661Y-61597013D01*
X126337149Y-59935745D01*
X131839861Y-59935745D01*
X131913995Y-60181864D01*
X132451223Y-60374965D01*
X133021454Y-60347778D01*
X133422005Y-60181864D01*
X133496139Y-59935745D01*
X132668000Y-59107605D01*
X131839861Y-59935745D01*
X126337149Y-59935745D01*
X126341933Y-58711223D01*
X131221035Y-58711223D01*
X131248222Y-59281454D01*
X131414136Y-59682005D01*
X131660255Y-59756139D01*
X132488395Y-58928000D01*
X132847605Y-58928000D01*
X133675745Y-59756139D01*
X133921864Y-59682005D01*
X134114965Y-59144777D01*
X134087778Y-58574546D01*
X133921864Y-58173995D01*
X133675745Y-58099861D01*
X132847605Y-58928000D01*
X132488395Y-58928000D01*
X131660255Y-58099861D01*
X131414136Y-58173995D01*
X131221035Y-58711223D01*
X126341933Y-58711223D01*
X126345022Y-57920255D01*
X131839861Y-57920255D01*
X132668000Y-58748395D01*
X133496139Y-57920255D01*
X133422005Y-57674136D01*
X132884777Y-57481035D01*
X132314546Y-57508222D01*
X131913995Y-57674136D01*
X131839861Y-57920255D01*
X126345022Y-57920255D01*
X126356961Y-54864000D01*
X128584887Y-54864000D01*
X128696260Y-55423909D01*
X129013423Y-55898577D01*
X129488091Y-56215740D01*
X129906667Y-56299000D01*
X130189333Y-56299000D01*
X130607909Y-56215740D01*
X131082577Y-55898577D01*
X131399740Y-55423909D01*
X131511113Y-54864000D01*
X131399740Y-54304091D01*
X131082577Y-53829423D01*
X130607909Y-53512260D01*
X130189333Y-53429000D01*
X129906667Y-53429000D01*
X129488091Y-53512260D01*
X129013423Y-53829423D01*
X128696260Y-54304091D01*
X128584887Y-54864000D01*
X126356961Y-54864000D01*
X126374264Y-50434561D01*
X127343000Y-50434561D01*
X127343000Y-51005439D01*
X127561466Y-51532862D01*
X127965138Y-51936534D01*
X128492561Y-52155000D01*
X129063439Y-52155000D01*
X129590862Y-51936534D01*
X129773864Y-51753532D01*
X132885073Y-51753532D01*
X132983736Y-52020387D01*
X133593461Y-52246908D01*
X134243460Y-52222856D01*
X134732264Y-52020387D01*
X134830927Y-51753532D01*
X139385073Y-51753532D01*
X139483736Y-52020387D01*
X140093461Y-52246908D01*
X140743460Y-52222856D01*
X141232264Y-52020387D01*
X141330927Y-51753532D01*
X140358000Y-50780605D01*
X139385073Y-51753532D01*
X134830927Y-51753532D01*
X133858000Y-50780605D01*
X132885073Y-51753532D01*
X129773864Y-51753532D01*
X129994534Y-51532862D01*
X130213000Y-51005439D01*
X130213000Y-50434561D01*
X130172366Y-50336461D01*
X132212092Y-50336461D01*
X132236144Y-50986460D01*
X132438613Y-51475264D01*
X132705468Y-51573927D01*
X133678395Y-50601000D01*
X134037605Y-50601000D01*
X135010532Y-51573927D01*
X135277387Y-51475264D01*
X135503908Y-50865539D01*
X135484331Y-50336461D01*
X138712092Y-50336461D01*
X138736144Y-50986460D01*
X138938613Y-51475264D01*
X139205468Y-51573927D01*
X140178395Y-50601000D01*
X140537605Y-50601000D01*
X141510532Y-51573927D01*
X141777387Y-51475264D01*
X142003908Y-50865539D01*
X141979856Y-50215540D01*
X141777387Y-49726736D01*
X141510532Y-49628073D01*
X140537605Y-50601000D01*
X140178395Y-50601000D01*
X139205468Y-49628073D01*
X138938613Y-49726736D01*
X138712092Y-50336461D01*
X135484331Y-50336461D01*
X135479856Y-50215540D01*
X135277387Y-49726736D01*
X135010532Y-49628073D01*
X134037605Y-50601000D01*
X133678395Y-50601000D01*
X132705468Y-49628073D01*
X132438613Y-49726736D01*
X132212092Y-50336461D01*
X130172366Y-50336461D01*
X129994534Y-49907138D01*
X129590862Y-49503466D01*
X129458086Y-49448468D01*
X132885073Y-49448468D01*
X133858000Y-50421395D01*
X134830927Y-49448468D01*
X139385073Y-49448468D01*
X140358000Y-50421395D01*
X141330927Y-49448468D01*
X141232264Y-49181613D01*
X140622539Y-48955092D01*
X139972540Y-48979144D01*
X139483736Y-49181613D01*
X139385073Y-49448468D01*
X134830927Y-49448468D01*
X134732264Y-49181613D01*
X134122539Y-48955092D01*
X133472540Y-48979144D01*
X132983736Y-49181613D01*
X132885073Y-49448468D01*
X129458086Y-49448468D01*
X129063439Y-49285000D01*
X128492561Y-49285000D01*
X127965138Y-49503466D01*
X127561466Y-49907138D01*
X127343000Y-50434561D01*
X126374264Y-50434561D01*
X126393795Y-45434561D01*
X127343000Y-45434561D01*
X127343000Y-46005439D01*
X127561466Y-46532862D01*
X127965138Y-46936534D01*
X128492561Y-47155000D01*
X129063439Y-47155000D01*
X129590862Y-46936534D01*
X129994534Y-46532862D01*
X130016430Y-46480000D01*
X132245276Y-46480000D01*
X132471914Y-47027153D01*
X132931847Y-47487086D01*
X133532778Y-47736000D01*
X134183222Y-47736000D01*
X134784153Y-47487086D01*
X135244086Y-47027153D01*
X135312909Y-46861000D01*
X138903091Y-46861000D01*
X138971914Y-47027153D01*
X139431847Y-47487086D01*
X140032778Y-47736000D01*
X140683222Y-47736000D01*
X141284153Y-47487086D01*
X141744086Y-47027153D01*
X141993000Y-46426222D01*
X141993000Y-45775778D01*
X141744086Y-45174847D01*
X141284153Y-44714914D01*
X140683222Y-44466000D01*
X140032778Y-44466000D01*
X139431847Y-44714914D01*
X138971914Y-45174847D01*
X138903091Y-45341000D01*
X135312909Y-45341000D01*
X135244086Y-45174847D01*
X134784153Y-44714914D01*
X134183222Y-44466000D01*
X133532778Y-44466000D01*
X132931847Y-44714914D01*
X132686761Y-44960000D01*
X130016430Y-44960000D01*
X129994534Y-44907138D01*
X129590862Y-44503466D01*
X129063439Y-44285000D01*
X128492561Y-44285000D01*
X127965138Y-44503466D01*
X127561466Y-44907138D01*
X127343000Y-45434561D01*
X126393795Y-45434561D01*
X126412329Y-40690000D01*
X127676931Y-40690000D01*
X127453375Y-40839375D01*
X127453375Y-40839375D01*
G37*
X127453375Y-40839375D02*
X127125161Y-41330582D01*
X127009908Y-41910000D01*
X127125161Y-42489418D01*
X127453375Y-42980625D01*
X127944582Y-43308839D01*
X128377744Y-43395000D01*
X128670256Y-43395000D01*
X129103418Y-43308839D01*
X129594625Y-42980625D01*
X129794000Y-42682239D01*
X129993375Y-42980625D01*
X130484582Y-43308839D01*
X130917744Y-43395000D01*
X131210256Y-43395000D01*
X131643418Y-43308839D01*
X132134625Y-42980625D01*
X132334000Y-42682239D01*
X132533375Y-42980625D01*
X133024582Y-43308839D01*
X133457744Y-43395000D01*
X133750256Y-43395000D01*
X134183418Y-43308839D01*
X134674625Y-42980625D01*
X134874000Y-42682239D01*
X135073375Y-42980625D01*
X135564582Y-43308839D01*
X135997744Y-43395000D01*
X136290256Y-43395000D01*
X136723418Y-43308839D01*
X137214625Y-42980625D01*
X137427843Y-42661522D01*
X137488817Y-42791358D01*
X137917076Y-43181645D01*
X138327110Y-43351476D01*
X138557000Y-43230155D01*
X138557000Y-42037000D01*
X138811000Y-42037000D01*
X138811000Y-43230155D01*
X139040890Y-43351476D01*
X139450924Y-43181645D01*
X139748864Y-42910122D01*
X139835673Y-43119698D01*
X140014301Y-43298327D01*
X140247690Y-43395000D01*
X140938250Y-43395000D01*
X141097000Y-43236250D01*
X141097000Y-42037000D01*
X141351000Y-42037000D01*
X141351000Y-43236250D01*
X141509750Y-43395000D01*
X142200310Y-43395000D01*
X142433699Y-43298327D01*
X142612327Y-43119698D01*
X142709000Y-42886309D01*
X142709000Y-42195750D01*
X142550250Y-42037000D01*
X141351000Y-42037000D01*
X141097000Y-42037000D01*
X138811000Y-42037000D01*
X138557000Y-42037000D01*
X138537000Y-42037000D01*
X138537000Y-41783000D01*
X138557000Y-41783000D01*
X138557000Y-41763000D01*
X138811000Y-41763000D01*
X138811000Y-41783000D01*
X141097000Y-41783000D01*
X141097000Y-41763000D01*
X141351000Y-41763000D01*
X141351000Y-41783000D01*
X142550250Y-41783000D01*
X142709000Y-41624250D01*
X142709000Y-40933691D01*
X142612327Y-40700302D01*
X142602025Y-40690000D01*
X143333001Y-40690000D01*
X143333000Y-61742845D01*
X143293809Y-61684191D01*
X143083765Y-61543843D01*
X142836000Y-61494560D01*
X141136000Y-61494560D01*
X140888235Y-61543843D01*
X140678191Y-61684191D01*
X140537843Y-61894235D01*
X140488560Y-62142000D01*
X140488560Y-62232000D01*
X139902043Y-62232000D01*
X139718577Y-61957423D01*
X139444000Y-61773957D01*
X139444000Y-60018847D01*
X139458888Y-59944000D01*
X139444000Y-59869153D01*
X139444000Y-59869148D01*
X139399904Y-59647463D01*
X139231929Y-59396071D01*
X139168473Y-59353671D01*
X139081104Y-59266302D01*
X139103000Y-59213439D01*
X139103000Y-58642561D01*
X138884534Y-58115138D01*
X138480862Y-57711466D01*
X138448670Y-57698132D01*
X139869699Y-56277104D01*
X139922561Y-56299000D01*
X140493439Y-56299000D01*
X141020862Y-56080534D01*
X141424534Y-55676862D01*
X141643000Y-55149439D01*
X141643000Y-54578561D01*
X141424534Y-54051138D01*
X141020862Y-53647466D01*
X140493439Y-53429000D01*
X139922561Y-53429000D01*
X139395138Y-53647466D01*
X138991466Y-54051138D01*
X138773000Y-54578561D01*
X138773000Y-55149439D01*
X138794896Y-55202301D01*
X137183530Y-56813669D01*
X137120071Y-56856071D01*
X136952096Y-57107464D01*
X136908000Y-57329149D01*
X136908000Y-57329153D01*
X136893112Y-57404000D01*
X136908000Y-57478847D01*
X136908000Y-57689570D01*
X136855138Y-57711466D01*
X136451466Y-58115138D01*
X136233000Y-58642561D01*
X136233000Y-59213439D01*
X136451466Y-59740862D01*
X136855138Y-60144534D01*
X137382561Y-60363000D01*
X137924001Y-60363000D01*
X137924000Y-61773956D01*
X137649423Y-61957423D01*
X137332260Y-62432091D01*
X137220887Y-62992000D01*
X137332260Y-63551909D01*
X137649423Y-64026577D01*
X138001758Y-64262000D01*
X137649423Y-64497423D01*
X137332260Y-64972091D01*
X137220887Y-65532000D01*
X137332260Y-66091909D01*
X137649423Y-66566577D01*
X138001758Y-66802000D01*
X137649423Y-67037423D01*
X137332260Y-67512091D01*
X137220887Y-68072000D01*
X137332260Y-68631909D01*
X137649423Y-69106577D01*
X138001758Y-69342000D01*
X137649423Y-69577423D01*
X137332260Y-70052091D01*
X137220887Y-70612000D01*
X137332260Y-71171909D01*
X137649423Y-71646577D01*
X137926928Y-71832000D01*
X131776279Y-71832000D01*
X131919134Y-71764389D01*
X132295041Y-71349423D01*
X132455904Y-70961039D01*
X132333915Y-70739000D01*
X131191000Y-70739000D01*
X131191000Y-70759000D01*
X130937000Y-70759000D01*
X130937000Y-70739000D01*
X129794085Y-70739000D01*
X129672096Y-70961039D01*
X129832959Y-71349423D01*
X130208866Y-71764389D01*
X130351721Y-71832000D01*
X128336514Y-71832000D01*
X128389358Y-71807183D01*
X128779645Y-71378924D01*
X128949476Y-70968890D01*
X128828155Y-70739000D01*
X127635000Y-70739000D01*
X127635000Y-70759000D01*
X127381000Y-70759000D01*
X127381000Y-70739000D01*
X127361000Y-70739000D01*
X127361000Y-70485000D01*
X127381000Y-70485000D01*
X127381000Y-70465000D01*
X127635000Y-70465000D01*
X127635000Y-70485000D01*
X128828155Y-70485000D01*
X128949476Y-70255110D01*
X128779645Y-69845076D01*
X128389358Y-69416817D01*
X128259522Y-69355843D01*
X128578625Y-69142625D01*
X128786178Y-68832000D01*
X129845957Y-68832000D01*
X130029423Y-69106577D01*
X130413108Y-69362947D01*
X130208866Y-69459611D01*
X129832959Y-69874577D01*
X129672096Y-70262961D01*
X129794085Y-70485000D01*
X130937000Y-70485000D01*
X130937000Y-70465000D01*
X131191000Y-70465000D01*
X131191000Y-70485000D01*
X132333915Y-70485000D01*
X132455904Y-70262961D01*
X132295041Y-69874577D01*
X131919134Y-69459611D01*
X131714892Y-69362947D01*
X132098577Y-69106577D01*
X132415740Y-68631909D01*
X132527113Y-68072000D01*
X132415740Y-67512091D01*
X132098577Y-67037423D01*
X131746242Y-66802000D01*
X132098577Y-66566577D01*
X132415740Y-66091909D01*
X132527113Y-65532000D01*
X132415740Y-64972091D01*
X132098577Y-64497423D01*
X131977894Y-64416785D01*
X132111765Y-64390157D01*
X132321809Y-64249809D01*
X132462157Y-64039765D01*
X132511440Y-63792000D01*
X132511440Y-62192000D01*
X132462157Y-61944235D01*
X132321809Y-61734191D01*
X132111765Y-61593843D01*
X131864000Y-61544560D01*
X130264000Y-61544560D01*
X130016235Y-61593843D01*
X129806191Y-61734191D01*
X129665843Y-61944235D01*
X129616560Y-62192000D01*
X129616560Y-63792000D01*
X129665843Y-64039765D01*
X129806191Y-64249809D01*
X130016235Y-64390157D01*
X130150106Y-64416785D01*
X130029423Y-64497423D01*
X129845957Y-64772000D01*
X128786178Y-64772000D01*
X128578625Y-64461375D01*
X128560381Y-64449184D01*
X128605765Y-64440157D01*
X128815809Y-64299809D01*
X128956157Y-64089765D01*
X129005440Y-63842000D01*
X129005440Y-62142000D01*
X128956157Y-61894235D01*
X128815809Y-61684191D01*
X128605765Y-61543843D01*
X128358000Y-61494560D01*
X126658000Y-61494560D01*
X126410235Y-61543843D01*
X126330661Y-61597013D01*
X126337149Y-59935745D01*
X131839861Y-59935745D01*
X131913995Y-60181864D01*
X132451223Y-60374965D01*
X133021454Y-60347778D01*
X133422005Y-60181864D01*
X133496139Y-59935745D01*
X132668000Y-59107605D01*
X131839861Y-59935745D01*
X126337149Y-59935745D01*
X126341933Y-58711223D01*
X131221035Y-58711223D01*
X131248222Y-59281454D01*
X131414136Y-59682005D01*
X131660255Y-59756139D01*
X132488395Y-58928000D01*
X132847605Y-58928000D01*
X133675745Y-59756139D01*
X133921864Y-59682005D01*
X134114965Y-59144777D01*
X134087778Y-58574546D01*
X133921864Y-58173995D01*
X133675745Y-58099861D01*
X132847605Y-58928000D01*
X132488395Y-58928000D01*
X131660255Y-58099861D01*
X131414136Y-58173995D01*
X131221035Y-58711223D01*
X126341933Y-58711223D01*
X126345022Y-57920255D01*
X131839861Y-57920255D01*
X132668000Y-58748395D01*
X133496139Y-57920255D01*
X133422005Y-57674136D01*
X132884777Y-57481035D01*
X132314546Y-57508222D01*
X131913995Y-57674136D01*
X131839861Y-57920255D01*
X126345022Y-57920255D01*
X126356961Y-54864000D01*
X128584887Y-54864000D01*
X128696260Y-55423909D01*
X129013423Y-55898577D01*
X129488091Y-56215740D01*
X129906667Y-56299000D01*
X130189333Y-56299000D01*
X130607909Y-56215740D01*
X131082577Y-55898577D01*
X131399740Y-55423909D01*
X131511113Y-54864000D01*
X131399740Y-54304091D01*
X131082577Y-53829423D01*
X130607909Y-53512260D01*
X130189333Y-53429000D01*
X129906667Y-53429000D01*
X129488091Y-53512260D01*
X129013423Y-53829423D01*
X128696260Y-54304091D01*
X128584887Y-54864000D01*
X126356961Y-54864000D01*
X126374264Y-50434561D01*
X127343000Y-50434561D01*
X127343000Y-51005439D01*
X127561466Y-51532862D01*
X127965138Y-51936534D01*
X128492561Y-52155000D01*
X129063439Y-52155000D01*
X129590862Y-51936534D01*
X129773864Y-51753532D01*
X132885073Y-51753532D01*
X132983736Y-52020387D01*
X133593461Y-52246908D01*
X134243460Y-52222856D01*
X134732264Y-52020387D01*
X134830927Y-51753532D01*
X139385073Y-51753532D01*
X139483736Y-52020387D01*
X140093461Y-52246908D01*
X140743460Y-52222856D01*
X141232264Y-52020387D01*
X141330927Y-51753532D01*
X140358000Y-50780605D01*
X139385073Y-51753532D01*
X134830927Y-51753532D01*
X133858000Y-50780605D01*
X132885073Y-51753532D01*
X129773864Y-51753532D01*
X129994534Y-51532862D01*
X130213000Y-51005439D01*
X130213000Y-50434561D01*
X130172366Y-50336461D01*
X132212092Y-50336461D01*
X132236144Y-50986460D01*
X132438613Y-51475264D01*
X132705468Y-51573927D01*
X133678395Y-50601000D01*
X134037605Y-50601000D01*
X135010532Y-51573927D01*
X135277387Y-51475264D01*
X135503908Y-50865539D01*
X135484331Y-50336461D01*
X138712092Y-50336461D01*
X138736144Y-50986460D01*
X138938613Y-51475264D01*
X139205468Y-51573927D01*
X140178395Y-50601000D01*
X140537605Y-50601000D01*
X141510532Y-51573927D01*
X141777387Y-51475264D01*
X142003908Y-50865539D01*
X141979856Y-50215540D01*
X141777387Y-49726736D01*
X141510532Y-49628073D01*
X140537605Y-50601000D01*
X140178395Y-50601000D01*
X139205468Y-49628073D01*
X138938613Y-49726736D01*
X138712092Y-50336461D01*
X135484331Y-50336461D01*
X135479856Y-50215540D01*
X135277387Y-49726736D01*
X135010532Y-49628073D01*
X134037605Y-50601000D01*
X133678395Y-50601000D01*
X132705468Y-49628073D01*
X132438613Y-49726736D01*
X132212092Y-50336461D01*
X130172366Y-50336461D01*
X129994534Y-49907138D01*
X129590862Y-49503466D01*
X129458086Y-49448468D01*
X132885073Y-49448468D01*
X133858000Y-50421395D01*
X134830927Y-49448468D01*
X139385073Y-49448468D01*
X140358000Y-50421395D01*
X141330927Y-49448468D01*
X141232264Y-49181613D01*
X140622539Y-48955092D01*
X139972540Y-48979144D01*
X139483736Y-49181613D01*
X139385073Y-49448468D01*
X134830927Y-49448468D01*
X134732264Y-49181613D01*
X134122539Y-48955092D01*
X133472540Y-48979144D01*
X132983736Y-49181613D01*
X132885073Y-49448468D01*
X129458086Y-49448468D01*
X129063439Y-49285000D01*
X128492561Y-49285000D01*
X127965138Y-49503466D01*
X127561466Y-49907138D01*
X127343000Y-50434561D01*
X126374264Y-50434561D01*
X126393795Y-45434561D01*
X127343000Y-45434561D01*
X127343000Y-46005439D01*
X127561466Y-46532862D01*
X127965138Y-46936534D01*
X128492561Y-47155000D01*
X129063439Y-47155000D01*
X129590862Y-46936534D01*
X129994534Y-46532862D01*
X130016430Y-46480000D01*
X132245276Y-46480000D01*
X132471914Y-47027153D01*
X132931847Y-47487086D01*
X133532778Y-47736000D01*
X134183222Y-47736000D01*
X134784153Y-47487086D01*
X135244086Y-47027153D01*
X135312909Y-46861000D01*
X138903091Y-46861000D01*
X138971914Y-47027153D01*
X139431847Y-47487086D01*
X140032778Y-47736000D01*
X140683222Y-47736000D01*
X141284153Y-47487086D01*
X141744086Y-47027153D01*
X141993000Y-46426222D01*
X141993000Y-45775778D01*
X141744086Y-45174847D01*
X141284153Y-44714914D01*
X140683222Y-44466000D01*
X140032778Y-44466000D01*
X139431847Y-44714914D01*
X138971914Y-45174847D01*
X138903091Y-45341000D01*
X135312909Y-45341000D01*
X135244086Y-45174847D01*
X134784153Y-44714914D01*
X134183222Y-44466000D01*
X133532778Y-44466000D01*
X132931847Y-44714914D01*
X132686761Y-44960000D01*
X130016430Y-44960000D01*
X129994534Y-44907138D01*
X129590862Y-44503466D01*
X129063439Y-44285000D01*
X128492561Y-44285000D01*
X127965138Y-44503466D01*
X127561466Y-44907138D01*
X127343000Y-45434561D01*
X126393795Y-45434561D01*
X126412329Y-40690000D01*
X127676931Y-40690000D01*
X127453375Y-40839375D01*
G04 #@! TD*
M02*
