G04 #@! TF.GenerationSoftware,KiCad,Pcbnew,5.0.2+dfsg1-1~bpo9+1*
G04 #@! TF.CreationDate,2019-06-18T09:36:45+01:00*
G04 #@! TF.ProjectId,t84opti,7438346f-7074-4692-9e6b-696361645f70,rev?*
G04 #@! TF.SameCoordinates,Original*
G04 #@! TF.FileFunction,Soldermask,Bot*
G04 #@! TF.FilePolarity,Negative*
%FSLAX46Y46*%
G04 Gerber Fmt 4.6, Leading zero omitted, Abs format (unit mm)*
G04 Created by KiCad (PCBNEW 5.0.2+dfsg1-1~bpo9+1) date Tue 18 Jun 2019 09:36:45 IST*
%MOMM*%
%LPD*%
G01*
G04 APERTURE LIST*
%ADD10C,0.100000*%
G04 APERTURE END LIST*
D10*
G36*
X141247396Y-77825546D02*
X141420466Y-77897234D01*
X141576230Y-78001312D01*
X141708688Y-78133770D01*
X141812766Y-78289534D01*
X141884454Y-78462604D01*
X141921000Y-78646333D01*
X141921000Y-78833667D01*
X141884454Y-79017396D01*
X141812766Y-79190466D01*
X141708688Y-79346230D01*
X141576230Y-79478688D01*
X141420466Y-79582766D01*
X141247396Y-79654454D01*
X141063667Y-79691000D01*
X140876333Y-79691000D01*
X140692604Y-79654454D01*
X140519534Y-79582766D01*
X140363770Y-79478688D01*
X140231312Y-79346230D01*
X140127234Y-79190466D01*
X140055546Y-79017396D01*
X140019000Y-78833667D01*
X140019000Y-78646333D01*
X140055546Y-78462604D01*
X140127234Y-78289534D01*
X140231312Y-78133770D01*
X140363770Y-78001312D01*
X140519534Y-77897234D01*
X140692604Y-77825546D01*
X140876333Y-77789000D01*
X141063667Y-77789000D01*
X141247396Y-77825546D01*
X141247396Y-77825546D01*
G37*
G36*
X139381000Y-79691000D02*
X137479000Y-79691000D01*
X137479000Y-77789000D01*
X139381000Y-77789000D01*
X139381000Y-79691000D01*
X139381000Y-79691000D01*
G37*
G36*
X145028228Y-72841703D02*
X145183100Y-72905853D01*
X145322481Y-72998985D01*
X145441015Y-73117519D01*
X145534147Y-73256900D01*
X145598297Y-73411772D01*
X145631000Y-73576184D01*
X145631000Y-73743816D01*
X145598297Y-73908228D01*
X145534147Y-74063100D01*
X145441015Y-74202481D01*
X145322481Y-74321015D01*
X145183100Y-74414147D01*
X145028228Y-74478297D01*
X144863816Y-74511000D01*
X144696184Y-74511000D01*
X144531772Y-74478297D01*
X144376900Y-74414147D01*
X144237519Y-74321015D01*
X144118985Y-74202481D01*
X144025853Y-74063100D01*
X143961703Y-73908228D01*
X143929000Y-73743816D01*
X143929000Y-73576184D01*
X143961703Y-73411772D01*
X144025853Y-73256900D01*
X144118985Y-73117519D01*
X144237519Y-72998985D01*
X144376900Y-72905853D01*
X144531772Y-72841703D01*
X144696184Y-72809000D01*
X144863816Y-72809000D01*
X145028228Y-72841703D01*
X145028228Y-72841703D01*
G37*
G36*
X134786821Y-72821313D02*
X134786824Y-72821314D01*
X134786825Y-72821314D01*
X134947239Y-72869975D01*
X134947241Y-72869976D01*
X134947244Y-72869977D01*
X135095078Y-72948995D01*
X135224659Y-73055341D01*
X135331005Y-73184922D01*
X135410023Y-73332756D01*
X135410024Y-73332759D01*
X135410025Y-73332761D01*
X135458686Y-73493175D01*
X135458687Y-73493179D01*
X135475117Y-73660000D01*
X135458687Y-73826821D01*
X135458686Y-73826824D01*
X135458686Y-73826825D01*
X135433993Y-73908228D01*
X135410023Y-73987244D01*
X135331005Y-74135078D01*
X135224659Y-74264659D01*
X135095078Y-74371005D01*
X134947244Y-74450023D01*
X134947241Y-74450024D01*
X134947239Y-74450025D01*
X134786825Y-74498686D01*
X134786824Y-74498686D01*
X134786821Y-74498687D01*
X134661804Y-74511000D01*
X134578196Y-74511000D01*
X134453179Y-74498687D01*
X134453176Y-74498686D01*
X134453175Y-74498686D01*
X134292761Y-74450025D01*
X134292759Y-74450024D01*
X134292756Y-74450023D01*
X134144922Y-74371005D01*
X134015341Y-74264659D01*
X133908995Y-74135078D01*
X133829977Y-73987244D01*
X133806008Y-73908228D01*
X133781314Y-73826825D01*
X133781314Y-73826824D01*
X133781313Y-73826821D01*
X133764883Y-73660000D01*
X133781313Y-73493179D01*
X133781314Y-73493175D01*
X133829975Y-73332761D01*
X133829976Y-73332759D01*
X133829977Y-73332756D01*
X133908995Y-73184922D01*
X134015341Y-73055341D01*
X134144922Y-72948995D01*
X134292756Y-72869977D01*
X134292759Y-72869976D01*
X134292761Y-72869975D01*
X134453175Y-72821314D01*
X134453176Y-72821314D01*
X134453179Y-72821313D01*
X134578196Y-72809000D01*
X134661804Y-72809000D01*
X134786821Y-72821313D01*
X134786821Y-72821313D01*
G37*
G36*
X132444443Y-67685519D02*
X132510627Y-67692037D01*
X132623853Y-67726384D01*
X132680467Y-67743557D01*
X132767311Y-67789977D01*
X132836991Y-67827222D01*
X132872729Y-67856552D01*
X132974186Y-67939814D01*
X133057448Y-68041271D01*
X133086778Y-68077009D01*
X133086779Y-68077011D01*
X133170443Y-68233533D01*
X133187616Y-68290147D01*
X133221963Y-68403373D01*
X133239359Y-68580000D01*
X133221963Y-68756627D01*
X133187616Y-68869853D01*
X133170443Y-68926467D01*
X133101698Y-69055078D01*
X133086778Y-69082991D01*
X133057448Y-69118729D01*
X132974186Y-69220186D01*
X132872729Y-69303448D01*
X132836991Y-69332778D01*
X132836989Y-69332779D01*
X132680467Y-69416443D01*
X132673069Y-69418687D01*
X132510627Y-69467963D01*
X132444442Y-69474482D01*
X132378260Y-69481000D01*
X132289740Y-69481000D01*
X132223558Y-69474482D01*
X132157373Y-69467963D01*
X131994931Y-69418687D01*
X131987533Y-69416443D01*
X131831011Y-69332779D01*
X131831009Y-69332778D01*
X131795271Y-69303448D01*
X131693814Y-69220186D01*
X131610552Y-69118729D01*
X131581222Y-69082991D01*
X131566302Y-69055078D01*
X131497557Y-68926467D01*
X131480384Y-68869853D01*
X131446037Y-68756627D01*
X131428641Y-68580000D01*
X131446037Y-68403373D01*
X131480384Y-68290147D01*
X131497557Y-68233533D01*
X131581221Y-68077011D01*
X131581222Y-68077009D01*
X131610552Y-68041271D01*
X131693814Y-67939814D01*
X131795271Y-67856552D01*
X131831009Y-67827222D01*
X131900689Y-67789977D01*
X131987533Y-67743557D01*
X132044147Y-67726384D01*
X132157373Y-67692037D01*
X132223557Y-67685519D01*
X132289740Y-67679000D01*
X132378260Y-67679000D01*
X132444443Y-67685519D01*
X132444443Y-67685519D01*
G37*
G36*
X147176443Y-67685519D02*
X147242627Y-67692037D01*
X147355853Y-67726384D01*
X147412467Y-67743557D01*
X147499311Y-67789977D01*
X147568991Y-67827222D01*
X147604729Y-67856552D01*
X147706186Y-67939814D01*
X147789448Y-68041271D01*
X147818778Y-68077009D01*
X147818779Y-68077011D01*
X147902443Y-68233533D01*
X147919616Y-68290147D01*
X147953963Y-68403373D01*
X147971359Y-68580000D01*
X147953963Y-68756627D01*
X147919616Y-68869853D01*
X147902443Y-68926467D01*
X147833698Y-69055078D01*
X147818778Y-69082991D01*
X147789448Y-69118729D01*
X147706186Y-69220186D01*
X147604729Y-69303448D01*
X147568991Y-69332778D01*
X147568989Y-69332779D01*
X147412467Y-69416443D01*
X147405069Y-69418687D01*
X147242627Y-69467963D01*
X147176442Y-69474482D01*
X147110260Y-69481000D01*
X147021740Y-69481000D01*
X146955558Y-69474482D01*
X146889373Y-69467963D01*
X146726931Y-69418687D01*
X146719533Y-69416443D01*
X146563011Y-69332779D01*
X146563009Y-69332778D01*
X146527271Y-69303448D01*
X146425814Y-69220186D01*
X146342552Y-69118729D01*
X146313222Y-69082991D01*
X146298302Y-69055078D01*
X146229557Y-68926467D01*
X146212384Y-68869853D01*
X146178037Y-68756627D01*
X146160641Y-68580000D01*
X146178037Y-68403373D01*
X146212384Y-68290147D01*
X146229557Y-68233533D01*
X146313221Y-68077011D01*
X146313222Y-68077009D01*
X146342552Y-68041271D01*
X146425814Y-67939814D01*
X146527271Y-67856552D01*
X146563009Y-67827222D01*
X146632689Y-67789977D01*
X146719533Y-67743557D01*
X146776147Y-67726384D01*
X146889373Y-67692037D01*
X146955557Y-67685519D01*
X147021740Y-67679000D01*
X147110260Y-67679000D01*
X147176443Y-67685519D01*
X147176443Y-67685519D01*
G37*
G36*
X136056821Y-67741313D02*
X136056824Y-67741314D01*
X136056825Y-67741314D01*
X136217239Y-67789975D01*
X136217241Y-67789976D01*
X136217244Y-67789977D01*
X136365078Y-67868995D01*
X136494659Y-67975341D01*
X136601005Y-68104922D01*
X136680023Y-68252756D01*
X136680024Y-68252759D01*
X136680025Y-68252761D01*
X136725713Y-68403375D01*
X136728687Y-68413179D01*
X136745117Y-68580000D01*
X136728687Y-68746821D01*
X136728686Y-68746824D01*
X136728686Y-68746825D01*
X136725713Y-68756627D01*
X136680023Y-68907244D01*
X136601005Y-69055078D01*
X136494659Y-69184659D01*
X136365078Y-69291005D01*
X136217244Y-69370023D01*
X136217241Y-69370024D01*
X136217239Y-69370025D01*
X136056825Y-69418686D01*
X136056824Y-69418686D01*
X136056821Y-69418687D01*
X135931804Y-69431000D01*
X135848196Y-69431000D01*
X135723179Y-69418687D01*
X135723176Y-69418686D01*
X135723175Y-69418686D01*
X135562761Y-69370025D01*
X135562759Y-69370024D01*
X135562756Y-69370023D01*
X135414922Y-69291005D01*
X135285341Y-69184659D01*
X135178995Y-69055078D01*
X135099977Y-68907244D01*
X135054288Y-68756627D01*
X135051314Y-68746825D01*
X135051314Y-68746824D01*
X135051313Y-68746821D01*
X135034883Y-68580000D01*
X135051313Y-68413179D01*
X135054287Y-68403375D01*
X135099975Y-68252761D01*
X135099976Y-68252759D01*
X135099977Y-68252756D01*
X135178995Y-68104922D01*
X135285341Y-67975341D01*
X135414922Y-67868995D01*
X135562756Y-67789977D01*
X135562759Y-67789976D01*
X135562761Y-67789975D01*
X135723175Y-67741314D01*
X135723176Y-67741314D01*
X135723179Y-67741313D01*
X135848196Y-67729000D01*
X135931804Y-67729000D01*
X136056821Y-67741313D01*
X136056821Y-67741313D01*
G37*
G36*
X143676821Y-67741313D02*
X143676824Y-67741314D01*
X143676825Y-67741314D01*
X143837239Y-67789975D01*
X143837241Y-67789976D01*
X143837244Y-67789977D01*
X143985078Y-67868995D01*
X144114659Y-67975341D01*
X144221005Y-68104922D01*
X144300023Y-68252756D01*
X144300024Y-68252759D01*
X144300025Y-68252761D01*
X144345713Y-68403375D01*
X144348687Y-68413179D01*
X144365117Y-68580000D01*
X144348687Y-68746821D01*
X144348686Y-68746824D01*
X144348686Y-68746825D01*
X144345713Y-68756627D01*
X144300023Y-68907244D01*
X144221005Y-69055078D01*
X144114659Y-69184659D01*
X143985078Y-69291005D01*
X143837244Y-69370023D01*
X143837241Y-69370024D01*
X143837239Y-69370025D01*
X143676825Y-69418686D01*
X143676824Y-69418686D01*
X143676821Y-69418687D01*
X143551804Y-69431000D01*
X143468196Y-69431000D01*
X143343179Y-69418687D01*
X143343176Y-69418686D01*
X143343175Y-69418686D01*
X143182761Y-69370025D01*
X143182759Y-69370024D01*
X143182756Y-69370023D01*
X143034922Y-69291005D01*
X142905341Y-69184659D01*
X142798995Y-69055078D01*
X142719977Y-68907244D01*
X142674288Y-68756627D01*
X142671314Y-68746825D01*
X142671314Y-68746824D01*
X142671313Y-68746821D01*
X142654883Y-68580000D01*
X142671313Y-68413179D01*
X142674287Y-68403375D01*
X142719975Y-68252761D01*
X142719976Y-68252759D01*
X142719977Y-68252756D01*
X142798995Y-68104922D01*
X142905341Y-67975341D01*
X143034922Y-67868995D01*
X143182756Y-67789977D01*
X143182759Y-67789976D01*
X143182761Y-67789975D01*
X143343175Y-67741314D01*
X143343176Y-67741314D01*
X143343179Y-67741313D01*
X143468196Y-67729000D01*
X143551804Y-67729000D01*
X143676821Y-67741313D01*
X143676821Y-67741313D01*
G37*
G36*
X147176442Y-65145518D02*
X147242627Y-65152037D01*
X147355853Y-65186384D01*
X147412467Y-65203557D01*
X147499311Y-65249977D01*
X147568991Y-65287222D01*
X147604729Y-65316552D01*
X147706186Y-65399814D01*
X147789448Y-65501271D01*
X147818778Y-65537009D01*
X147818779Y-65537011D01*
X147902443Y-65693533D01*
X147919616Y-65750147D01*
X147953963Y-65863373D01*
X147971359Y-66040000D01*
X147953963Y-66216627D01*
X147919616Y-66329853D01*
X147902443Y-66386467D01*
X147833698Y-66515078D01*
X147818778Y-66542991D01*
X147789448Y-66578729D01*
X147706186Y-66680186D01*
X147604729Y-66763448D01*
X147568991Y-66792778D01*
X147568989Y-66792779D01*
X147412467Y-66876443D01*
X147405069Y-66878687D01*
X147242627Y-66927963D01*
X147176442Y-66934482D01*
X147110260Y-66941000D01*
X147021740Y-66941000D01*
X146955558Y-66934482D01*
X146889373Y-66927963D01*
X146726931Y-66878687D01*
X146719533Y-66876443D01*
X146563011Y-66792779D01*
X146563009Y-66792778D01*
X146527271Y-66763448D01*
X146425814Y-66680186D01*
X146342552Y-66578729D01*
X146313222Y-66542991D01*
X146298302Y-66515078D01*
X146229557Y-66386467D01*
X146212384Y-66329853D01*
X146178037Y-66216627D01*
X146160641Y-66040000D01*
X146178037Y-65863373D01*
X146212384Y-65750147D01*
X146229557Y-65693533D01*
X146313221Y-65537011D01*
X146313222Y-65537009D01*
X146342552Y-65501271D01*
X146425814Y-65399814D01*
X146527271Y-65316552D01*
X146563009Y-65287222D01*
X146632689Y-65249977D01*
X146719533Y-65203557D01*
X146776147Y-65186384D01*
X146889373Y-65152037D01*
X146955558Y-65145518D01*
X147021740Y-65139000D01*
X147110260Y-65139000D01*
X147176442Y-65145518D01*
X147176442Y-65145518D01*
G37*
G36*
X132444442Y-65145518D02*
X132510627Y-65152037D01*
X132623853Y-65186384D01*
X132680467Y-65203557D01*
X132767311Y-65249977D01*
X132836991Y-65287222D01*
X132872729Y-65316552D01*
X132974186Y-65399814D01*
X133057448Y-65501271D01*
X133086778Y-65537009D01*
X133086779Y-65537011D01*
X133170443Y-65693533D01*
X133187616Y-65750147D01*
X133221963Y-65863373D01*
X133239359Y-66040000D01*
X133221963Y-66216627D01*
X133187616Y-66329853D01*
X133170443Y-66386467D01*
X133101698Y-66515078D01*
X133086778Y-66542991D01*
X133057448Y-66578729D01*
X132974186Y-66680186D01*
X132872729Y-66763448D01*
X132836991Y-66792778D01*
X132836989Y-66792779D01*
X132680467Y-66876443D01*
X132673069Y-66878687D01*
X132510627Y-66927963D01*
X132444442Y-66934482D01*
X132378260Y-66941000D01*
X132289740Y-66941000D01*
X132223558Y-66934482D01*
X132157373Y-66927963D01*
X131994931Y-66878687D01*
X131987533Y-66876443D01*
X131831011Y-66792779D01*
X131831009Y-66792778D01*
X131795271Y-66763448D01*
X131693814Y-66680186D01*
X131610552Y-66578729D01*
X131581222Y-66542991D01*
X131566302Y-66515078D01*
X131497557Y-66386467D01*
X131480384Y-66329853D01*
X131446037Y-66216627D01*
X131428641Y-66040000D01*
X131446037Y-65863373D01*
X131480384Y-65750147D01*
X131497557Y-65693533D01*
X131581221Y-65537011D01*
X131581222Y-65537009D01*
X131610552Y-65501271D01*
X131693814Y-65399814D01*
X131795271Y-65316552D01*
X131831009Y-65287222D01*
X131900689Y-65249977D01*
X131987533Y-65203557D01*
X132044147Y-65186384D01*
X132157373Y-65152037D01*
X132223558Y-65145518D01*
X132289740Y-65139000D01*
X132378260Y-65139000D01*
X132444442Y-65145518D01*
X132444442Y-65145518D01*
G37*
G36*
X136056821Y-65201313D02*
X136056824Y-65201314D01*
X136056825Y-65201314D01*
X136217239Y-65249975D01*
X136217241Y-65249976D01*
X136217244Y-65249977D01*
X136365078Y-65328995D01*
X136494659Y-65435341D01*
X136601005Y-65564922D01*
X136680023Y-65712756D01*
X136680024Y-65712759D01*
X136680025Y-65712761D01*
X136725713Y-65863375D01*
X136728687Y-65873179D01*
X136745117Y-66040000D01*
X136728687Y-66206821D01*
X136728686Y-66206824D01*
X136728686Y-66206825D01*
X136725713Y-66216627D01*
X136680023Y-66367244D01*
X136601005Y-66515078D01*
X136494659Y-66644659D01*
X136365078Y-66751005D01*
X136217244Y-66830023D01*
X136217241Y-66830024D01*
X136217239Y-66830025D01*
X136056825Y-66878686D01*
X136056824Y-66878686D01*
X136056821Y-66878687D01*
X135931804Y-66891000D01*
X135848196Y-66891000D01*
X135723179Y-66878687D01*
X135723176Y-66878686D01*
X135723175Y-66878686D01*
X135562761Y-66830025D01*
X135562759Y-66830024D01*
X135562756Y-66830023D01*
X135414922Y-66751005D01*
X135285341Y-66644659D01*
X135178995Y-66515078D01*
X135099977Y-66367244D01*
X135054288Y-66216627D01*
X135051314Y-66206825D01*
X135051314Y-66206824D01*
X135051313Y-66206821D01*
X135034883Y-66040000D01*
X135051313Y-65873179D01*
X135054287Y-65863375D01*
X135099975Y-65712761D01*
X135099976Y-65712759D01*
X135099977Y-65712756D01*
X135178995Y-65564922D01*
X135285341Y-65435341D01*
X135414922Y-65328995D01*
X135562756Y-65249977D01*
X135562759Y-65249976D01*
X135562761Y-65249975D01*
X135723175Y-65201314D01*
X135723176Y-65201314D01*
X135723179Y-65201313D01*
X135848196Y-65189000D01*
X135931804Y-65189000D01*
X136056821Y-65201313D01*
X136056821Y-65201313D01*
G37*
G36*
X143676821Y-65201313D02*
X143676824Y-65201314D01*
X143676825Y-65201314D01*
X143837239Y-65249975D01*
X143837241Y-65249976D01*
X143837244Y-65249977D01*
X143985078Y-65328995D01*
X144114659Y-65435341D01*
X144221005Y-65564922D01*
X144300023Y-65712756D01*
X144300024Y-65712759D01*
X144300025Y-65712761D01*
X144345713Y-65863375D01*
X144348687Y-65873179D01*
X144365117Y-66040000D01*
X144348687Y-66206821D01*
X144348686Y-66206824D01*
X144348686Y-66206825D01*
X144345713Y-66216627D01*
X144300023Y-66367244D01*
X144221005Y-66515078D01*
X144114659Y-66644659D01*
X143985078Y-66751005D01*
X143837244Y-66830023D01*
X143837241Y-66830024D01*
X143837239Y-66830025D01*
X143676825Y-66878686D01*
X143676824Y-66878686D01*
X143676821Y-66878687D01*
X143551804Y-66891000D01*
X143468196Y-66891000D01*
X143343179Y-66878687D01*
X143343176Y-66878686D01*
X143343175Y-66878686D01*
X143182761Y-66830025D01*
X143182759Y-66830024D01*
X143182756Y-66830023D01*
X143034922Y-66751005D01*
X142905341Y-66644659D01*
X142798995Y-66515078D01*
X142719977Y-66367244D01*
X142674288Y-66216627D01*
X142671314Y-66206825D01*
X142671314Y-66206824D01*
X142671313Y-66206821D01*
X142654883Y-66040000D01*
X142671313Y-65873179D01*
X142674287Y-65863375D01*
X142719975Y-65712761D01*
X142719976Y-65712759D01*
X142719977Y-65712756D01*
X142798995Y-65564922D01*
X142905341Y-65435341D01*
X143034922Y-65328995D01*
X143182756Y-65249977D01*
X143182759Y-65249976D01*
X143182761Y-65249975D01*
X143343175Y-65201314D01*
X143343176Y-65201314D01*
X143343179Y-65201313D01*
X143468196Y-65189000D01*
X143551804Y-65189000D01*
X143676821Y-65201313D01*
X143676821Y-65201313D01*
G37*
G36*
X147176442Y-62605518D02*
X147242627Y-62612037D01*
X147355853Y-62646384D01*
X147412467Y-62663557D01*
X147499311Y-62709977D01*
X147568991Y-62747222D01*
X147604729Y-62776552D01*
X147706186Y-62859814D01*
X147789448Y-62961271D01*
X147818778Y-62997009D01*
X147818779Y-62997011D01*
X147902443Y-63153533D01*
X147919616Y-63210147D01*
X147953963Y-63323373D01*
X147971359Y-63500000D01*
X147953963Y-63676627D01*
X147919616Y-63789853D01*
X147902443Y-63846467D01*
X147833698Y-63975078D01*
X147818778Y-64002991D01*
X147789448Y-64038729D01*
X147706186Y-64140186D01*
X147604729Y-64223448D01*
X147568991Y-64252778D01*
X147568989Y-64252779D01*
X147412467Y-64336443D01*
X147405069Y-64338687D01*
X147242627Y-64387963D01*
X147176442Y-64394482D01*
X147110260Y-64401000D01*
X147021740Y-64401000D01*
X146955558Y-64394482D01*
X146889373Y-64387963D01*
X146726931Y-64338687D01*
X146719533Y-64336443D01*
X146563011Y-64252779D01*
X146563009Y-64252778D01*
X146527271Y-64223448D01*
X146425814Y-64140186D01*
X146342552Y-64038729D01*
X146313222Y-64002991D01*
X146298302Y-63975078D01*
X146229557Y-63846467D01*
X146212384Y-63789853D01*
X146178037Y-63676627D01*
X146160641Y-63500000D01*
X146178037Y-63323373D01*
X146212384Y-63210147D01*
X146229557Y-63153533D01*
X146313221Y-62997011D01*
X146313222Y-62997009D01*
X146342552Y-62961271D01*
X146425814Y-62859814D01*
X146527271Y-62776552D01*
X146563009Y-62747222D01*
X146632689Y-62709977D01*
X146719533Y-62663557D01*
X146776147Y-62646384D01*
X146889373Y-62612037D01*
X146955558Y-62605518D01*
X147021740Y-62599000D01*
X147110260Y-62599000D01*
X147176442Y-62605518D01*
X147176442Y-62605518D01*
G37*
G36*
X132444442Y-62605518D02*
X132510627Y-62612037D01*
X132623853Y-62646384D01*
X132680467Y-62663557D01*
X132767311Y-62709977D01*
X132836991Y-62747222D01*
X132872729Y-62776552D01*
X132974186Y-62859814D01*
X133057448Y-62961271D01*
X133086778Y-62997009D01*
X133086779Y-62997011D01*
X133170443Y-63153533D01*
X133187616Y-63210147D01*
X133221963Y-63323373D01*
X133239359Y-63500000D01*
X133221963Y-63676627D01*
X133187616Y-63789853D01*
X133170443Y-63846467D01*
X133101698Y-63975078D01*
X133086778Y-64002991D01*
X133057448Y-64038729D01*
X132974186Y-64140186D01*
X132872729Y-64223448D01*
X132836991Y-64252778D01*
X132836989Y-64252779D01*
X132680467Y-64336443D01*
X132673069Y-64338687D01*
X132510627Y-64387963D01*
X132444442Y-64394482D01*
X132378260Y-64401000D01*
X132289740Y-64401000D01*
X132223558Y-64394482D01*
X132157373Y-64387963D01*
X131994931Y-64338687D01*
X131987533Y-64336443D01*
X131831011Y-64252779D01*
X131831009Y-64252778D01*
X131795271Y-64223448D01*
X131693814Y-64140186D01*
X131610552Y-64038729D01*
X131581222Y-64002991D01*
X131566302Y-63975078D01*
X131497557Y-63846467D01*
X131480384Y-63789853D01*
X131446037Y-63676627D01*
X131428641Y-63500000D01*
X131446037Y-63323373D01*
X131480384Y-63210147D01*
X131497557Y-63153533D01*
X131581221Y-62997011D01*
X131581222Y-62997009D01*
X131610552Y-62961271D01*
X131693814Y-62859814D01*
X131795271Y-62776552D01*
X131831009Y-62747222D01*
X131900689Y-62709977D01*
X131987533Y-62663557D01*
X132044147Y-62646384D01*
X132157373Y-62612037D01*
X132223558Y-62605518D01*
X132289740Y-62599000D01*
X132378260Y-62599000D01*
X132444442Y-62605518D01*
X132444442Y-62605518D01*
G37*
G36*
X143676821Y-62661313D02*
X143676824Y-62661314D01*
X143676825Y-62661314D01*
X143837239Y-62709975D01*
X143837241Y-62709976D01*
X143837244Y-62709977D01*
X143985078Y-62788995D01*
X144114659Y-62895341D01*
X144221005Y-63024922D01*
X144300023Y-63172756D01*
X144300024Y-63172759D01*
X144300025Y-63172761D01*
X144345713Y-63323375D01*
X144348687Y-63333179D01*
X144365117Y-63500000D01*
X144348687Y-63666821D01*
X144348686Y-63666824D01*
X144348686Y-63666825D01*
X144345713Y-63676627D01*
X144300023Y-63827244D01*
X144221005Y-63975078D01*
X144114659Y-64104659D01*
X143985078Y-64211005D01*
X143837244Y-64290023D01*
X143837241Y-64290024D01*
X143837239Y-64290025D01*
X143676825Y-64338686D01*
X143676824Y-64338686D01*
X143676821Y-64338687D01*
X143551804Y-64351000D01*
X143468196Y-64351000D01*
X143343179Y-64338687D01*
X143343176Y-64338686D01*
X143343175Y-64338686D01*
X143182761Y-64290025D01*
X143182759Y-64290024D01*
X143182756Y-64290023D01*
X143034922Y-64211005D01*
X142905341Y-64104659D01*
X142798995Y-63975078D01*
X142719977Y-63827244D01*
X142674288Y-63676627D01*
X142671314Y-63666825D01*
X142671314Y-63666824D01*
X142671313Y-63666821D01*
X142654883Y-63500000D01*
X142671313Y-63333179D01*
X142674287Y-63323375D01*
X142719975Y-63172761D01*
X142719976Y-63172759D01*
X142719977Y-63172756D01*
X142798995Y-63024922D01*
X142905341Y-62895341D01*
X143034922Y-62788995D01*
X143182756Y-62709977D01*
X143182759Y-62709976D01*
X143182761Y-62709975D01*
X143343175Y-62661314D01*
X143343176Y-62661314D01*
X143343179Y-62661313D01*
X143468196Y-62649000D01*
X143551804Y-62649000D01*
X143676821Y-62661313D01*
X143676821Y-62661313D01*
G37*
G36*
X136056821Y-62661313D02*
X136056824Y-62661314D01*
X136056825Y-62661314D01*
X136217239Y-62709975D01*
X136217241Y-62709976D01*
X136217244Y-62709977D01*
X136365078Y-62788995D01*
X136494659Y-62895341D01*
X136601005Y-63024922D01*
X136680023Y-63172756D01*
X136680024Y-63172759D01*
X136680025Y-63172761D01*
X136725713Y-63323375D01*
X136728687Y-63333179D01*
X136745117Y-63500000D01*
X136728687Y-63666821D01*
X136728686Y-63666824D01*
X136728686Y-63666825D01*
X136725713Y-63676627D01*
X136680023Y-63827244D01*
X136601005Y-63975078D01*
X136494659Y-64104659D01*
X136365078Y-64211005D01*
X136217244Y-64290023D01*
X136217241Y-64290024D01*
X136217239Y-64290025D01*
X136056825Y-64338686D01*
X136056824Y-64338686D01*
X136056821Y-64338687D01*
X135931804Y-64351000D01*
X135848196Y-64351000D01*
X135723179Y-64338687D01*
X135723176Y-64338686D01*
X135723175Y-64338686D01*
X135562761Y-64290025D01*
X135562759Y-64290024D01*
X135562756Y-64290023D01*
X135414922Y-64211005D01*
X135285341Y-64104659D01*
X135178995Y-63975078D01*
X135099977Y-63827244D01*
X135054288Y-63676627D01*
X135051314Y-63666825D01*
X135051314Y-63666824D01*
X135051313Y-63666821D01*
X135034883Y-63500000D01*
X135051313Y-63333179D01*
X135054287Y-63323375D01*
X135099975Y-63172761D01*
X135099976Y-63172759D01*
X135099977Y-63172756D01*
X135178995Y-63024922D01*
X135285341Y-62895341D01*
X135414922Y-62788995D01*
X135562756Y-62709977D01*
X135562759Y-62709976D01*
X135562761Y-62709975D01*
X135723175Y-62661314D01*
X135723176Y-62661314D01*
X135723179Y-62661313D01*
X135848196Y-62649000D01*
X135931804Y-62649000D01*
X136056821Y-62661313D01*
X136056821Y-62661313D01*
G37*
G36*
X147176442Y-60065518D02*
X147242627Y-60072037D01*
X147355853Y-60106384D01*
X147412467Y-60123557D01*
X147499311Y-60169977D01*
X147568991Y-60207222D01*
X147604729Y-60236552D01*
X147706186Y-60319814D01*
X147789448Y-60421271D01*
X147818778Y-60457009D01*
X147818779Y-60457011D01*
X147902443Y-60613533D01*
X147919616Y-60670147D01*
X147953963Y-60783373D01*
X147971359Y-60960000D01*
X147953963Y-61136627D01*
X147919616Y-61249853D01*
X147902443Y-61306467D01*
X147833698Y-61435078D01*
X147818778Y-61462991D01*
X147789448Y-61498729D01*
X147706186Y-61600186D01*
X147604729Y-61683448D01*
X147568991Y-61712778D01*
X147568989Y-61712779D01*
X147412467Y-61796443D01*
X147405069Y-61798687D01*
X147242627Y-61847963D01*
X147176443Y-61854481D01*
X147110260Y-61861000D01*
X147021740Y-61861000D01*
X146955557Y-61854481D01*
X146889373Y-61847963D01*
X146726931Y-61798687D01*
X146719533Y-61796443D01*
X146563011Y-61712779D01*
X146563009Y-61712778D01*
X146527271Y-61683448D01*
X146425814Y-61600186D01*
X146342552Y-61498729D01*
X146313222Y-61462991D01*
X146298302Y-61435078D01*
X146229557Y-61306467D01*
X146212384Y-61249853D01*
X146178037Y-61136627D01*
X146160641Y-60960000D01*
X146178037Y-60783373D01*
X146212384Y-60670147D01*
X146229557Y-60613533D01*
X146313221Y-60457011D01*
X146313222Y-60457009D01*
X146342552Y-60421271D01*
X146425814Y-60319814D01*
X146527271Y-60236552D01*
X146563009Y-60207222D01*
X146632689Y-60169977D01*
X146719533Y-60123557D01*
X146776147Y-60106384D01*
X146889373Y-60072037D01*
X146955558Y-60065518D01*
X147021740Y-60059000D01*
X147110260Y-60059000D01*
X147176442Y-60065518D01*
X147176442Y-60065518D01*
G37*
G36*
X132444442Y-60065518D02*
X132510627Y-60072037D01*
X132623853Y-60106384D01*
X132680467Y-60123557D01*
X132767311Y-60169977D01*
X132836991Y-60207222D01*
X132872729Y-60236552D01*
X132974186Y-60319814D01*
X133057448Y-60421271D01*
X133086778Y-60457009D01*
X133086779Y-60457011D01*
X133170443Y-60613533D01*
X133187616Y-60670147D01*
X133221963Y-60783373D01*
X133239359Y-60960000D01*
X133221963Y-61136627D01*
X133187616Y-61249853D01*
X133170443Y-61306467D01*
X133101698Y-61435078D01*
X133086778Y-61462991D01*
X133057448Y-61498729D01*
X132974186Y-61600186D01*
X132872729Y-61683448D01*
X132836991Y-61712778D01*
X132836989Y-61712779D01*
X132680467Y-61796443D01*
X132673069Y-61798687D01*
X132510627Y-61847963D01*
X132444443Y-61854481D01*
X132378260Y-61861000D01*
X132289740Y-61861000D01*
X132223557Y-61854481D01*
X132157373Y-61847963D01*
X131994931Y-61798687D01*
X131987533Y-61796443D01*
X131831011Y-61712779D01*
X131831009Y-61712778D01*
X131795271Y-61683448D01*
X131693814Y-61600186D01*
X131610552Y-61498729D01*
X131581222Y-61462991D01*
X131566302Y-61435078D01*
X131497557Y-61306467D01*
X131480384Y-61249853D01*
X131446037Y-61136627D01*
X131428641Y-60960000D01*
X131446037Y-60783373D01*
X131480384Y-60670147D01*
X131497557Y-60613533D01*
X131581221Y-60457011D01*
X131581222Y-60457009D01*
X131610552Y-60421271D01*
X131693814Y-60319814D01*
X131795271Y-60236552D01*
X131831009Y-60207222D01*
X131900689Y-60169977D01*
X131987533Y-60123557D01*
X132044147Y-60106384D01*
X132157373Y-60072037D01*
X132223558Y-60065518D01*
X132289740Y-60059000D01*
X132378260Y-60059000D01*
X132444442Y-60065518D01*
X132444442Y-60065518D01*
G37*
G36*
X143676821Y-60121313D02*
X143676824Y-60121314D01*
X143676825Y-60121314D01*
X143837239Y-60169975D01*
X143837241Y-60169976D01*
X143837244Y-60169977D01*
X143985078Y-60248995D01*
X144114659Y-60355341D01*
X144221005Y-60484922D01*
X144300023Y-60632756D01*
X144300024Y-60632759D01*
X144300025Y-60632761D01*
X144345713Y-60783375D01*
X144348687Y-60793179D01*
X144365117Y-60960000D01*
X144348687Y-61126821D01*
X144348686Y-61126824D01*
X144348686Y-61126825D01*
X144345713Y-61136627D01*
X144300023Y-61287244D01*
X144221005Y-61435078D01*
X144114659Y-61564659D01*
X143985078Y-61671005D01*
X143837244Y-61750023D01*
X143837241Y-61750024D01*
X143837239Y-61750025D01*
X143676825Y-61798686D01*
X143676824Y-61798686D01*
X143676821Y-61798687D01*
X143551804Y-61811000D01*
X143468196Y-61811000D01*
X143343179Y-61798687D01*
X143343176Y-61798686D01*
X143343175Y-61798686D01*
X143182761Y-61750025D01*
X143182759Y-61750024D01*
X143182756Y-61750023D01*
X143034922Y-61671005D01*
X142905341Y-61564659D01*
X142798995Y-61435078D01*
X142719977Y-61287244D01*
X142674288Y-61136627D01*
X142671314Y-61126825D01*
X142671314Y-61126824D01*
X142671313Y-61126821D01*
X142654883Y-60960000D01*
X142671313Y-60793179D01*
X142674287Y-60783375D01*
X142719975Y-60632761D01*
X142719976Y-60632759D01*
X142719977Y-60632756D01*
X142798995Y-60484922D01*
X142905341Y-60355341D01*
X143034922Y-60248995D01*
X143182756Y-60169977D01*
X143182759Y-60169976D01*
X143182761Y-60169975D01*
X143343175Y-60121314D01*
X143343176Y-60121314D01*
X143343179Y-60121313D01*
X143468196Y-60109000D01*
X143551804Y-60109000D01*
X143676821Y-60121313D01*
X143676821Y-60121313D01*
G37*
G36*
X136056821Y-60121313D02*
X136056824Y-60121314D01*
X136056825Y-60121314D01*
X136217239Y-60169975D01*
X136217241Y-60169976D01*
X136217244Y-60169977D01*
X136365078Y-60248995D01*
X136494659Y-60355341D01*
X136601005Y-60484922D01*
X136680023Y-60632756D01*
X136680024Y-60632759D01*
X136680025Y-60632761D01*
X136725713Y-60783375D01*
X136728687Y-60793179D01*
X136745117Y-60960000D01*
X136728687Y-61126821D01*
X136728686Y-61126824D01*
X136728686Y-61126825D01*
X136725713Y-61136627D01*
X136680023Y-61287244D01*
X136601005Y-61435078D01*
X136494659Y-61564659D01*
X136365078Y-61671005D01*
X136217244Y-61750023D01*
X136217241Y-61750024D01*
X136217239Y-61750025D01*
X136056825Y-61798686D01*
X136056824Y-61798686D01*
X136056821Y-61798687D01*
X135931804Y-61811000D01*
X135848196Y-61811000D01*
X135723179Y-61798687D01*
X135723176Y-61798686D01*
X135723175Y-61798686D01*
X135562761Y-61750025D01*
X135562759Y-61750024D01*
X135562756Y-61750023D01*
X135414922Y-61671005D01*
X135285341Y-61564659D01*
X135178995Y-61435078D01*
X135099977Y-61287244D01*
X135054288Y-61136627D01*
X135051314Y-61126825D01*
X135051314Y-61126824D01*
X135051313Y-61126821D01*
X135034883Y-60960000D01*
X135051313Y-60793179D01*
X135054287Y-60783375D01*
X135099975Y-60632761D01*
X135099976Y-60632759D01*
X135099977Y-60632756D01*
X135178995Y-60484922D01*
X135285341Y-60355341D01*
X135414922Y-60248995D01*
X135562756Y-60169977D01*
X135562759Y-60169976D01*
X135562761Y-60169975D01*
X135723175Y-60121314D01*
X135723176Y-60121314D01*
X135723179Y-60121313D01*
X135848196Y-60109000D01*
X135931804Y-60109000D01*
X136056821Y-60121313D01*
X136056821Y-60121313D01*
G37*
G36*
X147176443Y-57525519D02*
X147242627Y-57532037D01*
X147355853Y-57566384D01*
X147412467Y-57583557D01*
X147499311Y-57629977D01*
X147568991Y-57667222D01*
X147604729Y-57696552D01*
X147706186Y-57779814D01*
X147789448Y-57881271D01*
X147818778Y-57917009D01*
X147818779Y-57917011D01*
X147902443Y-58073533D01*
X147919616Y-58130147D01*
X147953963Y-58243373D01*
X147971359Y-58420000D01*
X147953963Y-58596627D01*
X147919616Y-58709853D01*
X147902443Y-58766467D01*
X147833698Y-58895078D01*
X147818778Y-58922991D01*
X147789448Y-58958729D01*
X147706186Y-59060186D01*
X147604729Y-59143448D01*
X147568991Y-59172778D01*
X147568989Y-59172779D01*
X147412467Y-59256443D01*
X147405069Y-59258687D01*
X147242627Y-59307963D01*
X147176442Y-59314482D01*
X147110260Y-59321000D01*
X147021740Y-59321000D01*
X146955558Y-59314482D01*
X146889373Y-59307963D01*
X146726931Y-59258687D01*
X146719533Y-59256443D01*
X146563011Y-59172779D01*
X146563009Y-59172778D01*
X146527271Y-59143448D01*
X146425814Y-59060186D01*
X146342552Y-58958729D01*
X146313222Y-58922991D01*
X146298302Y-58895078D01*
X146229557Y-58766467D01*
X146212384Y-58709853D01*
X146178037Y-58596627D01*
X146160641Y-58420000D01*
X146178037Y-58243373D01*
X146212384Y-58130147D01*
X146229557Y-58073533D01*
X146313221Y-57917011D01*
X146313222Y-57917009D01*
X146342552Y-57881271D01*
X146425814Y-57779814D01*
X146527271Y-57696552D01*
X146563009Y-57667222D01*
X146632689Y-57629977D01*
X146719533Y-57583557D01*
X146776147Y-57566384D01*
X146889373Y-57532037D01*
X146955557Y-57525519D01*
X147021740Y-57519000D01*
X147110260Y-57519000D01*
X147176443Y-57525519D01*
X147176443Y-57525519D01*
G37*
G36*
X132444443Y-57525519D02*
X132510627Y-57532037D01*
X132623853Y-57566384D01*
X132680467Y-57583557D01*
X132767311Y-57629977D01*
X132836991Y-57667222D01*
X132872729Y-57696552D01*
X132974186Y-57779814D01*
X133057448Y-57881271D01*
X133086778Y-57917009D01*
X133086779Y-57917011D01*
X133170443Y-58073533D01*
X133187616Y-58130147D01*
X133221963Y-58243373D01*
X133239359Y-58420000D01*
X133221963Y-58596627D01*
X133187616Y-58709853D01*
X133170443Y-58766467D01*
X133101698Y-58895078D01*
X133086778Y-58922991D01*
X133057448Y-58958729D01*
X132974186Y-59060186D01*
X132872729Y-59143448D01*
X132836991Y-59172778D01*
X132836989Y-59172779D01*
X132680467Y-59256443D01*
X132673069Y-59258687D01*
X132510627Y-59307963D01*
X132444442Y-59314482D01*
X132378260Y-59321000D01*
X132289740Y-59321000D01*
X132223558Y-59314482D01*
X132157373Y-59307963D01*
X131994931Y-59258687D01*
X131987533Y-59256443D01*
X131831011Y-59172779D01*
X131831009Y-59172778D01*
X131795271Y-59143448D01*
X131693814Y-59060186D01*
X131610552Y-58958729D01*
X131581222Y-58922991D01*
X131566302Y-58895078D01*
X131497557Y-58766467D01*
X131480384Y-58709853D01*
X131446037Y-58596627D01*
X131428641Y-58420000D01*
X131446037Y-58243373D01*
X131480384Y-58130147D01*
X131497557Y-58073533D01*
X131581221Y-57917011D01*
X131581222Y-57917009D01*
X131610552Y-57881271D01*
X131693814Y-57779814D01*
X131795271Y-57696552D01*
X131831009Y-57667222D01*
X131900689Y-57629977D01*
X131987533Y-57583557D01*
X132044147Y-57566384D01*
X132157373Y-57532037D01*
X132223557Y-57525519D01*
X132289740Y-57519000D01*
X132378260Y-57519000D01*
X132444443Y-57525519D01*
X132444443Y-57525519D01*
G37*
G36*
X143676821Y-57581313D02*
X143676824Y-57581314D01*
X143676825Y-57581314D01*
X143837239Y-57629975D01*
X143837241Y-57629976D01*
X143837244Y-57629977D01*
X143985078Y-57708995D01*
X144114659Y-57815341D01*
X144221005Y-57944922D01*
X144300023Y-58092756D01*
X144300024Y-58092759D01*
X144300025Y-58092761D01*
X144345713Y-58243375D01*
X144348687Y-58253179D01*
X144365117Y-58420000D01*
X144348687Y-58586821D01*
X144348686Y-58586824D01*
X144348686Y-58586825D01*
X144345713Y-58596627D01*
X144300023Y-58747244D01*
X144221005Y-58895078D01*
X144114659Y-59024659D01*
X143985078Y-59131005D01*
X143837244Y-59210023D01*
X143837241Y-59210024D01*
X143837239Y-59210025D01*
X143676825Y-59258686D01*
X143676824Y-59258686D01*
X143676821Y-59258687D01*
X143551804Y-59271000D01*
X143468196Y-59271000D01*
X143343179Y-59258687D01*
X143343176Y-59258686D01*
X143343175Y-59258686D01*
X143182761Y-59210025D01*
X143182759Y-59210024D01*
X143182756Y-59210023D01*
X143034922Y-59131005D01*
X142905341Y-59024659D01*
X142798995Y-58895078D01*
X142719977Y-58747244D01*
X142674288Y-58596627D01*
X142671314Y-58586825D01*
X142671314Y-58586824D01*
X142671313Y-58586821D01*
X142654883Y-58420000D01*
X142671313Y-58253179D01*
X142674287Y-58243375D01*
X142719975Y-58092761D01*
X142719976Y-58092759D01*
X142719977Y-58092756D01*
X142798995Y-57944922D01*
X142905341Y-57815341D01*
X143034922Y-57708995D01*
X143182756Y-57629977D01*
X143182759Y-57629976D01*
X143182761Y-57629975D01*
X143343175Y-57581314D01*
X143343176Y-57581314D01*
X143343179Y-57581313D01*
X143468196Y-57569000D01*
X143551804Y-57569000D01*
X143676821Y-57581313D01*
X143676821Y-57581313D01*
G37*
G36*
X136056821Y-57581313D02*
X136056824Y-57581314D01*
X136056825Y-57581314D01*
X136217239Y-57629975D01*
X136217241Y-57629976D01*
X136217244Y-57629977D01*
X136365078Y-57708995D01*
X136494659Y-57815341D01*
X136601005Y-57944922D01*
X136680023Y-58092756D01*
X136680024Y-58092759D01*
X136680025Y-58092761D01*
X136725713Y-58243375D01*
X136728687Y-58253179D01*
X136745117Y-58420000D01*
X136728687Y-58586821D01*
X136728686Y-58586824D01*
X136728686Y-58586825D01*
X136725713Y-58596627D01*
X136680023Y-58747244D01*
X136601005Y-58895078D01*
X136494659Y-59024659D01*
X136365078Y-59131005D01*
X136217244Y-59210023D01*
X136217241Y-59210024D01*
X136217239Y-59210025D01*
X136056825Y-59258686D01*
X136056824Y-59258686D01*
X136056821Y-59258687D01*
X135931804Y-59271000D01*
X135848196Y-59271000D01*
X135723179Y-59258687D01*
X135723176Y-59258686D01*
X135723175Y-59258686D01*
X135562761Y-59210025D01*
X135562759Y-59210024D01*
X135562756Y-59210023D01*
X135414922Y-59131005D01*
X135285341Y-59024659D01*
X135178995Y-58895078D01*
X135099977Y-58747244D01*
X135054288Y-58596627D01*
X135051314Y-58586825D01*
X135051314Y-58586824D01*
X135051313Y-58586821D01*
X135034883Y-58420000D01*
X135051313Y-58253179D01*
X135054287Y-58243375D01*
X135099975Y-58092761D01*
X135099976Y-58092759D01*
X135099977Y-58092756D01*
X135178995Y-57944922D01*
X135285341Y-57815341D01*
X135414922Y-57708995D01*
X135562756Y-57629977D01*
X135562759Y-57629976D01*
X135562761Y-57629975D01*
X135723175Y-57581314D01*
X135723176Y-57581314D01*
X135723179Y-57581313D01*
X135848196Y-57569000D01*
X135931804Y-57569000D01*
X136056821Y-57581313D01*
X136056821Y-57581313D01*
G37*
G36*
X147176443Y-54985519D02*
X147242627Y-54992037D01*
X147355853Y-55026384D01*
X147412467Y-55043557D01*
X147499311Y-55089977D01*
X147568991Y-55127222D01*
X147604729Y-55156552D01*
X147706186Y-55239814D01*
X147789448Y-55341271D01*
X147818778Y-55377009D01*
X147818779Y-55377011D01*
X147902443Y-55533533D01*
X147919616Y-55590147D01*
X147953963Y-55703373D01*
X147971359Y-55880000D01*
X147953963Y-56056627D01*
X147919616Y-56169853D01*
X147902443Y-56226467D01*
X147833698Y-56355078D01*
X147818778Y-56382991D01*
X147789448Y-56418729D01*
X147706186Y-56520186D01*
X147604729Y-56603448D01*
X147568991Y-56632778D01*
X147568989Y-56632779D01*
X147412467Y-56716443D01*
X147405069Y-56718687D01*
X147242627Y-56767963D01*
X147176443Y-56774481D01*
X147110260Y-56781000D01*
X147021740Y-56781000D01*
X146955557Y-56774481D01*
X146889373Y-56767963D01*
X146726931Y-56718687D01*
X146719533Y-56716443D01*
X146563011Y-56632779D01*
X146563009Y-56632778D01*
X146527271Y-56603448D01*
X146425814Y-56520186D01*
X146342552Y-56418729D01*
X146313222Y-56382991D01*
X146298302Y-56355078D01*
X146229557Y-56226467D01*
X146212384Y-56169853D01*
X146178037Y-56056627D01*
X146160641Y-55880000D01*
X146178037Y-55703373D01*
X146212384Y-55590147D01*
X146229557Y-55533533D01*
X146313221Y-55377011D01*
X146313222Y-55377009D01*
X146342552Y-55341271D01*
X146425814Y-55239814D01*
X146527271Y-55156552D01*
X146563009Y-55127222D01*
X146632689Y-55089977D01*
X146719533Y-55043557D01*
X146776147Y-55026384D01*
X146889373Y-54992037D01*
X146955557Y-54985519D01*
X147021740Y-54979000D01*
X147110260Y-54979000D01*
X147176443Y-54985519D01*
X147176443Y-54985519D01*
G37*
G36*
X132444443Y-54985519D02*
X132510627Y-54992037D01*
X132623853Y-55026384D01*
X132680467Y-55043557D01*
X132767311Y-55089977D01*
X132836991Y-55127222D01*
X132872729Y-55156552D01*
X132974186Y-55239814D01*
X133057448Y-55341271D01*
X133086778Y-55377009D01*
X133086779Y-55377011D01*
X133170443Y-55533533D01*
X133187616Y-55590147D01*
X133221963Y-55703373D01*
X133239359Y-55880000D01*
X133221963Y-56056627D01*
X133187616Y-56169853D01*
X133170443Y-56226467D01*
X133101698Y-56355078D01*
X133086778Y-56382991D01*
X133057448Y-56418729D01*
X132974186Y-56520186D01*
X132872729Y-56603448D01*
X132836991Y-56632778D01*
X132836989Y-56632779D01*
X132680467Y-56716443D01*
X132673069Y-56718687D01*
X132510627Y-56767963D01*
X132444443Y-56774481D01*
X132378260Y-56781000D01*
X132289740Y-56781000D01*
X132223557Y-56774481D01*
X132157373Y-56767963D01*
X131994931Y-56718687D01*
X131987533Y-56716443D01*
X131831011Y-56632779D01*
X131831009Y-56632778D01*
X131795271Y-56603448D01*
X131693814Y-56520186D01*
X131610552Y-56418729D01*
X131581222Y-56382991D01*
X131566302Y-56355078D01*
X131497557Y-56226467D01*
X131480384Y-56169853D01*
X131446037Y-56056627D01*
X131428641Y-55880000D01*
X131446037Y-55703373D01*
X131480384Y-55590147D01*
X131497557Y-55533533D01*
X131581221Y-55377011D01*
X131581222Y-55377009D01*
X131610552Y-55341271D01*
X131693814Y-55239814D01*
X131795271Y-55156552D01*
X131831009Y-55127222D01*
X131900689Y-55089977D01*
X131987533Y-55043557D01*
X132044147Y-55026384D01*
X132157373Y-54992037D01*
X132223557Y-54985519D01*
X132289740Y-54979000D01*
X132378260Y-54979000D01*
X132444443Y-54985519D01*
X132444443Y-54985519D01*
G37*
G36*
X136056821Y-55041313D02*
X136056824Y-55041314D01*
X136056825Y-55041314D01*
X136217239Y-55089975D01*
X136217241Y-55089976D01*
X136217244Y-55089977D01*
X136365078Y-55168995D01*
X136494659Y-55275341D01*
X136601005Y-55404922D01*
X136680023Y-55552756D01*
X136680024Y-55552759D01*
X136680025Y-55552761D01*
X136725713Y-55703375D01*
X136728687Y-55713179D01*
X136745117Y-55880000D01*
X136728687Y-56046821D01*
X136728686Y-56046824D01*
X136728686Y-56046825D01*
X136725713Y-56056627D01*
X136680023Y-56207244D01*
X136601005Y-56355078D01*
X136494659Y-56484659D01*
X136365078Y-56591005D01*
X136217244Y-56670023D01*
X136217241Y-56670024D01*
X136217239Y-56670025D01*
X136056825Y-56718686D01*
X136056824Y-56718686D01*
X136056821Y-56718687D01*
X135931804Y-56731000D01*
X135848196Y-56731000D01*
X135723179Y-56718687D01*
X135723176Y-56718686D01*
X135723175Y-56718686D01*
X135562761Y-56670025D01*
X135562759Y-56670024D01*
X135562756Y-56670023D01*
X135414922Y-56591005D01*
X135285341Y-56484659D01*
X135178995Y-56355078D01*
X135099977Y-56207244D01*
X135054288Y-56056627D01*
X135051314Y-56046825D01*
X135051314Y-56046824D01*
X135051313Y-56046821D01*
X135034883Y-55880000D01*
X135051313Y-55713179D01*
X135054287Y-55703375D01*
X135099975Y-55552761D01*
X135099976Y-55552759D01*
X135099977Y-55552756D01*
X135178995Y-55404922D01*
X135285341Y-55275341D01*
X135414922Y-55168995D01*
X135562756Y-55089977D01*
X135562759Y-55089976D01*
X135562761Y-55089975D01*
X135723175Y-55041314D01*
X135723176Y-55041314D01*
X135723179Y-55041313D01*
X135848196Y-55029000D01*
X135931804Y-55029000D01*
X136056821Y-55041313D01*
X136056821Y-55041313D01*
G37*
G36*
X143676821Y-55041313D02*
X143676824Y-55041314D01*
X143676825Y-55041314D01*
X143837239Y-55089975D01*
X143837241Y-55089976D01*
X143837244Y-55089977D01*
X143985078Y-55168995D01*
X144114659Y-55275341D01*
X144221005Y-55404922D01*
X144300023Y-55552756D01*
X144300024Y-55552759D01*
X144300025Y-55552761D01*
X144345713Y-55703375D01*
X144348687Y-55713179D01*
X144365117Y-55880000D01*
X144348687Y-56046821D01*
X144348686Y-56046824D01*
X144348686Y-56046825D01*
X144345713Y-56056627D01*
X144300023Y-56207244D01*
X144221005Y-56355078D01*
X144114659Y-56484659D01*
X143985078Y-56591005D01*
X143837244Y-56670023D01*
X143837241Y-56670024D01*
X143837239Y-56670025D01*
X143676825Y-56718686D01*
X143676824Y-56718686D01*
X143676821Y-56718687D01*
X143551804Y-56731000D01*
X143468196Y-56731000D01*
X143343179Y-56718687D01*
X143343176Y-56718686D01*
X143343175Y-56718686D01*
X143182761Y-56670025D01*
X143182759Y-56670024D01*
X143182756Y-56670023D01*
X143034922Y-56591005D01*
X142905341Y-56484659D01*
X142798995Y-56355078D01*
X142719977Y-56207244D01*
X142674288Y-56056627D01*
X142671314Y-56046825D01*
X142671314Y-56046824D01*
X142671313Y-56046821D01*
X142654883Y-55880000D01*
X142671313Y-55713179D01*
X142674287Y-55703375D01*
X142719975Y-55552761D01*
X142719976Y-55552759D01*
X142719977Y-55552756D01*
X142798995Y-55404922D01*
X142905341Y-55275341D01*
X143034922Y-55168995D01*
X143182756Y-55089977D01*
X143182759Y-55089976D01*
X143182761Y-55089975D01*
X143343175Y-55041314D01*
X143343176Y-55041314D01*
X143343179Y-55041313D01*
X143468196Y-55029000D01*
X143551804Y-55029000D01*
X143676821Y-55041313D01*
X143676821Y-55041313D01*
G37*
G36*
X147967000Y-54241000D02*
X146165000Y-54241000D01*
X146165000Y-52439000D01*
X147967000Y-52439000D01*
X147967000Y-54241000D01*
X147967000Y-54241000D01*
G37*
G36*
X133235000Y-54241000D02*
X131433000Y-54241000D01*
X131433000Y-52439000D01*
X133235000Y-52439000D01*
X133235000Y-54241000D01*
X133235000Y-54241000D01*
G37*
G36*
X136741000Y-54191000D02*
X135039000Y-54191000D01*
X135039000Y-52489000D01*
X136741000Y-52489000D01*
X136741000Y-54191000D01*
X136741000Y-54191000D01*
G37*
G36*
X143676821Y-52501313D02*
X143676824Y-52501314D01*
X143676825Y-52501314D01*
X143837239Y-52549975D01*
X143837241Y-52549976D01*
X143837244Y-52549977D01*
X143985078Y-52628995D01*
X144114659Y-52735341D01*
X144221005Y-52864922D01*
X144300023Y-53012756D01*
X144348687Y-53173179D01*
X144365117Y-53340000D01*
X144348687Y-53506821D01*
X144300023Y-53667244D01*
X144221005Y-53815078D01*
X144114659Y-53944659D01*
X143985078Y-54051005D01*
X143837244Y-54130023D01*
X143837241Y-54130024D01*
X143837239Y-54130025D01*
X143676825Y-54178686D01*
X143676824Y-54178686D01*
X143676821Y-54178687D01*
X143551804Y-54191000D01*
X143468196Y-54191000D01*
X143343179Y-54178687D01*
X143343176Y-54178686D01*
X143343175Y-54178686D01*
X143182761Y-54130025D01*
X143182759Y-54130024D01*
X143182756Y-54130023D01*
X143034922Y-54051005D01*
X142905341Y-53944659D01*
X142798995Y-53815078D01*
X142719977Y-53667244D01*
X142671313Y-53506821D01*
X142654883Y-53340000D01*
X142671313Y-53173179D01*
X142719977Y-53012756D01*
X142798995Y-52864922D01*
X142905341Y-52735341D01*
X143034922Y-52628995D01*
X143182756Y-52549977D01*
X143182759Y-52549976D01*
X143182761Y-52549975D01*
X143343175Y-52501314D01*
X143343176Y-52501314D01*
X143343179Y-52501313D01*
X143468196Y-52489000D01*
X143551804Y-52489000D01*
X143676821Y-52501313D01*
X143676821Y-52501313D01*
G37*
G36*
X142408228Y-48711703D02*
X142563100Y-48775853D01*
X142702481Y-48868985D01*
X142821015Y-48987519D01*
X142914147Y-49126900D01*
X142978297Y-49281772D01*
X143011000Y-49446184D01*
X143011000Y-49613816D01*
X142978297Y-49778228D01*
X142914147Y-49933100D01*
X142821015Y-50072481D01*
X142702481Y-50191015D01*
X142563100Y-50284147D01*
X142408228Y-50348297D01*
X142243816Y-50381000D01*
X142076184Y-50381000D01*
X141911772Y-50348297D01*
X141756900Y-50284147D01*
X141617519Y-50191015D01*
X141498985Y-50072481D01*
X141405853Y-49933100D01*
X141341703Y-49778228D01*
X141309000Y-49613816D01*
X141309000Y-49446184D01*
X141341703Y-49281772D01*
X141405853Y-49126900D01*
X141498985Y-48987519D01*
X141617519Y-48868985D01*
X141756900Y-48775853D01*
X141911772Y-48711703D01*
X142076184Y-48679000D01*
X142243816Y-48679000D01*
X142408228Y-48711703D01*
X142408228Y-48711703D01*
G37*
G36*
X137408228Y-48711703D02*
X137563100Y-48775853D01*
X137702481Y-48868985D01*
X137821015Y-48987519D01*
X137914147Y-49126900D01*
X137978297Y-49281772D01*
X138011000Y-49446184D01*
X138011000Y-49613816D01*
X137978297Y-49778228D01*
X137914147Y-49933100D01*
X137821015Y-50072481D01*
X137702481Y-50191015D01*
X137563100Y-50284147D01*
X137408228Y-50348297D01*
X137243816Y-50381000D01*
X137076184Y-50381000D01*
X136911772Y-50348297D01*
X136756900Y-50284147D01*
X136617519Y-50191015D01*
X136498985Y-50072481D01*
X136405853Y-49933100D01*
X136341703Y-49778228D01*
X136309000Y-49613816D01*
X136309000Y-49446184D01*
X136341703Y-49281772D01*
X136405853Y-49126900D01*
X136498985Y-48987519D01*
X136617519Y-48868985D01*
X136756900Y-48775853D01*
X136911772Y-48711703D01*
X137076184Y-48679000D01*
X137243816Y-48679000D01*
X137408228Y-48711703D01*
X137408228Y-48711703D01*
G37*
G36*
X134786821Y-44881313D02*
X134786824Y-44881314D01*
X134786825Y-44881314D01*
X134947239Y-44929975D01*
X134947241Y-44929976D01*
X134947244Y-44929977D01*
X135095078Y-45008995D01*
X135224659Y-45115341D01*
X135331005Y-45244922D01*
X135410023Y-45392756D01*
X135410024Y-45392759D01*
X135410025Y-45392761D01*
X135458686Y-45553175D01*
X135458687Y-45553179D01*
X135475117Y-45720000D01*
X135458687Y-45886821D01*
X135458686Y-45886824D01*
X135458686Y-45886825D01*
X135433993Y-45968228D01*
X135410023Y-46047244D01*
X135331005Y-46195078D01*
X135224659Y-46324659D01*
X135095078Y-46431005D01*
X134947244Y-46510023D01*
X134947241Y-46510024D01*
X134947239Y-46510025D01*
X134786825Y-46558686D01*
X134786824Y-46558686D01*
X134786821Y-46558687D01*
X134661804Y-46571000D01*
X134578196Y-46571000D01*
X134453179Y-46558687D01*
X134453176Y-46558686D01*
X134453175Y-46558686D01*
X134292761Y-46510025D01*
X134292759Y-46510024D01*
X134292756Y-46510023D01*
X134144922Y-46431005D01*
X134015341Y-46324659D01*
X133908995Y-46195078D01*
X133829977Y-46047244D01*
X133806008Y-45968228D01*
X133781314Y-45886825D01*
X133781314Y-45886824D01*
X133781313Y-45886821D01*
X133764883Y-45720000D01*
X133781313Y-45553179D01*
X133781314Y-45553175D01*
X133829975Y-45392761D01*
X133829976Y-45392759D01*
X133829977Y-45392756D01*
X133908995Y-45244922D01*
X134015341Y-45115341D01*
X134144922Y-45008995D01*
X134292756Y-44929977D01*
X134292759Y-44929976D01*
X134292761Y-44929975D01*
X134453175Y-44881314D01*
X134453176Y-44881314D01*
X134453179Y-44881313D01*
X134578196Y-44869000D01*
X134661804Y-44869000D01*
X134786821Y-44881313D01*
X134786821Y-44881313D01*
G37*
G36*
X145028228Y-44901703D02*
X145183100Y-44965853D01*
X145322481Y-45058985D01*
X145441015Y-45177519D01*
X145534147Y-45316900D01*
X145598297Y-45471772D01*
X145631000Y-45636184D01*
X145631000Y-45803816D01*
X145598297Y-45968228D01*
X145534147Y-46123100D01*
X145441015Y-46262481D01*
X145322481Y-46381015D01*
X145183100Y-46474147D01*
X145028228Y-46538297D01*
X144863816Y-46571000D01*
X144696184Y-46571000D01*
X144531772Y-46538297D01*
X144376900Y-46474147D01*
X144237519Y-46381015D01*
X144118985Y-46262481D01*
X144025853Y-46123100D01*
X143961703Y-45968228D01*
X143929000Y-45803816D01*
X143929000Y-45636184D01*
X143961703Y-45471772D01*
X144025853Y-45316900D01*
X144118985Y-45177519D01*
X144237519Y-45058985D01*
X144376900Y-44965853D01*
X144531772Y-44901703D01*
X144696184Y-44869000D01*
X144863816Y-44869000D01*
X145028228Y-44901703D01*
X145028228Y-44901703D01*
G37*
G36*
X133598228Y-41011703D02*
X133753100Y-41075853D01*
X133892481Y-41168985D01*
X134011015Y-41287519D01*
X134104147Y-41426900D01*
X134168297Y-41581772D01*
X134201000Y-41746184D01*
X134201000Y-41913816D01*
X134168297Y-42078228D01*
X134104147Y-42233100D01*
X134011015Y-42372481D01*
X133892481Y-42491015D01*
X133753100Y-42584147D01*
X133598228Y-42648297D01*
X133433816Y-42681000D01*
X133266184Y-42681000D01*
X133101772Y-42648297D01*
X132946900Y-42584147D01*
X132807519Y-42491015D01*
X132688985Y-42372481D01*
X132595853Y-42233100D01*
X132531703Y-42078228D01*
X132499000Y-41913816D01*
X132499000Y-41746184D01*
X132531703Y-41581772D01*
X132595853Y-41426900D01*
X132688985Y-41287519D01*
X132807519Y-41168985D01*
X132946900Y-41075853D01*
X133101772Y-41011703D01*
X133266184Y-40979000D01*
X133433816Y-40979000D01*
X133598228Y-41011703D01*
X133598228Y-41011703D01*
G37*
G36*
X137466565Y-40319389D02*
X137657834Y-40398615D01*
X137829976Y-40513637D01*
X137976363Y-40660024D01*
X138091385Y-40832166D01*
X138170611Y-41023435D01*
X138211000Y-41226484D01*
X138211000Y-41433516D01*
X138170611Y-41636565D01*
X138091385Y-41827834D01*
X137976363Y-41999976D01*
X137829976Y-42146363D01*
X137657834Y-42261385D01*
X137466565Y-42340611D01*
X137263516Y-42381000D01*
X137056484Y-42381000D01*
X136853435Y-42340611D01*
X136662166Y-42261385D01*
X136490024Y-42146363D01*
X136343637Y-41999976D01*
X136228615Y-41827834D01*
X136149389Y-41636565D01*
X136109000Y-41433516D01*
X136109000Y-41226484D01*
X136149389Y-41023435D01*
X136228615Y-40832166D01*
X136343637Y-40660024D01*
X136490024Y-40513637D01*
X136662166Y-40398615D01*
X136853435Y-40319389D01*
X137056484Y-40279000D01*
X137263516Y-40279000D01*
X137466565Y-40319389D01*
X137466565Y-40319389D01*
G37*
G36*
X143966565Y-40319389D02*
X144157834Y-40398615D01*
X144329976Y-40513637D01*
X144476363Y-40660024D01*
X144591385Y-40832166D01*
X144670611Y-41023435D01*
X144711000Y-41226484D01*
X144711000Y-41433516D01*
X144670611Y-41636565D01*
X144591385Y-41827834D01*
X144476363Y-41999976D01*
X144329976Y-42146363D01*
X144157834Y-42261385D01*
X143966565Y-42340611D01*
X143763516Y-42381000D01*
X143556484Y-42381000D01*
X143353435Y-42340611D01*
X143162166Y-42261385D01*
X142990024Y-42146363D01*
X142843637Y-41999976D01*
X142728615Y-41827834D01*
X142649389Y-41636565D01*
X142609000Y-41433516D01*
X142609000Y-41226484D01*
X142649389Y-41023435D01*
X142728615Y-40832166D01*
X142843637Y-40660024D01*
X142990024Y-40513637D01*
X143162166Y-40398615D01*
X143353435Y-40319389D01*
X143556484Y-40279000D01*
X143763516Y-40279000D01*
X143966565Y-40319389D01*
X143966565Y-40319389D01*
G37*
G36*
X143966565Y-35819389D02*
X144157834Y-35898615D01*
X144329976Y-36013637D01*
X144476363Y-36160024D01*
X144591385Y-36332166D01*
X144670611Y-36523435D01*
X144711000Y-36726484D01*
X144711000Y-36933516D01*
X144670611Y-37136565D01*
X144591385Y-37327834D01*
X144476363Y-37499976D01*
X144329976Y-37646363D01*
X144157834Y-37761385D01*
X143966565Y-37840611D01*
X143763516Y-37881000D01*
X143556484Y-37881000D01*
X143353435Y-37840611D01*
X143162166Y-37761385D01*
X142990024Y-37646363D01*
X142843637Y-37499976D01*
X142728615Y-37327834D01*
X142649389Y-37136565D01*
X142609000Y-36933516D01*
X142609000Y-36726484D01*
X142649389Y-36523435D01*
X142728615Y-36332166D01*
X142843637Y-36160024D01*
X142990024Y-36013637D01*
X143162166Y-35898615D01*
X143353435Y-35819389D01*
X143556484Y-35779000D01*
X143763516Y-35779000D01*
X143966565Y-35819389D01*
X143966565Y-35819389D01*
G37*
G36*
X137466565Y-35819389D02*
X137657834Y-35898615D01*
X137829976Y-36013637D01*
X137976363Y-36160024D01*
X138091385Y-36332166D01*
X138170611Y-36523435D01*
X138211000Y-36726484D01*
X138211000Y-36933516D01*
X138170611Y-37136565D01*
X138091385Y-37327834D01*
X137976363Y-37499976D01*
X137829976Y-37646363D01*
X137657834Y-37761385D01*
X137466565Y-37840611D01*
X137263516Y-37881000D01*
X137056484Y-37881000D01*
X136853435Y-37840611D01*
X136662166Y-37761385D01*
X136490024Y-37646363D01*
X136343637Y-37499976D01*
X136228615Y-37327834D01*
X136149389Y-37136565D01*
X136109000Y-36933516D01*
X136109000Y-36726484D01*
X136149389Y-36523435D01*
X136228615Y-36332166D01*
X136343637Y-36160024D01*
X136490024Y-36013637D01*
X136662166Y-35898615D01*
X136853435Y-35819389D01*
X137056484Y-35779000D01*
X137263516Y-35779000D01*
X137466565Y-35819389D01*
X137466565Y-35819389D01*
G37*
G36*
X133598228Y-36011703D02*
X133753100Y-36075853D01*
X133892481Y-36168985D01*
X134011015Y-36287519D01*
X134104147Y-36426900D01*
X134168297Y-36581772D01*
X134201000Y-36746184D01*
X134201000Y-36913816D01*
X134168297Y-37078228D01*
X134104147Y-37233100D01*
X134011015Y-37372481D01*
X133892481Y-37491015D01*
X133753100Y-37584147D01*
X133598228Y-37648297D01*
X133433816Y-37681000D01*
X133266184Y-37681000D01*
X133101772Y-37648297D01*
X132946900Y-37584147D01*
X132807519Y-37491015D01*
X132688985Y-37372481D01*
X132595853Y-37233100D01*
X132531703Y-37078228D01*
X132499000Y-36913816D01*
X132499000Y-36746184D01*
X132531703Y-36581772D01*
X132595853Y-36426900D01*
X132688985Y-36287519D01*
X132807519Y-36168985D01*
X132946900Y-36075853D01*
X133101772Y-36011703D01*
X133266184Y-35979000D01*
X133433816Y-35979000D01*
X133598228Y-36011703D01*
X133598228Y-36011703D01*
G37*
G36*
X133460443Y-32125519D02*
X133526627Y-32132037D01*
X133639853Y-32166384D01*
X133696467Y-32183557D01*
X133835087Y-32257652D01*
X133852991Y-32267222D01*
X133888729Y-32296552D01*
X133990186Y-32379814D01*
X134073448Y-32481271D01*
X134102778Y-32517009D01*
X134102779Y-32517011D01*
X134186443Y-32673533D01*
X134186443Y-32673534D01*
X134237963Y-32843373D01*
X134255359Y-33020000D01*
X134237963Y-33196627D01*
X134203616Y-33309853D01*
X134186443Y-33366467D01*
X134112348Y-33505087D01*
X134102778Y-33522991D01*
X134073448Y-33558729D01*
X133990186Y-33660186D01*
X133888729Y-33743448D01*
X133852991Y-33772778D01*
X133852989Y-33772779D01*
X133696467Y-33856443D01*
X133639853Y-33873616D01*
X133526627Y-33907963D01*
X133460443Y-33914481D01*
X133394260Y-33921000D01*
X133305740Y-33921000D01*
X133239557Y-33914481D01*
X133173373Y-33907963D01*
X133060147Y-33873616D01*
X133003533Y-33856443D01*
X132847011Y-33772779D01*
X132847009Y-33772778D01*
X132811271Y-33743448D01*
X132709814Y-33660186D01*
X132626552Y-33558729D01*
X132597222Y-33522991D01*
X132587652Y-33505087D01*
X132513557Y-33366467D01*
X132496384Y-33309853D01*
X132462037Y-33196627D01*
X132444641Y-33020000D01*
X132462037Y-32843373D01*
X132513557Y-32673534D01*
X132513557Y-32673533D01*
X132597221Y-32517011D01*
X132597222Y-32517009D01*
X132626552Y-32481271D01*
X132709814Y-32379814D01*
X132811271Y-32296552D01*
X132847009Y-32267222D01*
X132864913Y-32257652D01*
X133003533Y-32183557D01*
X133060147Y-32166384D01*
X133173373Y-32132037D01*
X133239557Y-32125519D01*
X133305740Y-32119000D01*
X133394260Y-32119000D01*
X133460443Y-32125519D01*
X133460443Y-32125519D01*
G37*
G36*
X136000443Y-32125519D02*
X136066627Y-32132037D01*
X136179853Y-32166384D01*
X136236467Y-32183557D01*
X136375087Y-32257652D01*
X136392991Y-32267222D01*
X136428729Y-32296552D01*
X136530186Y-32379814D01*
X136613448Y-32481271D01*
X136642778Y-32517009D01*
X136642779Y-32517011D01*
X136726443Y-32673533D01*
X136726443Y-32673534D01*
X136777963Y-32843373D01*
X136795359Y-33020000D01*
X136777963Y-33196627D01*
X136743616Y-33309853D01*
X136726443Y-33366467D01*
X136652348Y-33505087D01*
X136642778Y-33522991D01*
X136613448Y-33558729D01*
X136530186Y-33660186D01*
X136428729Y-33743448D01*
X136392991Y-33772778D01*
X136392989Y-33772779D01*
X136236467Y-33856443D01*
X136179853Y-33873616D01*
X136066627Y-33907963D01*
X136000443Y-33914481D01*
X135934260Y-33921000D01*
X135845740Y-33921000D01*
X135779557Y-33914481D01*
X135713373Y-33907963D01*
X135600147Y-33873616D01*
X135543533Y-33856443D01*
X135387011Y-33772779D01*
X135387009Y-33772778D01*
X135351271Y-33743448D01*
X135249814Y-33660186D01*
X135166552Y-33558729D01*
X135137222Y-33522991D01*
X135127652Y-33505087D01*
X135053557Y-33366467D01*
X135036384Y-33309853D01*
X135002037Y-33196627D01*
X134984641Y-33020000D01*
X135002037Y-32843373D01*
X135053557Y-32673534D01*
X135053557Y-32673533D01*
X135137221Y-32517011D01*
X135137222Y-32517009D01*
X135166552Y-32481271D01*
X135249814Y-32379814D01*
X135351271Y-32296552D01*
X135387009Y-32267222D01*
X135404913Y-32257652D01*
X135543533Y-32183557D01*
X135600147Y-32166384D01*
X135713373Y-32132037D01*
X135779557Y-32125519D01*
X135845740Y-32119000D01*
X135934260Y-32119000D01*
X136000443Y-32125519D01*
X136000443Y-32125519D01*
G37*
G36*
X138540443Y-32125519D02*
X138606627Y-32132037D01*
X138719853Y-32166384D01*
X138776467Y-32183557D01*
X138915087Y-32257652D01*
X138932991Y-32267222D01*
X138968729Y-32296552D01*
X139070186Y-32379814D01*
X139153448Y-32481271D01*
X139182778Y-32517009D01*
X139182779Y-32517011D01*
X139266443Y-32673533D01*
X139266443Y-32673534D01*
X139317963Y-32843373D01*
X139335359Y-33020000D01*
X139317963Y-33196627D01*
X139283616Y-33309853D01*
X139266443Y-33366467D01*
X139192348Y-33505087D01*
X139182778Y-33522991D01*
X139153448Y-33558729D01*
X139070186Y-33660186D01*
X138968729Y-33743448D01*
X138932991Y-33772778D01*
X138932989Y-33772779D01*
X138776467Y-33856443D01*
X138719853Y-33873616D01*
X138606627Y-33907963D01*
X138540443Y-33914481D01*
X138474260Y-33921000D01*
X138385740Y-33921000D01*
X138319557Y-33914481D01*
X138253373Y-33907963D01*
X138140147Y-33873616D01*
X138083533Y-33856443D01*
X137927011Y-33772779D01*
X137927009Y-33772778D01*
X137891271Y-33743448D01*
X137789814Y-33660186D01*
X137706552Y-33558729D01*
X137677222Y-33522991D01*
X137667652Y-33505087D01*
X137593557Y-33366467D01*
X137576384Y-33309853D01*
X137542037Y-33196627D01*
X137524641Y-33020000D01*
X137542037Y-32843373D01*
X137593557Y-32673534D01*
X137593557Y-32673533D01*
X137677221Y-32517011D01*
X137677222Y-32517009D01*
X137706552Y-32481271D01*
X137789814Y-32379814D01*
X137891271Y-32296552D01*
X137927009Y-32267222D01*
X137944913Y-32257652D01*
X138083533Y-32183557D01*
X138140147Y-32166384D01*
X138253373Y-32132037D01*
X138319557Y-32125519D01*
X138385740Y-32119000D01*
X138474260Y-32119000D01*
X138540443Y-32125519D01*
X138540443Y-32125519D01*
G37*
G36*
X146951000Y-33921000D02*
X145149000Y-33921000D01*
X145149000Y-32119000D01*
X146951000Y-32119000D01*
X146951000Y-33921000D01*
X146951000Y-33921000D01*
G37*
G36*
X143620443Y-32125519D02*
X143686627Y-32132037D01*
X143799853Y-32166384D01*
X143856467Y-32183557D01*
X143995087Y-32257652D01*
X144012991Y-32267222D01*
X144048729Y-32296552D01*
X144150186Y-32379814D01*
X144233448Y-32481271D01*
X144262778Y-32517009D01*
X144262779Y-32517011D01*
X144346443Y-32673533D01*
X144346443Y-32673534D01*
X144397963Y-32843373D01*
X144415359Y-33020000D01*
X144397963Y-33196627D01*
X144363616Y-33309853D01*
X144346443Y-33366467D01*
X144272348Y-33505087D01*
X144262778Y-33522991D01*
X144233448Y-33558729D01*
X144150186Y-33660186D01*
X144048729Y-33743448D01*
X144012991Y-33772778D01*
X144012989Y-33772779D01*
X143856467Y-33856443D01*
X143799853Y-33873616D01*
X143686627Y-33907963D01*
X143620443Y-33914481D01*
X143554260Y-33921000D01*
X143465740Y-33921000D01*
X143399557Y-33914481D01*
X143333373Y-33907963D01*
X143220147Y-33873616D01*
X143163533Y-33856443D01*
X143007011Y-33772779D01*
X143007009Y-33772778D01*
X142971271Y-33743448D01*
X142869814Y-33660186D01*
X142786552Y-33558729D01*
X142757222Y-33522991D01*
X142747652Y-33505087D01*
X142673557Y-33366467D01*
X142656384Y-33309853D01*
X142622037Y-33196627D01*
X142604641Y-33020000D01*
X142622037Y-32843373D01*
X142673557Y-32673534D01*
X142673557Y-32673533D01*
X142757221Y-32517011D01*
X142757222Y-32517009D01*
X142786552Y-32481271D01*
X142869814Y-32379814D01*
X142971271Y-32296552D01*
X143007009Y-32267222D01*
X143024913Y-32257652D01*
X143163533Y-32183557D01*
X143220147Y-32166384D01*
X143333373Y-32132037D01*
X143399557Y-32125519D01*
X143465740Y-32119000D01*
X143554260Y-32119000D01*
X143620443Y-32125519D01*
X143620443Y-32125519D01*
G37*
G36*
X141080443Y-32125519D02*
X141146627Y-32132037D01*
X141259853Y-32166384D01*
X141316467Y-32183557D01*
X141455087Y-32257652D01*
X141472991Y-32267222D01*
X141508729Y-32296552D01*
X141610186Y-32379814D01*
X141693448Y-32481271D01*
X141722778Y-32517009D01*
X141722779Y-32517011D01*
X141806443Y-32673533D01*
X141806443Y-32673534D01*
X141857963Y-32843373D01*
X141875359Y-33020000D01*
X141857963Y-33196627D01*
X141823616Y-33309853D01*
X141806443Y-33366467D01*
X141732348Y-33505087D01*
X141722778Y-33522991D01*
X141693448Y-33558729D01*
X141610186Y-33660186D01*
X141508729Y-33743448D01*
X141472991Y-33772778D01*
X141472989Y-33772779D01*
X141316467Y-33856443D01*
X141259853Y-33873616D01*
X141146627Y-33907963D01*
X141080443Y-33914481D01*
X141014260Y-33921000D01*
X140925740Y-33921000D01*
X140859557Y-33914481D01*
X140793373Y-33907963D01*
X140680147Y-33873616D01*
X140623533Y-33856443D01*
X140467011Y-33772779D01*
X140467009Y-33772778D01*
X140431271Y-33743448D01*
X140329814Y-33660186D01*
X140246552Y-33558729D01*
X140217222Y-33522991D01*
X140207652Y-33505087D01*
X140133557Y-33366467D01*
X140116384Y-33309853D01*
X140082037Y-33196627D01*
X140064641Y-33020000D01*
X140082037Y-32843373D01*
X140133557Y-32673534D01*
X140133557Y-32673533D01*
X140217221Y-32517011D01*
X140217222Y-32517009D01*
X140246552Y-32481271D01*
X140329814Y-32379814D01*
X140431271Y-32296552D01*
X140467009Y-32267222D01*
X140484913Y-32257652D01*
X140623533Y-32183557D01*
X140680147Y-32166384D01*
X140793373Y-32132037D01*
X140859557Y-32125519D01*
X140925740Y-32119000D01*
X141014260Y-32119000D01*
X141080443Y-32125519D01*
X141080443Y-32125519D01*
G37*
M02*
