G04 #@! TF.GenerationSoftware,KiCad,Pcbnew,5.0.2+dfsg1-1~bpo9+1*
G04 #@! TF.CreationDate,2019-06-18T09:36:45+01:00*
G04 #@! TF.ProjectId,t84opti,7438346f-7074-4692-9e6b-696361645f70,rev?*
G04 #@! TF.SameCoordinates,Original*
G04 #@! TF.FileFunction,Legend,Bot*
G04 #@! TF.FilePolarity,Positive*
%FSLAX46Y46*%
G04 Gerber Fmt 4.6, Leading zero omitted, Abs format (unit mm)*
G04 Created by KiCad (PCBNEW 5.0.2+dfsg1-1~bpo9+1) date Tue 18 Jun 2019 09:36:45 IST*
%MOMM*%
%LPD*%
G01*
G04 APERTURE LIST*
%ADD10C,0.300000*%
G04 APERTURE END LIST*
D10*
X148570000Y-35430000D02*
X148498571Y-35358571D01*
X148284285Y-35215714D01*
X148141428Y-35144285D01*
X147927142Y-35072857D01*
X147570000Y-35001428D01*
X147284285Y-35001428D01*
X146927142Y-35072857D01*
X146712857Y-35144285D01*
X146570000Y-35215714D01*
X146355714Y-35358571D01*
X146284285Y-35430000D01*
X147927142Y-36644285D02*
X147998571Y-36501428D01*
X147998571Y-36215714D01*
X147927142Y-36072857D01*
X147855714Y-36001428D01*
X147712857Y-35930000D01*
X147284285Y-35930000D01*
X147141428Y-36001428D01*
X147070000Y-36072857D01*
X146998571Y-36215714D01*
X146998571Y-36501428D01*
X147070000Y-36644285D01*
X148570000Y-37144285D02*
X148498571Y-37215714D01*
X148284285Y-37358571D01*
X148141428Y-37430000D01*
X147927142Y-37501428D01*
X147570000Y-37572857D01*
X147284285Y-37572857D01*
X146927142Y-37501428D01*
X146712857Y-37430000D01*
X146570000Y-37358571D01*
X146355714Y-37215714D01*
X146284285Y-37144285D01*
X146641428Y-39358571D02*
X146570000Y-39430000D01*
X146498571Y-39572857D01*
X146498571Y-39930000D01*
X146570000Y-40072857D01*
X146641428Y-40144285D01*
X146784285Y-40215714D01*
X146927142Y-40215714D01*
X147141428Y-40144285D01*
X147998571Y-39287142D01*
X147998571Y-40215714D01*
X146498571Y-41144285D02*
X146498571Y-41287142D01*
X146570000Y-41430000D01*
X146641428Y-41501428D01*
X146784285Y-41572857D01*
X147070000Y-41644285D01*
X147427142Y-41644285D01*
X147712857Y-41572857D01*
X147855714Y-41501428D01*
X147927142Y-41430000D01*
X147998571Y-41287142D01*
X147998571Y-41144285D01*
X147927142Y-41001428D01*
X147855714Y-40930000D01*
X147712857Y-40858571D01*
X147427142Y-40787142D01*
X147070000Y-40787142D01*
X146784285Y-40858571D01*
X146641428Y-40930000D01*
X146570000Y-41001428D01*
X146498571Y-41144285D01*
X147998571Y-43072857D02*
X147998571Y-42215714D01*
X147998571Y-42644285D02*
X146498571Y-42644285D01*
X146712857Y-42501428D01*
X146855714Y-42358571D01*
X146927142Y-42215714D01*
X147998571Y-43787142D02*
X147998571Y-44072857D01*
X147927142Y-44215714D01*
X147855714Y-44287142D01*
X147641428Y-44430000D01*
X147355714Y-44501428D01*
X146784285Y-44501428D01*
X146641428Y-44430000D01*
X146570000Y-44358571D01*
X146498571Y-44215714D01*
X146498571Y-43930000D01*
X146570000Y-43787142D01*
X146641428Y-43715714D01*
X146784285Y-43644285D01*
X147141428Y-43644285D01*
X147284285Y-43715714D01*
X147355714Y-43787142D01*
X147427142Y-43930000D01*
X147427142Y-44215714D01*
X147355714Y-44358571D01*
X147284285Y-44430000D01*
X147141428Y-44501428D01*
X147927142Y-46215714D02*
X147998571Y-46358571D01*
X147998571Y-46644285D01*
X147927142Y-46787142D01*
X147784285Y-46858571D01*
X147712857Y-46858571D01*
X147570000Y-46787142D01*
X147498571Y-46644285D01*
X147498571Y-46430000D01*
X147427142Y-46287142D01*
X147284285Y-46215714D01*
X147212857Y-46215714D01*
X147070000Y-46287142D01*
X146998571Y-46430000D01*
X146998571Y-46644285D01*
X147070000Y-46787142D01*
X146998571Y-47287142D02*
X146998571Y-47858571D01*
X146498571Y-47501428D02*
X147784285Y-47501428D01*
X147927142Y-47572857D01*
X147998571Y-47715714D01*
X147998571Y-47858571D01*
X147927142Y-48930000D02*
X147998571Y-48787142D01*
X147998571Y-48501428D01*
X147927142Y-48358571D01*
X147784285Y-48287142D01*
X147212857Y-48287142D01*
X147070000Y-48358571D01*
X146998571Y-48501428D01*
X146998571Y-48787142D01*
X147070000Y-48930000D01*
X147212857Y-49001428D01*
X147355714Y-49001428D01*
X147498571Y-48287142D01*
X146998571Y-49501428D02*
X147998571Y-49858571D01*
X146998571Y-50215714D01*
X147927142Y-51358571D02*
X147998571Y-51215714D01*
X147998571Y-50930000D01*
X147927142Y-50787142D01*
X147784285Y-50715714D01*
X147212857Y-50715714D01*
X147070000Y-50787142D01*
X146998571Y-50930000D01*
X146998571Y-51215714D01*
X147070000Y-51358571D01*
X147212857Y-51430000D01*
X147355714Y-51430000D01*
X147498571Y-50715714D01*
X138108571Y-51710000D02*
X138108571Y-52281428D01*
X137608571Y-51924285D02*
X138894285Y-51924285D01*
X139037142Y-51995714D01*
X139108571Y-52138571D01*
X139108571Y-52281428D01*
X138251428Y-52995714D02*
X138180000Y-52852857D01*
X138108571Y-52781428D01*
X137965714Y-52710000D01*
X137894285Y-52710000D01*
X137751428Y-52781428D01*
X137680000Y-52852857D01*
X137608571Y-52995714D01*
X137608571Y-53281428D01*
X137680000Y-53424285D01*
X137751428Y-53495714D01*
X137894285Y-53567142D01*
X137965714Y-53567142D01*
X138108571Y-53495714D01*
X138180000Y-53424285D01*
X138251428Y-53281428D01*
X138251428Y-52995714D01*
X138322857Y-52852857D01*
X138394285Y-52781428D01*
X138537142Y-52710000D01*
X138822857Y-52710000D01*
X138965714Y-52781428D01*
X139037142Y-52852857D01*
X139108571Y-52995714D01*
X139108571Y-53281428D01*
X139037142Y-53424285D01*
X138965714Y-53495714D01*
X138822857Y-53567142D01*
X138537142Y-53567142D01*
X138394285Y-53495714D01*
X138322857Y-53424285D01*
X138251428Y-53281428D01*
X138108571Y-54852857D02*
X139108571Y-54852857D01*
X137537142Y-54495714D02*
X138608571Y-54138571D01*
X138608571Y-55067142D01*
X139108571Y-56995714D02*
X139037142Y-56852857D01*
X138965714Y-56781428D01*
X138822857Y-56710000D01*
X138394285Y-56710000D01*
X138251428Y-56781428D01*
X138180000Y-56852857D01*
X138108571Y-56995714D01*
X138108571Y-57210000D01*
X138180000Y-57352857D01*
X138251428Y-57424285D01*
X138394285Y-57495714D01*
X138822857Y-57495714D01*
X138965714Y-57424285D01*
X139037142Y-57352857D01*
X139108571Y-57210000D01*
X139108571Y-56995714D01*
X138108571Y-58138571D02*
X139608571Y-58138571D01*
X138180000Y-58138571D02*
X138108571Y-58281428D01*
X138108571Y-58567142D01*
X138180000Y-58710000D01*
X138251428Y-58781428D01*
X138394285Y-58852857D01*
X138822857Y-58852857D01*
X138965714Y-58781428D01*
X139037142Y-58710000D01*
X139108571Y-58567142D01*
X139108571Y-58281428D01*
X139037142Y-58138571D01*
X138108571Y-59281428D02*
X138108571Y-59852857D01*
X137608571Y-59495714D02*
X138894285Y-59495714D01*
X139037142Y-59567142D01*
X139108571Y-59710000D01*
X139108571Y-59852857D01*
X139108571Y-60352857D02*
X138108571Y-60352857D01*
X137608571Y-60352857D02*
X137680000Y-60281428D01*
X137751428Y-60352857D01*
X137680000Y-60424285D01*
X137608571Y-60352857D01*
X137751428Y-60352857D01*
X139108571Y-61067142D02*
X137608571Y-61067142D01*
X138180000Y-61067142D02*
X138108571Y-61210000D01*
X138108571Y-61495714D01*
X138180000Y-61638571D01*
X138251428Y-61710000D01*
X138394285Y-61781428D01*
X138822857Y-61781428D01*
X138965714Y-61710000D01*
X139037142Y-61638571D01*
X139108571Y-61495714D01*
X139108571Y-61210000D01*
X139037142Y-61067142D01*
X139108571Y-62638571D02*
X139037142Y-62495714D01*
X138965714Y-62424285D01*
X138822857Y-62352857D01*
X138394285Y-62352857D01*
X138251428Y-62424285D01*
X138180000Y-62495714D01*
X138108571Y-62638571D01*
X138108571Y-62852857D01*
X138180000Y-62995714D01*
X138251428Y-63067142D01*
X138394285Y-63138571D01*
X138822857Y-63138571D01*
X138965714Y-63067142D01*
X139037142Y-62995714D01*
X139108571Y-62852857D01*
X139108571Y-62638571D01*
X139108571Y-63995714D02*
X139037142Y-63852857D01*
X138965714Y-63781428D01*
X138822857Y-63710000D01*
X138394285Y-63710000D01*
X138251428Y-63781428D01*
X138180000Y-63852857D01*
X138108571Y-63995714D01*
X138108571Y-64210000D01*
X138180000Y-64352857D01*
X138251428Y-64424285D01*
X138394285Y-64495714D01*
X138822857Y-64495714D01*
X138965714Y-64424285D01*
X139037142Y-64352857D01*
X139108571Y-64210000D01*
X139108571Y-63995714D01*
X138108571Y-64924285D02*
X138108571Y-65495714D01*
X137608571Y-65138571D02*
X138894285Y-65138571D01*
X139037142Y-65210000D01*
X139108571Y-65352857D01*
X139108571Y-65495714D01*
X139108571Y-67924285D02*
X139108571Y-67067142D01*
X139108571Y-67495714D02*
X137608571Y-67495714D01*
X137822857Y-67352857D01*
X137965714Y-67210000D01*
X138037142Y-67067142D01*
X138965714Y-68567142D02*
X139037142Y-68638571D01*
X139108571Y-68567142D01*
X139037142Y-68495714D01*
X138965714Y-68567142D01*
X139108571Y-68567142D01*
X137608571Y-69567142D02*
X137608571Y-69710000D01*
X137680000Y-69852857D01*
X137751428Y-69924285D01*
X137894285Y-69995714D01*
X138180000Y-70067142D01*
X138537142Y-70067142D01*
X138822857Y-69995714D01*
X138965714Y-69924285D01*
X139037142Y-69852857D01*
X139108571Y-69710000D01*
X139108571Y-69567142D01*
X139037142Y-69424285D01*
X138965714Y-69352857D01*
X138822857Y-69281428D01*
X138537142Y-69210000D01*
X138180000Y-69210000D01*
X137894285Y-69281428D01*
X137751428Y-69352857D01*
X137680000Y-69424285D01*
X137608571Y-69567142D01*
M02*
