M48
;DRILL file {KiCad 5.0.2+dfsg1-1~bpo9+1} date Tue 18 Jun 2019 09:36:51 IST
;FORMAT={3:3/ absolute / metric / suppress leading zeros}
FMAT,2
METRIC,TZ
T1C0.800
T2C0.900
T3C1.000
T4C1.100
%
G90
G05
T1
X135890Y-60960
X134620Y-45720
X144780Y-45720
X137160Y-49530
X142160Y-49530
X134620Y-73660
X144780Y-73660
X133350Y-36830
X133350Y-41830
X135890Y-53340
X135890Y-55880
X135890Y-58420
X135890Y-63500
X135890Y-66040
X135890Y-68580
X143510Y-53340
X143510Y-55880
X143510Y-58420
X143510Y-60960
X143510Y-63500
X143510Y-66040
X143510Y-68580
T2
X138430Y-78740
X140970Y-78740
T3
X147066Y-53340
X147066Y-55880
X147066Y-58420
X147066Y-60960
X147066Y-63500
X147066Y-66040
X147066Y-68580
X132334Y-53340
X132334Y-55880
X132334Y-58420
X132334Y-60960
X132334Y-63500
X132334Y-66040
X132334Y-68580
X133350Y-33020
X135890Y-33020
X138430Y-33020
X140970Y-33020
X143510Y-33020
X146050Y-33020
T4
X137160Y-36830
X137160Y-41330
X143660Y-36830
X143660Y-41330
T0
M30
