G04 #@! TF.GenerationSoftware,KiCad,Pcbnew,5.0.2+dfsg1-1~bpo9+1*
G04 #@! TF.CreationDate,2019-06-18T09:36:45+01:00*
G04 #@! TF.ProjectId,t84opti,7438346f-7074-4692-9e6b-696361645f70,rev?*
G04 #@! TF.SameCoordinates,Original*
G04 #@! TF.FileFunction,Copper,L1,Top*
G04 #@! TF.FilePolarity,Positive*
%FSLAX46Y46*%
G04 Gerber Fmt 4.6, Leading zero omitted, Abs format (unit mm)*
G04 Created by KiCad (PCBNEW 5.0.2+dfsg1-1~bpo9+1) date Tue 18 Jun 2019 09:36:45 IST*
%MOMM*%
%LPD*%
G01*
G04 APERTURE LIST*
G04 #@! TA.AperFunction,ComponentPad*
%ADD10C,1.600000*%
G04 #@! TD*
G04 #@! TA.AperFunction,ComponentPad*
%ADD11R,1.800000X1.800000*%
G04 #@! TD*
G04 #@! TA.AperFunction,ComponentPad*
%ADD12C,1.800000*%
G04 #@! TD*
G04 #@! TA.AperFunction,ComponentPad*
%ADD13C,2.000000*%
G04 #@! TD*
G04 #@! TA.AperFunction,ComponentPad*
%ADD14R,1.700000X1.700000*%
G04 #@! TD*
G04 #@! TA.AperFunction,ComponentPad*
%ADD15O,1.700000X1.700000*%
G04 #@! TD*
G04 #@! TA.AperFunction,ComponentPad*
%ADD16R,1.600000X1.600000*%
G04 #@! TD*
G04 #@! TA.AperFunction,ComponentPad*
%ADD17O,1.600000X1.600000*%
G04 #@! TD*
G04 #@! TA.AperFunction,Conductor*
%ADD18C,0.250000*%
G04 #@! TD*
G04 APERTURE END LIST*
D10*
G04 #@! TO.P,C2,1*
G04 #@! TO.N,Net-(C2-Pad1)*
X133350000Y-36830000D03*
G04 #@! TO.P,C2,2*
G04 #@! TO.N,Net-(C2-Pad2)*
X133350000Y-41830000D03*
G04 #@! TD*
G04 #@! TO.P,C1,1*
G04 #@! TO.N,VCC*
X137160000Y-49530000D03*
G04 #@! TO.P,C1,2*
G04 #@! TO.N,GND*
X142160000Y-49530000D03*
G04 #@! TD*
D11*
G04 #@! TO.P,D1,1*
G04 #@! TO.N,GND*
X138430000Y-78740000D03*
D12*
G04 #@! TO.P,D1,2*
G04 #@! TO.N,Net-(D1-Pad2)*
X140970000Y-78740000D03*
G04 #@! TD*
D13*
G04 #@! TO.P,SW1,2*
G04 #@! TO.N,GND*
X137160000Y-41330000D03*
G04 #@! TO.P,SW1,1*
G04 #@! TO.N,Net-(C2-Pad1)*
X137160000Y-36830000D03*
G04 #@! TO.P,SW1,2*
G04 #@! TO.N,GND*
X143660000Y-41330000D03*
G04 #@! TO.P,SW1,1*
G04 #@! TO.N,Net-(C2-Pad1)*
X143660000Y-36830000D03*
G04 #@! TD*
D14*
G04 #@! TO.P,J1,1*
G04 #@! TO.N,GND*
X146050000Y-33020000D03*
D15*
G04 #@! TO.P,J1,2*
X143510000Y-33020000D03*
G04 #@! TO.P,J1,3*
G04 #@! TO.N,VCC*
X140970000Y-33020000D03*
G04 #@! TO.P,J1,4*
G04 #@! TO.N,Net-(J1-Pad4)*
X138430000Y-33020000D03*
G04 #@! TO.P,J1,5*
G04 #@! TO.N,Net-(J1-Pad5)*
X135890000Y-33020000D03*
G04 #@! TO.P,J1,6*
G04 #@! TO.N,Net-(C2-Pad1)*
X133350000Y-33020000D03*
G04 #@! TD*
G04 #@! TO.P,J3,7*
G04 #@! TO.N,Net-(J3-Pad7)*
X147066000Y-68580000D03*
G04 #@! TO.P,J3,6*
G04 #@! TO.N,Net-(J3-Pad6)*
X147066000Y-66040000D03*
G04 #@! TO.P,J3,5*
G04 #@! TO.N,Net-(J3-Pad5)*
X147066000Y-63500000D03*
G04 #@! TO.P,J3,4*
G04 #@! TO.N,Net-(J1-Pad4)*
X147066000Y-60960000D03*
G04 #@! TO.P,J3,3*
G04 #@! TO.N,Net-(J1-Pad5)*
X147066000Y-58420000D03*
G04 #@! TO.P,J3,2*
G04 #@! TO.N,Net-(J3-Pad2)*
X147066000Y-55880000D03*
D14*
G04 #@! TO.P,J3,1*
G04 #@! TO.N,GND*
X147066000Y-53340000D03*
G04 #@! TD*
G04 #@! TO.P,J2,1*
G04 #@! TO.N,VCC*
X132334000Y-53340000D03*
D15*
G04 #@! TO.P,J2,2*
G04 #@! TO.N,Net-(J2-Pad2)*
X132334000Y-55880000D03*
G04 #@! TO.P,J2,3*
G04 #@! TO.N,Net-(J2-Pad3)*
X132334000Y-58420000D03*
G04 #@! TO.P,J2,4*
G04 #@! TO.N,Net-(C2-Pad2)*
X132334000Y-60960000D03*
G04 #@! TO.P,J2,5*
G04 #@! TO.N,Net-(J2-Pad5)*
X132334000Y-63500000D03*
G04 #@! TO.P,J2,6*
G04 #@! TO.N,Net-(J2-Pad6)*
X132334000Y-66040000D03*
G04 #@! TO.P,J2,7*
G04 #@! TO.N,Net-(J2-Pad7)*
X132334000Y-68580000D03*
G04 #@! TD*
D16*
G04 #@! TO.P,U1,1*
G04 #@! TO.N,VCC*
X135890000Y-53340000D03*
D17*
G04 #@! TO.P,U1,8*
G04 #@! TO.N,Net-(J3-Pad7)*
X143510000Y-68580000D03*
G04 #@! TO.P,U1,2*
G04 #@! TO.N,Net-(J2-Pad2)*
X135890000Y-55880000D03*
G04 #@! TO.P,U1,9*
G04 #@! TO.N,Net-(J3-Pad6)*
X143510000Y-66040000D03*
G04 #@! TO.P,U1,3*
G04 #@! TO.N,Net-(J2-Pad3)*
X135890000Y-58420000D03*
G04 #@! TO.P,U1,10*
G04 #@! TO.N,Net-(J3-Pad5)*
X143510000Y-63500000D03*
G04 #@! TO.P,U1,4*
G04 #@! TO.N,Net-(C2-Pad2)*
X135890000Y-60960000D03*
G04 #@! TO.P,U1,11*
G04 #@! TO.N,Net-(J1-Pad4)*
X143510000Y-60960000D03*
G04 #@! TO.P,U1,5*
G04 #@! TO.N,Net-(J2-Pad5)*
X135890000Y-63500000D03*
G04 #@! TO.P,U1,12*
G04 #@! TO.N,Net-(J1-Pad5)*
X143510000Y-58420000D03*
G04 #@! TO.P,U1,6*
G04 #@! TO.N,Net-(J2-Pad6)*
X135890000Y-66040000D03*
G04 #@! TO.P,U1,13*
G04 #@! TO.N,Net-(J3-Pad2)*
X143510000Y-55880000D03*
G04 #@! TO.P,U1,7*
G04 #@! TO.N,Net-(J2-Pad7)*
X135890000Y-68580000D03*
G04 #@! TO.P,U1,14*
G04 #@! TO.N,GND*
X143510000Y-53340000D03*
G04 #@! TD*
G04 #@! TO.P,R2,2*
G04 #@! TO.N,Net-(C2-Pad2)*
X134620000Y-45720000D03*
D10*
G04 #@! TO.P,R2,1*
G04 #@! TO.N,VCC*
X144780000Y-45720000D03*
G04 #@! TD*
G04 #@! TO.P,R1,1*
G04 #@! TO.N,Net-(D1-Pad2)*
X144780000Y-73660000D03*
D17*
G04 #@! TO.P,R1,2*
G04 #@! TO.N,Net-(J2-Pad5)*
X134620000Y-73660000D03*
G04 #@! TD*
D18*
G04 #@! TO.N,Net-(C2-Pad2)*
X132334000Y-60960000D02*
X133509300Y-60960000D01*
X134613000Y-59602400D02*
X133509300Y-60706100D01*
X133509300Y-60706100D02*
X133509300Y-60960000D01*
X134620000Y-59602400D02*
X134613000Y-59602400D01*
X134620000Y-59602400D02*
X134620000Y-45720000D01*
X135890000Y-60960000D02*
X135890000Y-59834700D01*
X135890000Y-59834700D02*
X134852000Y-59834700D01*
X134852000Y-59834700D02*
X134620000Y-59602400D01*
G04 #@! TO.N,VCC*
X144780000Y-45720000D02*
X140970000Y-41910000D01*
X140970000Y-41910000D02*
X140970000Y-33020000D01*
G04 #@! TO.N,Net-(J1-Pad4)*
X144533100Y-59602400D02*
X145890700Y-60960000D01*
X143510000Y-59834700D02*
X144300800Y-59834700D01*
X144300800Y-59834700D02*
X144533100Y-59602400D01*
X144533100Y-59602400D02*
X144667800Y-59467700D01*
X144667800Y-59467700D02*
X144667800Y-55431800D01*
X144667800Y-55431800D02*
X143846000Y-54610000D01*
X143846000Y-54610000D02*
X143109500Y-54610000D01*
X143109500Y-54610000D02*
X139605300Y-51105800D01*
X139605300Y-51105800D02*
X139605300Y-35370600D01*
X139605300Y-35370600D02*
X138430000Y-34195300D01*
X147066000Y-60960000D02*
X145890700Y-60960000D01*
X138430000Y-33020000D02*
X138430000Y-34195300D01*
X143510000Y-60960000D02*
X143510000Y-59834700D01*
G04 #@! TO.N,Net-(J1-Pad5)*
X143510000Y-58420000D02*
X143510000Y-57857300D01*
X143510000Y-57857300D02*
X135835000Y-50181900D01*
X135835000Y-50181900D02*
X135835000Y-34250700D01*
X135835000Y-34250700D02*
X135890000Y-34195300D01*
X135890000Y-34195300D02*
X135890000Y-33020000D01*
G04 #@! TO.N,Net-(J2-Pad6)*
X135890000Y-66040000D02*
X132334000Y-66040000D01*
G04 #@! TO.N,Net-(J2-Pad7)*
X135890000Y-68580000D02*
X132334000Y-68580000D01*
G04 #@! TO.N,GND*
X143510000Y-53340000D02*
X143510000Y-52214700D01*
X143510000Y-52214700D02*
X142626000Y-51331000D01*
X142626000Y-51331000D02*
X142626000Y-49530000D01*
X143660000Y-41330000D02*
X145920000Y-43589600D01*
X145920000Y-43589600D02*
X145920000Y-46236700D01*
X145920000Y-46236700D02*
X142626000Y-49530000D01*
X142626000Y-49530000D02*
X142160000Y-49530000D01*
G04 #@! TD*
M02*
